<svg width="20" height="20" xmlns="http://www.w3.org/2000/svg" xmlns:xlink="http://www.w3.org/1999/xlink"><defs><path d="M20.549 5c.421 0 .695.342.613.762l-.761 3.919c-.157.803-.931 1.493-1.851 1.649l-9.724 2.08c-.456.098-.594.413-.543.84.075.622.14 1.033 1.092 1.037h7.936c.012 0 .021.007.034.007.013 0 .022-.007.035-.007a1 1 0 1 1 0 2H8.986c-1.766 0-3.058-1.227-3.105-2.952l-.23-8.258c-.017-.607-.365-1.098-.916-1.295L2.683 4.05l-.005-.008A1.055 1.055 0 0 1 2 3.06c0-.053.023-.1.03-.15.001-.018.009-.037.012-.056.095-.467.48-.821.969-.844l.019-.004c.011 0 .019-.006.03-.006.044 0 .082.02.125.025.072.007.144.002.215.027l2.336.833C6.701 3.229 7.372 4.014 7.599 5h12.95zM16.38 18.43a1.786 1.786 0 1 1 0 3.572 1.786 1.786 0 0 1 0-3.573zm-9 0a1.786 1.786 0 1 1 0 3.572 1.786 1.786 0 0 1 0-3.573z" id="a"/></defs><use fill="#fff" xlink:href="#a" transform="translate(-2 -2)" fill-rule="evenodd"/></svg>