<svg width="24" height="24" fill="none" xmlns="http://www.w3.org/2000/svg"><g clip-path="url(#clip0)" fill="#000"><path d="M7.01 16.027a1.001 1.001 0 0 1-1.001-.681l-2.003-6.01a1.052 1.052 0 0 1 2.003-.642l1.712 5.15 11.637-2.685 2.152-5.15H9.014a11.474 11.474 0 0 1-7.28-3.004L.34 1.752A1.002 1.002 0 0 1 1.663.25l1.392 1.212a9.482 9.482 0 0 0 5.958 2.544h14.02a1 1 0 0 1 .92 1.393L20.95 12.41a1.001 1.001 0 0 1-.701.58L7.23 15.998a.833.833 0 0 1-.22.03zM4 23a3 3 0 1 1 0-6 3 3 0 0 1 0 6zm0-4a1 1 0 1 0 0 2 1 1 0 0 0 0-2zm12 4a3 3 0 1 1 0-5.999A3 3 0 0 1 16 23zm0-4a1 1 0 1 0 0 2 1 1 0 0 0 0-2z"/></g><defs><clipPath id="clip0"><path fill="#fff" d="M0 0h24v24H0z"/></clipPath></defs></svg>