<svg width="21" height="17" xmlns="http://www.w3.org/2000/svg" xmlns:xlink="http://www.w3.org/1999/xlink"><defs><path d="M12.959 16.026A1.3 1.3 0 0 1 14 17.3v2.4a1.3 1.3 0 0 1-1.3 1.3H3.3A1.3 1.3 0 0 1 2 19.7v-2.4c0-.113.014-.222.041-.326A1.3 1.3 0 0 1 1 15.7v-2.4A1.3 1.3 0 0 1 2.3 12h9.4a1.3 1.3 0 0 1 1.3 1.3v2.4c0 .113-.014.222-.041.326zM15 20v-1.5h4a1.5 1.5 0 0 0 1.5-1.5V7A1.5 1.5 0 0 0 19 5.5H6A1.5 1.5 0 0 0 4.5 7v4H3V7a3 3 0 0 1 3-3h13a3 3 0 0 1 3 3v10a3 3 0 0 1-3 3h-4zM2.723 13.25a.39.39 0 0 0-.39.39v1.72c0 .215.175.39.39.39h8.554a.39.39 0 0 0 .39-.39v-1.72a.39.39 0 0 0-.39-.39H2.723zm1 4a.39.39 0 0 0-.39.39v1.72c0 .215.175.39.39.39h8.554a.39.39 0 0 0 .39-.39v-1.72a.39.39 0 0 0-.39-.39H3.723z" id="a"/></defs><use xlink:href="#a" transform="translate(-1 -4)" fill-rule="evenodd"/></svg>