<svg width="24" height="24" xmlns="http://www.w3.org/2000/svg" xmlns:xlink="http://www.w3.org/1999/xlink"><defs><path d="M7.835 23.98H2.938C1.318 23.98 0 22.622 0 20.955v-5.04c0-1.666 1.318-3.023 2.938-3.023h4.897c1.62 0 2.938 1.357 2.938 3.024v5.039c0 1.667-1.318 3.023-2.938 3.023zm-4.897-9.071c-.54 0-.98.451-.98 1.008v5.039c0 .556.44 1.008.98 1.008h4.897c.54 0 .98-.452.98-1.008v-5.04c0-.556-.44-1.007-.98-1.007H2.938zM16.165 2.036c-.54 0-.98.452-.98 1.008v5.04c0 .556.44 1.007.98 1.007h4.897c.54 0 .98-.451.98-1.008V3.044c0-.556-.44-1.008-.98-1.008h-4.897zm4.897 9.07h-4.897c-1.62 0-2.938-1.356-2.938-3.023V3.044c0-1.667 1.318-3.023 2.938-3.023h4.897C22.682.02 24 1.377 24 3.044v5.04c0 1.666-1.318 3.023-2.938 3.023zM2.938 2.017c-.54 0-.98.451-.98 1.007v5.04c0 .556.44 1.007.98 1.007h4.897c.54 0 .98-.451.98-1.007v-5.04c0-.556-.44-1.007-.98-1.007H2.938zm4.897 9.07H2.938C1.318 11.086 0 9.73 0 8.063v-5.04C0 1.357 1.318 0 2.938 0h4.897c1.62 0 2.938 1.357 2.938 3.023v5.04c0 1.667-1.318 3.023-2.938 3.023zm8.33 3.844c-.54 0-.98.451-.98 1.007v5.04c0 .556.44 1.007.98 1.007h4.897c.54 0 .98-.451.98-1.007v-5.04c0-.556-.44-1.007-.98-1.007h-4.897zM21.062 24h-4.897c-1.62 0-2.938-1.357-2.938-3.023v-5.04c0-1.667 1.318-3.023 2.938-3.023h4.897c1.62 0 2.938 1.356 2.938 3.023v5.04C24 22.643 22.682 24 21.062 24z" id="a"/></defs><use xlink:href="#a" fill-rule="evenodd"/></svg>