<svg width="18" height="16" fill="none" xmlns="http://www.w3.org/2000/svg"><path d="M12.969 0c-1.646 0-3.14.778-3.885 2.002a.091.091 0 0 1-.08.047.093.093 0 0 1-.077-.046C8.18.778 6.667 0 5.023 0 2.357 0-1.22 2.01.409 7.492 2.269 12.85 9.002 16 9.006 16c.002 0 6.727-3.15 8.586-8.508C19.22 2.01 15.635 0 12.969 0zm2.51 3.126c.772 1.034.544 2.602.209 3.752-1.217 3.436-4.987 5.897-6.684 6.86-1.698-.961-5.473-3.42-6.69-6.86-.336-1.152-.566-2.723.206-3.756C3.137 2.294 4.217 2 5.023 2c.932 0 1.778.492 2.197 1.045C9 5.028 9.004 5.028 10.792 3.043A2.762 2.762 0 0 1 12.969 2c.808 0 1.892.296 2.51 1.126z" fill="#333"/></svg>