<svg width="24" height="24" fill="none" xmlns="http://www.w3.org/2000/svg"><path d="M18.083 20H5.917l-4.356-4.775a2.109 2.109 0 0 1-.415-.679 2.265 2.265 0 0 1 0-1.603 2.11 2.11 0 0 1 .415-.679l1.5-1.647c.176-.196.386-.35.617-.457a1.75 1.75 0 0 1 1.46 0c.231.106.441.261.618.457l1.898 2.085h8.711l1.898-2.085c.177-.196.386-.35.618-.457a1.75 1.75 0 0 1 1.46 0c.23.106.44.261.617.457l1.48 1.647c.178.194.32.425.416.679a2.264 2.264 0 0 1 0 1.603 2.108 2.108 0 0 1-.415.679L18.083 20zM6.695 17.915h10.61l3.796-4.17-1.51-1.648-2.457 2.69H6.866l-2.458-2.69-1.5 1.648 3.787 4.17z" fill="#000"/><path d="M18 13h-2V4a1 1 0 0 0-1-1H9a1 1 0 0 0-1 1v9H6V4a3 3 0 0 1 3-3h6a3 3 0 0 1 3 3v9zM5.009 24h-.197a1.077 1.077 0 0 1-.367-.127.933.933 0 0 1-.28-.24.794.794 0 0 1-.148-.317.744.744 0 0 1 .006-.342l.986-4.273a.877.877 0 0 1 .428-.555 1.124 1.124 0 0 1 .755-.13c.13.023.252.068.362.131a.95.95 0 0 1 .277.241.813.813 0 0 1 .15.314.758.758 0 0 1 0 .34l-.986 4.274a.846.846 0 0 1-.35.497c-.18.125-.405.19-.636.187zm13.982 0a1.086 1.086 0 0 1-.636-.187.845.845 0 0 1-.35-.497l-.985-4.273a.758.758 0 0 1 0-.34.813.813 0 0 1 .149-.315.951.951 0 0 1 .277-.24 1.122 1.122 0 0 1 1.117-.001.95.95 0 0 1 .278.24.814.814 0 0 1 .15.314l.986 4.273a.76.76 0 0 1 .006.342.793.793 0 0 1-.149.317.932.932 0 0 1-.28.24 1.076 1.076 0 0 1-.366.127h-.197z" fill="#000"/></svg>