<svg width="24" height="24" fill="none" xmlns="http://www.w3.org/2000/svg"><g clip-path="url(#clip0)" fill="#f06989"><path d="M16.002 23.994a1.001 1.001 0 1 1-.14-2c.16 0 4.218-.76 4.138-6.998-.06-5.189-6.397-10.267-9.206-12.267a16.597 16.597 0 0 1-1.789 4.819 23.044 23.044 0 0 1-2.149 3.15c-1.529 1.969-2.848 3.668-2.848 6.297a4.77 4.77 0 0 0 1.279 3.56 5.836 5.836 0 0 0 3.718 1.44 1 1 0 1 1 0 1.999 7.775 7.775 0 0 1-5.137-2 6.738 6.738 0 0 1-1.86-4.998c0-3.32 1.66-5.459 3.269-7.518a22.174 22.174 0 0 0 2-2.89A13.349 13.349 0 0 0 9.004 1a1 1 0 0 1 .52-.87 1 1 0 0 1 1 0c.48.31 11.384 7.138 11.474 14.866.1 7.998-5.797 8.998-5.857 8.998h-.14z"/><path d="M14.835 20a.983.983 0 0 1-.808-.417 1.005 1.005 0 0 1-.034-1.113 5.617 5.617 0 0 0 .842-4.35 6.327 6.327 0 0 0-1.496-2.67 5.41 5.41 0 0 1-.475 2.432 5.363 5.363 0 0 1-1.507 1.958 1.497 1.497 0 0 1-1.268.17 2.368 2.368 0 0 1-.99-.73 3.451 3.451 0 0 0 .485 3 1.006 1.006 0 0 1-.015 1.415.986.986 0 0 1-1.402-.015c-.099-.11-2.456-2.57-.178-7.16a.995.995 0 0 1 .902-.52.984.984 0 0 1 .881.6c.2.478.46.929.773 1.34a4.86 4.86 0 0 0 .485-4.62 1.009 1.009 0 0 1 .308-1.09.986.986 0 0 1 1.12-.1 9.913 9.913 0 0 1 4.358 5.49 7.589 7.589 0 0 1-1.12 5.91.994.994 0 0 1-.861.47z"/></g><defs><clipPath id="clip0"><path fill="#fff" d="M0 0h24v24H0z"/></clipPath></defs></svg>