<svg width="24" height="24" fill="none" xmlns="http://www.w3.org/2000/svg"><path d="M19.58 6.757c.197.507.333 1.088.37 1.942.044.853.05 1.125.05 3.301s-.012 2.448-.05 3.301c-.037.847-.173 1.435-.37 1.942-.204.525-.476.97-.922 1.415-.445.446-.89.718-1.415.922-.507.197-1.088.333-1.942.37-.853.044-1.125.05-3.301.05s-2.448-.012-3.301-.05c-.847-.037-1.435-.173-1.942-.37a3.909 3.909 0 0 1-1.415-.922 3.91 3.91 0 0 1-.922-1.415c-.197-.507-.333-1.088-.37-1.942C4.005 14.448 4 14.176 4 12s.012-2.448.05-3.301c.037-.847.173-1.435.37-1.942a3.91 3.91 0 0 1 .922-1.415 3.91 3.91 0 0 1 1.415-.922c.507-.197 1.088-.333 1.942-.37C9.552 4.005 9.824 4 12 4s2.448.012 3.301.05c.847.037 1.435.173 1.942.37.525.204.97.476 1.415.922.446.445.718.89.922 1.415zM11.994 8c-2.208 0-4 1.792-4 4 0 2.207 1.792 4 4 4 2.207 0 4-1.793 4-4 0-2.208-1.793-4-4-4zm0 1.333A2.668 2.668 0 0 1 14.66 12a2.668 2.668 0 0 1-2.667 2.667A2.668 2.668 0 0 1 9.327 12a2.668 2.668 0 0 1 2.667-2.667zm4.272-.647a.958.958 0 1 0 0-1.916.958.958 0 0 0 0 1.916z" fill="#5E6C84"/></svg>