<svg viewBox="0 0 105 18"><path class="cls-1" d="M61.4 4.807c0 .792.03 1.549 0 2.3a20.765 20.765 0 0 1-.94 6.063 5.039 5.039 0 0 1-1.28 2.135 3.2 3.2 0 0 1-2.79.838.637.637 0 0 1-.66-.772 10.067 10.067 0 0 1 0-1.1.422.422 0 0 1 .49-.5.639.639 0 0 1 .14 0 1.469 1.469 0 0 0 1.65-1.092 11.431 11.431 0 0 0 .71-2.767 55.666 55.666 0 0 0 .36-6.707V3c.03-.545.11-.645.64-.647q3.66-.012 7.33 0c.5 0 .62.154.65.656.01.114 0 .229 0 .343V14.9c0 .16.01.322 0 .481a.562.562 0 0 1-.65.606c-.38.01-.76.014-1.14 0a.54.54 0 0 1-.6-.639c-.01-.16 0-.32 0-.481V4.846a20.37 20.37 0 0 0-3.91-.039zm-14.68 4.31c.95 1.425 1.87 2.8 2.79 4.178.42.641.86 1.278 1.28 1.925a.674.674 0 0 1 .19.721 4.17 4.17 0 0 1-.42.043 9.867 9.867 0 0 0-1.2.012 1.671 1.671 0 0 1-1.76-.957c-1.01-1.564-2.07-3.089-3.11-4.631H42.7a5.392 5.392 0 0 0-.04.544v4.19c-.01.728-.12.837-.82.843-.33 0-.67.014-1.01 0a.528.528 0 0 1-.57-.6c-.01-.137-.01-.275-.01-.412V3.088c.02-.626.1-.72.7-.735.38-.009.76-.014 1.14.006a.491.491 0 0 1 .56.537 3.842 3.842 0 0 1 .01.48v4.6c.54 0 1.05.038 1.56-.006a.772.772 0 0 0 .42-.376c.74-1.193 1.47-2.4 2.2-3.6.21-.349.44-.689.64-1.042a1.091 1.091 0 0 1 1.05-.606c.71.028 1.42-.036 2.22.051a13.941 13.941 0 0 1-1.28 2.274c-.44.746-.91 1.469-1.36 2.2s-.91 1.467-1.39 2.246zm35.61 4.509H76.4c-.25.53-.52 1.054-.74 1.594a1.08 1.08 0 0 1-1.19.774c-.38-.037-.76 0-1.14-.009-.5-.017-.59-.171-.38-.64.74-1.585 1.49-3.165 2.23-4.747 1.14-2.425 2.27-4.851 3.41-7.274a4.229 4.229 0 0 1 .44-.764.4.4 0 0 1 .72.034 4.22 4.22 0 0 1 .33.6l5.58 11.9a.622.622 0 0 1 .05.123c.28.64.21.766-.46.774-.38 0-.76-.014-1.14 0a.915.915 0 0 1-.95-.6l-.83-1.765zm-4.86-2.358c1.31.005 2.52 0 3.79 0-.64-1.383-1.25-2.715-1.9-4.124-.64 1.4-1.24 2.709-1.89 4.124zm-48.85-9.35a6.506 6.506 0 0 1 4.58 1.794 2.171 2.171 0 0 1 .28.3.41.41 0 0 1-.05.608c-.37.293-.75.573-1.14.835a.73.73 0 0 1-.77 0 4.623 4.623 0 0 1-.46-.28 4.9 4.9 0 0 0-5.53.308 3.925 3.925 0 0 0-1.32 1.943 5.27 5.27 0 0 0 .16 3.808 4.124 4.124 0 0 0 3.67 2.564c.13.013.27.006.4.016a3.978 3.978 0 0 0 2.78-.773.993.993 0 0 1 1.39.019c.24.206.51.374.75.581a.445.445 0 0 1 .05.754 6.537 6.537 0 0 1-.98.83 6.713 6.713 0 0 1-4.59 1.091 7.42 7.42 0 0 1-2.87-.836 6.466 6.466 0 0 1-3.24-4.32 7.666 7.666 0 0 1 .71-5.82 6.46 6.46 0 0 1 4.52-3.221c.54-.114 1.1-.137 1.66-.201zm-21.36.715l4.97 4.1V14H2.29V6.732l4.97-4.1m0-2.625a1.342 1.342 0 0 0-.84.3L.5 5.2A1.365 1.365 0 0 0 0 6.265v8.718a1.354 1.354 0 0 0 1.34 1.368h11.85a1.354 1.354 0 0 0 1.34-1.368V6.265a1.4 1.4 0 0 0-.5-1.065L8.1.308a1.3 1.3 0 0 0-.84-.3zM92.49 18c-.01-.636-.01-1.273-.01-1.9.5-.132 9.07-.169 10.11-.042V18H105v-4.209a1.708 1.708 0 0 0-1.01-.249 4.653 4.653 0 0 1-1.27-.05V3.355c0-.183 0-.366-.01-.549a.416.416 0 0 0-.42-.439c-.11-.01-.22-.014-.33-.014h-7.45c-.7 0-.78.094-.79.785-.05 1.6-.08 3.2-.14 4.8a16.076 16.076 0 0 1-.57 3.778 9.831 9.831 0 0 1-.6 1.439.6.6 0 0 1-.65.381 9.53 9.53 0 0 0-1 0 .574.574 0 0 0-.67.715c-.01 1.25 0 2.5-.01 3.749h2.41zm3.66-13.222h4.14V13.5h-5.26a29.639 29.639 0 0 0 1.12-8.723zM18.22 16.352a1.157 1.157 0 0 1-1.14-1.173A1.157 1.157 0 0 1 18.22 14a1.159 1.159 0 0 1 1.15 1.173 1.159 1.159 0 0 1-1.15 1.178z"/></svg>