<svg width="32" height="20" xmlns="http://www.w3.org/2000/svg"><g fill="none"><path fill="#FF5F00" d="M11.665 2.151h8.615v15.51h-8.615z"/><path d="M12.212 9.907a9.853 9.853 0 0 1 3.76-7.756A9.834 9.834 0 0 0 2.656 3.214a9.875 9.875 0 0 0 0 13.383 9.834 9.834 0 0 0 13.318 1.063 9.853 9.853 0 0 1-3.761-7.753z" fill="#EB001B"/><path d="M31.904 9.907a9.864 9.864 0 0 1-5.543 8.871 9.832 9.832 0 0 1-10.388-1.118 9.87 9.87 0 0 0 3.762-7.755 9.87 9.87 0 0 0-3.762-7.754A9.832 9.832 0 0 1 26.36 1.033a9.864 9.864 0 0 1 5.543 8.871v.003z" fill="#F79E1B"/></g></svg>