<svg width="24" height="24" fill="none" xmlns="http://www.w3.org/2000/svg"><path d="M8 11H3a3 3 0 0 1-3-3V3a3 3 0 0 1 3-3h5a3 3 0 0 1 3 3v5a3 3 0 0 1-3 3zM3 2a1 1 0 0 0-1 1v5a1 1 0 0 0 1 1h5a1 1 0 0 0 1-1V3a1 1 0 0 0-1-1H3zm18 9h-5a3 3 0 0 1-3-3V3a3 3 0 0 1 3-3h5a3 3 0 0 1 3 3v5a3 3 0 0 1-3 3zm-5-9a1 1 0 0 0-1 1v5a1 1 0 0 0 1 1h5a1 1 0 0 0 1-1V3a1 1 0 0 0-1-1h-5zM8 24H3a3 3 0 0 1-3-3v-5a3 3 0 0 1 3-3h5a3 3 0 0 1 3 3v5a3 3 0 0 1-3 3zm-5-9a1 1 0 0 0-1 1v5a1 1 0 0 0 1 1h5a1 1 0 0 0 1-1v-5a1 1 0 0 0-1-1H3zm18 9h-5a3 3 0 0 1-3-3v-5a3 3 0 0 1 3-3h5a3 3 0 0 1 3 3v5a3 3 0 0 1-3 3zm-5-9a1 1 0 0 0-1 1v5a1 1 0 0 0 1 1h5a1 1 0 0 0 1-1v-5a1 1 0 0 0-1-1h-5z" fill="#fff"/></svg>