<svg width="57" height="16" fill="none" xmlns="http://www.w3.org/2000/svg"><path d="M40 8v8h5.073v-4.5h5.106c2.666 0 4.943-1.453 5.821-3.5H40z" fill="#006848"/><path d="M40 0c.016.45.079.901.173 1.317.016.086.048.19.063.277.016.035.016.07.032.121C41.151 4.782 43.752 7 46.826 7h9.08A5.84 5.84 0 0 0 56 5.943c0-1.733-.678-3.292-1.766-4.384C53.273.59 51.996 0 50.578 0H40z" fill="#02AFFF"/><path d="M31.035 1.69l-3.581 7.762h-.362V0H22v16h4.32a2.91 2.91 0 0 0 2.645-1.69l3.581-7.762h.362V16H38V0h-4.32a2.91 2.91 0 0 0-2.645 1.69zM7.736 2.1L9.83 9.453h.354l2.08-7.351C12.618.853 13.73 0 15.003 0H20v16h-4.996V6.548h-.354L11.78 16H8.22L5.35 6.548h-.354V16H0V0h4.996c1.273 0 2.385.853 2.74 2.1z" fill="#006848"/></svg>