<svg width="24" height="24" fill="none" xmlns="http://www.w3.org/2000/svg"><g clip-path="url(#clip0)"><path d="M18.4 24c-.5-.003-.997-.07-1.48-.2-3-.84-6.42-3.09-10-6.7C2.51 12.73.86 9.36.25 7.31A5.91 5.91 0 0 1 2.46.83l.33-.24A3 3 0 0 1 5.14.05a3 3 0 0 1 2 1.31l2.19 3.17A2.8 2.8 0 0 1 9.7 6.9L9 9.2a.78.78 0 0 0 .16.75l1 1.07c.89 1 1.83 1.91 2.8 2.81l1.09 1a.8.8 0 0 0 .74.14l2.3-.68a2.799 2.799 0 0 1 2.37.37l3.18 2.16a3 3 0 0 1 1.3 2 3.16 3.16 0 0 1-.57 2.42l-.2.28A5.94 5.94 0 0 1 18.4 24zM4.6 2a1.07 1.07 0 0 0-.6.21l-.33.24a3.93 3.93 0 0 0-1.51 4.29c.78 2.59 3 5.77 6.14 8.94 4.19 4.19 7.29 5.68 9.15 6.19a3.86 3.86 0 0 0 4.11-1.52l.2-.27a1.17 1.17 0 0 0 .22-.91 1.07 1.07 0 0 0-.45-.7l-3.18-2.16a.82.82 0 0 0-.68-.1l-2.31.68a2.8 2.8 0 0 1-2.63-.57l-1.11-1c-1-.93-2-1.92-2.93-2.92l-1-1.09a2.8 2.8 0 0 1-.59-2.67l.68-2.31a.79.79 0 0 0-.1-.67L5.52 2.48A1.09 1.09 0 0 0 4.8 2h-.2z" fill="#000"/></g><defs><clipPath id="clip0"><path fill="#fff" d="M0 0h24v24H0z"/></clipPath></defs></svg>