<svg width="24" height="24" xmlns="http://www.w3.org/2000/svg" xmlns:xlink="http://www.w3.org/1999/xlink"><defs><path d="M15.668 4.7a.748.748 0 0 1 .328 1.005L9.439 18.62a.748.748 0 0 1-1.332-.678l6.556-12.913a.75.75 0 0 1 1.005-.328zM12 22.505c5.792 0 10.505-4.713 10.505-10.505 0-5.793-4.713-10.505-10.505-10.505C6.208 1.495 1.495 6.207 1.495 12c0 5.792 4.713 10.505 10.505 10.505zM12 0c6.617 0 12 5.383 12 12s-5.383 12-12 12S0 18.617 0 12 5.383 0 12 0zM8.52 7.35a1.01 1.01 0 1 0 2.021 0 1.01 1.01 0 0 0-2.02 0zm3.515 0A2.508 2.508 0 0 1 9.53 9.856a2.507 2.507 0 0 1-2.504-2.504A2.507 2.507 0 0 1 9.53 4.846a2.508 2.508 0 0 1 2.505 2.505zm2.632 10.183a1.01 1.01 0 1 0-.001-2.02 1.01 1.01 0 0 0 0 2.02zm0-3.513a2.507 2.507 0 0 1 2.504 2.503 2.507 2.507 0 0 1-2.504 2.505 2.507 2.507 0 0 1-2.505-2.505 2.507 2.507 0 0 1 2.505-2.503z" id="a"/></defs><g fill="#fff" fill-rule="evenodd"><mask id="b"><use xlink:href="#a"/></mask><use xlink:href="#a"/><g mask="url(#b)"><path d="M0 0h24v24H0z"/></g></g></svg>