<svg width="24" height="24" fill="none" xmlns="http://www.w3.org/2000/svg"><g clip-path="url(#clip0)"><mask id="a" maskUnits="userSpaceOnUse" x="0" y="0" width="24" height="23"><path d="M12 16.43c.154 0 .307.047.437.143l5.105 3.724-1.95-6.029a.746.746 0 0 1 .27-.834l5.104-3.725h-6.308a.741.741 0 0 1-.707-.517L12 3.165l-1.95 6.027a.743.743 0 0 1-.707.517h-6.31l5.105 3.725c.26.19.37.527.27.834l-1.95 6.03 5.105-3.725a.737.737 0 0 1 .437-.144zM18.957 23a.737.737 0 0 1-.437-.143L12 18.1l-6.52 4.756a.738.738 0 0 1-.875 0 .748.748 0 0 1-.27-.834l2.49-7.699-6.52-4.758a.75.75 0 0 1-.27-.834.745.745 0 0 1 .707-.516h8.06l2.49-7.699a.743.743 0 0 1 1.414 0l2.491 7.699h8.058a.747.747 0 0 1 .436 1.35l-6.518 4.758 2.49 7.699a.747.747 0 0 1-.707.978z" fill="#fff"/></mask><g mask="url(#a)" fill="#fff"><path d="M12 16.43c.154 0 .307.047.437.143l5.105 3.724-1.95-6.029a.746.746 0 0 1 .27-.834l5.104-3.725h-6.308a.741.741 0 0 1-.707-.517L12 3.165l-1.95 6.027a.743.743 0 0 1-.707.517h-6.31l5.105 3.725c.26.19.37.527.27.834l-1.95 6.03 5.105-3.725a.737.737 0 0 1 .437-.144zM18.957 23a.737.737 0 0 1-.437-.143L12 18.1l-6.52 4.756a.738.738 0 0 1-.875 0 .748.748 0 0 1-.27-.834l2.49-7.699-6.52-4.758a.75.75 0 0 1-.27-.834.745.745 0 0 1 .707-.516h8.06l2.49-7.699a.743.743 0 0 1 1.414 0l2.491 7.699h8.058a.747.747 0 0 1 .436 1.35l-6.518 4.758 2.49 7.699a.747.747 0 0 1-.707.978z"/><path d="M23.802 0H0v23.909h23.802V0z"/></g></g><defs><clipPath id="clip0"><path fill="#fff" d="M0 0h24v24H0z"/></clipPath></defs></svg>