<svg width="24" height="24" fill="none" xmlns="http://www.w3.org/2000/svg"><g clip-path="url(#clip0)" fill="#f06989"><path d="M12 24a12 12 0 1 1 0-24 12 12 0 0 1 0 24zm0-22a10 10 0 1 0 0 20 10 10 0 0 0 0-20z"/><path d="M8 20a.999.999 0 0 1-.87-1.5l7.994-14a1.003 1.003 0 1 1 1.739 1l-7.994 14a1 1 0 0 1-.87.5zm1.5-10a2.5 2.5 0 1 1 0-5 2.5 2.5 0 0 1 0 5zm0-3a.5.5 0 1 0 0 1 .5.5 0 0 0 0-1zm4.99 12A2.5 2.5 0 1 1 17 16.47 2.508 2.508 0 0 1 14.49 19zm0-3.012a.491.491 0 1 0 .02.983.491.491 0 0 0-.02-.983z"/></g><defs><clipPath id="clip0"><path fill="#fff" d="M0 0h24v24H0z"/></clipPath></defs></svg>