<svg width="24" height="24" xmlns="http://www.w3.org/2000/svg" xmlns:xlink="http://www.w3.org/1999/xlink"><defs><path d="M1.96 10.145c0-4.513 3.7-8.185 8.25-8.185 4.547 0 8.25 3.672 8.25 8.185 0 4.512-3.703 8.185-8.25 8.185-4.55 0-8.25-3.673-8.25-8.185m21.75 12.179l-5.695-5.656a10.054 10.054 0 0 0 2.403-6.523C20.418 4.55 15.838 0 10.21 0 4.58 0 0 4.55 0 10.145 0 15.738 4.58 20.29 10.21 20.29c2.423 0 4.648-.848 6.4-2.254l5.72 5.68a.975.975 0 0 0 1.386-.007.98.98 0 0 0-.006-1.385" id="a"/></defs><g fill="none" fill-rule="evenodd"><mask id="b" fill="#fff"><use xlink:href="#a"/></mask><use fill="#000" xlink:href="#a"/><g mask="url(#b)" fill="#fff"><path d="M0 0h24v24H0z"/></g></g></svg>