<?xml version="1.0" encoding="utf-8"?><svg width="314" height="289" viewBox="0 0 314 289" xmlns="http://www.w3.org/2000/svg" xmlns:xlink="http://www.w3.org/1999/xlink"><svg width="18" height="17" fill="none" viewBox="0 0 18 17" id="aapayment" y="271.99" xmlns="http://www.w3.org/2000/svg"><path d="M3.892 7.32a1.172 1.172 0 0 1-1.175-1.17c0-.646.527-1.169 1.175-1.169.649 0 1.174.523 1.174 1.169s-.525 1.17-1.174 1.17zm-.886-5.835c0 .81-.658 1.467-1.47 1.473v6.396a1.479 1.479 0 0 1 1.47 1.462h11.971a1.477 1.477 0 0 1 1.48-1.463h.008V2.96l-.008.001c-.818 0-1.48-.66-1.48-1.475H3.006zM1.261 12.302A1.215 1.215 0 0 1 .042 11.09V1.212C.042.542.588 0 1.261 0h15.478c.673 0 1.22.543 1.22 1.212v9.878c0 .67-.547 1.212-1.22 1.212H1.261zm-.515 2.242A.745.745 0 0 1 0 13.8c0-.41.334-.743.746-.743h16.507c.413 0 .747.333.747.743s-.334.742-.747.742H.746zm16.507.97c.413 0 .747.333.747.743s-.334.743-.747.743H.747A.744.744 0 0 1 0 16.257c0-.41.334-.743.747-.743h16.506zM9 8.74a2.594 2.594 0 0 1-2.6-2.59A2.595 2.595 0 0 1 9 3.562a2.595 2.595 0 0 1 2.602 2.59A2.595 2.595 0 0 1 9 8.738zm5.108-1.42a1.172 1.172 0 0 1-1.174-1.168c0-.646.526-1.169 1.174-1.169.65 0 1.176.523 1.176 1.169s-.527 1.169-1.176 1.169z" fill="#000"/></svg><svg width="20" height="20" viewBox="0 0 20 20" id="access-time" x="290" y="233" xmlns="http://www.w3.org/2000/svg"><g fill="#7D7D7D" fill-rule="evenodd"><path d="M10 0C4.5 0 0 4.5 0 10s4.5 10 10 10 10-4.5 10-10S15.5 0 10 0zm0 18c-4.4 0-8-3.6-8-8s3.6-8 8-8 8 3.6 8 8-3.6 8-8 8z"/><path d="M10.5 5H9v6l5.2 3.2.8-1.3-4.5-2.7z"/></g></svg><svg width="24" height="24" fill="none" viewBox="0 0 24 24" id="accessories" x="266" y="120" xmlns="http://www.w3.org/2000/svg"><g clip-path="url(#clip0)" fill="#000"><path d="M16.965 24H6.055a1.02 1.02 0 0 1-.655-.223.998.998 0 0 1-.357-.587l-2.024-10a.988.988 0 0 1 .57-1.1c.14-.062.29-.093.442-.09H18.99a1.022 1.022 0 0 1 .98.762c.037.143.04.293.012.438l-2.024 10a.997.997 0 0 1-.352.575 1.02 1.02 0 0 1-.64.225zm-10.12-2h9.31l1.62-8H5.265l1.58 8z"/><path d="M17.077 14c-.26 0-.51-.099-.698-.277a1.004 1.004 0 0 1-.314-.679c-.11-3.17.813-6.29 2.632-8.895-6.175 3.019-5.7 8.473-5.679 8.734a1.008 1.008 0 0 1-.891 1.106 1.017 1.017 0 0 1-.74-.214 1.005 1.005 0 0 1-.373-.67 10.372 10.372 0 0 1 1.012-5.032c1.124-2.415 3.715-5.604 9.717-7.043a1.018 1.018 0 0 1 1.148.522 1 1 0 0 1-.257 1.229s-4.828 4.045-4.545 10.213A1.008 1.008 0 0 1 17.128 14h-.051z"/><path d="M11.97 13.982a.996.996 0 0 1-.996-.739A9.737 9.737 0 0 0 5.762 6.93a10.44 10.44 0 0 1 1.226 6.224 1.011 1.011 0 1 1-1.993-.33 8.375 8.375 0 0 0-2.671-7.09.998.998 0 0 1 .797-1.726A11.954 11.954 0 0 1 9.348 6.89a11.97 11.97 0 0 1 3.619 5.834.998.998 0 0 1-.698 1.217.746.746 0 0 1-.299.04zM17 20H6a1 1 0 0 1 0-2h11a1 1 0 0 1 0 2z"/></g></svg><svg width="20" height="20" fill="none" viewBox="0 0 20 20" id="apple" x="290" y="213" xmlns="http://www.w3.org/2000/svg"><path d="M15.198 10.627c-.026-2.533 2.157-3.748 2.254-3.808-1.226-1.72-3.137-1.955-3.817-1.982-1.626-.158-3.173.917-3.998.917-.823 0-2.096-.894-3.444-.87A5.143 5.143 0 0 0 1.874 7.39c-1.841 3.06-.471 7.595 1.323 10.077.877 1.215 1.923 2.58 3.295 2.53 1.322-.05 1.822-.819 3.42-.819 1.599 0 2.048.82 3.447.795 1.423-.026 2.324-1.239 3.195-2.457 1.007-1.41 1.422-2.774 1.446-2.845-.032-.013-2.774-1.02-2.802-4.045zM12.57 3.194c.728-.847 1.22-2.022 1.086-3.194-1.05.04-2.322.67-3.075 1.515-.675.75-1.267 1.945-1.108 3.094 1.171.088 2.367-.57 3.097-1.415z" fill="#000"/></svg><svg width="24" height="24" fill="none" viewBox="0 0 24 24" id="arrow-common" x="60" y="207.99" xmlns="http://www.w3.org/2000/svg"><path fill-rule="evenodd" clip-rule="evenodd" d="M12 16c-.3 0-.5-.1-.7-.3l-5-5c-.4-.4-.4-1 0-1.4.4-.4 1-.4 1.4 0l4.3 4.3 4.3-4.3c.4-.4 1-.4 1.4 0 .4.4.4 1 0 1.4l-5 5c-.2.2-.4.3-.7.3z" fill="#5E6C84"/></svg><svg width="9" height="5" viewBox="0 0 9 5" id="arrow-down" x="250" y="177.01999999999998" xmlns="http://www.w3.org/2000/svg"><path d="M1 1l3.5 3L8 1" fill="none"/></svg><svg width="13" height="11" fill="none" viewBox="0 0 13 11" id="arrow-left" x="230" y="187.99" xmlns="http://www.w3.org/2000/svg"><path d="M5.27.2L.215 5.011l-.005.003a.67.67 0 0 0 .006.977l5.052 4.808c.28.268.74.268 1.021 0a.666.666 0 0 0 0-.972l-3.823-3.64h9.812c.397 0 .722-.308.722-.686 0-.378-.325-.687-.722-.687H2.466L6.29 1.172a.666.666 0 0 0 0-.972.742.742 0 0 0-.511-.2.737.737 0 0 0-.51.2z" fill="#000"/></svg><svg width="14" height="13" fill="none" viewBox="0 0 14 13" id="arrow-right" x="236.01" y="110" xmlns="http://www.w3.org/2000/svg"><path d="M7.227.236a.84.84 0 0 0 0 1.15l4.118 4.3H.778C.35 5.686 0 6.05 0 6.498c0 .448.35.813.778.813h10.567l-4.12 4.303a.84.84 0 0 0 0 1.148.755.755 0 0 0 1.1 0l5.443-5.685c.002 0 .003-.002.006-.004A.828.828 0 0 0 14 6.498a.83.83 0 0 0-.233-.58L8.327.237a.76.76 0 0 0-1.1 0z" fill="#000"/></svg><svg width="20" height="20" viewBox="0 0 20 20" id="bank" x="92" y="187.99" xmlns="http://www.w3.org/2000/svg"><defs><path d="M21.5 20.5a.5.5 0 0 1 .5.5v.5a.5.5 0 0 1-.5.5h-19a.5.5 0 0 1-.5-.5V21a.5.5 0 0 1 .5-.5h19zM10.166 19h-1a.5.5 0 0 1-.5-.5v-4.686a.5.5 0 0 1 .5-.5h1a.5.5 0 0 1 .5.5V18.5a.5.5 0 0 1-.5.5zm4.667 0h-1a.5.5 0 0 1-.5-.5v-4.686a.5.5 0 0 1 .5-.5h1a.5.5 0 0 1 .5.5V18.5a.5.5 0 0 1-.5.5zm4.667 0h-1a.5.5 0 0 1-.5-.5v-4.686a.5.5 0 0 1 .5-.5h1a.5.5 0 0 1 .5.5V18.5a.5.5 0 0 1-.5.5zm-14 0h-1a.5.5 0 0 1-.5-.5v-4.686a.5.5 0 0 1 .5-.5h1a.5.5 0 0 1 .5.5V18.5a.5.5 0 0 1-.5.5zM12 9.904a1.749 1.749 0 1 0-.001-3.497A1.749 1.749 0 0 0 12 9.904zm9.869.947c.276.261.087.718-.295.718H2.425a.416.416 0 0 1-.294-.718l8.941-8.483a1.353 1.353 0 0 1 1.856 0l8.941 8.483z" id="aia"/></defs><use xlink:href="#aia" transform="translate(-2 -2)" fill-rule="evenodd"/></svg><svg width="20" height="20" viewBox="0 0 20 20" id="basket" x="290" y="161" xmlns="http://www.w3.org/2000/svg"><defs><path d="M20.549 5c.421 0 .695.342.613.762l-.761 3.919c-.157.803-.931 1.493-1.851 1.649l-9.724 2.08c-.456.098-.594.413-.543.84.075.622.14 1.033 1.092 1.037h7.936c.012 0 .021.007.034.007.013 0 .022-.007.035-.007a1 1 0 1 1 0 2H8.986c-1.766 0-3.058-1.227-3.105-2.952l-.23-8.258c-.017-.607-.365-1.098-.916-1.295L2.683 4.05l-.005-.008A1.055 1.055 0 0 1 2 3.06c0-.053.023-.1.03-.15.001-.018.009-.037.012-.056.095-.467.48-.821.969-.844l.019-.004c.011 0 .019-.006.03-.006.044 0 .082.02.125.025.072.007.144.002.215.027l2.336.833C6.701 3.229 7.372 4.014 7.599 5h12.95zM16.38 18.43a1.786 1.786 0 1 1 0 3.572 1.786 1.786 0 0 1 0-3.573zm-9 0a1.786 1.786 0 1 1 0 3.572 1.786 1.786 0 0 1 0-3.573z" id="aja"/></defs><use fill="#fff" xlink:href="#aja" transform="translate(-2 -2)" fill-rule="evenodd"/></svg><svg width="24" height="24" fill="none" viewBox="0 0 24 24" id="basket-remove" x="108" y="207.99" xmlns="http://www.w3.org/2000/svg"><path d="M9 5v-.5a.5.5 0 0 1 .491-.5h5.018a.5.5 0 0 1 .491.5V5h4a1 1 0 0 1 1 1v1H4V6a1 1 0 0 1 1-1h4zm7.15 15H7.845a1 1 0 0 1-.986-.835L5 8h14l-1.864 11.166a.999.999 0 0 1-.986.834z" fill="#333"/></svg><svg width="20" height="16" viewBox="0 0 20 16" id="card" x="290" y="197" xmlns="http://www.w3.org/2000/svg"><defs><path d="M20.5 8.286V7A1.5 1.5 0 0 0 19 5.5H5A1.5 1.5 0 0 0 3.5 7v1.286h17zm0 5.714h-17v3A1.5 1.5 0 0 0 5 18.5h14a1.5 1.5 0 0 0 1.5-1.5v-3zM5 4h14a3 3 0 0 1 3 3v10a3 3 0 0 1-3 3H5a3 3 0 0 1-3-3V7a3 3 0 0 1 3-3z" id="ala"/></defs><use xlink:href="#ala" transform="translate(-2 -4)" fill-rule="evenodd"/></svg><svg width="24" height="24" fill="none" viewBox="0 0 24 24" id="cart" x="180" y="207.99" xmlns="http://www.w3.org/2000/svg"><g clip-path="url(#clip0)" fill="#000"><path d="M7.01 16.027a1.001 1.001 0 0 1-1.001-.681l-2.003-6.01a1.052 1.052 0 0 1 2.003-.642l1.712 5.15 11.637-2.685 2.152-5.15H9.014a11.474 11.474 0 0 1-7.28-3.004L.34 1.752A1.002 1.002 0 0 1 1.663.25l1.392 1.212a9.482 9.482 0 0 0 5.958 2.544h14.02a1 1 0 0 1 .92 1.393L20.95 12.41a1.001 1.001 0 0 1-.701.58L7.23 15.998a.833.833 0 0 1-.22.03zM4 23a3 3 0 1 1 0-6 3 3 0 0 1 0 6zm0-4a1 1 0 1 0 0 2 1 1 0 0 0 0-2zm12 4a3 3 0 1 1 0-5.999A3 3 0 0 1 16 23zm0-4a1 1 0 1 0 0 2 1 1 0 0 0 0-2z"/></g></svg><svg width="24" height="24" fill="none" viewBox="0 0 24 24" id="cart-white" x="266" y="48" xmlns="http://www.w3.org/2000/svg"><g clip-path="url(#clip0)" fill="#fff"><path d="M7.01 16.027a1.001 1.001 0 0 1-1.001-.681l-2.003-6.01a1.052 1.052 0 0 1 2.003-.642l1.712 5.15 11.637-2.685 2.152-5.15H9.014a11.474 11.474 0 0 1-7.28-3.004L.34 1.752A1.002 1.002 0 0 1 1.663.25l1.392 1.212a9.482 9.482 0 0 0 5.958 2.544h14.02a1 1 0 0 1 .92 1.393L20.95 12.41a1.001 1.001 0 0 1-.701.58L7.23 15.998a.833.833 0 0 1-.22.03zM4 23a3 3 0 1 1 0-6 3 3 0 0 1 0 6zm0-4a1 1 0 1 0 0 2 1 1 0 0 0 0-2zm12 4a3 3 0 1 1 0-5.999A3 3 0 0 1 16 23zm0-4a1 1 0 1 0 0 2 1 1 0 0 0 0-2z"/></g></svg><svg width="21" height="17" viewBox="0 0 21 17" id="cash" x="290" y="144" xmlns="http://www.w3.org/2000/svg"><defs><path d="M12.959 16.026A1.3 1.3 0 0 1 14 17.3v2.4a1.3 1.3 0 0 1-1.3 1.3H3.3A1.3 1.3 0 0 1 2 19.7v-2.4c0-.113.014-.222.041-.326A1.3 1.3 0 0 1 1 15.7v-2.4A1.3 1.3 0 0 1 2.3 12h9.4a1.3 1.3 0 0 1 1.3 1.3v2.4c0 .113-.014.222-.041.326zM15 20v-1.5h4a1.5 1.5 0 0 0 1.5-1.5V7A1.5 1.5 0 0 0 19 5.5H6A1.5 1.5 0 0 0 4.5 7v4H3V7a3 3 0 0 1 3-3h13a3 3 0 0 1 3 3v10a3 3 0 0 1-3 3h-4zM2.723 13.25a.39.39 0 0 0-.39.39v1.72c0 .215.175.39.39.39h8.554a.39.39 0 0 0 .39-.39v-1.72a.39.39 0 0 0-.39-.39H2.723zm1 4a.39.39 0 0 0-.39.39v1.72c0 .215.175.39.39.39h8.554a.39.39 0 0 0 .39-.39v-1.72a.39.39 0 0 0-.39-.39H3.723z" id="aoa"/></defs><use xlink:href="#aoa" transform="translate(-1 -4)" fill-rule="evenodd"/></svg><svg width="24" height="24" viewBox="0 0 24 24" id="catalog" x="94" y="247.99" xmlns="http://www.w3.org/2000/svg"><defs><path d="M7.835 23.98H2.938C1.318 23.98 0 22.622 0 20.955v-5.04c0-1.666 1.318-3.023 2.938-3.023h4.897c1.62 0 2.938 1.357 2.938 3.024v5.039c0 1.667-1.318 3.023-2.938 3.023zm-4.897-9.071c-.54 0-.98.451-.98 1.008v5.039c0 .556.44 1.008.98 1.008h4.897c.54 0 .98-.452.98-1.008v-5.04c0-.556-.44-1.007-.98-1.007H2.938zM16.165 2.036c-.54 0-.98.452-.98 1.008v5.04c0 .556.44 1.007.98 1.007h4.897c.54 0 .98-.451.98-1.008V3.044c0-.556-.44-1.008-.98-1.008h-4.897zm4.897 9.07h-4.897c-1.62 0-2.938-1.356-2.938-3.023V3.044c0-1.667 1.318-3.023 2.938-3.023h4.897C22.682.02 24 1.377 24 3.044v5.04c0 1.666-1.318 3.023-2.938 3.023zM2.938 2.017c-.54 0-.98.451-.98 1.007v5.04c0 .556.44 1.007.98 1.007h4.897c.54 0 .98-.451.98-1.007v-5.04c0-.556-.44-1.007-.98-1.007H2.938zm4.897 9.07H2.938C1.318 11.086 0 9.73 0 8.063v-5.04C0 1.357 1.318 0 2.938 0h4.897c1.62 0 2.938 1.357 2.938 3.023v5.04c0 1.667-1.318 3.023-2.938 3.023zm8.33 3.844c-.54 0-.98.451-.98 1.007v5.04c0 .556.44 1.007.98 1.007h4.897c.54 0 .98-.451.98-1.007v-5.04c0-.556-.44-1.007-.98-1.007h-4.897zM21.062 24h-4.897c-1.62 0-2.938-1.357-2.938-3.023v-5.04c0-1.667 1.318-3.023 2.938-3.023h4.897c1.62 0 2.938 1.356 2.938 3.023v5.04C24 22.643 22.682 24 21.062 24z" id="apa"/></defs><use xlink:href="#apa" fill-rule="evenodd"/></svg><svg width="24" height="24" fill="none" viewBox="0 0 24 24" id="chairs" x="166" y="247.99" xmlns="http://www.w3.org/2000/svg"><g clip-path="url(#clip0)" fill="#000"><path d="M15 19H9a1 1 0 0 1 0-2h6a1 1 0 0 1 0 2zm1.996-4h-.11a.995.995 0 0 1-.876-1.1l.996-9a1.007 1.007 0 0 1 1.106-.89 1.001 1.001 0 0 1 .886 1.11l-.996 9a1.002 1.002 0 0 1-1.006.88zM12 15a1 1 0 0 1-1-1V4a1 1 0 0 1 2 0v10a1 1 0 0 1-1 1zm-5.008-.006a.994.994 0 0 1-.996-.89L5 5.11A1.008 1.008 0 0 1 5.886 4a1 1 0 0 1 1.106.89l.995 8.995a1.003 1.003 0 0 1-.512.992.992.992 0 0 1-.374.117h-.11z"/><path d="M19.862 2.961a.893.893 0 0 1-.277 0 30.609 30.609 0 0 0-7.64-.987 30.609 30.609 0 0 0-7.64.987 1.03 1.03 0 0 1-1.267-.71A1.022 1.022 0 0 1 3.751.986 32.257 32.257 0 0 1 11.945 0a32.256 32.256 0 0 1 8.194.987 1 1 0 0 1 .851 1.125.996.996 0 0 1-1.128.85zM6 24a1 1 0 0 1-1-1v-9a1 1 0 1 1 2 0v9a1 1 0 0 1-1 1zm12 0a1 1 0 0 1-1-1v-9a1 1 0 0 1 2 0v9a1 1 0 0 1-1 1z"/><path d="M20 15H4a1 1 0 0 1 0-2h16a1 1 0 0 1 0 2z"/></g></svg><svg width="14" height="10" viewBox="0 0 14 10" id="check-discount" x="250.01" y="110" xmlns="http://www.w3.org/2000/svg"><defs><path d="M6.735 12.322a1 1 0 0 0-1.47 1.356l3.612 3.919c.537.526 1.337.526 1.834.03l.364-.359a2335.638 2335.638 0 0 0 3.939-3.883l.04-.04a492.598 492.598 0 0 0 3.658-3.643 1 1 0 0 0-1.424-1.404 518.42 518.42 0 0 1-3.64 3.625l-.04.04a2049.114 2049.114 0 0 1-3.775 3.722l-3.098-3.363z" id="ara"/></defs><g transform="translate(-5 -8)" fill="none" fill-rule="evenodd" opacity=".5"><mask id="arb" fill="#fff"><use xlink:href="#ara"/></mask><use fill="#333" fill-rule="nonzero" xlink:href="#ara"/><g mask="url(#arb)" fill="#3DA762"><path d="M0 0h24v24H0z"/></g></g></svg><svg width="8" height="6" viewBox="0 0 8 6" id="check-white" x="243" y="187.99" xmlns="http://www.w3.org/2000/svg"><path d="M1.707 2.293A1 1 0 0 0 .293 3.707l2 2a1 1 0 0 0 1.414 0l4-4A1 1 0 0 0 6.293.293L3 3.586 1.707 2.293z" fill="#FFF" fill-rule="evenodd"/></svg><svg width="14" height="14" fill="none" viewBox="0 0 14 14" id="close" x="189" y="187.99" xmlns="http://www.w3.org/2000/svg"><g clip-path="url(#clip0)"><mask id="ata" x="0" y="0" width="15" height="15"><path d="M7 5.586L12.293.293a1 1 0 1 1 1.414 1.414L8.414 7l5.293 5.293a1 1 0 0 1-1.414 1.414L7 8.414l-5.293 5.293a1 1 0 0 1-1.414-1.414L5.586 7 .293 1.707A1 1 0 0 1 1.707.293L7 5.586z" fill="#fff"/></mask><g mask="url(#ata)"><path d="M7 5.586L12.293.293a1 1 0 1 1 1.414 1.414L8.414 7l5.293 5.293a1 1 0 0 1-1.414 1.414L7 8.414l-5.293 5.293a1 1 0 0 1-1.414-1.414L5.586 7 .293 1.707A1 1 0 0 1 1.707.293L7 5.586z" fill="#42526E"/><path d="M19-5H-5v24h24V-5z" fill="#CCC"/></g></g></svg><svg width="24" height="24" fill="none" viewBox="0 0 24 24" id="close-common" x="132" y="207.99" xmlns="http://www.w3.org/2000/svg"><path fill-rule="evenodd" clip-rule="evenodd" d="M13.4 12l7.3-7.3c.4-.4.4-1 0-1.4-.4-.4-1-.4-1.4 0L12 10.6 4.7 3.3c-.4-.4-1-.4-1.4 0-.4.4-.4 1 0 1.4l7.3 7.3-7.3 7.3c-.4.4-.4 1 0 1.4.2.2.4.3.7.3.3 0 .5-.1.7-.3l7.3-7.3 7.3 7.3c.2.2.5.3.7.3.3 0 .5-.1.7-.3.4-.4.4-1 0-1.4L13.4 12z" fill="#B3BAC5"/></svg><svg width="24" height="24" fill="none" viewBox="0 0 24 24" id="close-common-white" x="156" y="207.99" xmlns="http://www.w3.org/2000/svg"><path fill-rule="evenodd" clip-rule="evenodd" d="M13.4 12l7.3-7.3c.4-.4.4-1 0-1.4-.4-.4-1-.4-1.4 0L12 10.6 4.7 3.3c-.4-.4-1-.4-1.4 0-.4.4-.4 1 0 1.4l7.3 7.3-7.3 7.3c-.4.4-.4 1 0 1.4.2.2.4.3.7.3.3 0 .5-.1.7-.3l7.3-7.3 7.3 7.3c.2.2.5.3.7.3.3 0 .5-.1.7-.3.4-.4.4-1 0-1.4L13.4 12z" fill="#fff"/></svg><svg width="14" height="14" fill="none" viewBox="0 0 14 14" id="close-white" x="203" y="187.99" xmlns="http://www.w3.org/2000/svg"><g clip-path="url(#clip0)"><mask id="awa" x="0" y="0" width="15" height="15"><path d="M7 5.586L12.293.293a1 1 0 1 1 1.414 1.414L8.414 7l5.293 5.293a1 1 0 0 1-1.414 1.414L7 8.414l-5.293 5.293a1 1 0 0 1-1.414-1.414L5.586 7 .293 1.707A1 1 0 0 1 1.707.293L7 5.586z" fill="#fff"/></mask><g mask="url(#awa)"><path d="M19-5H-5v24h24V-5z" fill="#fff"/></g></g></svg><svg width="10" height="2" fill="none" viewBox="0 0 10 2" id="count-minus" x="290" y="267" xmlns="http://www.w3.org/2000/svg"><path d="M9 0H1a1 1 0 1 0 0 2h8a1 1 0 1 0 0-2z" fill="#333"/></svg><svg width="10" height="10" fill="none" viewBox="0 0 10 10" id="count-plus" x="240" y="177.01999999999998" xmlns="http://www.w3.org/2000/svg"><path fill-rule="evenodd" clip-rule="evenodd" d="M4 4V1a1 1 0 0 1 2 0v3h3a1 1 0 0 1 0 2H6v3a1 1 0 0 1-2 0V6H1a1 1 0 0 1 0-2h3z" fill="#333"/></svg><svg width="24" height="24" fill="none" viewBox="0 0 24 24" id="decor" x="266" xmlns="http://www.w3.org/2000/svg"><path d="M22 23H2a1 1 0 0 1-1-1V8a1 1 0 0 1 1-1h20a1 1 0 0 1 1 1v14a1 1 0 0 1-1 1zM3 21h18V9H3v12zM17.999 6a.938.938 0 0 1-.452-.11L11.73 3h-.522L5.39 5.89a1.009 1.009 0 0 1-1.283-.472.996.996 0 0 1 .379-1.308l6.027-3c.14-.071.295-.11.453-.11h1.004c.158 0 .312.039.452.11l6.028 3a1.002 1.002 0 0 1 .442 1.34A1.002 1.002 0 0 1 18 6z" fill="#000"/><path d="M2 23a1 1 0 0 1-.81-1.58l5-7a1 1 0 0 1 1.32-.28l4.21 2.53 4.47-6.25a1 1 0 0 1 .72-.42 1 1 0 0 1 .79.29l5 4.88a.997.997 0 0 1 .219 1.095.999.999 0 0 1-.924.616 1 1 0 0 1-.705-.291l-4.16-4.07-4.33 6a1 1 0 0 1-1.32.28l-4.2-2.47-4.47 6.25A1 1 0 0 1 2 23z" fill="#000"/></svg><svg width="24" height="24" fill="none" viewBox="0 0 24 24" id="dishware" x="266" y="24" xmlns="http://www.w3.org/2000/svg"><path d="M12 24A12 12 0 1 1 15.19.43a1 1 0 1 1-.53 1.93 10 10 0 1 0 1.39 18.7 1 1 0 0 1 .81 1.83A11.91 11.91 0 0 1 12 24z" fill="#000"/><path d="M11.579 21a8.335 8.335 0 0 1-3.6-.845 8.681 8.681 0 0 1-2.932-2.335 9.133 9.133 0 0 1-1.729-3.4 9.374 9.374 0 0 1-.21-3.84 9.229 9.229 0 0 1 1.348-3.582A8.803 8.803 0 0 1 7.115 4.33a8.4 8.4 0 0 1 3.484-1.265 8.294 8.294 0 0 1 3.672.367 1 1 0 0 1 .578.51c.12.242.143.525.063.786-.08.26-.255.477-.488.603a.952.952 0 0 1-.754.065 6.322 6.322 0 0 0-2.052-.339A6.52 6.52 0 0 0 6.911 7.09 7.097 7.097 0 0 0 4.96 12c0 1.841.701 3.607 1.95 4.91 1.248 1.301 2.942 2.033 4.707 2.033a6.376 6.376 0 0 0 3.827-1.265.968.968 0 0 1 .738-.172c.128.024.25.073.36.146a1.05 1.05 0 0 1 .443 1.047 1.07 1.07 0 0 1-.14.375 1 1 0 0 1-.267.29 8.348 8.348 0 0 1-5 1.636zM20 24a1 1 0 0 1-1-1V11a1 1 0 0 1 2 0v12a1 1 0 0 1-1 1z" fill="#000"/><path d="M20 12c-1.09 0-4 0-4-4 0-2.72 1.41-8 4-8s4 5.28 4 8c0 4-2.91 4-4 4zm0-10c-.61.14-2 3.24-2 6 0 1.82.58 2 2 2s2-.18 2-2c0-2.76-1.38-5.86-2-6z" fill="#000"/></svg><svg width="18" height="14" viewBox="0 0 18 14" id="done-2" x="290" y="253" xmlns="http://www.w3.org/2000/svg"><path d="M6 11.2L1.8 7 .4 8.4 6 14 18 2 16.6.6z" fill="#7D7D7D" fill-rule="evenodd"/></svg><svg width="8" height="12" viewBox="0 0 8 12" id="ds-arrow-right" x="130" y="231.99" xmlns="http://www.w3.org/2000/svg"><defs><path d="M9.005 10.995l4.593-4.593a.99.99 0 1 1 1.4 1.4l-3.9 3.9 3.9 3.9a.99.99 0 0 1-1.4 1.4L9.005 12.41a1 1 0 0 1 0-1.414z" id="bca"/></defs><g transform="translate(-8 -6)" fill="none" fill-rule="evenodd"><mask id="bcb" fill="#fff"><use xlink:href="#bca"/></mask><use fill="#FFF" transform="matrix(-1 0 0 1 24 0)" xlink:href="#bca"/><g mask="url(#bcb)" fill="#1769FF"><path d="M0 0h24v24H0z"/></g></g></svg><svg width="18" height="16" fill="none" viewBox="0 0 18 16" id="favorite-white" x="60" y="231.99" xmlns="http://www.w3.org/2000/svg"><path d="M12.969 0c-1.646 0-3.14.778-3.885 2.002a.091.091 0 0 1-.08.047.093.093 0 0 1-.077-.046C8.18.778 6.667 0 5.023 0 2.357 0-1.22 2.01.409 7.492 2.269 12.85 9.002 16 9.006 16c.002 0 6.727-3.15 8.586-8.508C19.22 2.01 15.635 0 12.969 0zm2.51 3.126c.772 1.034.544 2.602.209 3.752-1.217 3.436-4.987 5.897-6.684 6.86-1.698-.961-5.473-3.42-6.69-6.86-.336-1.152-.566-2.723.206-3.756C3.137 2.294 4.217 2 5.023 2c.932 0 1.778.492 2.197 1.045C9 5.028 9.004 5.028 10.792 3.043A2.762 2.762 0 0 1 12.969 2c.808 0 1.892.296 2.51 1.126z" fill="#fff"/></svg><svg width="18" height="16" fill="none" viewBox="0 0 18 16" id="favorite_off" x="96" y="231.99" xmlns="http://www.w3.org/2000/svg"><path d="M12.969 0c-1.646 0-3.14.778-3.885 2.002a.091.091 0 0 1-.08.047.093.093 0 0 1-.077-.046C8.18.778 6.667 0 5.023 0 2.357 0-1.22 2.01.409 7.492 2.269 12.85 9.002 16 9.006 16c.002 0 6.727-3.15 8.586-8.508C19.22 2.01 15.635 0 12.969 0zm2.51 3.126c.772 1.034.544 2.602.209 3.752-1.217 3.436-4.987 5.897-6.684 6.86-1.698-.961-5.473-3.42-6.69-6.86-.336-1.152-.566-2.723.206-3.756C3.137 2.294 4.217 2 5.023 2c.932 0 1.778.492 2.197 1.045C9 5.028 9.004 5.028 10.792 3.043A2.762 2.762 0 0 1 12.969 2c.808 0 1.892.296 2.51 1.126z" fill="#333"/></svg><svg width="18" height="16" fill="none" viewBox="0 0 18 16" id="favorite_on" x="78" y="231.99" xmlns="http://www.w3.org/2000/svg"><path d="M12.97 0c-1.707 0-3.25.835-3.966 2.138C8.29.836 6.728 0 5.022 0 2.356 0-1.218 2.01.41 7.492 2.27 12.85 9.005 16.002 9.005 16c0 .001 6.727-3.15 8.586-8.508C19.22 2.01 15.635 0 12.97 0z" fill="#EA1E31"/></svg><svg width="24" height="24" fill="none" viewBox="0 0 24 24" id="fb" x="240" y="153.01999999999998" xmlns="http://www.w3.org/2000/svg"><path d="M13.333 9.625V7.951c0-.756.159-1.138 1.271-1.138H16V4h-2.33c-2.853 0-3.795 1.38-3.795 3.749v1.876H8v2.813h1.875V19h3.458v-6.563h2.35L16 9.626h-2.667z" fill="#5E6C84"/></svg><svg width="24" height="24" fill="none" viewBox="0 0 24 24" id="furniture" x="266" y="168" xmlns="http://www.w3.org/2000/svg"><path d="M18.083 20H5.917l-4.356-4.775a2.109 2.109 0 0 1-.415-.679 2.265 2.265 0 0 1 0-1.603 2.11 2.11 0 0 1 .415-.679l1.5-1.647c.176-.196.386-.35.617-.457a1.75 1.75 0 0 1 1.46 0c.231.106.441.261.618.457l1.898 2.085h8.711l1.898-2.085c.177-.196.386-.35.618-.457a1.75 1.75 0 0 1 1.46 0c.23.106.44.261.617.457l1.48 1.647c.178.194.32.425.416.679a2.264 2.264 0 0 1 0 1.603 2.108 2.108 0 0 1-.415.679L18.083 20zM6.695 17.915h10.61l3.796-4.17-1.51-1.648-2.457 2.69H6.866l-2.458-2.69-1.5 1.648 3.787 4.17z" fill="#000"/><path d="M18 13h-2V4a1 1 0 0 0-1-1H9a1 1 0 0 0-1 1v9H6V4a3 3 0 0 1 3-3h6a3 3 0 0 1 3 3v9zM5.009 24h-.197a1.077 1.077 0 0 1-.367-.127.933.933 0 0 1-.28-.24.794.794 0 0 1-.148-.317.744.744 0 0 1 .006-.342l.986-4.273a.877.877 0 0 1 .428-.555 1.124 1.124 0 0 1 .755-.13c.13.023.252.068.362.131a.95.95 0 0 1 .277.241.813.813 0 0 1 .15.314.758.758 0 0 1 0 .34l-.986 4.274a.846.846 0 0 1-.35.497c-.18.125-.405.19-.636.187zm13.982 0a1.086 1.086 0 0 1-.636-.187.845.845 0 0 1-.35-.497l-.985-4.273a.758.758 0 0 1 0-.34.813.813 0 0 1 .149-.315.951.951 0 0 1 .277-.24 1.122 1.122 0 0 1 1.117-.001.95.95 0 0 1 .278.24.814.814 0 0 1 .15.314l.986 4.273a.76.76 0 0 1 .006.342.793.793 0 0 1-.149.317.932.932 0 0 1-.28.24 1.076 1.076 0 0 1-.366.127h-.197z" fill="#000"/></svg><svg width="24" height="24" fill="none" viewBox="0 0 24 24" id="hits" x="266" y="192" xmlns="http://www.w3.org/2000/svg"><g clip-path="url(#clip0)" fill="#f06989"><path d="M16.002 23.994a1.001 1.001 0 1 1-.14-2c.16 0 4.218-.76 4.138-6.998-.06-5.189-6.397-10.267-9.206-12.267a16.597 16.597 0 0 1-1.789 4.819 23.044 23.044 0 0 1-2.149 3.15c-1.529 1.969-2.848 3.668-2.848 6.297a4.77 4.77 0 0 0 1.279 3.56 5.836 5.836 0 0 0 3.718 1.44 1 1 0 1 1 0 1.999 7.775 7.775 0 0 1-5.137-2 6.738 6.738 0 0 1-1.86-4.998c0-3.32 1.66-5.459 3.269-7.518a22.174 22.174 0 0 0 2-2.89A13.349 13.349 0 0 0 9.004 1a1 1 0 0 1 .52-.87 1 1 0 0 1 1 0c.48.31 11.384 7.138 11.474 14.866.1 7.998-5.797 8.998-5.857 8.998h-.14z"/><path d="M14.835 20a.983.983 0 0 1-.808-.417 1.005 1.005 0 0 1-.034-1.113 5.617 5.617 0 0 0 .842-4.35 6.327 6.327 0 0 0-1.496-2.67 5.41 5.41 0 0 1-.475 2.432 5.363 5.363 0 0 1-1.507 1.958 1.497 1.497 0 0 1-1.268.17 2.368 2.368 0 0 1-.99-.73 3.451 3.451 0 0 0 .485 3 1.006 1.006 0 0 1-.015 1.415.986.986 0 0 1-1.402-.015c-.099-.11-2.456-2.57-.178-7.16a.995.995 0 0 1 .902-.52.984.984 0 0 1 .881.6c.2.478.46.929.773 1.34a4.86 4.86 0 0 0 .485-4.62 1.009 1.009 0 0 1 .308-1.09.986.986 0 0 1 1.12-.1 9.913 9.913 0 0 1 4.358 5.49 7.589 7.589 0 0 1-1.12 5.91.994.994 0 0 1-.861.47z"/></g></svg><svg width="24" height="24" fill="none" viewBox="0 0 24 24" id="in" x="266" y="216" xmlns="http://www.w3.org/2000/svg"><path d="M19.58 6.757c.197.507.333 1.088.37 1.942.044.853.05 1.125.05 3.301s-.012 2.448-.05 3.301c-.037.847-.173 1.435-.37 1.942-.204.525-.476.97-.922 1.415-.445.446-.89.718-1.415.922-.507.197-1.088.333-1.942.37-.853.044-1.125.05-3.301.05s-2.448-.012-3.301-.05c-.847-.037-1.435-.173-1.942-.37a3.909 3.909 0 0 1-1.415-.922 3.91 3.91 0 0 1-.922-1.415c-.197-.507-.333-1.088-.37-1.942C4.005 14.448 4 14.176 4 12s.012-2.448.05-3.301c.037-.847.173-1.435.37-1.942a3.91 3.91 0 0 1 .922-1.415 3.91 3.91 0 0 1 1.415-.922c.507-.197 1.088-.333 1.942-.37C9.552 4.005 9.824 4 12 4s2.448.012 3.301.05c.847.037 1.435.173 1.942.37.525.204.97.476 1.415.922.446.445.718.89.922 1.415zM11.994 8c-2.208 0-4 1.792-4 4 0 2.207 1.792 4 4 4 2.207 0 4-1.793 4-4 0-2.208-1.793-4-4-4zm0 1.333A2.668 2.668 0 0 1 14.66 12a2.668 2.668 0 0 1-2.667 2.667A2.668 2.668 0 0 1 9.327 12a2.668 2.668 0 0 1 2.667-2.667zm4.272-.647a.958.958 0 1 0 0-1.916.958.958 0 0 0 0 1.916z" fill="#5E6C84"/></svg><svg width="16" height="16" fill="none" viewBox="0 0 16 16" id="input-clean" x="114" y="231.99" xmlns="http://www.w3.org/2000/svg"><mask id="bka" x="0" y="0" width="17" height="17"><path d="M11.771 10.829a.666.666 0 1 1-.942.942L8 8.944l-2.828 2.829a.665.665 0 0 1-.943 0 .666.666 0 0 1 0-.943L7.058 8l-2.83-2.828a.666.666 0 1 1 .944-.943L8 7.058l2.829-2.83a.666.666 0 1 1 .942.944L8.944 8l2.829 2.829zM8.002 0a8 8 0 1 0 0 16A8 8 0 0 0 8 0z" fill="#fff"/></mask><g mask="url(#bka)"><path d="M11.771 10.829a.666.666 0 1 1-.942.942L8 8.944l-2.828 2.829a.665.665 0 0 1-.943 0 .666.666 0 0 1 0-.943L7.058 8l-2.83-2.828a.666.666 0 1 1 .944-.943L8 7.058l2.829-2.83a.666.666 0 1 1 .942.944L8.944 8l2.829 2.829zM8.002 0a8 8 0 1 0 0 16A8 8 0 0 0 8 0z" fill="#000"/></g></svg><svg width="24" height="24" fill="none" viewBox="0 0 24 24" id="kits" x="22" y="247.99" xmlns="http://www.w3.org/2000/svg"><g clip-path="url(#clip0)" fill="#000"><path d="M21.979 23.98a.998.998 0 0 1-.999-.798l-1.816-9.185H4.832l-1.816 9.185a1.018 1.018 0 1 1-1.996-.4L3.016 12.8a.998.998 0 0 1 .998-.8h15.968a.998.998 0 0 1 .998.799l1.997 9.983a.998.998 0 0 1-.799 1.198h-.2z"/><path d="M12 21H3a1 1 0 0 1 0-2h8v-6a1 1 0 0 1 2 0v7a1 1 0 0 1-1 1z"/><path d="M9 17H7a1 1 0 0 1 0-2h2a1 1 0 0 1 0 2zm11 0h-8a1 1 0 0 1 0-2h8a1 1 0 0 1 0 2zm2-6H2a1 1 0 0 1 0-2h20a1 1 0 1 1 0 2z"/><path d="M15.52 9a4.5 4.5 0 1 1-.04-9 4.5 4.5 0 0 1 .04 9zm0-6.97a2.509 2.509 0 1 0 2.489 2.51 2.5 2.5 0 0 0-2.49-2.51zM9 11H4a1 1 0 0 1-1-1V8a1 1 0 0 1 1-1h5a1 1 0 0 1 1 1v2a1 1 0 0 1-1 1z"/></g></svg><svg width="24" height="24" fill="none" viewBox="0 0 24 24" id="lamps" x="46" y="247.99" xmlns="http://www.w3.org/2000/svg"><path d="M17 24H7a1 1 0 0 1 0-2h10a1 1 0 0 1 0 2z" fill="#000"/><path d="M12 24a1 1 0 0 1-1-1v-6a1 1 0 0 1 2 0v6a1 1 0 0 1-1 1zm7.916-9H4.058a1.108 1.108 0 0 1-.448-.088 1.053 1.053 0 0 1-.366-.259.984.984 0 0 1-.217-.381.947.947 0 0 1-.026-.432l2.114-12a.989.989 0 0 1 .364-.606c.194-.154.44-.237.694-.234h11.629c.253-.003.5.08.694.234.194.154.323.37.363.606l2.115 12a.948.948 0 0 1-.026.432.984.984 0 0 1-.217.381c-.1.11-.226.199-.367.259-.14.06-.293.09-.448.088zm-14.61-2h13.363L16.903 3H7.071L5.306 13z" fill="#000"/></svg><svg width="24" height="24" fill="none" viewBox="0 0 24 24" id="link" x="70" y="247.99" xmlns="http://www.w3.org/2000/svg"><path d="M9.678 8.57h7.532a.786.786 0 0 0 0-1.57H7.785a.785.785 0 0 0-.298.063.785.785 0 0 0-.424.424.785.785 0 0 0-.063.298v9.425a.786.786 0 1 0 1.57 0V9.678l8.082 8.09a.786.786 0 0 0 1.288-.256.785.785 0 0 0-.172-.86l-8.09-8.081z" fill="#484ED8"/></svg><svg viewBox="0 0 105.01 17.99" width="105.01" height="17.99" id="logo" y="110"><path class="bocls-1" d="M61.4 4.807c0 .792.03 1.549 0 2.3a20.765 20.765 0 0 1-.94 6.063 5.039 5.039 0 0 1-1.28 2.135 3.2 3.2 0 0 1-2.79.838.637.637 0 0 1-.66-.772 10.067 10.067 0 0 1 0-1.1.422.422 0 0 1 .49-.5.639.639 0 0 1 .14 0 1.469 1.469 0 0 0 1.65-1.092 11.431 11.431 0 0 0 .71-2.767 55.666 55.666 0 0 0 .36-6.707V3c.03-.545.11-.645.64-.647q3.66-.012 7.33 0c.5 0 .62.154.65.656.01.114 0 .229 0 .343V14.9c0 .16.01.322 0 .481a.562.562 0 0 1-.65.606c-.38.01-.76.014-1.14 0a.54.54 0 0 1-.6-.639c-.01-.16 0-.32 0-.481V4.846a20.37 20.37 0 0 0-3.91-.039zm-14.68 4.31c.95 1.425 1.87 2.8 2.79 4.178.42.641.86 1.278 1.28 1.925a.674.674 0 0 1 .19.721 4.17 4.17 0 0 1-.42.043 9.867 9.867 0 0 0-1.2.012 1.671 1.671 0 0 1-1.76-.957c-1.01-1.564-2.07-3.089-3.11-4.631H42.7a5.392 5.392 0 0 0-.04.544v4.19c-.01.728-.12.837-.82.843-.33 0-.67.014-1.01 0a.528.528 0 0 1-.57-.6c-.01-.137-.01-.275-.01-.412V3.088c.02-.626.1-.72.7-.735.38-.009.76-.014 1.14.006a.491.491 0 0 1 .56.537 3.842 3.842 0 0 1 .01.48v4.6c.54 0 1.05.038 1.56-.006a.772.772 0 0 0 .42-.376c.74-1.193 1.47-2.4 2.2-3.6.21-.349.44-.689.64-1.042a1.091 1.091 0 0 1 1.05-.606c.71.028 1.42-.036 2.22.051a13.941 13.941 0 0 1-1.28 2.274c-.44.746-.91 1.469-1.36 2.2s-.91 1.467-1.39 2.246zm35.61 4.509H76.4c-.25.53-.52 1.054-.74 1.594a1.08 1.08 0 0 1-1.19.774c-.38-.037-.76 0-1.14-.009-.5-.017-.59-.171-.38-.64.74-1.585 1.49-3.165 2.23-4.747 1.14-2.425 2.27-4.851 3.41-7.274a4.229 4.229 0 0 1 .44-.764.4.4 0 0 1 .72.034 4.22 4.22 0 0 1 .33.6l5.58 11.9a.622.622 0 0 1 .05.123c.28.64.21.766-.46.774-.38 0-.76-.014-1.14 0a.915.915 0 0 1-.95-.6l-.83-1.765zm-4.86-2.358c1.31.005 2.52 0 3.79 0-.64-1.383-1.25-2.715-1.9-4.124-.64 1.4-1.24 2.709-1.89 4.124zm-48.85-9.35a6.506 6.506 0 0 1 4.58 1.794 2.171 2.171 0 0 1 .28.3.41.41 0 0 1-.05.608c-.37.293-.75.573-1.14.835a.73.73 0 0 1-.77 0 4.623 4.623 0 0 1-.46-.28 4.9 4.9 0 0 0-5.53.308 3.925 3.925 0 0 0-1.32 1.943 5.27 5.27 0 0 0 .16 3.808 4.124 4.124 0 0 0 3.67 2.564c.13.013.27.006.4.016a3.978 3.978 0 0 0 2.78-.773.993.993 0 0 1 1.39.019c.24.206.51.374.75.581a.445.445 0 0 1 .05.754 6.537 6.537 0 0 1-.98.83 6.713 6.713 0 0 1-4.59 1.091 7.42 7.42 0 0 1-2.87-.836 6.466 6.466 0 0 1-3.24-4.32 7.666 7.666 0 0 1 .71-5.82 6.46 6.46 0 0 1 4.52-3.221c.54-.114 1.1-.137 1.66-.201zm-21.36.715l4.97 4.1V14H2.29V6.732l4.97-4.1m0-2.625a1.342 1.342 0 0 0-.84.3L.5 5.2A1.365 1.365 0 0 0 0 6.265v8.718a1.354 1.354 0 0 0 1.34 1.368h11.85a1.354 1.354 0 0 0 1.34-1.368V6.265a1.4 1.4 0 0 0-.5-1.065L8.1.308a1.3 1.3 0 0 0-.84-.3zM92.49 18c-.01-.636-.01-1.273-.01-1.9.5-.132 9.07-.169 10.11-.042V18H105v-4.209a1.708 1.708 0 0 0-1.01-.249 4.653 4.653 0 0 1-1.27-.05V3.355c0-.183 0-.366-.01-.549a.416.416 0 0 0-.42-.439c-.11-.01-.22-.014-.33-.014h-7.45c-.7 0-.78.094-.79.785-.05 1.6-.08 3.2-.14 4.8a16.076 16.076 0 0 1-.57 3.778 9.831 9.831 0 0 1-.6 1.439.6.6 0 0 1-.65.381 9.53 9.53 0 0 0-1 0 .574.574 0 0 0-.67.715c-.01 1.25 0 2.5-.01 3.749h2.41zm3.66-13.222h4.14V13.5h-5.26a29.639 29.639 0 0 0 1.12-8.723zM18.22 16.352a1.157 1.157 0 0 1-1.14-1.173A1.157 1.157 0 0 1 18.22 14a1.159 1.159 0 0 1 1.15 1.173 1.159 1.159 0 0 1-1.15 1.178z"/></svg><svg width="32" height="20" viewBox="0 0 32 20" id="mastercard" x="60" y="187.99" xmlns="http://www.w3.org/2000/svg"><g fill="none"><path fill="#FF5F00" d="M11.665 2.151h8.615v15.51h-8.615z"/><path d="M12.212 9.907a9.853 9.853 0 0 1 3.76-7.756A9.834 9.834 0 0 0 2.656 3.214a9.875 9.875 0 0 0 0 13.383 9.834 9.834 0 0 0 13.318 1.063 9.853 9.853 0 0 1-3.761-7.753z" fill="#EB001B"/><path d="M31.904 9.907a9.864 9.864 0 0 1-5.543 8.871 9.832 9.832 0 0 1-10.388-1.118 9.87 9.87 0 0 0 3.762-7.755 9.87 9.87 0 0 0-3.762-7.754A9.832 9.832 0 0 1 26.36 1.033a9.864 9.864 0 0 1 5.543 8.871v.003z" fill="#F79E1B"/></g></svg><svg width="24" height="24" fill="none" viewBox="0 0 24 24" id="menu-m" x="118" y="247.99" xmlns="http://www.w3.org/2000/svg"><path d="M23 4H1a1 1 0 0 1 0-2h22a1 1 0 1 1 0 2zm0 9H1a1 1 0 0 1 0-2h22a1 1 0 0 1 0 2zm0 9H1a1 1 0 0 1 0-2h22a1 1 0 0 1 0 2z" fill="#000"/></svg><svg width="24" height="24" fill="none" viewBox="0 0 24 24" id="menu-white" x="142" y="247.99" xmlns="http://www.w3.org/2000/svg"><path d="M8 11H3a3 3 0 0 1-3-3V3a3 3 0 0 1 3-3h5a3 3 0 0 1 3 3v5a3 3 0 0 1-3 3zM3 2a1 1 0 0 0-1 1v5a1 1 0 0 0 1 1h5a1 1 0 0 0 1-1V3a1 1 0 0 0-1-1H3zm18 9h-5a3 3 0 0 1-3-3V3a3 3 0 0 1 3-3h5a3 3 0 0 1 3 3v5a3 3 0 0 1-3 3zm-5-9a1 1 0 0 0-1 1v5a1 1 0 0 0 1 1h5a1 1 0 0 0 1-1V3a1 1 0 0 0-1-1h-5zM8 24H3a3 3 0 0 1-3-3v-5a3 3 0 0 1 3-3h5a3 3 0 0 1 3 3v5a3 3 0 0 1-3 3zm-5-9a1 1 0 0 0-1 1v5a1 1 0 0 0 1 1h5a1 1 0 0 0 1-1v-5a1 1 0 0 0-1-1H3zm18 9h-5a3 3 0 0 1-3-3v-5a3 3 0 0 1 3-3h5a3 3 0 0 1 3 3v5a3 3 0 0 1-3 3zm-5-9a1 1 0 0 0-1 1v5a1 1 0 0 0 1 1h5a1 1 0 0 0 1-1v-5a1 1 0 0 0-1-1h-5z" fill="#fff"/></svg><svg width="57" height="16" fill="none" viewBox="0 0 57 16" id="mir" x="105.01" y="110" xmlns="http://www.w3.org/2000/svg"><path d="M40 8v8h5.073v-4.5h5.106c2.666 0 4.943-1.453 5.821-3.5H40z" fill="#006848"/><path d="M40 0c.016.45.079.901.173 1.317.016.086.048.19.063.277.016.035.016.07.032.121C41.151 4.782 43.752 7 46.826 7h9.08A5.84 5.84 0 0 0 56 5.943c0-1.733-.678-3.292-1.766-4.384C53.273.59 51.996 0 50.578 0H40z" fill="#02AFFF"/><path d="M31.035 1.69l-3.581 7.762h-.362V0H22v16h4.32a2.91 2.91 0 0 0 2.645-1.69l3.581-7.762h.362V16H38V0h-4.32a2.91 2.91 0 0 0-2.645 1.69zM7.736 2.1L9.83 9.453h.354l2.08-7.351C12.618.853 13.73 0 15.003 0H20v16h-4.996V6.548h-.354L11.78 16H8.22L5.35 6.548h-.354V16H0V0h4.996c1.273 0 2.385.853 2.74 2.1z" fill="#006848"/></svg><svg width="11" height="19" fill="none" viewBox="0 0 11 19" id="odnoklassniki" x="128" y="187.99" xmlns="http://www.w3.org/2000/svg"><path d="M6.921 12.467l2.554 2.58c.286.29.399.71.294 1.105a1.14 1.14 0 0 1-.8.81 1.123 1.123 0 0 1-1.094-.299l-2.43-2.456-2.432 2.456a1.12 1.12 0 0 1-1.093.298 1.137 1.137 0 0 1-.8-.808 1.151 1.151 0 0 1 .294-1.105l2.553-2.58a7.503 7.503 0 0 1-2.424-.925 1.15 1.15 0 0 1-.382-1.565 1.124 1.124 0 0 1 1.546-.396 5.376 5.376 0 0 0 5.56-.052 1.12 1.12 0 0 1 1.132-.043c.357.192.587.562.6.971.014.409-.19.794-.534 1.01a7.498 7.498 0 0 1-2.544 1zM5.444 9.162c-2.23 0-4.038-1.827-4.038-4.08C1.406 2.826 3.214 1 5.444 1c2.23 0 4.039 1.827 4.039 4.081 0 2.254-1.808 4.081-4.039 4.081zm0-5.713A1.626 1.626 0 0 0 3.83 5.08c0 .902.723 1.633 1.615 1.633S7.06 5.983 7.06 5.08c0-.901-.724-1.632-1.616-1.632z" fill="#333"/></svg><svg width="24" height="24" viewBox="0 0 24 24" id="payment" x="214" y="247.99" xmlns="http://www.w3.org/2000/svg"><defs><path d="M8.24 4.098c0-.2.168-.364.375-.364h5.14c2.457 0 4.456 1.938 4.456 4.32 0 2.383-1.999 4.321-4.456 4.321H8.24V4.098zm5.515 10.011c3.444 0 6.245-2.716 6.245-6.055C20 4.716 17.2 2 13.755 2h-5.14c-1.194 0-2.164.942-2.164 2.098v12.558H4.894a.88.88 0 0 0-.894.867c0 .479.4.867.894.867h1.557v2.743c0 .48.4.867.894.867a.88.88 0 0 0 .895-.867V18.39h5.377c.494 0 .895-.388.895-.867a.88.88 0 0 0-.895-.867H8.24V14.11h5.515z" id="bua"/></defs><g fill="#fff" fill-rule="evenodd"><mask id="bub"><use xlink:href="#bua"/></mask><use xlink:href="#bua"/><g mask="url(#bub)"><path d="M0 0h24v24H0z"/></g></g></svg><svg width="24" height="13" viewBox="0 0 24 13" id="pays_another" x="212.01" y="110" xmlns="http://www.w3.org/2000/svg"><defs><path d="M19.9 15.99l-2.599-3.146a.294.294 0 0 1 .046-.419l3.805-3.006c.219-.172.535.018.481.29l-1.206 6.148a.301.301 0 0 1-.526.132M8.589 8.911l2.497 2.8a.297.297 0 0 1-.027.42l-3.676 3.207c-.215.187-.547 0-.494-.28l1.18-6.007a.302.302 0 0 1 .52-.14m5.45 3.845L9.792 7.993a.297.297 0 0 1 .225-.493h10.279c.284 0 .408.353.187.53l-6.03 4.762a.303.303 0 0 1-.412-.036m.232 2.097l1.42-1.122a.303.303 0 0 1 .42.044l2.678 3.24a.296.296 0 0 1-.232.485H7.991a.297.297 0 0 1-.198-.52l4.263-3.72a.31.31 0 0 1 .435.027l1.366 1.53c.106.12.29.136.415.036M21.95 6c1.028 0 1.742 1.093 1.504 2.304l-1.766 9c-.191.975-.944 1.696-1.772 1.696H6.528c-.8 0-1.404-.665-1.522-1.53l-.03-.033.026-.02a2.343 2.343 0 0 1 .022-.72l1.765-9C6.981 6.72 7.733 6 8.562 6H21.95zM4.29 7.167c.419 0 .758.336.758.75s-.34.75-.758.75H1.258a.754.754 0 0 1-.758-.75c0-.414.34-.75.758-.75h3.033zm-1.01 4.542c.418 0 .757.335.757.75 0 .414-.34.75-.758.75H1.258a.754.754 0 0 1-.758-.75c0-.415.34-.75.758-.75H3.28zM2.268 16.25c.419 0 .758.336.758.75s-.34.75-.758.75H1.26A.754.754 0 0 1 .5 17c0-.414.34-.75.758-.75H2.27z" id="bva"/></defs><use xlink:href="#bva" transform="translate(0 -6)" fill-rule="evenodd"/></svg><svg width="13" height="13" fill="none" viewBox="0 0 13 13" id="pencil-blue" x="252" y="207.99" xmlns="http://www.w3.org/2000/svg"><path d="M8.084 2.19l2.644 2.645-6.694 6.694-2.643-2.644L8.084 2.19zm4.65-.637L11.557.373a1.17 1.17 0 0 0-1.654 0l-1.13 1.13 2.645 2.645 1.318-1.318a.902.902 0 0 0 0-1.277zM.008 12.602a.3.3 0 0 0 .364.358l2.947-.715L.675 9.601l-.668 3z" fill="#1769FF"/></svg><svg width="13" height="13" fill="none" viewBox="0 0 13 13" id="pencil-white" x="217" y="187.99" xmlns="http://www.w3.org/2000/svg"><path d="M8.084 2.19l2.644 2.645-6.694 6.694-2.643-2.644L8.084 2.19zm4.65-.637L11.557.373a1.17 1.17 0 0 0-1.654 0l-1.13 1.13 2.645 2.645 1.318-1.318a.902.902 0 0 0 0-1.277zM.008 12.602a.3.3 0 0 0 .364.358l2.947-.715L.675 9.601l-.668 3z" fill="#FFF"/></svg><svg width="24" height="24" fill="none" viewBox="0 0 24 24" id="percent" x="290" xmlns="http://www.w3.org/2000/svg"><path d="M15.985 5.12a.939.939 0 0 1 .39 1.305l-7 12.081a1.009 1.009 0 0 1-.876.494c-.164 0-.33-.038-.485-.12a.938.938 0 0 1-.388-1.305l7-12.082c.268-.462.877-.63 1.36-.372zM7 8.309c0 .608.516 1.103 1.15 1.103.634 0 1.15-.495 1.15-1.103s-.516-1.103-1.15-1.103C7.516 7.205 7 7.7 7 8.308zm4.3 0c0 1.668-1.41 3.02-3.15 3.02S5 9.976 5 8.308c0-1.669 1.41-3.02 3.15-3.02s3.15 1.351 3.15 3.02zm4.55 8.486c.635 0 1.15-.495 1.15-1.102 0-.608-.515-1.103-1.15-1.103-.634 0-1.15.495-1.15 1.103 0 .607.516 1.102 1.15 1.102zm0-4.123c1.74 0 3.15 1.352 3.15 3.02 0 1.67-1.41 3.021-3.15 3.021s-3.15-1.352-3.15-3.02c0-1.669 1.41-3.021 3.15-3.021z" fill="#fff"/></svg><svg width="24" height="24" fill="none" viewBox="0 0 24 24" id="phone" x="290" y="24" xmlns="http://www.w3.org/2000/svg"><g clip-path="url(#clip0)"><path d="M18.4 24c-.5-.003-.997-.07-1.48-.2-3-.84-6.42-3.09-10-6.7C2.51 12.73.86 9.36.25 7.31A5.91 5.91 0 0 1 2.46.83l.33-.24A3 3 0 0 1 5.14.05a3 3 0 0 1 2 1.31l2.19 3.17A2.8 2.8 0 0 1 9.7 6.9L9 9.2a.78.78 0 0 0 .16.75l1 1.07c.89 1 1.83 1.91 2.8 2.81l1.09 1a.8.8 0 0 0 .74.14l2.3-.68a2.799 2.799 0 0 1 2.37.37l3.18 2.16a3 3 0 0 1 1.3 2 3.16 3.16 0 0 1-.57 2.42l-.2.28A5.94 5.94 0 0 1 18.4 24zM4.6 2a1.07 1.07 0 0 0-.6.21l-.33.24a3.93 3.93 0 0 0-1.51 4.29c.78 2.59 3 5.77 6.14 8.94 4.19 4.19 7.29 5.68 9.15 6.19a3.86 3.86 0 0 0 4.11-1.52l.2-.27a1.17 1.17 0 0 0 .22-.91 1.07 1.07 0 0 0-.45-.7l-3.18-2.16a.82.82 0 0 0-.68-.1l-2.31.68a2.8 2.8 0 0 1-2.63-.57l-1.11-1c-1-.93-2-1.92-2.93-2.92l-1-1.09a2.8 2.8 0 0 1-.59-2.67l.68-2.31a.79.79 0 0 0-.1-.67L5.52 2.48A1.09 1.09 0 0 0 4.8 2h-.2z" fill="#000"/></g></svg><svg width="24" height="24" fill="none" viewBox="0 0 24 24" id="phone-white" x="290" y="48" xmlns="http://www.w3.org/2000/svg"><g clip-path="url(#clip0)"><path d="M18.4 24c-.5-.003-.997-.07-1.48-.2-3-.84-6.42-3.09-10-6.7C2.51 12.73.86 9.36.25 7.31A5.91 5.91 0 0 1 2.46.83l.33-.24A3 3 0 0 1 5.14.05a3 3 0 0 1 2 1.31l2.19 3.17A2.8 2.8 0 0 1 9.7 6.9L9 9.2a.78.78 0 0 0 .16.75l1 1.07c.89 1 1.83 1.91 2.8 2.81l1.09 1a.8.8 0 0 0 .74.14l2.3-.68a2.799 2.799 0 0 1 2.37.37l3.18 2.16a3 3 0 0 1 1.3 2 3.16 3.16 0 0 1-.57 2.42l-.2.28A5.94 5.94 0 0 1 18.4 24zM4.6 2a1.07 1.07 0 0 0-.6.21l-.33.24a3.93 3.93 0 0 0-1.51 4.29c.78 2.59 3 5.77 6.14 8.94 4.19 4.19 7.29 5.68 9.15 6.19a3.86 3.86 0 0 0 4.11-1.52l.2-.27a1.17 1.17 0 0 0 .22-.91 1.07 1.07 0 0 0-.45-.7l-3.18-2.16a.82.82 0 0 0-.68-.1l-2.31.68a2.8 2.8 0 0 1-2.63-.57l-1.11-1c-1-.93-2-1.92-2.93-2.92l-1-1.09a2.8 2.8 0 0 1-.59-2.67l.68-2.31a.79.79 0 0 0-.1-.67L5.52 2.48A1.09 1.09 0 0 0 4.8 2h-.2z" fill="#fff"/></g></svg><svg width="24" height="24" viewBox="0 0 24 24" id="price" x="290" y="72" xmlns="http://www.w3.org/2000/svg"><defs><path d="M15.668 4.7a.748.748 0 0 1 .328 1.005L9.439 18.62a.748.748 0 0 1-1.332-.678l6.556-12.913a.75.75 0 0 1 1.005-.328zM12 22.505c5.792 0 10.505-4.713 10.505-10.505 0-5.793-4.713-10.505-10.505-10.505C6.208 1.495 1.495 6.207 1.495 12c0 5.792 4.713 10.505 10.505 10.505zM12 0c6.617 0 12 5.383 12 12s-5.383 12-12 12S0 18.617 0 12 5.383 0 12 0zM8.52 7.35a1.01 1.01 0 1 0 2.021 0 1.01 1.01 0 0 0-2.02 0zm3.515 0A2.508 2.508 0 0 1 9.53 9.856a2.507 2.507 0 0 1-2.504-2.504A2.507 2.507 0 0 1 9.53 4.846a2.508 2.508 0 0 1 2.505 2.505zm2.632 10.183a1.01 1.01 0 1 0-.001-2.02 1.01 1.01 0 0 0 0 2.02zm0-3.513a2.507 2.507 0 0 1 2.504 2.503 2.507 2.507 0 0 1-2.504 2.505 2.507 2.507 0 0 1-2.505-2.505 2.507 2.507 0 0 1 2.505-2.503z" id="cba"/></defs><g fill="#fff" fill-rule="evenodd"><mask id="cbb"><use xlink:href="#cba"/></mask><use xlink:href="#cba"/><g mask="url(#cbb)"><path d="M0 0h24v24H0z"/></g></g></svg><svg width="24" height="24" fill="none" viewBox="0 0 24 24" id="profile" x="290" y="96" xmlns="http://www.w3.org/2000/svg"><g clip-path="url(#clip0)" fill="#000"><path d="M22 24a1 1 0 0 1-1-1v-2a4 4 0 0 0-4-4H7a4 4 0 0 0-4 4v2a1 1 0 1 1-2 0v-2a6 6 0 0 1 6-6h10a6 6 0 0 1 6 6v2a1 1 0 0 1-1 1zM12 14a7 7 0 1 1 0-14 7 7 0 0 1 0 14zm0-12a5 5 0 1 0 0 10 5 5 0 0 0 0-10z"/></g></svg><svg fill="#fff" data-name="Слой 1" viewBox="0 0 22 24" width="22" height="24" id="profile-white" y="247.99" xmlns="http://www.w3.org/2000/svg"><path d="M22 24a1 1 0 0 1-1-1v-2a4 4 0 0 0-4-4H7a4 4 0 0 0-4 4v2a1 1 0 0 1-2 0v-2a6 6 0 0 1 6-6h10a6 6 0 0 1 6 6v2a1 1 0 0 1-1 1zM12 14a7 7 0 1 1 7-7 7 7 0 0 1-7 7zm0-12a5 5 0 1 0 5 5 5 5 0 0 0-5-5z"/></svg><svg width="266" height="110" viewBox="0 0 266 110" id="promo-card" xmlns="http://www.w3.org/2000/svg"><defs><path id="cea" d="M0 0h280v137H0z"/><lineargradient x1="100%" y1="32.813%" x2="0%" y2="68.086%" id="ceg"><stop stop-color="#79E2F9" offset="0%"/><stop stop-color="#3593F1" offset="25.116%"/><stop stop-color="#277FF7" offset="46.846%"/><stop stop-color="#257BEE" offset="63.901%"/><stop stop-color="#6CAEFD" offset="100%"/></lineargradient><rect id="cee" x="0" y="0" width="184.45" height="110.933" rx="9.223"/><filter x="-4.6%" y="-5.9%" width="109.2%" height="115.3%" id="cef"><fegaussianblur stddeviation="2.5" in="shadowOffsetOuter1" result="shadowBlurOuter1"/><fecolormatrix values="0 0 0 0 0.00464559739 0 0 0 0 0.13058794 0 0 0 0 0.361186594 0 0 0 0.539718094 0" in="shadowBlurOuter1"/></filter></defs><g transform="translate(-7 -27)" fill="none" fill-rule="evenodd"><mask id="cec" fill="#fff"><use xlink:href="#cea"/></mask><use fill="url(#b)" xlink:href="#cea"/><g mask="url(#cec)"><path d="M15.969 13.25c-4.834.095-8.722 4.044-8.717 8.9l.019 91.755a8.91 8.91 0 0 0 8.901 8.902l164.878.034.001.002c4.834-.095 8.722-4.044 8.717-8.9l-.019-91.755a8.91 8.91 0 0 0-8.902-8.902L15.97 13.252v-.002z" fill="url(#d)" transform="rotate(10 -40.513 322.068)"/><g transform="rotate(2 -1056.59 1278.56)"><mask id="ceh" fill="#fff"><use xlink:href="#cee"/></mask><use fill="#000" filter="url(#cef)" xlink:href="#cee"/><rect fill="url(#ceg)" x=".25" y=".25" width="183.95" height="110.433" rx="9.223"/><path d="M66.803 46.45a5.182 5.182 0 0 1 .907 7.24l-45.275 58.794a5.096 5.096 0 0 1-7.18.903 5.181 5.181 0 0 1-.91-7.24L59.63 47.348a5.09 5.09 0 0 1 7.174-.899zM5.311 63.393c1.124 7.189 6.121 11.132 12.663 10.092 6.532-1.038 10.086-6.34 8.963-13.53-1.121-7.179-6.12-11.123-12.652-10.084-6.542 1.04-10.096 6.343-8.974 13.522zm31.856-5.063c1.922 12.3-5.074 22.889-17.672 24.891C6.89 85.225-2.988 77.318-4.91 65.018-6.83 52.727.156 42.131 12.762 40.127c12.597-2.003 22.485 5.91 24.405 18.203zm18.942 43.501c1.123 7.19 6.12 11.133 12.662 10.093 6.533-1.039 10.087-6.341 8.963-13.53-1.12-7.18-6.119-11.123-12.652-10.085-6.541 1.04-10.095 6.344-8.973 13.522zm31.856-5.063c1.921 12.3-5.075 22.889-17.672 24.892-12.606 2.003-22.484-5.904-24.405-18.204-1.92-12.29 5.066-22.887 17.672-24.89 12.596-2.004 22.484 5.91 24.405 18.202zm74.171-82.274l6.472 5.164v9.152h-12.945v-9.15l6.472-5.164.001-.002zm-1.122-2.916l-7.922 6.264c-.42.332-.665.833-.665 1.363v11.16c0 .966.8 1.75 1.788 1.75h15.842c.987 0 1.787-.784 1.788-1.75v-11.16c0-.53-.245-1.031-.666-1.363l-7.921-6.262a1.808 1.808 0 0 0-1.122-.388 1.8 1.8 0 0 0-1.122.386z" fill="#FFF" mask="url(#ceh)"/></g></g></g></svg><svg width="24" height="24" fill="none" viewBox="0 0 24 24" id="quality" x="262" y="247.99" xmlns="http://www.w3.org/2000/svg"><g clip-path="url(#clip0)"><mask id="cfa" x="0" y="0" width="24" height="23"><path d="M12 16.43c.154 0 .307.047.437.143l5.105 3.724-1.95-6.029a.746.746 0 0 1 .27-.834l5.104-3.725h-6.308a.741.741 0 0 1-.707-.517L12 3.165l-1.95 6.027a.743.743 0 0 1-.707.517h-6.31l5.105 3.725c.26.19.37.527.27.834l-1.95 6.03 5.105-3.725a.737.737 0 0 1 .437-.144zM18.957 23a.737.737 0 0 1-.437-.143L12 18.1l-6.52 4.756a.738.738 0 0 1-.875 0 .748.748 0 0 1-.27-.834l2.49-7.699-6.52-4.758a.75.75 0 0 1-.27-.834.745.745 0 0 1 .707-.516h8.06l2.49-7.699a.743.743 0 0 1 1.414 0l2.491 7.699h8.058a.747.747 0 0 1 .436 1.35l-6.518 4.758 2.49 7.699a.747.747 0 0 1-.707.978z" fill="#fff"/></mask><g mask="url(#cfa)" fill="#fff"><path d="M12 16.43c.154 0 .307.047.437.143l5.105 3.724-1.95-6.029a.746.746 0 0 1 .27-.834l5.104-3.725h-6.308a.741.741 0 0 1-.707-.517L12 3.165l-1.95 6.027a.743.743 0 0 1-.707.517h-6.31l5.105 3.725c.26.19.37.527.27.834l-1.95 6.03 5.105-3.725a.737.737 0 0 1 .437-.144zM18.957 23a.737.737 0 0 1-.437-.143L12 18.1l-6.52 4.756a.738.738 0 0 1-.875 0 .748.748 0 0 1-.27-.834l2.49-7.699-6.52-4.758a.75.75 0 0 1-.27-.834.745.745 0 0 1 .707-.516h8.06l2.49-7.699a.743.743 0 0 1 1.414 0l2.491 7.699h8.058a.747.747 0 0 1 .436 1.35l-6.518 4.758 2.49 7.699a.747.747 0 0 1-.707.978z"/><path d="M23.802 0H0v23.909h23.802V0z"/></g></g></svg><svg width="10" height="7" viewBox="0 0 10 7" id="rectangle" x="276" y="240" xmlns="http://www.w3.org/2000/svg"><path d="M.5 0h9a.5.5 0 0 1 0 1h-9a.5.5 0 0 1 0-1zm0 3h6a.5.5 0 0 1 0 1h-6a.5.5 0 0 1 0-1zm0 3h3a.5.5 0 0 1 0 1h-3a.5.5 0 0 1 0-1z" fill="#1769FF" fill-rule="evenodd"/></svg><svg width="24" height="24" fill="none" viewBox="0 0 24 24" id="sale" x="238" y="247.99" xmlns="http://www.w3.org/2000/svg"><g clip-path="url(#clip0)" fill="#f06989"><path d="M12 24a12 12 0 1 1 0-24 12 12 0 0 1 0 24zm0-22a10 10 0 1 0 0 20 10 10 0 0 0 0-20z"/><path d="M8 20a.999.999 0 0 1-.87-1.5l7.994-14a1.003 1.003 0 1 1 1.739 1l-7.994 14a1 1 0 0 1-.87.5zm1.5-10a2.5 2.5 0 1 1 0-5 2.5 2.5 0 0 1 0 5zm0-3a.5.5 0 1 0 0 1 .5.5 0 0 0 0-1zm4.99 12A2.5 2.5 0 1 1 17 16.47 2.508 2.508 0 0 1 14.49 19zm0-3.012a.491.491 0 1 0 .02.983.491.491 0 0 0-.02-.983z"/></g></svg><svg width="24" height="24" fill="none" viewBox="0 0 24 24" id="search-clear" x="190" y="247.99" xmlns="http://www.w3.org/2000/svg"><path fill-rule="evenodd" clip-rule="evenodd" d="M15.8 14.8a.644.644 0 0 1 0 .933.578.578 0 0 1-.467.267.605.605 0 0 1-.466-.2L12 12.933l-2.8 2.8a.578.578 0 0 1-.467.267.72.72 0 0 1-.466-.2.644.644 0 0 1 0-.933l2.8-2.8L8.2 9.2c-.2-.267-.2-.733 0-1a.644.644 0 0 1 .933 0l2.8 2.8 2.8-2.8a.645.645 0 0 1 .934 0 .645.645 0 0 1 0 .933L12.933 12l2.867 2.8zM12 4c-4.4 0-8 3.6-8 8s3.6 8 8 8 8-3.6 8-8-3.6-8-8-8z" fill="#9FA7B6"/></svg><svg data-name="Слой 1" viewBox="0 0 25.03 25.03" width="25.03" height="25.03" id="search-m" x="240" y="127.99" xmlns="http://www.w3.org/2000/svg"><path d="M23.71 22.29l-6-6a10 10 0 1 0-1.42 1.42l6 6a1 1 0 0 0 1.42 0 1 1 0 0 0 0-1.42zM10 18a8 8 0 1 1 8-8 8 8 0 0 1-8 8z"/></svg><svg width="24" height="24" fill="none" viewBox="0 0 24 24" id="search-result" x="290" y="120" xmlns="http://www.w3.org/2000/svg"><path d="M5.306 10.763c0-3.008 2.467-5.456 5.5-5.456 3.032 0 5.5 2.448 5.5 5.456 0 3.009-2.468 5.457-5.5 5.457-3.033 0-5.5-2.448-5.5-5.457zm14.5 8.12l-3.796-3.77a6.703 6.703 0 0 0 1.602-4.35C17.612 7.034 14.56 4 10.806 4S4 7.034 4 10.763c0 3.73 3.053 6.764 6.806 6.764 1.616 0 3.1-.565 4.268-1.503l3.813 3.787a.65.65 0 0 0 .923-.004.653.653 0 0 0-.003-.924z" fill="#484ed8"/></svg><svg width="24" height="24" fill="none" viewBox="0 0 24 24" id="search-sm" x="266" y="96" xmlns="http://www.w3.org/2000/svg"><path d="M5.306 10.763c0-3.008 2.467-5.456 5.5-5.456 3.032 0 5.5 2.448 5.5 5.456 0 3.009-2.468 5.457-5.5 5.457-3.033 0-5.5-2.448-5.5-5.457zm14.5 8.12l-3.796-3.77a6.703 6.703 0 0 0 1.602-4.35C17.612 7.034 14.56 4 10.806 4S4 7.034 4 10.763c0 3.73 3.053 6.764 6.806 6.764 1.616 0 3.1-.565 4.268-1.503l3.813 3.787a.65.65 0 0 0 .923-.004.653.653 0 0 0-.003-.924z" fill="#b3bac5"/></svg><svg width="16" height="20" viewBox="0 0 16 20" id="shape" x="112" y="187.99" xmlns="http://www.w3.org/2000/svg"><defs><path d="M8.24 4.098c0-.2.168-.364.375-.364h5.14c2.457 0 4.456 1.938 4.456 4.32 0 2.383-1.999 4.321-4.456 4.321H8.24V4.098zm5.515 10.011c3.444 0 6.245-2.716 6.245-6.055C20 4.716 17.2 2 13.755 2h-5.14c-1.194 0-2.164.942-2.164 2.098v12.558H4.894a.88.88 0 0 0-.894.867c0 .479.4.867.894.867h1.557v2.743c0 .48.4.867.894.867a.88.88 0 0 0 .895-.867V18.39h5.377c.494 0 .895-.388.895-.867a.88.88 0 0 0-.895-.867H8.24V14.11h5.515z" id="cma"/></defs><use xlink:href="#cma" transform="translate(-4 -2)" fill-rule="evenodd"/></svg><svg width="10" height="7" viewBox="0 0 10 7" id="sorting" x="266" y="240" xmlns="http://www.w3.org/2000/svg"><path d="M.5 0h9a.5.5 0 0 1 0 1h-9a.5.5 0 0 1 0-1zm0 3h6a.5.5 0 0 1 0 1h-6a.5.5 0 0 1 0-1zm0 3h3a.5.5 0 0 1 0 1h-3a.5.5 0 0 1 0-1z" fill="#1769FF" fill-rule="evenodd"/></svg><svg width="16" height="15" fill="none" viewBox="0 0 16 15" id="star" x="157" y="187.99" xmlns="http://www.w3.org/2000/svg"><path fill-rule="evenodd" clip-rule="evenodd" d="M8.5 10.68L3.865 14 5.65 8.648 1 5.348l5.739.012L8.5 0l1.761 5.36L16 5.348l-4.65 3.3L13.135 14 8.5 10.68z" fill="#FFC24D"/></svg><svg width="16" height="15" fill="none" viewBox="0 0 16 15" id="star-gray" x="173" y="187.99" xmlns="http://www.w3.org/2000/svg"><g clip-path="url(#clip0)"><path fill-rule="evenodd" clip-rule="evenodd" d="M8 11.443L3.056 15 4.96 9.265 0 5.73l6.121.014L8 0l1.879 5.743L16 5.729l-4.96 3.536L12.944 15 8 11.443z" fill="#CFCFCF"/></g></svg><svg width="24" height="24" fill="none" viewBox="0 0 24 24" id="tables" x="266" y="72" xmlns="http://www.w3.org/2000/svg"><g clip-path="url(#clip0)" fill="#000"><path d="M23.002 8H.985a1.001 1.001 0 0 1-.85-.47 1 1 0 0 1 0-1l2-4A1 1 0 0 1 2.987 2h18.015a1.001 1.001 0 0 1 .89.55l2.002 4a.998.998 0 0 1-.89 1.45zM2.606 6h18.775l-1-2H3.606l-1 2z"/><path d="M16.976 18a.996.996 0 0 1-.998-.92L15.229 8H8.744l-.748 9.08A1.002 1.002 0 1 1 6 16.92l.838-10A1 1 0 0 1 7.836 6h8.321a.997.997 0 0 1 .998.92l.838 10a1.004 1.004 0 0 1-.555.98.997.997 0 0 1-.383.1h-.08z"/><path d="M21.991 22.992a.999.999 0 0 1-.999-.87L19.114 7.999H4.885L3.007 22.122a1.008 1.008 0 1 1-1.999-.26L3.007 6.87A1 1 0 0 1 4.006 6h15.987a1 1 0 0 1 1 .87l1.998 14.992a1 1 0 0 1-.87 1.13h-.13z"/></g></svg><svg width="60" height="60" viewBox="0 0 60 60" id="telegram" y="187.99" xmlns="http://www.w3.org/2000/svg"><g fill="none" fill-rule="evenodd"><circle fill="#1E96C8" cx="30" cy="30" r="30"/><g fill-rule="nonzero"><path d="M40.113 19.211c.03-.02.694-.327 1.286.074.456.318.674.92.518 1.502-1.441 6.935-2.893 13.871-4.335 20.807-.01.084-.093.75-.684 1.11a1.436 1.436 0 0 1-1.328.085 2.142 2.142 0 0 1-.331-.201 6653.895 6653.895 0 0 1-10.267-7.877l11.936-10.943c.031-.053.166-.222.114-.327-.041-.085-.186-.117-.383-.085a1.16 1.16 0 0 0-.519.2c-4.905 3.151-9.8 6.302-14.705 9.453l-6.668-2.062c-.28-.211-.674-.55-.643-.951.03-.37.415-.624.56-.72 1.203-.76 20.668-8.235 25.449-10.065z" fill="#FFF"/><path d="M24.972 34.722l-.425 6.724c.155-.01.383-.032.643-.148a1.9 1.9 0 0 0 .632-.465l3.08-3.109-3.93-3.002z" fill="#A9C9DD"/><path d="M24.536 41.446c-.176 0-.383-.032-.55-.17a.87.87 0 0 1-.269-.475c-.114-.476-1.027-3.553-2.302-7.782l14.705-9.452a1.17 1.17 0 0 1 .26-.137c.186-.074.539-.159.632-.021.041.053.02.137.01.169 0 0-.02.106-.114.2-.124.128-5.123 4.706-11.936 10.944l-.436 6.724z" fill="#C8DAEA"/></g></g></svg><svg width="24" height="24" fill="none" viewBox="0 0 24 24" id="textile" x="228" y="207.99" xmlns="http://www.w3.org/2000/svg"><path d="M1.997 23a.998.998 0 0 1-.926-1.384.999.999 0 0 1 .218-.326l1.995-2a1 1 0 0 1 1.71.71c0 .267-.105.522-.293.71l-1.995 2a.998.998 0 0 1-.709.29zM20.003 5a.995.995 0 0 1-.926-.615 1.003 1.003 0 0 1 .218-1.095l1.995-2A1 1 0 0 1 23 2c0 .266-.105.522-.293.71l-1.995 2a.998.998 0 0 1-.709.29zM3.993 5a.995.995 0 0 1-.708-.29l-1.996-2A1.005 1.005 0 0 1 1.998.996a1 1 0 0 1 .708.294l1.995 2A1 1 0 0 1 3.993 5zm18 18a.998.998 0 0 1-.708-.29l-1.995-2a1.006 1.006 0 0 1 .708-1.714 1 1 0 0 1 .708.294l1.995 2a1 1 0 0 1-.708 1.71z" fill="#000"/><path d="M18 21H6a3 3 0 0 1-3-3V6a3 3 0 0 1 3-3h12a3 3 0 0 1 3 3v12a3 3 0 0 1-3 3zM6 5a1 1 0 0 0-1 1v12a1 1 0 0 0 1 1h12a1 1 0 0 0 1-1V6a1 1 0 0 0-1-1H6z" fill="#000"/><path d="M15 17H9a2 2 0 0 1-2-2V9a2 2 0 0 1 2-2h6a2 2 0 0 1 2 2v6a2 2 0 0 1-2 2zM9 9v6h6V9H9z" fill="#000"/></svg><svg width="24" height="24" fill="none" viewBox="0 0 24 24" id="time" x="204" y="207.99" xmlns="http://www.w3.org/2000/svg"><path d="M13.078 11.374l3.539 2.763a.77.77 0 0 1-.85 1.277L11.32 12.92a1.013 1.013 0 0 1-.515-.942v-.02l.387-6.643a.768.768 0 0 1 1.533 0l.353 6.06zM12 22.505c5.792 0 10.505-4.713 10.505-10.505 0-5.793-4.713-10.505-10.505-10.505C6.208 1.495 1.495 6.207 1.495 12c0 5.792 4.713 10.505 10.505 10.505zM12 0c6.617 0 12 5.383 12 12s-5.383 12-12 12S0 18.617 0 12 5.383 0 12 0z" fill="#fff"/></svg><svg width="18" height="15" viewBox="0 0 18 15" id="twitter" x="139" y="187.99" xmlns="http://www.w3.org/2000/svg"><defs><path d="M7.938 18.333c6.228 0 9.635-5.29 9.635-9.876 0-.149 0-.297-.01-.451a6.986 6.986 0 0 0 1.687-1.8 6.542 6.542 0 0 1-1.947.548 3.465 3.465 0 0 0 1.491-1.922 6.721 6.721 0 0 1-2.148.844 3.33 3.33 0 0 0-4.79-.148 3.527 3.527 0 0 0-.978 3.316C8.155 8.706 5.618 7.385 3.9 5.22 3 6.807 3.46 8.834 4.945 9.853a3.28 3.28 0 0 1-1.537-.435v.042c0 1.65 1.139 3.073 2.718 3.402a3.29 3.29 0 0 1-1.528.058c.446 1.412 1.714 2.383 3.164 2.41a6.708 6.708 0 0 1-5.012 1.443 9.408 9.408 0 0 0 5.188 1.56" id="cua"/></defs><g transform="translate(-2 -4)" fill="none" fill-rule="evenodd"><mask id="cub" fill="#fff"><use xlink:href="#cua"/></mask><use fill="#333" fill-rule="nonzero" xlink:href="#cua"/><g mask="url(#cub)" fill="#333"><path d="M0 0h22.222v22.222H0z"/></g></g></svg><svg width="60" height="60" viewBox="0 0 60 60" id="viber" x="180" y="127.99" xmlns="http://www.w3.org/2000/svg"><g fill="none" fill-rule="evenodd"><circle fill="#7C519B" cx="30" cy="30" r="30"/><path d="M40.955 19.726c-.706-.64-3.564-2.679-9.936-2.706 0 0-7.513-.443-11.171 2.86-2.036 2-2.753 4.937-2.83 8.573-.079 3.637-.173 10.45 6.505 12.298h.006l-.006 2.822s-.044 1.143.723 1.372c.923.285 1.468-.585 2.352-1.52a86.111 86.111 0 0 0 1.657-1.843c4.57.378 8.08-.486 8.48-.612.923-.295 6.144-.952 6.99-7.765.878-7.032-.423-11.472-2.77-13.479zm.773 12.965c-.717 5.687-4.949 6.048-5.727 6.294-.334.104-3.42.858-7.296.612 0 0-2.891 3.429-3.792 4.32-.295.29-.617.263-.611-.312 0-.377.022-4.686.022-4.686-.006 0-.006 0 0 0-5.66-1.542-5.327-7.343-5.266-10.378.061-3.035.645-5.523 2.369-7.196 3.097-2.761 9.475-2.351 9.475-2.351 5.388.022 7.968 1.618 8.569 2.154 1.985 1.673 2.997 5.676 2.257 11.543zM34 28.273c.022.47-.695.503-.717.033-.061-1.203-.634-1.788-1.813-1.854-.478-.027-.434-.733.039-.705 1.551.082 2.413.957 2.491 2.526zm1.129.618c.055-2.319-1.418-4.134-4.215-4.336-.473-.033-.423-.738.05-.706 3.225.23 4.943 2.412 4.882 5.058-.005.47-.728.449-.717-.016zm2.613.733c.006.47-.717.475-.717.005-.033-4.456-3.053-6.884-6.717-6.911-.473-.006-.473-.706 0-.706 4.098.027 7.395 2.81 7.434 7.612zm-.628 5.364v.01c-.6 1.04-1.724 2.188-2.88 1.822l-.012-.017c-1.173-.322-3.936-1.722-5.682-3.09a14.413 14.413 0 0 1-2.358-2.318 17.732 17.732 0 0 1-1.713-2.548c-1.184-2.105-1.445-3.046-1.445-3.046-.373-1.137.79-2.241 1.851-2.832h.011c.512-.263 1.001-.175 1.33.213 0 0 .689.81.984 1.209.278.371.65.967.845 1.301.339.596.128 1.203-.206 1.454l-.667.525c-.34.268-.295.766-.295.766s.99 3.68 4.688 4.61c0 0 .506.043.778-.29l.534-.656c.256-.328.873-.536 1.479-.203.817.454 1.857 1.16 2.547 1.8.389.311.478.787.21 1.29z" fill="#FFF" fill-rule="nonzero"/></g></svg><svg width="50" height="16" viewBox="0 0 50 16" id="visa" x="162.01" y="110" xmlns="http://www.w3.org/2000/svg"><defs><path id="cwa" d="M0 .122h49.063V15.98H0"/><path id="cwc" d="M0 .122h49.063V15.98H0"/></defs><g fill="none" fill-rule="evenodd"><mask id="cwb" fill="#fff"><use xlink:href="#cwa"/></mask><path fill="#005CA3" fill-rule="nonzero" mask="url(#cwb)" d="M17.286 15.771L19.772.4h3.974L21.26 15.771h-3.974"/><mask id="cwd" fill="#fff"><use xlink:href="#cwc"/></mask><path d="M35.668.776a9.813 9.813 0 0 0-3.565-.654c-3.925 0-6.689 2.093-6.705 5.085-.033 2.208 1.979 3.434 3.483 4.17 1.538.752 2.061 1.243 2.061 1.913-.016 1.03-1.243 1.505-2.388 1.505-1.586 0-2.436-.245-3.729-.818l-.523-.245-.556 3.45c.933.426 2.65.802 4.432.818 4.17 0 6.885-2.06 6.918-5.249.016-1.75-1.047-3.09-3.336-4.186-1.39-.703-2.24-1.178-2.24-1.897.016-.654.719-1.325 2.289-1.325a6.754 6.754 0 0 1 2.96.59l.36.162.54-3.32" fill="#005CA3" fill-rule="nonzero" mask="url(#cwd)"/><path d="M45.857.4h-3.075c-.948 0-1.668.278-2.077 1.275l-5.903 14.096h4.17l.834-2.306h5.102c.115.54.475 2.306.475 2.306h3.68L45.857.4zm-4.906 9.926c.327-.883 1.586-4.301 1.586-4.301-.016.033.327-.9.524-1.472l.277 1.325s.753 3.68.916 4.448h-3.303zM13.966.4l-3.892 10.482-.425-2.126c-.72-2.453-2.976-5.118-5.495-6.443L7.72 15.755h4.203L18.17.4h-4.203" fill="#005CA3" fill-rule="nonzero"/><path d="M6.46.4H.065L0 .71c4.988 1.276 8.292 4.35 9.649 8.046L8.259 1.69C8.03.711 7.327.432 6.46.4" fill="#FFAD30" fill-rule="nonzero"/></g></svg><svg width="24" height="24" fill="none" viewBox="0 0 24 24" id="vk" x="84" y="207.99" xmlns="http://www.w3.org/2000/svg"><path d="M19.635 7.678c.11-.39 0-.678-.528-.678h-1.75c-.445 0-.65.247-.76.522 0 0-.891 2.284-2.15 3.765-.407.429-.595.566-.817.566-.11 0-.28-.137-.28-.528V7.678c0-.469-.124-.678-.493-.678h-2.75a.432.432 0 0 0-.446.422c0 .444.63.547.695 1.797v2.712c0 .594-.1.703-.323.703-.594 0-2.038-2.293-2.893-4.918C6.967 7.206 6.798 7 6.35 7H4.6c-.499 0-.6.247-.6.522 0 .487.594 2.91 2.765 6.11C8.212 15.815 10.25 17 12.103 17c1.114 0 1.25-.262 1.25-.716 0-2.087-.1-2.284.458-2.284.258 0 .704.137 1.743 1.19 1.188 1.25 1.384 1.81 2.05 1.81h1.75c.498 0 .75-.262.605-.781-.333-1.09-2.581-3.335-2.682-3.485-.258-.35-.184-.506 0-.819.003-.002 2.139-3.165 2.358-4.237z" fill="#5E6C84"/></svg><svg width="60" height="60" viewBox="0 0 60 60" id="warranty-color" x="120" y="127.99" xmlns="http://www.w3.org/2000/svg"><defs><lineargradient x1="50%" y1="0%" x2="50%" y2="100%" id="cyb"><stop stop-color="#F1C24F" offset="0%"/><stop stop-color="#E69B37" offset="100%"/></lineargradient></defs><g fill="none" fill-rule="evenodd"><path d="M17.479 8.264c0 .878-1.105 1.574-1.366 2.367-.271.821.201 2.025-.303 2.71-.509.69-1.816.615-2.516 1.118-.692.498-1.022 1.752-1.853 2.018-.803.258-1.812-.556-2.702-.556-.889 0-1.899.814-2.701.556-.832-.266-1.162-1.52-1.854-2.018-.7-.503-2.007-.429-2.516-1.119-.503-.684-.032-1.888-.302-2.709C1.105 9.838 0 9.142 0 8.264c0-.879 1.105-1.574 1.366-2.367.27-.822-.201-2.025.302-2.709.509-.69 1.817-.617 2.516-1.119C4.876 1.571 5.206.317 6.038.05 6.84-.207 7.85.607 8.739.607c.89 0 1.899-.814 2.702-.557.831.267 1.161 1.521 1.853 2.02.7.501 2.007.427 2.516 1.118.504.684.032 1.887.303 2.71.261.792 1.366 1.487 1.366 2.366" fill="url(#a)" transform="translate(3)"/><path d="M14.106 8.417a5.361 5.361 0 0 1-5.367 5.356 5.36 5.36 0 0 1-5.366-5.356 5.36 5.36 0 0 1 5.366-5.356 5.361 5.361 0 0 1 5.367 5.356" fill="url(#cyb)" transform="translate(3)"/><path d="M12.732 16.794c-.351-.132-.714-.27-.992-.27s-.641.138-.992.27c-.427.162-.895.338-1.372.338a1.66 1.66 0 0 1-.522-.08c-.68-.217-1.072-.816-1.418-1.345a8.571 8.571 0 0 0-.281-.41l-3.317 5.64 3.466.082 1.76 2.98 4.14-7.035a10.82 10.82 0 0 1-.472-.17" fill="#BED5FF"/><path d="M16.335 15.282a8.272 8.272 0 0 0-.291.425c-.346.53-.738 1.128-1.418 1.346a1.677 1.677 0 0 1-.495.08l-1.869 3.174L14.435 24l1.76-2.982 3.466-.082-3.326-5.654z" fill="#85B0FF"/></g></svg><svg width="60" height="60" viewBox="0 0 60 60" id="warranty-gray" x="60" y="127.99" xmlns="http://www.w3.org/2000/svg"><defs><lineargradient x1="50%" y1="0%" x2="50%" y2="100%" id="czb"><stop stop-color="#CCC" offset="0%"/><stop stop-color="#B2B2B2" offset="100%"/></lineargradient></defs><g fill="none" fill-rule="evenodd"><path d="M17.479 8.264c0 .878-1.105 1.574-1.366 2.367-.271.821.201 2.025-.303 2.71-.509.69-1.816.615-2.516 1.118-.692.498-1.022 1.752-1.853 2.018-.803.258-1.812-.556-2.702-.556-.889 0-1.899.814-2.701.556-.832-.266-1.162-1.52-1.854-2.018-.7-.503-2.007-.429-2.516-1.119-.503-.684-.032-1.888-.302-2.709C1.105 9.838 0 9.142 0 8.264c0-.879 1.105-1.574 1.366-2.367.27-.822-.201-2.025.302-2.709.509-.69 1.817-.617 2.516-1.119C4.876 1.571 5.206.317 6.038.05 6.84-.207 7.85.607 8.739.607c.89 0 1.899-.814 2.702-.557.831.267 1.161 1.521 1.853 2.02.7.501 2.007.427 2.516 1.118.504.684.032 1.887.303 2.71.261.792 1.366 1.487 1.366 2.366" fill="url(#a)" transform="translate(3)"/><path d="M14.106 8.417a5.361 5.361 0 0 1-5.367 5.356 5.36 5.36 0 0 1-5.366-5.356 5.36 5.36 0 0 1 5.366-5.356 5.361 5.361 0 0 1 5.367 5.356" fill="url(#czb)" transform="translate(3)"/><path d="M12.732 16.794c-.351-.132-.714-.27-.992-.27s-.641.138-.992.27c-.427.162-.895.338-1.372.338a1.66 1.66 0 0 1-.522-.08c-.68-.217-1.072-.816-1.418-1.345a8.571 8.571 0 0 0-.281-.41l-3.317 5.64 3.466.082 1.76 2.98 4.14-7.035a10.82 10.82 0 0 1-.472-.17" fill="#CCC"/><path d="M16.335 15.282a8.272 8.272 0 0 0-.291.425c-.346.53-.738 1.128-1.418 1.346a1.677 1.677 0 0 1-.495.08l-1.869 3.174L14.435 24l1.76-2.982 3.466-.082-3.326-5.654z" fill="#B2B2B2"/></g></svg><svg width="60" height="60" viewBox="0 0 60 60" id="whatsapp" y="127.99" xmlns="http://www.w3.org/2000/svg"><g fill="none" fill-rule="evenodd"><circle fill="#67C15E" cx="30" cy="30" r="30"/><path d="M26.087 23.111c-.271-.65-.477-.675-.888-.691a7.935 7.935 0 0 0-.47-.016c-.534 0-1.094.156-1.431.502-.411.42-1.432 1.399-1.432 3.407s1.465 3.95 1.662 4.223c.206.27 2.856 4.452 6.97 6.156 3.217 1.333 4.171 1.21 4.904 1.053 1.07-.23 2.41-1.02 2.748-1.975.337-.955.337-1.77.238-1.942-.098-.173-.37-.272-.781-.478-.411-.205-2.411-1.193-2.79-1.325-.37-.14-.724-.09-1.003.305-.395.551-.782 1.111-1.095 1.448-.246.264-.65.297-.987.157-.453-.19-1.72-.634-3.283-2.025-1.21-1.078-2.032-2.42-2.27-2.823-.24-.411-.025-.65.164-.872.206-.255.403-.436.608-.675.206-.239.321-.362.453-.642.14-.272.041-.552-.057-.757-.1-.207-.922-2.215-1.26-3.03zM29.996 16C22.278 16 16 22.28 16 30c0 3.061.987 5.901 2.666 8.206l-1.745 5.201 5.382-1.72A13.89 13.89 0 0 0 30.004 44C37.722 44 44 37.72 44 30s-6.278-14-13.996-14h-.008z" fill="#FFF"/></g></svg><svg width="18" height="24" viewBox="0 0 18 24" id="yandex_installments" x="266" y="144" xmlns="http://www.w3.org/2000/svg"><defs><path d="M17.98.123v13.96H1.579A1.579 1.579 0 0 1 0 12.506V1.702A1.58 1.58 0 0 1 1.579.123h16.4z" id="dba"/></defs><g fill="none" fill-rule="evenodd"><g transform="translate(0 9.662)"><mask id="dbb" fill="#fff"><use xlink:href="#dba"/></mask><use fill="#F2C647" xlink:href="#dba"/><path d="M15.158-9.662V8.35L2.054 12.485A1.579 1.579 0 0 1 0 10.979V.983C0 .447.272-.053.723-.344l14.435-9.318z" fill="#D0AC3A" mask="url(#dbb)"/></g><path d="M12 0v15.055l-9.495 6.877A1.579 1.579 0 0 1 0 20.652V10.536c0-.474.213-.924.581-1.224L12 0z" fill="#F2C647"/><ellipse fill="#020202" transform="rotate(45 9.047 10.857)" cx="9.047" cy="10.857" rx="1.255" ry="1.726"/></g></svg><svg width="20" height="16" viewBox="0 0 20 16" id="yandex_pay_by_card" x="290" y="181" xmlns="http://www.w3.org/2000/svg"><defs><path d="M20.5 8.286V7A1.5 1.5 0 0 0 19 5.5H5A1.5 1.5 0 0 0 3.5 7v1.286h17zm0 5.714h-17v3A1.5 1.5 0 0 0 5 18.5h14a1.5 1.5 0 0 0 1.5-1.5v-3zM5 4h14a3 3 0 0 1 3 3v10a3 3 0 0 1-3 3H5a3 3 0 0 1-3-3V7a3 3 0 0 1 3-3z" id="dca"/></defs><use xlink:href="#dca" transform="translate(-2 -4)" fill-rule="evenodd"/></svg></svg>