<svg width="24" height="24" fill="none" xmlns="http://www.w3.org/2000/svg"><g clip-path="url(#clip0)" fill="#000"><path d="M23.002 8H.985a1.001 1.001 0 0 1-.85-.47 1 1 0 0 1 0-1l2-4A1 1 0 0 1 2.987 2h18.015a1.001 1.001 0 0 1 .89.55l2.002 4a.998.998 0 0 1-.89 1.45zM2.606 6h18.775l-1-2H3.606l-1 2z"/><path d="M16.976 18a.996.996 0 0 1-.998-.92L15.229 8H8.744l-.748 9.08A1.002 1.002 0 1 1 6 16.92l.838-10A1 1 0 0 1 7.836 6h8.321a.997.997 0 0 1 .998.92l.838 10a1.004 1.004 0 0 1-.555.98.997.997 0 0 1-.383.1h-.08z"/><path d="M21.991 22.992a.999.999 0 0 1-.999-.87L19.114 7.999H4.885L3.007 22.122a1.008 1.008 0 1 1-1.999-.26L3.007 6.87A1 1 0 0 1 4.006 6h15.987a1 1 0 0 1 1 .87l1.998 14.992a1 1 0 0 1-.87 1.13h-.13z"/></g><defs><clipPath id="clip0"><path fill="#fff" d="M0 0h24v24H0z"/></clipPath></defs></svg>