<svg width="60" height="60" xmlns="http://www.w3.org/2000/svg"><g fill="none" fill-rule="evenodd"><circle fill="#7C519B" cx="30" cy="30" r="30"/><path d="M40.955 19.726c-.706-.64-3.564-2.679-9.936-2.706 0 0-7.513-.443-11.171 2.86-2.036 2-2.753 4.937-2.83 8.573-.079 3.637-.173 10.45 6.505 12.298h.006l-.006 2.822s-.044 1.143.723 1.372c.923.285 1.468-.585 2.352-1.52a86.111 86.111 0 0 0 1.657-1.843c4.57.378 8.08-.486 8.48-.612.923-.295 6.144-.952 6.99-7.765.878-7.032-.423-11.472-2.77-13.479zm.773 12.965c-.717 5.687-4.949 6.048-5.727 6.294-.334.104-3.42.858-7.296.612 0 0-2.891 3.429-3.792 4.32-.295.29-.617.263-.611-.312 0-.377.022-4.686.022-4.686-.006 0-.006 0 0 0-5.66-1.542-5.327-7.343-5.266-10.378.061-3.035.645-5.523 2.369-7.196 3.097-2.761 9.475-2.351 9.475-2.351 5.388.022 7.968 1.618 8.569 2.154 1.985 1.673 2.997 5.676 2.257 11.543zM34 28.273c.022.47-.695.503-.717.033-.061-1.203-.634-1.788-1.813-1.854-.478-.027-.434-.733.039-.705 1.551.082 2.413.957 2.491 2.526zm1.129.618c.055-2.319-1.418-4.134-4.215-4.336-.473-.033-.423-.738.05-.706 3.225.23 4.943 2.412 4.882 5.058-.005.47-.728.449-.717-.016zm2.613.733c.006.47-.717.475-.717.005-.033-4.456-3.053-6.884-6.717-6.911-.473-.006-.473-.706 0-.706 4.098.027 7.395 2.81 7.434 7.612zm-.628 5.364v.01c-.6 1.04-1.724 2.188-2.88 1.822l-.012-.017c-1.173-.322-3.936-1.722-5.682-3.09a14.413 14.413 0 0 1-2.358-2.318 17.732 17.732 0 0 1-1.713-2.548c-1.184-2.105-1.445-3.046-1.445-3.046-.373-1.137.79-2.241 1.851-2.832h.011c.512-.263 1.001-.175 1.33.213 0 0 .689.81.984 1.209.278.371.65.967.845 1.301.339.596.128 1.203-.206 1.454l-.667.525c-.34.268-.295.766-.295.766s.99 3.68 4.688 4.61c0 0 .506.043.778-.29l.534-.656c.256-.328.873-.536 1.479-.203.817.454 1.857 1.16 2.547 1.8.389.311.478.787.21 1.29z" fill="#FFF" fill-rule="nonzero"/></g></svg>