<svg width="60" height="60" viewBox="0 0 24 24" xmlns="http://www.w3.org/2000/svg"><defs><linearGradient x1="50%" y1="0%" x2="50%" y2="100%" id="a"><stop stop-color="#F9DE60" offset="0%"/><stop stop-color="#F7CF47" offset="100%"/></linearGradient><linearGradient x1="50%" y1="0%" x2="50%" y2="100%" id="b"><stop stop-color="#F1C24F" offset="0%"/><stop stop-color="#E69B37" offset="100%"/></linearGradient></defs><g fill="none" fill-rule="evenodd"><path d="M17.479 8.264c0 .878-1.105 1.574-1.366 2.367-.271.821.201 2.025-.303 2.71-.509.69-1.816.615-2.516 1.118-.692.498-1.022 1.752-1.853 2.018-.803.258-1.812-.556-2.702-.556-.889 0-1.899.814-2.701.556-.832-.266-1.162-1.52-1.854-2.018-.7-.503-2.007-.429-2.516-1.119-.503-.684-.032-1.888-.302-2.709C1.105 9.838 0 9.142 0 8.264c0-.879 1.105-1.574 1.366-2.367.27-.822-.201-2.025.302-2.709.509-.69 1.817-.617 2.516-1.119C4.876 1.571 5.206.317 6.038.05 6.84-.207 7.85.607 8.739.607c.89 0 1.899-.814 2.702-.557.831.267 1.161 1.521 1.853 2.02.7.501 2.007.427 2.516 1.118.504.684.032 1.887.303 2.71.261.792 1.366 1.487 1.366 2.366" fill="url(#a)" transform="translate(3)"/><path d="M14.106 8.417a5.361 5.361 0 0 1-5.367 5.356 5.36 5.36 0 0 1-5.366-5.356 5.36 5.36 0 0 1 5.366-5.356 5.361 5.361 0 0 1 5.367 5.356" fill="url(#b)" transform="translate(3)"/><path d="M12.732 16.794c-.351-.132-.714-.27-.992-.27s-.641.138-.992.27c-.427.162-.895.338-1.372.338a1.66 1.66 0 0 1-.522-.08c-.68-.217-1.072-.816-1.418-1.345a8.571 8.571 0 0 0-.281-.41l-3.317 5.64 3.466.082 1.76 2.98 4.14-7.035a10.82 10.82 0 0 1-.472-.17" fill="#BED5FF"/><path d="M16.335 15.282a8.272 8.272 0 0 0-.291.425c-.346.53-.738 1.128-1.418 1.346a1.677 1.677 0 0 1-.495.08l-1.869 3.174L14.435 24l1.76-2.982 3.466-.082-3.326-5.654z" fill="#85B0FF"/></g></svg>