<svg width="60" height="60" xmlns="http://www.w3.org/2000/svg"><g fill="none" fill-rule="evenodd"><circle fill="#67C15E" cx="30" cy="30" r="30"/><path d="M26.087 23.111c-.271-.65-.477-.675-.888-.691a7.935 7.935 0 0 0-.47-.016c-.534 0-1.094.156-1.431.502-.411.42-1.432 1.399-1.432 3.407s1.465 3.95 1.662 4.223c.206.27 2.856 4.452 6.97 6.156 3.217 1.333 4.171 1.21 4.904 1.053 1.07-.23 2.41-1.02 2.748-1.975.337-.955.337-1.77.238-1.942-.098-.173-.37-.272-.781-.478-.411-.205-2.411-1.193-2.79-1.325-.37-.14-.724-.09-1.003.305-.395.551-.782 1.111-1.095 1.448-.246.264-.65.297-.987.157-.453-.19-1.72-.634-3.283-2.025-1.21-1.078-2.032-2.42-2.27-2.823-.24-.411-.025-.65.164-.872.206-.255.403-.436.608-.675.206-.239.321-.362.453-.642.14-.272.041-.552-.057-.757-.1-.207-.922-2.215-1.26-3.03zM29.996 16C22.278 16 16 22.28 16 30c0 3.061.987 5.901 2.666 8.206l-1.745 5.201 5.382-1.72A13.89 13.89 0 0 0 30.004 44C37.722 44 44 37.72 44 30s-6.278-14-13.996-14h-.008z" fill="#FFF"/></g></svg>