<svg width="18" height="17" fill="none" xmlns="http://www.w3.org/2000/svg"><path d="M3.892 7.32a1.172 1.172 0 0 1-1.175-1.17c0-.646.527-1.169 1.175-1.169.649 0 1.174.523 1.174 1.169s-.525 1.17-1.174 1.17zm-.886-5.835c0 .81-.658 1.467-1.47 1.473v6.396a1.479 1.479 0 0 1 1.47 1.462h11.971a1.477 1.477 0 0 1 1.48-1.463h.008V2.96l-.008.001c-.818 0-1.48-.66-1.48-1.475H3.006zM1.261 12.302A1.215 1.215 0 0 1 .042 11.09V1.212C.042.542.588 0 1.261 0h15.478c.673 0 1.22.543 1.22 1.212v9.878c0 .67-.547 1.212-1.22 1.212H1.261zm-.515 2.242A.745.745 0 0 1 0 13.8c0-.41.334-.743.746-.743h16.507c.413 0 .747.333.747.743s-.334.742-.747.742H.746zm16.507.97c.413 0 .747.333.747.743s-.334.743-.747.743H.747A.744.744 0 0 1 0 16.257c0-.41.334-.743.747-.743h16.506zM9 8.74a2.594 2.594 0 0 1-2.6-2.59A2.595 2.595 0 0 1 9 3.562a2.595 2.595 0 0 1 2.602 2.59A2.595 2.595 0 0 1 9 8.738zm5.108-1.42a1.172 1.172 0 0 1-1.174-1.168c0-.646.526-1.169 1.174-1.169.65 0 1.176.523 1.176 1.169s-.527 1.169-1.176 1.169z" fill="#000"/></svg>