<svg width="24" height="24" fill="none" xmlns="http://www.w3.org/2000/svg"><g clip-path="url(#clip0)" fill="#000"><path d="M16.965 24H6.055a1.02 1.02 0 0 1-.655-.223.998.998 0 0 1-.357-.587l-2.024-10a.988.988 0 0 1 .57-1.1c.14-.062.29-.093.442-.09H18.99a1.022 1.022 0 0 1 .98.762c.037.143.04.293.012.438l-2.024 10a.997.997 0 0 1-.352.575 1.02 1.02 0 0 1-.64.225zm-10.12-2h9.31l1.62-8H5.265l1.58 8z"/><path d="M17.077 14c-.26 0-.51-.099-.698-.277a1.004 1.004 0 0 1-.314-.679c-.11-3.17.813-6.29 2.632-8.895-6.175 3.019-5.7 8.473-5.679 8.734a1.008 1.008 0 0 1-.891 1.106 1.017 1.017 0 0 1-.74-.214 1.005 1.005 0 0 1-.373-.67 10.372 10.372 0 0 1 1.012-5.032c1.124-2.415 3.715-5.604 9.717-7.043a1.018 1.018 0 0 1 1.148.522 1 1 0 0 1-.257 1.229s-4.828 4.045-4.545 10.213A1.008 1.008 0 0 1 17.128 14h-.051z"/><path d="M11.97 13.982a.996.996 0 0 1-.996-.739A9.737 9.737 0 0 0 5.762 6.93a10.44 10.44 0 0 1 1.226 6.224 1.011 1.011 0 1 1-1.993-.33 8.375 8.375 0 0 0-2.671-7.09.998.998 0 0 1 .797-1.726A11.954 11.954 0 0 1 9.348 6.89a11.97 11.97 0 0 1 3.619 5.834.998.998 0 0 1-.698 1.217.746.746 0 0 1-.299.04zM17 20H6a1 1 0 0 1 0-2h11a1 1 0 0 1 0 2z"/></g><defs><clipPath id="clip0"><path fill="#fff" d="M0 0h24v24H0z"/></clipPath></defs></svg>