<svg width="20" height="20" fill="none" xmlns="http://www.w3.org/2000/svg"><path d="M15.198 10.627c-.026-2.533 2.157-3.748 2.254-3.808-1.226-1.72-3.137-1.955-3.817-1.982-1.626-.158-3.173.917-3.998.917-.823 0-2.096-.894-3.444-.87A5.143 5.143 0 0 0 1.874 7.39c-1.841 3.06-.471 7.595 1.323 10.077.877 1.215 1.923 2.58 3.295 2.53 1.322-.05 1.822-.819 3.42-.819 1.599 0 2.048.82 3.447.795 1.423-.026 2.324-1.239 3.195-2.457 1.007-1.41 1.422-2.774 1.446-2.845-.032-.013-2.774-1.02-2.802-4.045zM12.57 3.194c.728-.847 1.22-2.022 1.086-3.194-1.05.04-2.322.67-3.075 1.515-.675.75-1.267 1.945-1.108 3.094 1.171.088 2.367-.57 3.097-1.415z" fill="#000"/></svg>