<svg width="20" height="20" xmlns="http://www.w3.org/2000/svg" xmlns:xlink="http://www.w3.org/1999/xlink"><defs><path d="M21.5 20.5a.5.5 0 0 1 .5.5v.5a.5.5 0 0 1-.5.5h-19a.5.5 0 0 1-.5-.5V21a.5.5 0 0 1 .5-.5h19zM10.166 19h-1a.5.5 0 0 1-.5-.5v-4.686a.5.5 0 0 1 .5-.5h1a.5.5 0 0 1 .5.5V18.5a.5.5 0 0 1-.5.5zm4.667 0h-1a.5.5 0 0 1-.5-.5v-4.686a.5.5 0 0 1 .5-.5h1a.5.5 0 0 1 .5.5V18.5a.5.5 0 0 1-.5.5zm4.667 0h-1a.5.5 0 0 1-.5-.5v-4.686a.5.5 0 0 1 .5-.5h1a.5.5 0 0 1 .5.5V18.5a.5.5 0 0 1-.5.5zm-14 0h-1a.5.5 0 0 1-.5-.5v-4.686a.5.5 0 0 1 .5-.5h1a.5.5 0 0 1 .5.5V18.5a.5.5 0 0 1-.5.5zM12 9.904a1.749 1.749 0 1 0-.001-3.497A1.749 1.749 0 0 0 12 9.904zm9.869.947c.276.261.087.718-.295.718H2.425a.416.416 0 0 1-.294-.718l8.941-8.483a1.353 1.353 0 0 1 1.856 0l8.941 8.483z" id="a"/></defs><use xlink:href="#a" transform="translate(-2 -2)" fill-rule="evenodd"/></svg>