<svg width="24" height="24" fill="none" xmlns="http://www.w3.org/2000/svg"><g clip-path="url(#clip0)" fill="#000"><path d="M15 19H9a1 1 0 0 1 0-2h6a1 1 0 0 1 0 2zm1.996-4h-.11a.995.995 0 0 1-.876-1.1l.996-9a1.007 1.007 0 0 1 1.106-.89 1.001 1.001 0 0 1 .886 1.11l-.996 9a1.002 1.002 0 0 1-1.006.88zM12 15a1 1 0 0 1-1-1V4a1 1 0 0 1 2 0v10a1 1 0 0 1-1 1zm-5.008-.006a.994.994 0 0 1-.996-.89L5 5.11A1.008 1.008 0 0 1 5.886 4a1 1 0 0 1 1.106.89l.995 8.995a1.003 1.003 0 0 1-.512.992.992.992 0 0 1-.374.117h-.11z"/><path d="M19.862 2.961a.893.893 0 0 1-.277 0 30.609 30.609 0 0 0-7.64-.987 30.609 30.609 0 0 0-7.64.987 1.03 1.03 0 0 1-1.267-.71A1.022 1.022 0 0 1 3.751.986 32.257 32.257 0 0 1 11.945 0a32.256 32.256 0 0 1 8.194.987 1 1 0 0 1 .851 1.125.996.996 0 0 1-1.128.85zM6 24a1 1 0 0 1-1-1v-9a1 1 0 1 1 2 0v9a1 1 0 0 1-1 1zm12 0a1 1 0 0 1-1-1v-9a1 1 0 0 1 2 0v9a1 1 0 0 1-1 1z"/><path d="M20 15H4a1 1 0 0 1 0-2h16a1 1 0 0 1 0 2z"/></g><defs><clipPath id="clip0"><path fill="#fff" d="M0 0h24v24H0z"/></clipPath></defs></svg>