<svg width="24" height="24" fill="none" xmlns="http://www.w3.org/2000/svg"><path d="M22 23H2a1 1 0 0 1-1-1V8a1 1 0 0 1 1-1h20a1 1 0 0 1 1 1v14a1 1 0 0 1-1 1zM3 21h18V9H3v12zM17.999 6a.938.938 0 0 1-.452-.11L11.73 3h-.522L5.39 5.89a1.009 1.009 0 0 1-1.283-.472.996.996 0 0 1 .379-1.308l6.027-3c.14-.071.295-.11.453-.11h1.004c.158 0 .312.039.452.11l6.028 3a1.002 1.002 0 0 1 .442 1.34A1.002 1.002 0 0 1 18 6z" fill="#000"/><path d="M2 23a1 1 0 0 1-.81-1.58l5-7a1 1 0 0 1 1.32-.28l4.21 2.53 4.47-6.25a1 1 0 0 1 .72-.42 1 1 0 0 1 .79.29l5 4.88a.997.997 0 0 1 .219 1.095.999.999 0 0 1-.924.616 1 1 0 0 1-.705-.291l-4.16-4.07-4.33 6a1 1 0 0 1-1.32.28l-4.2-2.47-4.47 6.25A1 1 0 0 1 2 23z" fill="#000"/></svg>