<svg width="24" height="25" fill="none" xmlns="http://www.w3.org/2000/svg"><g clip-path="url(#clip0)" fill="#000"><path d="M10.1 13.722H.9a.9.9 0 0 0-.9.899v9.202a.9.9 0 0 0 .9.899h9.2a.9.9 0 0 0 .9-.9v-9.201a.9.9 0 0 0-.9-.9zm-1.12 8.981H2.018v-6.965H8.98v6.965z"/><path d="M12.875 1.059L4.343 4.502a.9.9 0 0 0-.498 1.17l3.444 8.534a.9.9 0 0 0 1.171.497l8.532-3.444a.9.9 0 0 0 .498-1.17l-3.444-8.533a.9.9 0 0 0-1.17-.497zm2.323 8.748l-6.456 2.605-2.607-6.46 6.456-2.605 2.607 6.46z"/><path d="M23.13 13.853l-8.901-2.33a.9.9 0 0 0-1.098.641l-2.33 8.902a.9.9 0 0 0 .642 1.098l8.9 2.33a.9.9 0 0 0 1.098-.642l2.331-8.902a.9.9 0 0 0-.642-1.097zm-3.359 8.405l-6.735-1.764 1.765-6.739 6.734 1.764-1.764 6.739z"/></g><defs><clipPath id="clip0"><path fill="#fff" transform="translate(0 .722)" d="M0 0h24v24H0z"/></clipPath></defs></svg>