<svg width="16" height="16" fill="none" xmlns="http://www.w3.org/2000/svg"><mask id="a" maskUnits="userSpaceOnUse" x="0" y="0" width="17" height="17"><path d="M11.771 10.829a.666.666 0 1 1-.942.942L8 8.944l-2.828 2.829a.665.665 0 0 1-.943 0 .666.666 0 0 1 0-.943L7.058 8l-2.83-2.828a.666.666 0 1 1 .944-.943L8 7.058l2.829-2.83a.666.666 0 1 1 .942.944L8.944 8l2.829 2.829zM8.002 0a8 8 0 1 0 0 16A8 8 0 0 0 8 0z" fill="#fff"/></mask><g mask="url(#a)"><path d="M11.771 10.829a.666.666 0 1 1-.942.942L8 8.944l-2.828 2.829a.665.665 0 0 1-.943 0 .666.666 0 0 1 0-.943L7.058 8l-2.83-2.828a.666.666 0 1 1 .944-.943L8 7.058l2.829-2.83a.666.666 0 1 1 .942.944L8.944 8l2.829 2.829zM8.002 0a8 8 0 1 0 0 16A8 8 0 0 0 8 0z" fill="#000"/></g></svg>