<svg width="24" height="24" fill="none" xmlns="http://www.w3.org/2000/svg"><g clip-path="url(#clip0)" fill="#000"><path d="M21.979 23.98a.998.998 0 0 1-.999-.798l-1.816-9.185H4.832l-1.816 9.185a1.018 1.018 0 1 1-1.996-.4L3.016 12.8a.998.998 0 0 1 .998-.8h15.968a.998.998 0 0 1 .998.799l1.997 9.983a.998.998 0 0 1-.799 1.198h-.2z"/><path d="M12 21H3a1 1 0 0 1 0-2h8v-6a1 1 0 0 1 2 0v7a1 1 0 0 1-1 1z"/><path d="M9 17H7a1 1 0 0 1 0-2h2a1 1 0 0 1 0 2zm11 0h-8a1 1 0 0 1 0-2h8a1 1 0 0 1 0 2zm2-6H2a1 1 0 0 1 0-2h20a1 1 0 1 1 0 2z"/><path d="M15.52 9a4.5 4.5 0 1 1-.04-9 4.5 4.5 0 0 1 .04 9zm0-6.97a2.509 2.509 0 1 0 2.489 2.51 2.5 2.5 0 0 0-2.49-2.51zM9 11H4a1 1 0 0 1-1-1V8a1 1 0 0 1 1-1h5a1 1 0 0 1 1 1v2a1 1 0 0 1-1 1z"/></g><defs><clipPath id="clip0"><path fill="#fff" d="M0 0h24v24H0z"/></clipPath></defs></svg>