<svg width="25" height="24" fill="none" xmlns="http://www.w3.org/2000/svg"><g clip-path="url(#clip0)" stroke="#fff"><path d="M6.006 17.007v3.998a2 2 0 0 0 2 2h13a2 2 0 0 0 2-2v-18a2 2 0 0 0-2-2h-13a2 2 0 0 0-2 2v3.992" stroke-width="2"/><path d="M3 11.498h9.49v1H3a.5.5 0 1 1 0-1zm7.738 2.989l3.164-3.197.703.71-3.164 3.197a.493.493 0 0 1-.703 0 .506.506 0 0 1 0-.71z"/><path d="M11.441 8.803l3.164 3.196-.703.71-3.164-3.196a.506.506 0 0 1 0-.71.493.493 0 0 1 .703 0z"/></g><defs><clipPath id="clip0"><path fill="#fff" transform="translate(.99)" d="M0 0h24v24H0z"/></clipPath></defs></svg>