<svg width="11" height="19" fill="none" xmlns="http://www.w3.org/2000/svg"><path d="M6.921 12.467l2.554 2.58c.286.29.399.71.294 1.105a1.14 1.14 0 0 1-.8.81 1.123 1.123 0 0 1-1.094-.299l-2.43-2.456-2.432 2.456a1.12 1.12 0 0 1-1.093.298 1.137 1.137 0 0 1-.8-.808 1.151 1.151 0 0 1 .294-1.105l2.553-2.58a7.503 7.503 0 0 1-2.424-.925 1.15 1.15 0 0 1-.382-1.565 1.124 1.124 0 0 1 1.546-.396 5.376 5.376 0 0 0 5.56-.052 1.12 1.12 0 0 1 1.132-.043c.357.192.587.562.6.971.014.409-.19.794-.534 1.01a7.498 7.498 0 0 1-2.544 1zM5.444 9.162c-2.23 0-4.038-1.827-4.038-4.08C1.406 2.826 3.214 1 5.444 1c2.23 0 4.039 1.827 4.039 4.081 0 2.254-1.808 4.081-4.039 4.081zm0-5.713A1.626 1.626 0 0 0 3.83 5.08c0 .902.723 1.633 1.615 1.633S7.06 5.983 7.06 5.08c0-.901-.724-1.632-1.616-1.632z" fill="#333"/></svg>