<svg width="24" height="13" xmlns="http://www.w3.org/2000/svg" xmlns:xlink="http://www.w3.org/1999/xlink"><defs><path d="M19.9 15.99l-2.599-3.146a.294.294 0 0 1 .046-.419l3.805-3.006c.219-.172.535.018.481.29l-1.206 6.148a.301.301 0 0 1-.526.132M8.589 8.911l2.497 2.8a.297.297 0 0 1-.027.42l-3.676 3.207c-.215.187-.547 0-.494-.28l1.18-6.007a.302.302 0 0 1 .52-.14m5.45 3.845L9.792 7.993a.297.297 0 0 1 .225-.493h10.279c.284 0 .408.353.187.53l-6.03 4.762a.303.303 0 0 1-.412-.036m.232 2.097l1.42-1.122a.303.303 0 0 1 .42.044l2.678 3.24a.296.296 0 0 1-.232.485H7.991a.297.297 0 0 1-.198-.52l4.263-3.72a.31.31 0 0 1 .435.027l1.366 1.53c.106.12.29.136.415.036M21.95 6c1.028 0 1.742 1.093 1.504 2.304l-1.766 9c-.191.975-.944 1.696-1.772 1.696H6.528c-.8 0-1.404-.665-1.522-1.53l-.03-.033.026-.02a2.343 2.343 0 0 1 .022-.72l1.765-9C6.981 6.72 7.733 6 8.562 6H21.95zM4.29 7.167c.419 0 .758.336.758.75s-.34.75-.758.75H1.258a.754.754 0 0 1-.758-.75c0-.414.34-.75.758-.75h3.033zm-1.01 4.542c.418 0 .757.335.757.75 0 .414-.34.75-.758.75H1.258a.754.754 0 0 1-.758-.75c0-.415.34-.75.758-.75H3.28zM2.268 16.25c.419 0 .758.336.758.75s-.34.75-.758.75H1.26A.754.754 0 0 1 .5 17c0-.414.34-.75.758-.75H2.27z" id="a"/></defs><use xlink:href="#a" transform="translate(0 -6)" fill-rule="evenodd"/></svg>