<svg width="24" height="24" fill="none" xmlns="http://www.w3.org/2000/svg"><path d="M15.985 5.12a.939.939 0 0 1 .39 1.305l-7 12.081a1.009 1.009 0 0 1-.876.494c-.164 0-.33-.038-.485-.12a.938.938 0 0 1-.388-1.305l7-12.082c.268-.462.877-.63 1.36-.372zM7 8.309c0 .608.516 1.103 1.15 1.103.634 0 1.15-.495 1.15-1.103s-.516-1.103-1.15-1.103C7.516 7.205 7 7.7 7 8.308zm4.3 0c0 1.668-1.41 3.02-3.15 3.02S5 9.976 5 8.308c0-1.669 1.41-3.02 3.15-3.02s3.15 1.351 3.15 3.02zm4.55 8.486c.635 0 1.15-.495 1.15-1.102 0-.608-.515-1.103-1.15-1.103-.634 0-1.15.495-1.15 1.103 0 .607.516 1.102 1.15 1.102zm0-4.123c1.74 0 3.15 1.352 3.15 3.02 0 1.67-1.41 3.021-3.15 3.021s-3.15-1.352-3.15-3.02c0-1.669 1.41-3.021 3.15-3.021z" fill="#fff"/></svg>