<svg width="24" height="24" fill="none" xmlns="http://www.w3.org/2000/svg"><path d="M12 24A12 12 0 1 1 15.19.43a1 1 0 1 1-.53 1.93 10 10 0 1 0 1.39 18.7 1 1 0 0 1 .81 1.83A11.91 11.91 0 0 1 12 24z" fill="#000"/><path d="M11.579 21a8.335 8.335 0 0 1-3.6-.845 8.681 8.681 0 0 1-2.932-2.335 9.133 9.133 0 0 1-1.729-3.4 9.374 9.374 0 0 1-.21-3.84 9.229 9.229 0 0 1 1.348-3.582A8.803 8.803 0 0 1 7.115 4.33a8.4 8.4 0 0 1 3.484-1.265 8.294 8.294 0 0 1 3.672.367 1 1 0 0 1 .578.51c.12.242.143.525.063.786-.08.26-.255.477-.488.603a.952.952 0 0 1-.754.065 6.322 6.322 0 0 0-2.052-.339A6.52 6.52 0 0 0 6.911 7.09 7.097 7.097 0 0 0 4.96 12c0 1.841.701 3.607 1.95 4.91 1.248 1.301 2.942 2.033 4.707 2.033a6.376 6.376 0 0 0 3.827-1.265.968.968 0 0 1 .738-.172c.128.024.25.073.36.146a1.05 1.05 0 0 1 .443 1.047 1.07 1.07 0 0 1-.14.375 1 1 0 0 1-.267.29 8.348 8.348 0 0 1-5 1.636zM20 24a1 1 0 0 1-1-1V11a1 1 0 0 1 2 0v12a1 1 0 0 1-1 1z" fill="#000"/><path d="M20 12c-1.09 0-4 0-4-4 0-2.72 1.41-8 4-8s4 5.28 4 8c0 4-2.91 4-4 4zm0-10c-.61.14-2 3.24-2 6 0 1.82.58 2 2 2s2-.18 2-2c0-2.76-1.38-5.86-2-6z" fill="#000"/></svg>