<svg width="24" height="24" fill="none" xmlns="http://www.w3.org/2000/svg"><path fill-rule="evenodd" clip-rule="evenodd" d="M7.3 3.3c.3-.3.7-.4 1.1-.2.4.1.6.5.6.9v16c0 .6-.4 1-1 1s-1-.4-1-1V6.4L4.7 8.7c-.4.4-1 .4-1.4 0-.4-.4-.4-1 0-1.4l4-4zm8.1-.3c1.8 0 3.4 1.5 3.8 3.6.2 1.4-.2 3.2-1.7 4.4 1.9 1.4 2.6 3.8 2.3 5.8-.4 2.5-2.2 4.2-4.5 4.2-2.2 0-3.9-1.5-4.3-3.9-.3-2 .3-4.5 2.1-6-1.6-1.1-2-2.8-1.8-4.2.4-2.2 2.2-3.9 4.1-3.9zm0 9.1c-1.8.8-2.6 3-2.3 4.7.1.7.6 2.2 2.3 2.2 1.6 0 2.3-1.3 2.5-2.5.2-1.6-.5-3.7-2.5-4.4zm0-7.1c-.9 0-1.8 1-2 2.1-.2 1.3.5 2.3 2 2.8 2-.8 1.9-2.5 1.8-3C17 6 16.4 5 15.4 5z" fill="#fff"/></svg>