<svg xmlns="http://www.w3.org/2000/svg" xmlns:xlink="http://www.w3.org/1999/xlink" width="266" height="110"><defs><radialGradient cx="50%" cy="100%" fx="50%" fy="100%" r="58.023%" gradientTransform="matrix(0 1 -.818 0 1.318 .5)" id="b"><stop stop-color="#BAC9E0" stop-opacity=".727" offset="0%"/><stop stop-color="#BAC3DE" stop-opacity=".208" offset="76.111%"/><stop stop-color="#BABFDD" stop-opacity="0" offset="100%"/></radialGradient><path id="a" d="M0 0h280v137H0z"/><linearGradient x1="100%" y1="32.807%" x2="0%" y2="68.092%" id="d"><stop stop-color="#79E2F9" offset="0%"/><stop stop-color="#3593F1" offset="25.116%"/><stop stop-color="#277FF7" offset="46.846%"/><stop stop-color="#257BEE" offset="63.901%"/><stop stop-color="#6CAEFD" offset="100%"/></linearGradient><linearGradient x1="100%" y1="32.813%" x2="0%" y2="68.086%" id="g"><stop stop-color="#79E2F9" offset="0%"/><stop stop-color="#3593F1" offset="25.116%"/><stop stop-color="#277FF7" offset="46.846%"/><stop stop-color="#257BEE" offset="63.901%"/><stop stop-color="#6CAEFD" offset="100%"/></linearGradient><rect id="e" x="0" y="0" width="184.45" height="110.933" rx="9.223"/><filter x="-4.6%" y="-5.9%" width="109.2%" height="115.3%" filterUnits="objectBoundingBox" id="f"><feOffset dy="2" in="SourceAlpha" result="shadowOffsetOuter1"/><feGaussianBlur stdDeviation="2.5" in="shadowOffsetOuter1" result="shadowBlurOuter1"/><feComposite in="shadowBlurOuter1" in2="SourceAlpha" operator="out" result="shadowBlurOuter1"/><feColorMatrix values="0 0 0 0 0.00464559739 0 0 0 0 0.13058794 0 0 0 0 0.361186594 0 0 0 0.539718094 0" in="shadowBlurOuter1"/></filter></defs><g transform="translate(-7 -27)" fill="none" fill-rule="evenodd"><mask id="c" fill="#fff"><use xlink:href="#a"/></mask><use fill="url(#b)" xlink:href="#a"/><g mask="url(#c)"><path d="M15.969 13.25c-4.834.095-8.722 4.044-8.717 8.9l.019 91.755a8.91 8.91 0 0 0 8.901 8.902l164.878.034.001.002c4.834-.095 8.722-4.044 8.717-8.9l-.019-91.755a8.91 8.91 0 0 0-8.902-8.902L15.97 13.252v-.002z" stroke-opacity=".148" stroke="#091E42" stroke-width=".5" fill="url(#d)" transform="rotate(10 -40.513 322.068)"/><g transform="rotate(2 -1056.59 1278.56)"><mask id="h" fill="#fff"><use xlink:href="#e"/></mask><use fill="#000" filter="url(#f)" xlink:href="#e"/><rect stroke-opacity=".148" stroke="#091E42" stroke-width=".5" stroke-linejoin="square" fill="url(#g)" x=".25" y=".25" width="183.95" height="110.433" rx="9.223"/><path d="M66.803 46.45a5.182 5.182 0 0 1 .907 7.24l-45.275 58.794a5.096 5.096 0 0 1-7.18.903 5.181 5.181 0 0 1-.91-7.24L59.63 47.348a5.09 5.09 0 0 1 7.174-.899zM5.311 63.393c1.124 7.189 6.121 11.132 12.663 10.092 6.532-1.038 10.086-6.34 8.963-13.53-1.121-7.179-6.12-11.123-12.652-10.084-6.542 1.04-10.096 6.343-8.974 13.522zm31.856-5.063c1.922 12.3-5.074 22.889-17.672 24.891C6.89 85.225-2.988 77.318-4.91 65.018-6.83 52.727.156 42.131 12.762 40.127c12.597-2.003 22.485 5.91 24.405 18.203zm18.942 43.501c1.123 7.19 6.12 11.133 12.662 10.093 6.533-1.039 10.087-6.341 8.963-13.53-1.12-7.18-6.119-11.123-12.652-10.085-6.541 1.04-10.095 6.344-8.973 13.522zm31.856-5.063c1.921 12.3-5.075 22.889-17.672 24.892-12.606 2.003-22.484-5.904-24.405-18.204-1.92-12.29 5.066-22.887 17.672-24.89 12.596-2.004 22.484 5.91 24.405 18.202zm74.171-82.274l6.472 5.164v9.152h-12.945v-9.15l6.472-5.164.001-.002zm-1.122-2.916l-7.922 6.264c-.42.332-.665.833-.665 1.363v11.16c0 .966.8 1.75 1.788 1.75h15.842c.987 0 1.787-.784 1.788-1.75v-11.16c0-.53-.245-1.031-.666-1.363l-7.921-6.262a1.808 1.808 0 0 0-1.122-.388 1.8 1.8 0 0 0-1.122.386z" fill="#FFF" mask="url(#h)"/></g></g></g></svg>