<svg width="24" height="24" fill="none" xmlns="http://www.w3.org/2000/svg"><path fill-rule="evenodd" clip-rule="evenodd" d="M15.8 14.8a.644.644 0 0 1 0 .933.578.578 0 0 1-.467.267.605.605 0 0 1-.466-.2L12 12.933l-2.8 2.8a.578.578 0 0 1-.467.267.72.72 0 0 1-.466-.2.644.644 0 0 1 0-.933l2.8-2.8L8.2 9.2c-.2-.267-.2-.733 0-1a.644.644 0 0 1 .933 0l2.8 2.8 2.8-2.8a.645.645 0 0 1 .934 0 .645.645 0 0 1 0 .933L12.933 12l2.867 2.8zM12 4c-4.4 0-8 3.6-8 8s3.6 8 8 8 8-3.6 8-8-3.6-8-8-8z" fill="#9FA7B6"/></svg>