<svg width="16" height="20" xmlns="http://www.w3.org/2000/svg" xmlns:xlink="http://www.w3.org/1999/xlink"><defs><path d="M8.24 4.098c0-.2.168-.364.375-.364h5.14c2.457 0 4.456 1.938 4.456 4.32 0 2.383-1.999 4.321-4.456 4.321H8.24V4.098zm5.515 10.011c3.444 0 6.245-2.716 6.245-6.055C20 4.716 17.2 2 13.755 2h-5.14c-1.194 0-2.164.942-2.164 2.098v12.558H4.894a.88.88 0 0 0-.894.867c0 .479.4.867.894.867h1.557v2.743c0 .48.4.867.894.867a.88.88 0 0 0 .895-.867V18.39h5.377c.494 0 .895-.388.895-.867a.88.88 0 0 0-.895-.867H8.24V14.11h5.515z" id="a"/></defs><use xlink:href="#a" transform="translate(-4 -2)" fill-rule="evenodd"/></svg>