<svg width="24" height="24" fill="none" xmlns="http://www.w3.org/2000/svg"><path d="M17 24H7a1 1 0 0 1 0-2h10a1 1 0 0 1 0 2z" fill="#000"/><path d="M12 24a1 1 0 0 1-1-1v-6a1 1 0 0 1 2 0v6a1 1 0 0 1-1 1zm7.916-9H4.058a1.108 1.108 0 0 1-.448-.088 1.053 1.053 0 0 1-.366-.259.984.984 0 0 1-.217-.381.947.947 0 0 1-.026-.432l2.114-12a.989.989 0 0 1 .364-.606c.194-.154.44-.237.694-.234h11.629c.253-.003.5.08.694.234.194.154.323.37.363.606l2.115 12a.948.948 0 0 1-.026.432.984.984 0 0 1-.217.381c-.1.11-.226.199-.367.259-.14.06-.293.09-.448.088zm-14.61-2h13.363L16.903 3H7.071L5.306 13z" fill="#000"/></svg>