<svg width="24" height="24" fill="none" xmlns="http://www.w3.org/2000/svg"><path d="M1.997 23a.998.998 0 0 1-.926-1.384.999.999 0 0 1 .218-.326l1.995-2a1 1 0 0 1 1.71.71c0 .267-.105.522-.293.71l-1.995 2a.998.998 0 0 1-.709.29zM20.003 5a.995.995 0 0 1-.926-.615 1.003 1.003 0 0 1 .218-1.095l1.995-2A1 1 0 0 1 23 2c0 .266-.105.522-.293.71l-1.995 2a.998.998 0 0 1-.709.29zM3.993 5a.995.995 0 0 1-.708-.29l-1.996-2A1.005 1.005 0 0 1 1.998.996a1 1 0 0 1 .708.294l1.995 2A1 1 0 0 1 3.993 5zm18 18a.998.998 0 0 1-.708-.29l-1.995-2a1.006 1.006 0 0 1 .708-1.714 1 1 0 0 1 .708.294l1.995 2a1 1 0 0 1-.708 1.71z" fill="#000"/><path d="M18 21H6a3 3 0 0 1-3-3V6a3 3 0 0 1 3-3h12a3 3 0 0 1 3 3v12a3 3 0 0 1-3 3zM6 5a1 1 0 0 0-1 1v12a1 1 0 0 0 1 1h12a1 1 0 0 0 1-1V6a1 1 0 0 0-1-1H6z" fill="#000"/><path d="M15 17H9a2 2 0 0 1-2-2V9a2 2 0 0 1 2-2h6a2 2 0 0 1 2 2v6a2 2 0 0 1-2 2zM9 9v6h6V9H9z" fill="#000"/></svg>