<svg width="60" height="60" xmlns="http://www.w3.org/2000/svg"><g fill="none" fill-rule="evenodd"><circle fill="#1E96C8" cx="30" cy="30" r="30"/><g fill-rule="nonzero"><path d="M40.113 19.211c.03-.02.694-.327 1.286.074.456.318.674.92.518 1.502-1.441 6.935-2.893 13.871-4.335 20.807-.01.084-.093.75-.684 1.11a1.436 1.436 0 0 1-1.328.085 2.142 2.142 0 0 1-.331-.201 6653.895 6653.895 0 0 1-10.267-7.877l11.936-10.943c.031-.053.166-.222.114-.327-.041-.085-.186-.117-.383-.085a1.16 1.16 0 0 0-.519.2c-4.905 3.151-9.8 6.302-14.705 9.453l-6.668-2.062c-.28-.211-.674-.55-.643-.951.03-.37.415-.624.56-.72 1.203-.76 20.668-8.235 25.449-10.065z" fill="#FFF"/><path d="M24.972 34.722l-.425 6.724c.155-.01.383-.032.643-.148a1.9 1.9 0 0 0 .632-.465l3.08-3.109-3.93-3.002z" fill="#A9C9DD"/><path d="M24.536 41.446c-.176 0-.383-.032-.55-.17a.87.87 0 0 1-.269-.475c-.114-.476-1.027-3.553-2.302-7.782l14.705-9.452a1.17 1.17 0 0 1 .26-.137c.186-.074.539-.159.632-.021.041.053.02.137.01.169 0 0-.02.106-.114.2-.124.128-5.123 4.706-11.936 10.944l-.436 6.724z" fill="#C8DAEA"/></g></g></svg>