<svg width="24" height="24" fill="none" xmlns="http://www.w3.org/2000/svg"><path d="M19.635 7.678c.11-.39 0-.678-.528-.678h-1.75c-.445 0-.65.247-.76.522 0 0-.891 2.284-2.15 3.765-.407.429-.595.566-.817.566-.11 0-.28-.137-.28-.528V7.678c0-.469-.124-.678-.493-.678h-2.75a.432.432 0 0 0-.446.422c0 .444.63.547.695 1.797v2.712c0 .594-.1.703-.323.703-.594 0-2.038-2.293-2.893-4.918C6.967 7.206 6.798 7 6.35 7H4.6c-.499 0-.6.247-.6.522 0 .487.594 2.91 2.765 6.11C8.212 15.815 10.25 17 12.103 17c1.114 0 1.25-.262 1.25-.716 0-2.087-.1-2.284.458-2.284.258 0 .704.137 1.743 1.19 1.188 1.25 1.384 1.81 2.05 1.81h1.75c.498 0 .75-.262.605-.781-.333-1.09-2.581-3.335-2.682-3.485-.258-.35-.184-.506 0-.819.003-.002 2.139-3.165 2.358-4.237z" fill="#5E6C84"/></svg>