<svg width="200" height="28" xmlns="http://www.w3.org/2000/svg" xmlns:xlink="http://www.w3.org/1999/xlink"><defs><path d="M153.535 22.93l1.089-10.806h10.794v14.408h-3V14.738h-5.147l-.854 8.512c-.233 2.442-1.41 3.486-3.206 3.486-.647 0-1.236-.058-1.793-.204l.44-2.613c.264.087.502.145.765.145.618 0 .824-.436.912-1.134zm-131.578.159v-9.45a.909.909 0 0 0-.348-.715l-8.923-7.05a.314.314 0 0 0-.4 0l-8.92 7.05a.905.905 0 0 0-.35.715v9.45c0 .503.418.913.928.913H21.03a.92.92 0 0 0 .927-.913zM14.572 3.547l8.923 7.05a3.868 3.868 0 0 1 1.479 3.042v9.45c0 2.148-1.769 3.895-3.944 3.895H3.944C1.771 26.984 0 25.237 0 23.089v-9.45c0-1.192.54-2.3 1.481-3.043l8.923-7.049a3.35 3.35 0 0 1 4.168 0zm17.17 19.006l6.59-10.431h3.176v14.41h-2.882v-10.43l-6.59 10.43H28.86v-14.41h2.882v10.43zm21.365-3.777c1.442.553 2.911 1.599 2.911 3.602 0 2.442-1.88 4.562-5.734 4.562-3.561 0-5.649-1.89-5.649-4.474 0-.61.118-1.163.353-1.657l2.618.9c-.089.262-.148.437-.148.815 0 1.279 1.295 2.005 2.941 2.005 1.678 0 2.708-.93 2.708-2.296 0-1.596-1.56-2.296-3.588-2.296v-2.15c2.352 0 3.205-.813 3.205-2.09 0-1.046-.941-1.744-2.472-1.744-1.293 0-2.5.669-2.5 1.715 0 .204.03.405.089.608l-2.411.872a2.811 2.811 0 0 1-.324-1.337c0-2.41 1.94-4.096 5.146-4.096 3.444 0 5.15 1.773 5.15 3.779 0 1.77-1.088 2.817-2.295 3.282zm15.158.842v-.407l-3.941.669c-1.854.32-2.826 1.075-2.826 2.44 0 1.307.942 2.15 2.443 2.15 2.617 0 4.324-2.064 4.324-4.852zm3-3.02v6.332c0 1.657.206 2.529.883 3.602h-3c-.353-.434-.735-1.16-.824-2.527-.942 1.948-2.708 2.934-4.854 2.934-2.94 0-4.971-1.8-4.971-4.445 0-2.934 2.354-4.271 5.148-4.736l4.618-.724v-.61c0-1.658-1.03-2.5-3.06-2.5-2.088 0-3.03.871-3.03 1.889 0 .145-.03.203.06.436l-2.677.898a3.133 3.133 0 0 1-.235-1.16c0-2.236 2.205-4.27 5.881-4.27 4.003 0 6.061 1.743 6.061 4.88zm6.657 5.955l6.59-10.431h3.177v14.41h-2.882v-10.43l-6.59 10.43H75.04v-14.41h2.882v10.43zm3.442-12.464c-1.97 0-3.176-1.366-3.176-3.137h2.057c0 .783.413 1.248 1.119 1.248s1.118-.465 1.118-1.248h2.058c0 1.771-1.204 3.137-3.176 3.137zm19.717 7.554v-5.52h2.885v14.41h-2.885V20.2h-6.529v6.334h-2.884v-14.41h2.884v5.52h6.53zm24.841 6.45c2.794 0 4.943-1.308 6.5-4.213l2.443 1.713c-2.09 3.46-4.56 5.346-9.001 5.346-5.885 0-10.209-4.387-10.209-10.574 0-6.189 4.619-10.576 10.356-10.576 4.206 0 7.382 2.18 8.795 5.26l-2.529 1.8c-1.5-2.818-3.5-4.213-6.325-4.213-3.883 0-7.06 3.255-7.06 7.73 0 4.416 2.971 7.727 7.03 7.727zm23.398-11.97l-5.266 5.608 6.15 8.803h-3.5l-4.707-6.626-1.325 1.396v5.23h-3.002V12.123h3.002v5.404l5.001-5.404h3.647zm28.991 7.495v-.407l-3.941.669c-1.852.32-2.826 1.075-2.826 2.44 0 1.307.942 2.15 2.443 2.15 2.62 0 4.324-2.064 4.324-4.852zm3.002-3.02v6.332c0 1.657.206 2.529.88 3.602h-2.999c-.353-.434-.733-1.16-.824-2.527-.94 1.948-2.705 2.934-4.854 2.934-2.94 0-4.97-1.8-4.97-4.445 0-2.934 2.353-4.271 5.147-4.736l4.618-.724v-.61c0-1.658-1.03-2.5-3.058-2.5-2.09 0-3.03.871-3.03 1.889 0 .145-.029.203.057.436l-2.676.898a3.133 3.133 0 0 1-.235-1.16c0-2.236 2.207-4.27 5.884-4.27 4 0 6.06 1.743 6.06 4.88zm14.304 7.32V14.65h-4.707l-.468 5.055c-.206 1.977-.618 3.08-1.178 4.213h6.353zm2.884 0H200v5.695h-2.47v-3.079h-10.385v3.079h-2.47v-5.695h1.528c.707-1.308 1.119-2.614 1.325-4.474l.706-7.32h10.267v11.794z" id="a"/></defs><g transform="translate(0 -2)" fill="none" fill-rule="evenodd"><mask id="b" fill="#fff"><use xlink:href="#a"/></mask><use fill="#FFF" xlink:href="#a"/><g mask="url(#b)" fill="#FFF"><path d="M0 0h199.857v33.857H0z"/></g></g></svg>