<svg width="160" height="22" viewBox="0 0 160 22" fill="none" xmlns="http://www.w3.org/2000/svg">
<path d="M122.828 16.5824L123.699 8.11239H132.335V19.4058H129.935V10.1611H125.816L125.134 16.833C124.947 18.7469 124.005 19.5652 122.569 19.5652C122.051 19.5652 121.58 19.5197 121.135 19.4058L121.486 17.3571C121.698 17.4254 121.888 17.471 122.098 17.471C122.593 17.471 122.757 17.1292 122.828 16.5824ZM17.5655 16.7066V9.29983C17.5655 9.08148 17.4634 8.87642 17.2868 8.73972L10.1484 3.21455C10.0542 3.1386 9.92473 3.1405 9.82858 3.21455L2.69212 8.73972C2.51552 8.87642 2.41349 9.07958 2.41349 9.29983V16.7066C2.41349 17.1015 2.74706 17.4224 3.15519 17.4224H16.8238C17.2339 17.4224 17.5655 17.1015 17.5655 16.7066ZM11.6573 1.38992L18.7958 6.91508C19.5473 7.49988 19.979 8.36758 19.979 9.29983V16.7066C19.979 18.3907 18.5642 19.7597 16.8238 19.7597H3.15519C1.4167 19.7597 0 18.3907 0 16.7066V9.29983C0 8.36568 0.43168 7.49798 1.18516 6.91508L8.32358 1.38992C9.30468 0.630444 10.6762 0.630444 11.6573 1.38992ZM25.3932 16.2866L30.6656 8.11087H33.2066V19.4061H30.9011V11.2304L25.6287 19.4061H23.0876V8.11087H25.3932V16.2866ZM42.4856 13.3266C43.6394 13.7595 44.8147 14.5797 44.8147 16.1499C44.8147 18.0638 43.3097 19.7251 40.2271 19.7251C37.378 19.7251 35.7082 18.2441 35.7082 16.2182C35.7082 15.7398 35.8024 15.3069 35.9908 14.9196L38.0844 15.6259C38.0138 15.8309 37.9667 15.9676 37.9667 16.2638C37.9667 17.2663 39.0027 17.8359 40.3193 17.8359C41.6615 17.8359 42.4856 17.1068 42.4856 16.036C42.4856 14.7847 41.2376 14.236 39.6149 14.236V12.5519C41.4967 12.5519 42.1795 11.9139 42.1795 10.9133C42.1795 10.0931 41.426 9.54628 40.2016 9.54628C39.1675 9.54628 38.2021 10.0703 38.2021 10.8905C38.2021 11.05 38.2257 11.2076 38.2728 11.3671L36.344 12.0506C36.1791 11.7544 36.085 11.3899 36.085 11.0026C36.085 9.11338 37.637 7.7919 40.2016 7.7919C42.9565 7.7919 44.3222 9.18173 44.3222 10.7538C44.3222 12.1418 43.451 12.962 42.4856 13.3266ZM54.6123 13.9865V13.6676L51.4591 14.1916C49.9756 14.4422 49.1986 15.0346 49.1986 16.1036C49.1986 17.1289 49.9521 17.7896 51.153 17.7896C53.2466 17.7896 54.6123 16.1719 54.6123 13.9865ZM57.012 11.6189V16.582C57.012 17.8807 57.1769 18.5643 57.7184 19.4054H55.3187C55.0361 19.0655 54.73 18.4959 54.6594 17.4251C53.9059 18.9516 52.4931 19.7244 50.7762 19.7244C48.4236 19.7244 46.7989 18.3136 46.7989 16.2403C46.7989 13.941 48.6826 12.8929 50.9175 12.5283L54.6123 11.9606V11.4822C54.6123 10.1835 53.7882 9.52273 52.1635 9.52273C50.4937 9.52273 49.7402 10.2063 49.7402 11.0037C49.7402 11.1176 49.7166 11.1632 49.7873 11.3455L47.6465 12.0499C47.5288 11.7556 47.4582 11.4594 47.4582 11.1404C47.4582 9.38793 49.2222 7.79304 52.1635 7.79304C55.3658 7.79304 57.012 9.16009 57.012 11.6189ZM62.3374 16.2866L67.6098 8.11087H70.1508V19.4061H67.8453V11.2304L62.5729 19.4061H60.0318V8.11087H62.3374V16.2866ZM65.0911 6.51788C63.5155 6.51788 62.5501 5.44702 62.5501 4.05909H64.1964C64.1964 4.67236 64.526 5.03691 65.0911 5.03691C65.6562 5.03691 65.9859 4.67236 65.9859 4.05909H67.6322C67.6322 5.44702 66.6687 6.51788 65.0911 6.51788ZM80.8651 12.4384V8.11125H83.1727V19.4065H80.8651V14.4415H75.6418V19.4065H73.3343V8.11125H75.6418V12.4384H80.8651ZM100.738 17.4938C102.973 17.4938 104.692 16.4685 105.938 14.192L107.892 15.5343C106.22 18.2457 104.244 19.7247 100.691 19.7247C95.9836 19.7247 92.5242 16.2862 92.5242 11.437C92.5242 6.58585 96.219 3.14734 100.809 3.14734C104.174 3.14734 106.715 4.85615 107.845 7.26938L105.822 8.6801C104.621 6.47193 103.022 5.37829 100.761 5.37829C97.6553 5.37829 95.1143 7.93012 95.1143 11.437C95.1143 14.8983 97.4905 17.4938 100.738 17.4938ZM119.456 8.11163L115.244 12.5071L120.163 19.4069H117.363L113.597 14.214L112.538 15.3076V19.4069H110.136V8.11163H112.538V12.3476L116.539 8.11163H119.456ZM142.649 13.9865V13.6676L139.496 14.1916C138.014 14.4422 137.235 15.0346 137.235 16.1036C137.235 17.1289 137.989 17.7896 139.19 17.7896C141.285 17.7896 142.649 16.1719 142.649 13.9865ZM145.051 11.6189V16.582C145.051 17.8807 145.216 18.5643 145.755 19.4054H143.355C143.073 19.0655 142.769 18.4959 142.696 17.4251C141.945 18.9516 140.532 19.7244 138.813 19.7244C136.46 19.7244 134.838 18.3136 134.838 16.2403C134.838 13.941 136.719 12.8929 138.954 12.5283L142.649 11.9606V11.4822C142.649 10.1835 141.825 9.52273 140.202 9.52273C138.53 9.52273 137.779 10.2063 137.779 11.0037C137.779 11.1176 137.755 11.1632 137.824 11.3455L135.683 12.0499C135.566 11.7556 135.495 11.4594 135.495 11.1404C135.495 9.38793 137.261 7.79304 140.202 7.79304C143.402 7.79304 145.051 9.16009 145.051 11.6189ZM156.494 17.3565V10.0922H152.728L152.353 14.0547C152.189 15.604 151.859 16.4679 151.412 17.3565H156.494ZM158.801 17.3565H160V21.8203H158.024V19.4071H149.716V21.8203H147.74V17.3565H148.963C149.528 16.3312 149.857 15.3078 150.022 13.8496L150.587 8.11182H158.801V17.3565Z" fill="#091E42"/>
</svg>
