<?xml version="1.0" encoding="utf-8"?>
<!-- Generator: Adobe Illustrator 21.1.0, SVG Export Plug-In . SVG Version: 6.00 Build 0)  -->
<svg version="1.1" id="Layer_1" xmlns="http://www.w3.org/2000/svg" xmlns:xlink="http://www.w3.org/1999/xlink" x="0px" y="0px"
	 viewBox="0 0 255 255" style="enable-background:new 0 0 255 255;" xml:space="preserve">
<style type="text/css">
	.st0{fill:#99C800;}
	.st1{fill:#FFFFFF;}
</style>
<circle class="st0" cx="127.5" cy="127.5" r="127.5"/>
<g>
	<g transform="translate(-5653.000000, -1916.000000)">
		<path class="st1" d="M5721,2051l50,59.4c2,2.3,4.9,3.7,7.9,3.8c3,0,6-1.2,8.1-3.5l52.7-59.4c3.9-4.3,3.5-11-0.9-14.9
			s-11-3.5-14.9,0.9l-34,38.3v-110.5c0-6.9-4.7-12.4-10.5-12.4s-10.5,5.6-10.5,12.4v109.9l-31.6-37.6c-2-2.4-5-3.8-8.1-3.8
			c-2.5,0-4.9,0.9-6.8,2.5c-2.2,1.8-3.5,4.4-3.7,7.2C5718.4,2046.1,5719.2,2048.9,5721,2051"/>
	</g>
</g>
</svg>
