<svg xmlns="http://www.w3.org/2000/svg" viewBox="0 0 65.8 127.6"><defs><style>.cls-1,.cls-3{fill:#fff;}.cls-2{fill:#231f20;}.cls-3,.cls-4{stroke:#231f20;stroke-miterlimit:10;}.cls-4{fill:none;}</style></defs><title>bcn</title><g id="Layer_2" data-name="Layer 2"><g id="Слой_2" data-name="Слой 2"><path class="cls-1" d="M63.71,127.23a3,3,0,0,1-2.25-1.5c-.8-1.06-2.91-2.63-6.29-4.67-.4-.24-.4-.24-.45-.3h0s-.91-.8-4.31-1.31c-4.1-.61-13.33-1.24-13.41-1.24-1.35-.21-3.82-1.32-3.82-4V24.69h2.16v89.47c0,1.54,1.82,1.87,1.9,1.88s9.17.61,13.48,1.25c4.1.61,5.33,1.68,5.66,2.07l.21.13c3.49,2.1,5.7,3.75,6.58,4.91h0c-.25-5-1.08-24.41-1.94-44.91-1-23.79-2-48.4-2.18-49.53S56.74,28,56,27.84l-.36-.07.42-2.14.37.08c.18,0,4.42.92,4.77,4,.16,1.44,1.65,36.36,2.85,64.42.7,16.41,1.3,30.58,1.36,31.46l0,.25-.09.23A1.81,1.81,0,0,1,64,127.21Z"/><path class="cls-2" d="M35,25.07v89.09c0,1.86,2.13,2.24,2.22,2.25.31,0,9.3.63,13.49,1.25s5.29,1.76,5.45,2c0,0,5.27,3,6.75,5a2.9,2.9,0,0,0,.73.75c-.34-5-3.93-93.25-4.17-95.44-.17-1.47-2.48-2.27-3.36-2.45l.28-1.41c.17,0,4.15.89,4.47,3.7.26,2.31,4.05,93.53,4.21,95.87v.16L65,126a1.4,1.4,0,0,1-1.08.89h-.18c-.63,0-1.27-.44-2-1.35-1.47-1.94-6.69-4.91-6.74-5s-.86-.89-4.56-1.44c-4.13-.62-13.35-1.24-13.44-1.25a3.86,3.86,0,0,1-3.46-3.67V25.07H35m.75-.75h-2.9v89.84c0,3,2.68,4.19,4.09,4.41H37c.38,0,9.32.64,13.38,1.24,3,.45,4,1.13,4.13,1.23a2.77,2.77,0,0,0,.51.34c3.33,2,5.4,3.55,6.17,4.56a3.36,3.36,0,0,0,2.56,1.65l.28,0a2.18,2.18,0,0,0,1.68-1.35l.06-.16.06-.15v-.34c-.06-.87-.67-15-1.36-31.41-1.2-28.08-2.69-63-2.86-64.49-.37-3.35-4.87-4.3-5.06-4.34l-.74-.15-.15.74-.28,1.4-.14.73.73.15c.91.19,2.66.92,2.76,1.81.13,1.11,1.17,25.69,2.17,49.45.82,19.29,1.59,37.65,1.9,43.91a36.28,36.28,0,0,0-6-4.21l-.15-.09c-.43-.5-1.8-1.56-5.85-2.16s-12.77-1.2-13.51-1.25c-.23,0-1.56-.37-1.56-1.51V24.32Z"/><path class="cls-1" d="M2.09,127.23l-.24,0a1.81,1.81,0,0,1-1.38-1.12l-.09-.23,0-.25c.06-.89.66-15.11,1.37-31.58C3,66,4.45,31.17,4.61,29.73c.35-3.1,4.59-4,4.77-4l.37-.08.42,2.14-.36.07c-.75.16-2.92.89-3.06,2.13S5.57,55.83,4.56,79.74c-.86,20.38-1.68,39.72-1.93,44.67h0c1.29-1.71,5.21-4.09,6.5-4.87l.3-.18c.32-.39,1.55-1.45,5.65-2.06,3.89-.58,12-1.15,13.54-1.26.31-.06,1.84-.45,1.84-1.87V24.69h2.16v89.47a4.23,4.23,0,0,1-3.72,4h-.19c-2.85.2-9.86.73-13.32,1.24s-4.34,1.33-4.35,1.34,0,0-.37.25c-3.39,2-5.52,3.62-6.33,4.69A3,3,0,0,1,2.09,127.23Z"/><path class="cls-2" d="M32.24,25.07v89.09a3.86,3.86,0,0,1-3.4,3.67c-.15,0-9.37.63-13.5,1.25-3.71.55-4.56,1.44-4.57,1.45s-5.26,3-6.73,5c-.69.91-1.33,1.35-1.95,1.35H1.9A1.42,1.42,0,0,1,.82,126l-.06-.15v-.16c.16-2.34,4-93.56,4.21-95.87.32-2.81,4.3-3.66,4.47-3.7l.28,1.41c-.88.18-3.19,1-3.35,2.45-.25,2.19-3.85,90.55-4.18,95.44a3,3,0,0,0,.73-.75c1.48-2,6.71-4.93,6.76-5s1.17-1.32,5.44-2,13.18-1.23,13.56-1.26c0,0,2.15-.38,2.15-2.24V25.07h1.4m.75-.75h-2.9v89.84c0,1.06-1.11,1.41-1.51,1.5-1.19.08-9.53.66-13.56,1.26s-5.38,1.62-5.84,2.14l-.24.15a39.08,39.08,0,0,0-5.89,4.17c.31-6.24,1.08-24.5,1.89-43.68C5.9,56.94,7,31.13,7.12,30c.1-.89,1.85-1.62,2.76-1.81l.73-.15-.14-.73-.28-1.4L10,25.19l-.74.15c-.19,0-4.68,1-5.06,4.34-.17,1.47-1.66,36.38-2.85,64.43C.69,110.53.08,124.7,0,125.59v.33l.06.15.06.16a2.18,2.18,0,0,0,1.67,1.35l.3,0A3.36,3.36,0,0,0,4.64,126c.54-.71,2.05-2.08,6.21-4.59a2,2,0,0,0,.46-.3c.13-.1,1.09-.78,4.14-1.24,3.41-.51,10.4-1,13.25-1.23l.21,0H29a4.6,4.6,0,0,0,4-4.41V24.32Z"/><path class="cls-3" d="M33.07.5A116.69,116.69,0,0,0,14.28,1.84c-7.27,1.35-6.79,11-6.79,11A8.28,8.28,0,0,1,4.8,12c-1.25-.41-1.73,1.29-1.91,7.72s1,9.58,1,9.58C14,26.59,32.78,26.39,33.09,26.39s19.06.2,29.23,2.92c0,0,1.14-3.15,1-9.58S62.62,11.6,61.37,12s-1.49.76-2.68.82c0,0,.47-9.64-6.8-11A116.69,116.69,0,0,0,33.1.5"/><path class="cls-4" d="M58.69,12.83s-4.95,2.49-25.6,2.49-25.6-2.49-25.6-2.49"/><polygon class="cls-3" points="61.62 92.11 4.21 92.11 4.29 89.68 61.46 89.68 61.62 92.11"/></g></g></svg>