<svg width="36" height="36" xmlns="http://www.w3.org/2000/svg" xmlns:xlink="http://www.w3.org/1999/xlink"><defs><circle id="a" cx="18" cy="18" r="18"/></defs><g fill="none" fill-rule="evenodd"><mask id="b" fill="#fff"><use xlink:href="#a"/></mask><use fill="#000" fill-rule="nonzero" xlink:href="#a"/><path d="M4.643 11.718h2.192c.853 0 1.487.127 1.901.38.414.254.621.648.621 1.184 0 .352-.09.653-.27.902-.181.25-.419.41-.714.482v.043c.39.103.672.275.847.515.174.24.262.553.262.937 0 .57-.214 1.019-.643 1.347-.428.328-1.012.492-1.75.492H4.642v-6.282zm1.698 2.41h.511c.243 0 .432-.05.565-.15.133-.1.2-.25.2-.447 0-.352-.267-.528-.8-.528h-.476v1.126zm0 1.242v1.32h.597c.53 0 .795-.224.795-.67 0-.21-.071-.37-.213-.482-.142-.112-.347-.168-.616-.168H6.34zM10.383 18v-6.282h1.697v4.911h2.42V18h-4.117zm8.786 0l-.31-1.177h-2.04L16.5 18h-1.865l2.05-6.308h2.264L21.025 18H19.17zm-.662-2.57l-.27-1.03c-.063-.23-.14-.526-.23-.89s-.15-.625-.178-.782c-.026.146-.077.386-.153.722-.076.335-.244.995-.505 1.98h1.337zm5.628-2.41c-.403 0-.719.165-.945.496-.226.331-.34.787-.34 1.369 0 1.209.46 1.813 1.38 1.813.278 0 .547-.039.808-.116.26-.077.523-.17.786-.28v1.436c-.524.232-1.117.348-1.779.348-.948 0-1.675-.275-2.18-.825-.506-.55-.759-1.345-.759-2.385 0-.65.123-1.222.368-1.714a2.629 2.629 0 0 1 1.057-1.137c.46-.265 1-.397 1.622-.397.679 0 1.327.147 1.946.442l-.52 1.337a5.846 5.846 0 0 0-.696-.275 2.433 2.433 0 0 0-.748-.112zm8.09 4.98H30.31l-1.242-2.402-.502.3V18h-1.706v-6.282h1.706v2.728c.086-.169.259-.436.52-.803l1.319-1.925h1.856l-1.98 2.814L32.225 18zM4.687 26H3.015v-6.282h3.712v1.362h-2.04v1.199h1.881v1.362H4.686V26zm4.58-2.286V26H7.569v-6.282h2.058c1.707 0 2.56.619 2.56 1.856 0 .728-.354 1.29-1.065 1.689L12.952 26h-1.924l-1.332-2.286h-.43zm0-1.276h.318c.593 0 .89-.262.89-.786 0-.433-.291-.65-.873-.65h-.335v1.436zM13.334 26v-6.282h1.706V26h-1.706zm8.206-3.274c0 1.048-.288 1.856-.866 2.423-.577.567-1.388.851-2.434.851h-2.032v-6.282h2.174c1.008 0 1.787.258 2.335.773.549.516.823 1.26.823 2.235zm-1.762.06c0-.576-.113-1.003-.341-1.28-.228-.278-.574-.417-1.038-.417h-.494v3.519h.378c.516 0 .894-.15 1.134-.45.241-.299.361-.756.361-1.372zM26.154 26l-.31-1.177h-2.04L23.486 26H21.62l2.05-6.308h2.264L28.01 26h-1.856zm-.662-2.57l-.27-1.03c-.063-.23-.14-.526-.23-.89s-.15-.625-.179-.782c-.025.146-.076.386-.152.722-.076.335-.244.995-.505 1.98h1.336zm5.25-1.383l1.083-2.329h1.84l-2.068 3.828V26h-1.71v-2.402l-2.067-3.88h1.848l1.074 2.329z" fill="#FFF" mask="url(#b)"/></g></svg>