<?xml version="1.0" encoding="utf-8"?>
<!-- Generator: Adobe Illustrator 22.0.1, SVG Export Plug-In . SVG Version: 6.00 Build 0)  -->
<svg version="1.1" id="Layer_1" xmlns="http://www.w3.org/2000/svg" xmlns:xlink="http://www.w3.org/1999/xlink" x="0px" y="0px"
	 viewBox="0 0 60 28.5" style="enable-background:new 0 0 60 28.5;" xml:space="preserve">
<style type="text/css">
	.st0{fill:#FFD11B;}
</style>
<g id="Layer_1-2">
	<path class="st0" d="M41.3,0H17.7c-0.8,0-1.5,0.7-1.5,1.5v21.3c0,0.8,0.7,1.5,1.5,1.5h3.6c0.8,3,3.9,4.7,6.9,3.9
		c1.9-0.5,3.3-2,3.9-3.9h9.2c0.8,0,1.5-0.7,1.5-1.5V1.5C42.8,0.7,42.1,0,41.3,0z M26.7,25.4c-1.4,0-2.6-1.2-2.6-2.6
		c0-1.4,1.2-2.6,2.6-2.6c1.4,0,2.6,1.2,2.6,2.6C29.3,24.2,28.1,25.4,26.7,25.4z M39.8,21.3H32c-0.8-3-3.9-4.7-6.9-3.9
		c-1.9,0.5-3.3,2-3.9,3.9h-2.1V3h20.6v18.3H39.8z M6.9,5.8H1.5C0.7,5.8,0,5.1,0,4.3c0-0.8,0.7-1.5,1.5-1.5h5.4
		c0.8,0,1.5,0.7,1.5,1.5C8.4,5.1,7.8,5.8,6.9,5.8C6.9,5.8,6.9,5.8,6.9,5.8z M10.2,12.1H4.8c-0.8,0-1.5-0.7-1.5-1.5S4,9.1,4.8,9.1
		h5.4c0.8,0,1.5,0.7,1.5,1.5S11,12.1,10.2,12.1z M14.9,16.9c0,0.8-0.7,1.5-1.5,1.5H8c-0.8,0-1.5-0.7-1.5-1.5s0.7-1.5,1.5-1.5h5.4
		C14.2,15.4,14.9,16.1,14.9,16.9z M59.8,14.4l-6.2-9.6c-0.3-0.4-0.8-0.7-1.3-0.7h-7.5v3h6.7l5.5,8.6v5.7h-1.2
		c-0.8-3-3.9-4.7-6.9-3.9c-3,0.8-4.7,3.9-3.9,6.9s3.9,4.7,6.9,3.9c1.9-0.5,3.4-2,3.9-3.9h2.7c0.8,0,1.5-0.7,1.5-1.5v-7.7
		C60,14.9,59.9,14.6,59.8,14.4z M50.4,25.4c-1.4,0-2.6-1.2-2.6-2.6s1.2-2.6,2.6-2.6c1.4,0,2.6,1.2,2.6,2.6
		C53,24.2,51.8,25.4,50.4,25.4z"/>
</g>
</svg>
