<svg xmlns="http://www.w3.org/2000/svg" viewBox="0 0 75.33 131.03"><defs><style>.cls-1{fill:#fff;stroke-miterlimit:10;}.cls-1,.cls-2{stroke:#231f20;}.cls-2{fill:none;stroke-linecap:round;stroke-linejoin:round;}.cls-3{fill:#231f20;}</style></defs><title>eames_dsw</title><g id="Layer_2" data-name="Layer 2"><g id="Слой_1" data-name="Слой 1"><line class="cls-1" x1="15.42" y1="98.75" x2="51.29" y2="70.69"/><line class="cls-1" x1="17.17" y1="90.75" x2="50.35" y2="67.88"/><line class="cls-1" x1="23.04" y1="67.19" x2="55.54" y2="90.75"/><line class="cls-1" x1="21.48" y1="70.69" x2="57.48" y2="99.25"/><path class="cls-1" d="M52.16,63.08s14.27,53.59,15.61,65.42c0,0,.37,1.84-.84,2-1.68.24-2.33-1-3.16-4.16S51.43,81.64,48.43,63.39Z"/><path class="cls-1" d="M20.85,63.08S6.58,116.67,5.25,128.5c0,0-.38,1.84.83,2,1.69.24,2.34-1,3.17-4.16s12.33-44.7,15.33-62.95Z"/><path class="cls-1" d="M69.42,46.5c-2.5-3.75-10.51-33.33-13-40.25C54.23.19,45.92.5,45.92.5H29.42S21.1.19,18.92,6.25c-2.5,6.92-10.5,36.5-13,40.25S-.33,54.75.67,56.5s4.5,7.25,37,7.25,36-5.5,37-7.25S71.92,50.25,69.42,46.5Z"/><path class="cls-2" d="M14.25,56.84c7.33,2.83,23.42,2.73,23.42,2.73S51.73,60,59.6,56.84"/><path class="cls-3" d="M21.2,70.53c-.2.59-.64,1-1,.86s-.47-.69-.28-1.28.63-1,1-.86S21.39,69.94,21.2,70.53Z"/><path class="cls-3" d="M14.06,98.6c-.19.59-.63,1-1,.86s-.48-.69-.29-1.28.64-1,1-.86S14.25,98,14.06,98.6Z"/><path class="cls-3" d="M58.81,97.48c-.18-.59,0-1.16.32-1.26s.78.29,1,.89,0,1.16-.33,1.26S59,98.08,58.81,97.48Z"/><path class="cls-3" d="M52.08,70.51c-.17-.6,0-1.16.32-1.27s.79.3,1,.89,0,1.17-.32,1.27S52.26,71.11,52.08,70.51Z"/></g></g></svg>