<svg xmlns="http://www.w3.org/2000/svg" viewBox="0 0 131.58 132.29"><defs><style>.cls-1{fill:#fff;}.cls-1,.cls-2,.cls-3{stroke:#231f20;}.cls-1,.cls-3{stroke-miterlimit:10;}.cls-2,.cls-3{fill:none;}.cls-2{stroke-linecap:round;stroke-linejoin:round;}.cls-4{fill:#231f20;}</style></defs><title>eames_table</title><g id="Layer_2" data-name="Layer 2"><g id="Слой_2" data-name="Слой 2"><path class="cls-1" d="M74.41,29.28l5.5,55.63S79.79,86,81.41,86s1.75-.37,1.63-1.37-4.29-55.38-4.29-55.38Z"/><path class="cls-1" d="M33.41,28.16,16,97.66a2.51,2.51,0,0,0,3.37,0l19-69.5Z"/><line class="cls-2" x1="95.79" y1="29.28" x2="51.91" y2="70.28"/><line class="cls-2" x1="104.41" y1="61.66" x2="48.41" y2="30.03"/><line class="cls-2" x1="81.91" y1="29.28" x2="103.66" y2="60.16"/><line class="cls-2" x1="30.91" y1="52.53" x2="54.87" y2="33.68"/><line class="cls-2" x1="65.79" y1="29.95" x2="30.91" y2="52.53"/><line class="cls-2" x1="39.29" y1="28.16" x2="50.79" y2="64.78"/><path class="cls-1" d="M52.66,29.28,43.16,130a1.42,1.42,0,0,0,1.5,1.75c1.88.13,2.5-1.12,2.63-2.75s9.12-80.37,9.62-99.75Z"/><path class="cls-1" d="M94.29,28.16l22.37,84.25s.38,2.37,3.88,1.5c0,0-18.88-80.38-21.63-85.75Z"/><ellipse class="cls-1" cx="65.79" cy="15.86" rx="65.29" ry="15.36"/><path class="cls-3" d="M131.08,15.86s-6.54,12.3-65.29,12.3S.5,15.86.5,15.86"/><path class="cls-4" d="M51.86,69.46c-.07.79-.53,1.4-1,1.36S50,70.1,50,69.3s.53-1.4,1-1.36S51.93,68.66,51.86,69.46Z"/><path class="cls-4" d="M54.89,34.45c-.07.8-.53,1.41-1,1.37s-.86-.72-.8-1.52.53-1.4,1-1.36S55,33.66,54.89,34.45Z"/><path class="cls-4" d="M107.4,61.77c.15.78.07,1.45-.18,1.5s-.57-.54-.72-1.33-.08-1.45.17-1.5S107.24,61,107.4,61.77Z"/></g></g></svg>