<?xml version="1.0" encoding="utf-8"?>
<!-- Generator: Adobe Illustrator 21.1.0, SVG Export Plug-In . SVG Version: 6.00 Build 0)  -->
<svg version="1.1" id="Layer_1" xmlns="http://www.w3.org/2000/svg" xmlns:xlink="http://www.w3.org/1999/xlink" x="0px" y="0px"
	 viewBox="0 0 100 125" style="enable-background:new 0 0 100 125;" xml:space="preserve">
<style type="text/css">
	.st0{fill:#FFFFFF;}
</style>
<g>
	<g>
		<path class="st0" d="M50.1,88.1c0,0-0.1,0-0.1,0c-0.4,0-0.9-0.1-1.2-0.4c-1.2-0.9-29.5-21-39.9-38.1c0,0,0,0,0-0.1
			c-2.3-3.9-3.6-8.3-3.6-12.8C5.2,23,16.3,11.9,30,11.9c7.9,0,15.3,3.8,20,10c4.7-6.3,12-10,20-10c13.7,0,24.9,11.2,24.9,24.9
			c0,4.5-1.2,9-3.6,12.8c0,0,0,0,0,0.1c-10.4,17-38.7,37.2-39.9,38.1C50.9,88,50.5,88.1,50.1,88.1z"/>
	</g>
</g>
</svg>
