<svg width="36" height="36" viewBox="0 0 36 36" fill="none" xmlns="http://www.w3.org/2000/svg">
<g clip-path="url(#clip0)">
<path d="M35.7685 19.6258L33.1231 15.3686C32.9135 15.0311 32.8428 14.6236 32.9259 14.2339L33.9761 9.31589C34.1399 8.54945 33.7027 7.7823 32.9665 7.54273L28.2416 6.0061C27.8672 5.88423 27.5546 5.61835 27.3713 5.26562L25.0587 0.813811C24.6985 0.1198 23.8774 -0.183063 23.1615 0.113298L18.5677 2.01638C18.2037 2.16683 17.7958 2.16683 17.4318 2.01638L12.8389 0.113656C12.1229 -0.182705 11.3019 0.120158 10.9413 0.814171L8.6286 5.26556C8.4453 5.61829 8.13277 5.88417 7.75831 6.00604L3.0335 7.54267C2.29691 7.78224 1.86009 8.54945 2.02386 9.31583L3.07368 14.2338C3.15709 14.6235 3.08609 15.0311 2.8765 15.3686L0.231388 19.6258C-0.181022 20.2893 -0.0289055 21.1617 0.58221 21.6424L4.50361 24.7251C4.81461 24.9697 5.01855 25.3278 5.0719 25.7232L5.7439 30.7086C5.84831 31.4857 6.51802 32.0552 7.29031 32.0247L12.2484 31.8301C12.6413 31.8144 13.0244 31.9562 13.3163 32.2239L16.9905 35.6049C17.5634 36.1317 18.4374 36.1317 19.0098 35.6049L22.6845 32.2239C22.9756 31.9558 23.3591 31.8144 23.7523 31.8301L28.71 32.0247C29.483 32.0552 30.152 31.4853 30.2568 30.7086L30.9288 25.7232C30.9821 25.3278 31.1861 24.9697 31.4967 24.7251L35.4181 21.6424C36.0292 21.1617 36.181 20.2893 35.7685 19.6258Z" fill="#419DF2"/>
<path d="M26.75 11.9755H22.795C23.0788 11.7817 23.3225 11.5892 23.4925 11.4167C24.5 10.403 24.5 8.75297 23.4925 7.73922C22.5138 6.75422 20.8063 6.75297 19.8263 7.73922C19.285 8.28297 17.8463 10.4967 18.045 11.9755H17.955C18.1525 10.4967 16.715 8.28297 16.1738 7.73922C15.1938 6.75297 13.4862 6.75422 12.5075 7.73922C11.5 8.75297 11.5 10.403 12.5063 11.4167C12.6775 11.5892 12.9213 11.7817 13.205 11.9755H9.25C8.56125 11.9755 8 12.5367 8 13.2255V16.3505C8 16.6955 8.28 16.9755 8.625 16.9755H9.25V24.4755C9.25 25.1642 9.81125 25.7255 10.5 25.7255H25.5C26.1887 25.7255 26.75 25.1642 26.75 24.4755V16.9755H27.375C27.72 16.9755 28 16.6955 28 16.3505V13.2255C28 12.5367 27.4387 11.9755 26.75 11.9755ZM13.3938 8.62047C13.6475 8.36547 13.9837 8.22547 14.3412 8.22547C14.6975 8.22547 15.0337 8.36547 15.2875 8.62047C16.13 9.46797 16.9675 11.633 16.6762 11.9342C16.6762 11.9342 16.6238 11.9755 16.445 11.9755C15.5813 11.9755 13.9325 11.078 13.3938 10.5355C12.87 10.008 12.87 9.14797 13.3938 8.62047ZM17.375 24.4755H10.5V16.9755H17.375V24.4755ZM17.375 15.7255H9.25V13.2255H16.445H17.375V15.7255ZM20.7125 8.62047C21.22 8.11172 22.1 8.11297 22.6063 8.62047C23.13 9.14797 23.13 10.008 22.6063 10.5355C22.0675 11.078 20.4188 11.9755 19.555 11.9755C19.3763 11.9755 19.3237 11.9355 19.3225 11.9342C19.0325 11.633 19.87 9.46797 20.7125 8.62047ZM25.5 24.4755H18.625V16.9755H25.5V24.4755ZM26.75 15.7255H18.625V13.2255H19.555H26.75V15.7255Z" fill="white"/>
</g>
<defs>
<clipPath id="clip0">
<rect width="36" height="36" fill="white"/>
</clipPath>
</defs>
</svg>
