<svg width="36" height="37" viewBox="0 0 36 37" fill="none" xmlns="http://www.w3.org/2000/svg">
<path d="M35.7687 19.8875L33.1233 15.6303C32.9137 15.2928 32.843 14.8853 32.9261 14.4956L33.9763 9.57761C34.1401 8.81117 33.7029 8.04402 32.9667 7.80445L28.2418 6.26782C27.8674 6.14595 27.5548 5.88007 27.3715 5.52734L25.0589 1.07553C24.6987 0.381519 23.8776 0.0786554 23.1617 0.375017L18.5679 2.2781C18.2039 2.42855 17.796 2.42855 17.432 2.2781L12.8391 0.375375C12.1231 0.0790133 11.3021 0.381877 10.9415 1.07589L8.62884 5.52728C8.44554 5.88001 8.13301 6.14589 7.75855 6.26776L3.03374 7.80439C2.29715 8.04396 1.86033 8.81117 2.0241 9.57755L3.07392 14.4955C3.15733 14.8852 3.08633 15.2928 2.87674 15.6303L0.231632 19.8875C-0.180778 20.551 -0.0286612 21.4234 0.582454 21.9041L4.50385 24.9868C4.81485 25.2314 5.01879 25.5895 5.07214 25.9849L5.74414 30.9703C5.84855 31.7474 6.51826 32.3169 7.29055 32.2864L12.2486 32.0918C12.6415 32.0761 13.0246 32.2179 13.3165 32.4856L16.9907 35.8666C17.5636 36.3934 18.4376 36.3934 19.01 35.8666L22.6847 32.4856C22.9758 32.2175 23.3593 32.0761 23.7525 32.0918L28.7102 32.2864C29.4832 32.3169 30.1522 31.747 30.257 30.9703L30.929 25.9849C30.9823 25.5895 31.1863 25.2314 31.4969 24.9868L35.4183 21.9041C36.0294 21.4234 36.1812 20.551 35.7687 19.8875Z" fill="#FFAE42"/>
<path d="M18.0002 5.26172C10.8317 5.26172 5.00024 11.0938 5.00024 18.2617C5.00024 25.4297 10.8317 31.2617 18.0002 31.2617C25.1688 31.2617 31.0002 25.4297 31.0002 18.2617C31.0002 11.0938 25.1688 5.26172 18.0002 5.26172ZM6.66548 15.1665H12.4288V22.5951H7.07591C6.54105 21.2523 6.23834 19.7926 6.23834 18.2617C6.23834 17.1889 6.39496 16.1545 6.66548 15.1665ZM19.8574 15.1665H25.4288V16.4046H20.4764V17.6427H25.4288V18.8808H20.4764V20.1189H25.4288V21.357H20.4764V22.5951H25.4288V23.2141C25.4288 23.5558 25.1509 23.8331 24.8098 23.8331H17.5273L15.1817 22.6601C15.0963 22.6173 15.001 22.5951 14.905 22.5951H13.6669V15.1665H14.905C15.0691 15.1665 15.2269 15.1015 15.3427 14.9851L17.8189 12.5089C17.9352 12.3931 18.0002 12.2359 18.0002 12.0712V8.976C18.6831 8.976 19.2383 9.53129 19.2383 10.2141V14.5474C19.2383 14.8898 19.5157 15.1665 19.8574 15.1665ZM18.0002 30.0236C13.5295 30.0236 9.63443 27.5152 7.64543 23.8331H12.4288H13.6669H14.7589L17.1045 25.0062C17.1899 25.049 17.2852 25.0712 17.3812 25.0712H24.8098C25.8337 25.0712 26.6669 24.238 26.6669 23.2141V21.976V19.4998V17.0236V14.5474C26.6669 14.2051 26.3896 13.9284 26.0479 13.9284H20.4764V10.2141C20.4764 8.84848 19.3659 7.73791 18.0002 7.73791H17.3812C17.0395 7.73791 16.7621 8.01462 16.7621 8.35696V11.815L14.6487 13.9284H13.6669H12.4288H7.07591C8.80615 9.58329 13.046 6.49981 18.0002 6.49981C24.486 6.49981 29.7621 11.776 29.7621 18.2617C29.7621 24.7475 24.486 30.0236 18.0002 30.0236Z" fill="white"/>
</svg>
