<svg width="36" height="37" viewBox="0 0 36 37" fill="none" xmlns="http://www.w3.org/2000/svg">
<path d="M35.769 19.8875L33.1235 15.6303C32.9139 15.2928 32.8433 14.8853 32.9263 14.4956L33.9766 9.57761C34.1403 8.81117 33.7031 8.04402 32.9669 7.80445L28.2421 6.26782C27.8676 6.14595 27.5551 5.88007 27.3718 5.52734L25.0591 1.07553C24.6989 0.381519 23.8778 0.0786554 23.1619 0.375017L18.5682 2.2781C18.2042 2.42855 17.7963 2.42855 17.4323 2.2781L12.8393 0.375375C12.1234 0.0790133 11.3023 0.381877 10.9417 1.07589L8.62908 5.52728C8.44579 5.88001 8.13326 6.14589 7.75879 6.26776L3.03398 7.80439C2.2974 8.04396 1.86058 8.81117 2.02434 9.57755L3.07416 14.4955C3.15757 14.8852 3.08657 15.2928 2.87698 15.6303L0.231876 19.8875C-0.180534 20.551 -0.0284171 21.4234 0.582698 21.9041L4.5041 24.9868C4.81509 25.2314 5.01904 25.5895 5.07239 25.9849L5.74439 30.9703C5.8488 31.7474 6.5185 32.3169 7.29079 32.2864L12.2489 32.0918C12.6418 32.0761 13.0249 32.2179 13.3168 32.4856L16.991 35.8666C17.5638 36.3934 18.4379 36.3934 19.0103 35.8666L22.6849 32.4856C22.976 32.2175 23.3595 32.0761 23.7528 32.0918L28.7105 32.2864C29.4835 32.3169 30.1525 31.747 30.2572 30.9703L30.9292 25.9849C30.9826 25.5895 31.1865 25.2314 31.4972 24.9868L35.4186 21.9041C36.0296 21.4234 36.1814 20.551 35.769 19.8875Z" fill="#3CA664"/>
<path d="M13.1685 21.2617H11.4751L8.77979 17.0078V21.2617H7.08057V14.4355H8.77979L11.4751 18.6953V14.4355H13.1685V21.2617ZM18.8521 18.4199H16.0337V19.9023H19.3501V21.2617H14.3345V14.4355H19.356V15.8066H16.0337V17.0547H18.8521V18.4199ZM25.8306 19.082L26.6978 14.4355H28.3267L26.7505 21.2617H25.063L24.02 16.9551L22.9946 21.2617H21.3071L19.7251 14.4355H21.3599L22.2271 19.1055L23.2817 14.4355H24.77L25.8306 19.082Z" fill="white"/>
</svg>
