<svg width="36" height="37" viewBox="0 0 36 37" fill="none" xmlns="http://www.w3.org/2000/svg">
<path d="M35.769 19.8875L33.1235 15.6303C32.9139 15.2928 32.8433 14.8853 32.9263 14.4956L33.9766 9.57761C34.1403 8.81117 33.7031 8.04402 32.9669 7.80445L28.2421 6.26782C27.8676 6.14595 27.5551 5.88007 27.3718 5.52734L25.0591 1.07553C24.6989 0.381519 23.8778 0.0786554 23.1619 0.375017L18.5682 2.2781C18.2042 2.42855 17.7963 2.42855 17.4323 2.2781L12.8393 0.375375C12.1234 0.0790133 11.3023 0.381877 10.9417 1.07589L8.62908 5.52728C8.44579 5.88001 8.13326 6.14589 7.75879 6.26776L3.03398 7.80439C2.2974 8.04396 1.86058 8.81117 2.02434 9.57755L3.07416 14.4955C3.15757 14.8852 3.08657 15.2928 2.87698 15.6303L0.231876 19.8875C-0.180534 20.551 -0.0284171 21.4234 0.582698 21.9041L4.5041 24.9868C4.81509 25.2314 5.01904 25.5895 5.07239 25.9849L5.74439 30.9703C5.8488 31.7474 6.5185 32.3169 7.29079 32.2864L12.2489 32.0918C12.6418 32.0761 13.0249 32.2179 13.3168 32.4856L16.991 35.8666C17.5638 36.3934 18.4379 36.3934 19.0103 35.8666L22.6849 32.4856C22.976 32.2175 23.3595 32.0761 23.7528 32.0918L28.7105 32.2864C29.4835 32.3169 30.1525 31.747 30.2572 30.9703L30.9292 25.9849C30.9826 25.5895 31.1865 25.2314 31.4972 24.9868L35.4186 21.9041C36.0296 21.4234 36.1814 20.551 35.769 19.8875Z" fill="#F06989"/>
<path d="M9.87744 19.4277C9.87744 19.2012 9.78174 19.0195 9.59033 18.8828C9.39893 18.7461 9.07275 18.623 8.61182 18.5137C8.15088 18.4043 7.76221 18.2891 7.4458 18.168C7.1333 18.043 6.87549 17.8965 6.67236 17.7285C6.46924 17.5605 6.31885 17.3672 6.22119 17.1484C6.12354 16.9258 6.07471 16.6621 6.07471 16.3574C6.07471 15.7715 6.31885 15.2891 6.80713 14.9102C7.29541 14.5312 7.92432 14.3418 8.69385 14.3418C9.53369 14.3418 10.2114 14.5332 10.7271 14.916C11.2466 15.2949 11.5063 15.8145 11.5063 16.4746H9.81299C9.81299 16.2246 9.71143 16.0156 9.5083 15.8477C9.30908 15.6797 9.03955 15.5957 8.69971 15.5957C8.39893 15.5957 8.15479 15.6621 7.96729 15.7949C7.77979 15.9277 7.68604 16.0938 7.68604 16.293C7.68604 16.4922 7.78369 16.6543 7.979 16.7793C8.17432 16.9004 8.49854 17.0176 8.95166 17.1309C9.86182 17.3301 10.5122 17.6055 10.9028 17.957C11.2974 18.3086 11.4946 18.7832 11.4946 19.3809C11.4946 19.9902 11.2544 20.4727 10.7739 20.8281C10.2935 21.1797 9.63721 21.3555 8.80518 21.3555C8.23877 21.3555 7.72705 21.2637 7.27002 21.0801C6.81299 20.8965 6.45947 20.6348 6.20947 20.2949C5.96338 19.9551 5.84033 19.5527 5.84033 19.0879H7.53955C7.53955 19.4512 7.65088 19.7129 7.87354 19.873C8.1001 20.0332 8.43799 20.1133 8.88721 20.1133C9.19189 20.1133 9.43213 20.0508 9.60791 19.9258C9.7876 19.8008 9.87744 19.6348 9.87744 19.4277ZM16.7505 19.9609H14.1079L13.6274 21.2617H11.9282L14.6294 14.4355H16.2231L18.9478 21.2617H17.2368L16.7505 19.9609ZM14.5649 18.7188H16.2817L15.4204 16.4102L14.5649 18.7188ZM21.2212 19.9023H24.3325V21.2617H19.522V14.4355H21.2212V19.9023ZM29.6294 18.4199H26.811V19.9023H30.1274V21.2617H25.1118V14.4355H30.1333V15.8066H26.811V17.0547H29.6294V18.4199Z" fill="white"/>
</svg>
