<svg 
 xmlns="http://www.w3.org/2000/svg"
 xmlns:xlink="http://www.w3.org/1999/xlink"
 width="34px" height="22px">
<path fill-rule="evenodd"  fill="rgb(44, 107, 246)"
 d="M1.581,20.429 L1.581,2.946 L15.260,12.689 C15.735,13.043 16.367,13.200 17.000,13.200 C17.633,13.200 18.265,13.043 18.740,12.689 L32.419,2.946 L32.419,20.429 L1.581,20.429 ZM31.628,1.571 L17.830,11.393 C17.395,11.707 16.605,11.707 16.170,11.393 L2.372,1.571 L31.628,1.571 ZM32.419,-0.000 L1.581,-0.000 C0.712,-0.000 0.000,0.707 0.000,1.571 L0.000,20.429 C0.000,21.293 0.712,22.000 1.581,22.000 L32.419,22.000 C33.288,22.000 34.000,21.293 34.000,20.429 L34.000,1.571 C34.000,0.707 33.288,-0.000 32.419,-0.000 L32.419,-0.000 Z"/>
</svg>