<svg 
 xmlns="http://www.w3.org/2000/svg"
 xmlns:xlink="http://www.w3.org/1999/xlink"
 width="50px" height="40px">
<path fill-rule="evenodd"  fill="rgb(72, 179, 107)"
 d="M49.977,23.977 C49.883,24.774 49.419,25.577 48.645,26.089 C48.645,26.089 48.644,26.090 48.644,26.090 C46.388,27.578 42.054,30.617 37.823,33.284 C35.707,34.617 33.616,35.860 31.787,36.786 C29.958,37.712 28.495,38.375 27.100,38.375 C27.100,38.375 27.100,38.375 27.099,38.375 C20.366,38.381 15.911,36.180 8.435,37.472 L8.435,38.891 C8.435,39.036 8.406,39.182 8.349,39.316 C8.292,39.450 8.208,39.573 8.103,39.676 C7.997,39.778 7.871,39.860 7.734,39.916 C7.597,39.971 7.448,40.000 7.299,40.000 L1.135,40.000 C0.986,40.000 0.837,39.971 0.700,39.916 C0.563,39.860 0.437,39.778 0.331,39.676 C0.226,39.573 0.142,39.450 0.085,39.316 C0.028,39.182 -0.002,39.037 -0.002,38.891 L-0.002,22.387 C-0.002,22.242 0.028,22.097 0.085,21.963 C0.142,21.829 0.226,21.705 0.331,21.603 C0.437,21.500 0.563,21.418 0.700,21.363 C0.837,21.307 0.986,21.278 1.135,21.278 L7.299,21.278 C7.448,21.278 7.597,21.307 7.734,21.363 C7.871,21.418 7.997,21.500 8.103,21.603 C8.208,21.705 8.292,21.829 8.349,21.963 C8.406,22.097 8.435,22.242 8.435,22.387 L8.435,23.689 C10.563,22.988 13.176,22.415 15.117,22.415 C17.475,22.415 19.180,22.853 20.612,23.257 C22.041,23.661 23.170,24.012 24.668,24.012 L30.780,23.830 C30.781,23.830 30.782,23.830 30.783,23.830 C32.150,23.791 33.365,24.576 33.871,25.712 L44.509,20.717 C44.510,20.717 44.510,20.716 44.511,20.716 C45.127,20.428 45.745,20.295 46.332,20.289 C47.624,20.274 48.763,20.867 49.388,21.754 C49.843,22.399 50.071,23.181 49.977,23.977 ZM47.516,23.012 C47.302,22.708 46.997,22.442 46.485,22.449 C46.217,22.452 45.892,22.530 45.495,22.716 C45.494,22.716 45.493,22.716 45.493,22.716 L33.785,28.214 C33.236,29.225 32.088,29.888 30.864,29.939 L19.200,30.428 C19.050,30.436 18.898,30.415 18.757,30.366 C18.615,30.317 18.484,30.241 18.372,30.143 C18.261,30.044 18.170,29.924 18.106,29.792 C18.043,29.659 18.006,29.514 18.000,29.368 C17.993,29.221 18.017,29.074 18.069,28.936 C18.121,28.799 18.201,28.672 18.303,28.564 C18.405,28.457 18.530,28.370 18.666,28.310 C18.803,28.249 18.952,28.217 19.102,28.211 L30.767,27.723 C31.450,27.695 31.849,27.296 31.849,26.885 C31.849,26.473 31.432,26.031 30.848,26.047 L30.848,26.047 L24.714,26.230 C24.702,26.230 24.691,26.230 24.679,26.230 C22.808,26.230 21.376,25.782 19.981,25.388 C18.585,24.994 17.196,24.633 15.117,24.633 C13.507,24.633 10.443,25.327 8.435,26.046 L8.435,27.012 C8.437,27.159 8.409,27.305 8.353,27.441 C8.297,27.577 8.213,27.701 8.108,27.806 C8.002,27.910 7.876,27.993 7.737,28.049 C7.599,28.106 7.449,28.135 7.299,28.135 C7.149,28.135 6.999,28.106 6.861,28.049 C6.723,27.993 6.596,27.910 6.491,27.806 C6.385,27.701 6.301,27.577 6.245,27.441 C6.189,27.305 6.161,27.159 6.163,27.012 L6.163,23.496 L2.271,23.496 L2.271,37.782 L6.163,37.782 L6.163,34.266 C6.161,34.120 6.189,33.973 6.245,33.837 C6.301,33.702 6.385,33.577 6.491,33.473 C6.596,33.369 6.723,33.285 6.861,33.229 C6.999,33.173 7.149,33.143 7.299,33.143 C7.449,33.143 7.599,33.173 7.737,33.229 C7.876,33.285 8.002,33.369 8.108,33.473 C8.213,33.577 8.297,33.702 8.353,33.837 C8.409,33.973 8.437,34.120 8.435,34.266 L8.435,35.221 C16.233,33.968 21.005,36.163 27.098,36.158 C27.099,36.158 27.099,36.158 27.099,36.158 C27.531,36.158 29.022,35.687 30.740,34.817 C32.459,33.947 34.508,32.733 36.590,31.421 C40.754,28.796 45.046,25.787 47.370,24.253 C47.370,24.253 47.370,24.253 47.371,24.252 C47.628,24.082 47.695,23.930 47.720,23.723 C47.744,23.515 47.679,23.243 47.516,23.012 ZM34.508,14.346 C34.508,16.700 32.528,18.633 30.116,18.633 C27.705,18.633 25.725,16.700 25.725,14.346 C25.725,11.992 27.705,10.059 30.116,10.059 C32.528,10.059 34.508,11.992 34.508,14.346 ZM27.997,14.346 C27.997,15.497 28.937,16.414 30.116,16.414 C31.296,16.414 32.236,15.497 32.236,14.346 C32.236,13.195 31.296,12.277 30.116,12.277 C28.937,12.277 27.997,13.195 27.997,14.346 ZM35.658,1.909 L17.977,19.162 C17.872,19.267 17.746,19.352 17.608,19.409 C17.470,19.467 17.320,19.498 17.170,19.498 C17.020,19.499 16.870,19.471 16.731,19.416 C16.592,19.360 16.464,19.277 16.358,19.173 C16.252,19.070 16.167,18.945 16.110,18.810 C16.053,18.674 16.024,18.527 16.026,18.381 C16.027,18.234 16.058,18.088 16.117,17.953 C16.176,17.818 16.263,17.695 16.370,17.593 L34.051,0.340 C34.153,0.238 34.275,0.156 34.408,0.098 C34.542,0.041 34.687,0.009 34.832,0.005 C35.060,-0.002 35.288,0.060 35.480,0.180 C35.671,0.300 35.824,0.477 35.912,0.681 C36.001,0.886 36.025,1.116 35.980,1.334 C35.935,1.551 35.821,1.755 35.658,1.909 ZM22.054,8.811 C19.642,8.811 17.662,6.879 17.662,4.524 C17.662,2.173 19.639,0.238 22.054,0.238 C24.466,0.238 26.446,2.170 26.446,4.524 C26.446,6.882 24.463,8.811 22.054,8.811 ZM22.054,2.456 C20.867,2.456 19.935,3.371 19.935,4.524 C19.935,5.685 20.865,6.593 22.054,6.593 C23.236,6.593 24.173,5.683 24.173,4.524 C24.173,3.373 23.234,2.456 22.054,2.456 Z"/>
</svg>