<svg xmlns="http://www.w3.org/2000/svg" width="246" height="88" viewBox="0 0 123 44">
  <metadata><?xpacket begin="﻿" id="W5M0MpCehiHzreSzNTczkc9d"?>
<x:xmpmeta xmlns:x="adobe:ns:meta/" x:xmptk="Adobe XMP Core 5.6-c138 79.159824, 2016/09/14-01:09:01        ">
   <rdf:RDF xmlns:rdf="http://www.w3.org/1999/02/22-rdf-syntax-ns#">
      <rdf:Description rdf:about=""/>
   </rdf:RDF>
</x:xmpmeta>
                                                                                                    
                                                                                                    
                                                                                                    
                                                                                                    
                                                                                                    
                                                                                                    
                                                                                                    
                                                                                                    
                                                                                                    
                                                                                                    
                                                                                                    
                                                                                                    
                                                                                                    
                                                                                                    
                                                                                                    
                                                                                                    
                                                                                                    
                                                                                                    
                                                                                                    
                                                                                                    
                           
<?xpacket end="w"?></metadata>
<defs>
    <style>
      .cls-1 {
        fill: #a9a9a9;
        fill-rule: evenodd;
      }
    </style>
  </defs>
  <path id="logo" class="cls-1" d="M157,4756.91a1.306,1.306,0,0,1-.951.33c-0.375-.04-0.755,0-1.133-0.01a0.692,0.692,0,0,1-.813-0.84c-0.013-.75,0-1.51,0-2.26v-3.38a76.335,76.335,0,0,0-8.075-.06c-0.017.2-.048,0.4-0.048,0.61,0,1.64,0,3.29,0,4.93,0,0.86-.134.99-0.98,1-0.4,0-.81.01-1.213-0.01a0.639,0.639,0,0,1-.7-0.7c-0.013-.16,0-0.32,0-0.49q0-6.87,0-13.75a1.164,1.164,0,0,1,.284-1.06,11.287,11.287,0,0,1,2.252-.02,1.055,1.055,0,0,1,.36,1.01c0,1.56,0,3.13,0,4.69v0.79a76.078,76.078,0,0,0,8.072.06c0.017-.19.051-0.4,0.052-0.6,0-1.65,0-3.29.008-4.94a8.01,8.01,0,0,1,.131-0.98,6.232,6.232,0,0,1,2.764.14v15.54Zm-96.273-15.73a1.127,1.127,0,0,1,.369,1.05q0,4.005,0,8.02v0.9c0.3-.29.5-0.47,0.683-0.66,2.631-2.67,5.257-5.35,7.893-8.01,0.359-.37.757-0.69,1.144-1.03a1.051,1.051,0,0,1,1.208-.14,5.517,5.517,0,0,1,.091.74q0.009,7.11,0,14.24c0,0.78-.159.93-0.957,0.94-0.405,0-.81.01-1.214-0.01a0.638,0.638,0,0,1-.72-0.68c-0.016-.19,0-0.38,0-0.57v-8.67c-0.293.28-.491,0.45-0.679,0.64q-4.15,4.155-8.3,8.3a5.872,5.872,0,0,1-.778.71,1.743,1.743,0,0,1-.738.26,0.436,0.436,0,0,1-.527-0.47c-0.008-.16-0.005-0.32-0.005-0.48q0-7.005,0-14a5.164,5.164,0,0,1,.011-0.57,0.5,0.5,0,0,1,.527-0.5C59.431,4741.18,60.127,4741.18,60.726,4741.18Zm70.4,6.16a6.315,6.315,0,0,1-.5.64q-4.114,4.125-8.238,8.24a5.86,5.86,0,0,1-.842.76,1.721,1.721,0,0,1-.745.23,0.418,0.418,0,0,1-.474-0.44c-0.015-.18-0.008-0.37-0.008-0.56v-13.92c0-.05,0-0.11,0-0.16,0.01-.85.1-0.95,0.912-0.96,0.458-.01.917,0,1.376,0.01a1.232,1.232,0,0,1,.292.05,1.107,1.107,0,0,1,.318,1.05q0,3.975,0,7.93v0.93c0.281-.27.477-0.44,0.66-0.62q3.948-4.02,7.894-8.02a12.7,12.7,0,0,1,1.211-1.07,1.311,1.311,0,0,1,.665-0.24,0.477,0.477,0,0,1,.587.5,3.506,3.506,0,0,1,.006.41q0,7.035,0,14.08a3.559,3.559,0,0,1,0,.4,0.622,0.622,0,0,1-.6.64c-0.565.02-1.133,0.02-1.7,0a0.588,0.588,0,0,1-.581-0.57,4.673,4.673,0,0,1-.012-0.65q0-3.885,0-7.76v-0.81Zm-47.084,3.11a6.037,6.037,0,0,1-.032-2.57c0.265-.03.5-0.06,0.734-0.07,0.864,0,1.728.01,2.591,0,0.456-.01.912-0.07,1.367-0.11a1.387,1.387,0,0,0,1.382-.93,1.855,1.855,0,0,0-.375-2.03,3.446,3.446,0,0,0-1.207-.76,6.016,6.016,0,0,0-6.242,1.21c-0.754.7-.846,0.72-1.754,0.21-0.348-.19-0.686-0.41-0.963-0.57a1.026,1.026,0,0,1,.169-1.07,6.126,6.126,0,0,1,2.538-2.07,9.8,9.8,0,0,1,7.986-.3,4.708,4.708,0,0,1,3.063,3.2,4.117,4.117,0,0,1-1.12,4.48,10.156,10.156,0,0,1,.86,1.26,4.563,4.563,0,0,1-1.851,6.14,8.535,8.535,0,0,1-3.588,1.1,10.133,10.133,0,0,1-3.913-.33,9.654,9.654,0,0,1-4.072-2.52,0.715,0.715,0,0,1,.048-1.23,11.273,11.273,0,0,1,.87-0.72,0.819,0.819,0,0,1,1.173-.02c0.439,0.31.846,0.67,1.292,0.97a6.117,6.117,0,0,0,4.536.98,4.745,4.745,0,0,0,1.691-.48,1.921,1.921,0,0,0,.942-2.28,1.566,1.566,0,0,0-1.475-1.36,7.768,7.768,0,0,0-1.362-.13C86.254,4750.44,85.179,4750.45,84.039,4750.45Zm29.983,6.77c-0.722,0-1.472.02-2.222,0a1.048,1.048,0,0,1-.895-0.72c-0.32-.68-0.646-1.35-0.977-2.04h-7.161c-0.3.61-.609,1.2-0.867,1.81a1.328,1.328,0,0,1-1.484.97c-0.454-.05-0.917,0-1.374-0.02a3.772,3.772,0,0,1-.647-0.17c0.124-.32.2-0.54,0.3-0.75q3.364-7.005,6.736-14.01a4.507,4.507,0,0,1,.536-0.9,0.474,0.474,0,0,1,.816.02,3.675,3.675,0,0,1,.367.62q3.421,7.125,6.831,14.24A0.771,0.771,0,0,1,114.022,4757.22Zm-7.647-10.34a28.243,28.243,0,0,0-2.161,4.77h4.407C107.87,4750.05,107.131,4748.49,106.375,4746.88Zm-21.439,19.58c0,0.94.034,1.83-.007,2.71a24.219,24.219,0,0,1-1.13,7.15,5.864,5.864,0,0,1-1.549,2.51,3.94,3.94,0,0,1-3.36.99,0.764,0.764,0,0,1-.8-0.91,11.919,11.919,0,0,1,.005-1.3,0.505,0.505,0,0,1,.6-0.59h0.162a1.755,1.755,0,0,0,1.985-1.28,12.857,12.857,0,0,0,.862-3.26,64.558,64.558,0,0,0,.432-7.9c0-.08,0-0.16,0-0.24,0.036-.65.131-0.76,0.775-0.77q4.413,0,8.825.01a0.649,0.649,0,0,1,.791.77c0.008,0.13,0,.27,0,0.4q0,6.81,0,13.6a5.305,5.305,0,0,1-.007.56,0.667,0.667,0,0,1-.778.72c-0.458.01-.918,0.01-1.376,0a0.651,0.651,0,0,1-.727-0.76c-0.009-.18,0-0.37,0-0.56v-11.8A25.662,25.662,0,0,0,84.936,4766.46Zm-17.7,5.08c1.145,1.68,2.25,3.3,3.356,4.92,0.516,0.75,1.039,1.5,1.544,2.27a0.766,0.766,0,0,1,.235.85c-0.15.01-.327,0.04-0.5,0.05a14.115,14.115,0,0,0-1.455.01,2.024,2.024,0,0,1-2.12-1.13c-1.209-1.84-2.488-3.63-3.74-5.45H62.389c-0.018.23-.049,0.44-0.05,0.64,0,1.65,0,3.29,0,4.94,0,0.85-.134.98-0.982,0.99-0.4,0-.81.02-1.214-0.01a0.638,0.638,0,0,1-.7-0.7c-0.012-.16,0-0.33,0-0.49q0-6.825,0-13.67c0-.11,0-0.21,0-0.32,0.017-.74.118-0.85,0.839-0.87,0.458-.01.918-0.01,1.376,0.01a0.588,0.588,0,0,1,.677.63,5.019,5.019,0,0,1,.007.57q0,2.265,0,4.53v0.89c0.66,0,1.273.04,1.879-.01a0.95,0.95,0,0,0,.507-0.44c0.9-1.41,1.771-2.83,2.655-4.24,0.257-.41.528-0.81,0.776-1.23a1.3,1.3,0,0,1,1.259-.71c0.855,0.03,1.716-.05,2.683.06a15.821,15.821,0,0,1-1.552,2.67c-0.52.88-1.087,1.73-1.634,2.6S67.819,4770.62,67.237,4771.54Zm42.925,5.31h-7.155c-0.3.62-.617,1.24-0.891,1.88a1.3,1.3,0,0,1-1.435.91c-0.455-.05-0.917,0-1.376-0.01-0.6-.02-0.71-0.2-0.447-0.76,0.888-1.86,1.788-3.72,2.682-5.59q2.056-4.275,4.115-8.56a4.572,4.572,0,0,1,.528-0.9,0.487,0.487,0,0,1,.867.04,4.348,4.348,0,0,1,.394.7q3.366,7,6.726,14.01c0.023,0.05.047,0.1,0.069,0.15,0.336,0.75.248,0.9-.556,0.91-0.458.01-.918-0.02-1.376,0.01a1.123,1.123,0,0,1-1.152-.71C110.835,4778.25,110.508,4777.57,110.162,4776.85Zm-5.864-2.78c1.579,0.01,3.041,0,4.574.01-0.768-1.63-1.509-3.2-2.292-4.86C105.807,4770.86,105.082,4772.4,104.3,4774.07Zm-60.385-11.01a7.986,7.986,0,0,1,5.528,2.11,2.592,2.592,0,0,1,.336.35,0.477,0.477,0,0,1-.063.72c-0.447.34-.906,0.67-1.378,0.98a0.878,0.878,0,0,1-.924,0,5.787,5.787,0,0,1-.552-0.32,6.013,6.013,0,0,0-6.67.36,4.644,4.644,0,0,0-1.59,2.29,6.116,6.116,0,0,0,.2,4.48,4.961,4.961,0,0,0,4.419,3.02c0.161,0.02.324,0.01,0.485,0.02a4.835,4.835,0,0,0,3.353-.91,1.223,1.223,0,0,1,1.679.02c0.288,0.24.612,0.44,0.9,0.69a0.521,0.521,0,0,1,.061.89,7.99,7.99,0,0,1-6.715,2.26,9.088,9.088,0,0,1-3.461-.99,7.643,7.643,0,0,1-3.9-5.09,8.838,8.838,0,0,1,.849-6.85,7.8,7.8,0,0,1,5.452-3.79C42.57,4763.16,43.246,4763.14,43.913,4763.06Zm-0.432-22.56h0m-0.724.59,5.991,4.83v8.56H36.765v-8.56l5.991-4.83m0-3.09a1.593,1.593,0,0,0-1.012.35l-7.144,5.76a1.625,1.625,0,0,0-.6,1.26v10.27a1.611,1.611,0,0,0,1.612,1.61H49.9a1.61,1.61,0,0,0,1.612-1.61v-10.27a1.624,1.624,0,0,0-.6-1.26l-7.144-5.76a1.592,1.592,0,0,0-1.012-.35h0Zm79.647,44c0-.75-0.005-1.5-0.005-2.24,0.6-.16,10.934-0.2,12.18-0.05V4782h2.91v-4.96a2.141,2.141,0,0,0-1.218-.29,5.69,5.69,0,0,1-1.534-.06v-0.94c0-3.67,0-7.33,0-11,0-.21,0-0.43-0.006-0.65a0.483,0.483,0,0,0-.5-0.51c-0.134-.01-0.269-0.02-0.4-0.02h-8.982c-0.835,0-.931.11-0.953,0.93-0.05,1.88-.09,3.77-0.163,5.65a18.683,18.683,0,0,1-.683,4.45,12.194,12.194,0,0,1-.728,1.69,0.715,0.715,0,0,1-.779.45c-0.4-.02-0.809-0.01-1.213,0a0.684,0.684,0,0,0-.807.84c-0.006,1.48,0,2.95-.012,4.42h2.9Zm4.416-15.57h4.99v10.27H125.47C126.655,4773.35,126.69,4769.89,126.819,4766.43Zm3.757-26.18h-5.7a0.081,0.081,0,0,1-.077-0.08v-1.62a0.075,0.075,0,0,1,.077-0.08h5.7a0.075,0.075,0,0,1,.077.08v1.62A0.082,0.082,0,0,1,130.576,4740.25Z" transform="translate(-34 -4738)"/>
</svg>
