<svg width="160" height="22" fill="none" xmlns="http://www.w3.org/2000/svg"><path d="M122.828 16.582l.871-8.47h8.636v11.294h-2.4V10.16h-4.119l-.682 6.672c-.187 1.914-1.129 2.732-2.565 2.732a5.74 5.74 0 0 1-1.434-.16l.351-2.048c.212.068.402.114.612.114.495 0 .659-.342.73-.889zm-105.263.125V9.3a.707.707 0 0 0-.278-.56l-7.139-5.525a.255.255 0 0 0-.32 0L2.693 8.74a.704.704 0 0 0-.279.56v7.407a.73.73 0 0 0 .742.715h13.669a.73.73 0 0 0 .741-.715zM11.657 1.39l7.139 5.525A3.01 3.01 0 0 1 19.979 9.3v7.407c0 1.684-1.415 3.053-3.155 3.053H3.155C1.417 19.76 0 18.39 0 16.707V9.3a3 3 0 0 1 1.185-2.385L8.324 1.39a2.724 2.724 0 0 1 3.333 0zm13.736 14.897l5.273-8.176h2.54v11.295h-2.305V11.23l-5.272 8.176h-2.541V8.111h2.305v8.176zm17.093-2.96c1.153.432 2.329 1.253 2.329 2.823 0 1.914-1.505 3.575-4.588 3.575-2.849 0-4.519-1.48-4.519-3.507 0-.478.094-.911.283-1.298l2.093.706c-.07.205-.117.342-.117.638 0 1.002 1.036 1.572 2.352 1.572 1.342 0 2.167-.73 2.167-1.8 0-1.251-1.248-1.8-2.871-1.8v-1.684c1.882 0 2.564-.638 2.564-1.639 0-.82-.753-1.367-1.977-1.367-1.035 0-2 .524-2 1.345 0 .159.024.317.07.476l-1.928.684a2.167 2.167 0 0 1-.259-1.048c0-1.89 1.552-3.211 4.117-3.211 2.755 0 4.12 1.39 4.12 2.962 0 1.388-.871 2.208-1.836 2.573zm12.126.66v-.32l-3.153.525c-1.483.25-2.26.843-2.26 1.912 0 1.025.753 1.686 1.954 1.686 2.094 0 3.46-1.618 3.46-3.803zm2.4-2.368v4.963c0 1.299.165 1.982.706 2.823h-2.4c-.282-.34-.588-.91-.659-1.98-.753 1.527-2.166 2.3-3.883 2.3-2.352 0-3.977-1.411-3.977-3.485 0-2.299 1.884-3.347 4.118-3.712l3.695-.567v-.479c0-1.298-.824-1.96-2.449-1.96-1.67 0-2.423.684-2.423 1.482 0 .114-.023.16.047.341l-2.14.705a2.414 2.414 0 0 1-.189-.91c0-1.752 1.764-3.347 4.706-3.347 3.202 0 4.848 1.367 4.848 3.826zm5.325 4.668L67.61 8.11h2.54v11.295h-2.305V11.23l-5.272 8.176h-2.541V8.111h2.305v8.176zm2.754-9.77c-1.575 0-2.54-1.07-2.54-2.458h1.645c0 .613.33.978.895.978s.895-.365.895-.978h1.646c0 1.388-.963 2.459-2.54 2.459zm15.774 5.921V8.111h2.308v11.296h-2.308V14.44h-5.223v4.966h-2.308V8.11h2.308v4.327h5.223zm19.873 5.056c2.235 0 3.954-1.026 5.2-3.302l1.954 1.342c-1.672 2.712-3.648 4.19-7.201 4.19-4.707 0-8.167-3.438-8.167-8.287 0-4.851 3.695-8.29 8.285-8.29 3.365 0 5.906 1.71 7.036 4.122l-2.023 1.411c-1.201-2.208-2.8-3.302-5.061-3.302-3.106 0-5.647 2.552-5.647 6.059 0 3.461 2.376 6.057 5.624 6.057zm18.718-9.382l-4.212 4.395 4.919 6.9h-2.8l-3.766-5.193-1.059 1.094v4.099h-2.402V8.112h2.402v4.236l4.001-4.236h2.917zm23.193 5.874v-.318l-3.153.524c-1.482.25-2.261.843-2.261 1.912 0 1.025.754 1.686 1.955 1.686 2.095 0 3.459-1.618 3.459-3.803zm2.402-2.367v4.963c0 1.299.165 1.982.704 2.823h-2.4c-.282-.34-.586-.91-.659-1.98-.751 1.527-2.164 2.3-3.883 2.3-2.353 0-3.975-1.411-3.975-3.485 0-2.299 1.881-3.347 4.116-3.712l3.695-.567v-.479c0-1.298-.824-1.96-2.447-1.96-1.672 0-2.423.684-2.423 1.482 0 .114-.024.16.045.341l-2.141.705a2.427 2.427 0 0 1-.188-.91c0-1.752 1.766-3.347 4.707-3.347 3.2 0 4.849 1.367 4.849 3.826zm11.443 5.738v-7.265h-3.766l-.375 3.963c-.164 1.549-.494 2.413-.941 3.302h5.082zm2.307 0H160v4.463h-1.976v-2.413h-8.308v2.413h-1.976v-4.463h1.223c.565-1.026.894-2.05 1.059-3.507l.565-5.738h8.214v9.245z" fill="#091E42"/></svg>