<svg xmlns="http://www.w3.org/2000/svg" viewBox="0 0 2042.19 750.47"><defs><style>.cls-2{fill:#1769ff;fill-rule:evenodd}</style></defs><g id="Layer_2" data-name="Layer 2"><g id="Layer_1-2" data-name="Layer 1"><rect x="1507.62" y="7.85" width="97.4" height="29.32" rx="5" ry="5" fill="#1769ff"/><path class="cls-2" d="M1202.37 543.39l18.7 38 18.71 38H1165l18.71-38zm92.68 168.23h27.81c6.92 0 9.81-5.71 6.43-12.69l-5.63-11.65-101.26-211.84c-17.75-38-22.06-37.81-40.13-3.84-36.71 75.64-72.66 151.64-109.28 227.33-3.38 7-.48 12.69 6.44 12.69h27.81c6.92 0 15.34-5.71 18.72-12.69 5-10.35 10.59-20.93 15.19-31.4l.68-1.41h118.61l15.88 32.83c3.38 6.96 11.81 12.67 18.73 12.67zM1481.29 216.68V64.08a11.46 11.46 0 0 0-11.43-11.44h-25.29a11.47 11.47 0 0 0-11.44 11.44v11.48c-.07 4.47 0 10 0 17V303c0 8.84.91 14.05 10 14.51 9.37.51 18.7-11.52 30-22.62L1616.12 154v148.4c.08 11.68 3.38 14.82 14.83 15.11 36.28.91 33.32-.28 33.32-26.3V112.79c0-8.84.09-27.11 0-40.4-.1-16.88-5.67-27.53-24.62-12.73M1668.44 497.46V663c5.24.39 25.45.08 27.7.08h12a6.23 6.23 0 0 1 6.23 6.25l-.3 70.17a11 11 0 0 1-11 11H1677a11 11 0 0 1-11-11l.12-28.54h-202.3l-.12 28.63a11 11 0 0 1-11 11h-26.1a11 11 0 0 1-11-11l.3-70a6.32 6.32 0 0 1 6.32-6.3h33c4.73-1.17 9.16-10.84 11.75-16.37 6.09-13 9.3-23.28 12.48-38.7 8.13-39.27 7.71-102.4 9-146.1.55-18.7 4.45-15.56 35.72-15.56h128.92c10 0 15.23 0 15.48 10.86.14 5.8 0 20.82-.18 40.24m-153.36 165.6c.34-3.4 4.24-13.47 5.51-18.09 14.1-51.17 14.66-98 16.61-151.48l82.88.14V663.1h-46.23zM140.26.57c-10.14 2-25.3 16.28-33.62 23.06-31 25.29-64.37 50.89-95.13 76.2C3.36 106.53 0 111.15.05 126.33v151.93c0 14.3-1.15 22.41 7.42 31.13s14.51 8.42 29.36 8.42H227c12.35 0 25.43.42 37.69 0a26.83 26.83 0 0 0 23.47-14.88c4.15-8.5 2.66-24.73 2.66-35.25V153.42c0-9 1.05-29.71-.63-37.39-2.45-11.24-10-15.5-17-21.17-6.8-5.52-14.27-11.15-21-16.72-25.6-21.32-58-46.65-84.26-67.64C161.06 5 153.74-2.06 140.26.57m-93.54 130c1-1.48 9.79-8.21 12-10 10.53-8.31 79.83-64.85 86.56-69.33l74.4 59.4c3.34 2.66 23.33 18.2 24.39 19.92 1.15 4.25.42 133.35.42 141.33H46.28c.02-7.98-.72-137.06.44-141.35zM584.77 154v148.4c.07 11.68 3.38 14.82 14.83 15.11 36.28.91 33.32-.28 33.32-26.3V112.79c0-8.84.09-27.11 0-40.4-.09-16.88-5.67-27.53-24.61-12.73-8.15 8.22-19.13 19-27.22 27.19L450 216.68V64.08a11.47 11.47 0 0 0-11.44-11.44h-25.35a11.47 11.47 0 0 0-11.44 11.44v11.48c-.07 4.47 0 10 0 17V303c0 8.84.91 14.05 10 14.51 9.37.51 18.7-11.52 30-22.62zM831.16 205c2 1.36 22.35.48 26.31.49 20.73 0 59.38-2.48 70.25 12.48 8.39 11.55 7.36 32-1.1 42.28-7.53 9.16-23.21 13.35-39.14 15.65-36.79 5.31-62-6.66-83.71-23.46-19.38-15-21-18.83-42.57.73-8.92 8.11-14.61 12.43-1.77 24.79 19.57 18.85 41.57 33.45 68.85 40.67 52.77 14 135.52 1.87 155.89-53.21 7.72-20.87 5.62-47-6.43-66.25-3.6-5.76-8.56-10.89-11.49-16.31 1.1-1.81 4.93-5.15 6.93-7.33a60.55 60.55 0 0 0 6-8.17c12.65-21.42 11.07-47.81 1.71-69.05-25.17-57.14-112.2-62-163.49-43.9-14.2 5-27.46 11.44-37.73 19.39-6.16 4.77-24.92 21-24.8 32.51.08 7.57 3.53 8.16 14.26 14.21 23.09 13 19.66 7.77 36.19-5.17 5.8-4.53 9.87-7.8 17.13-11.71a92.8 92.8 0 0 1 45.66-10.89c15.73.16 35.18 3.47 46.48 10.64 14.63 9.28 21.48 18.36 17.83 36.63-3.88 19.42-15.71 19.61-35.93 21.33-20.71 1.76-41.42 1.21-62.58 1.39-3.13.31-3.49 0-4 3-1.64 9-2.68 34.09 1.34 39.28M937.58 446.42H810.72c-7.44 0-13.13-.72-14.77 6.68-1.25 5.65-1.63 54.14-1.86 62.43-.76 26.91-2.2 53.48-6.27 79.56-3.15 20.17-10.66 52.67-21.51 64.44-13.6 14.76-23 6.34-33.32 9.7-5.47 1.77-4.91 9.44-5 15.87-.36 19.15-1.47 26.95 13.37 29.39 19.37 3.18 36.37-1.43 51.09-12.36 33-24.51 43-84.09 46.81-125.25 1.64-17.62 4.18-62.64 4-84.19h76.44v207.42a11.47 11.47 0 0 0 11.43 11.44h25.28a11.48 11.48 0 0 0 11.44-11.44V457.85a11.47 11.47 0 0 0-11.43-11.43zM80 460c-42.1 26.27-66 75.42-62.15 127.39 2 26.35 10.69 54 22.88 71.79 29 42.42 76 62.05 129.48 59.25 35.49-1.85 61-15.08 83.57-35.12 13.76-12.21 3.14-16.29-8.69-25.39-10.58-8.13-17.78-14.06-32.62-3.55-17 12-33.81 15.86-55.8 14.78-32.71-1.6-51.25-10.8-66.82-27.9-32.81-36-30.74-104.78 9.72-134.56 29-21.37 76.3-27.44 109.08-6.06 21 13.72 21.47 9.3 46.64-8.94 11.9-8.62-.48-17.39-11.1-26C200.38 430.07 127 430.65 80 460M1847.82 317.88h-25.29a11.45 11.45 0 0 1-11.43-11.44V64a11.45 11.45 0 0 1 11.43-11.44h25.29A11.46 11.46 0 0 1 1859.26 64v98.45H1994V64a11.46 11.46 0 0 1 11.44-11.44h25.29A11.45 11.45 0 0 1 2042.19 64v242.44a11.45 11.45 0 0 1-11.43 11.44h-25.29a11.46 11.46 0 0 1-11.47-11.44v-98.3h-134.74v98.3a11.46 11.46 0 0 1-11.44 11.44M1202.35 149.53l18.71 38 18.71 38h-74.83l18.7-38zM1295 317.77h27.81c6.92 0 9.81-5.72 6.44-12.7l-5.64-11.65-101.23-211.84c-17.75-38-22.06-37.81-40.13-3.84-36.7 75.64-72.66 151.64-109.28 227.33-3.38 7-.48 12.7 6.44 12.7h27.81c6.92 0 15.34-5.72 18.72-12.7 5-10.35 10.6-20.93 15.19-31.4l.68-1.41h118.62l15.88 32.83c3.37 6.96 11.8 12.68 18.69 12.68zM455.17 711.78h-25.29a11.46 11.46 0 0 1-11.43-11.45V457.88a11.46 11.46 0 0 1 11.43-11.45h25.29a11.47 11.47 0 0 1 11.44 11.45v97.54h35.14l59.89-94.58c5-7.94 15.66-14.42 23.59-14.42h31.87c7.93 0 10.27 6.48 5.24 14.42l-74.67 117.92 82.77 118.44c5.55 7.94 3.59 14.41-4.41 14.41h-32.15c-8 0-19.11-6.47-24.66-14.41l-65.8-94.14h-36.81v97.27a11.47 11.47 0 0 1-11.44 11.45M1512.62 37.16a5 5 0 0 1-5-5V12.85a5 5 0 0 1 5-5"/></g></g></svg>