<svg xmlns="http://www.w3.org/2000/svg" width="123" height="44"><path d="M123 18.91a1.306 1.306 0 0 1-.951.33c-.375-.04-.755 0-1.133-.01a.692.692 0 0 1-.813-.84c-.013-.75 0-1.51 0-2.26v-3.38a76.335 76.335 0 0 0-8.075-.06c-.017.2-.048.4-.048.61v4.93c0 .86-.134.99-.98 1-.4 0-.81.01-1.213-.01a.639.639 0 0 1-.7-.7c-.013-.16 0-.32 0-.49V4.28a1.164 1.164 0 0 1 .284-1.06 11.287 11.287 0 0 1 2.252-.02 1.055 1.055 0 0 1 .36 1.01v5.48a76.078 76.078 0 0 0 8.072.06c.017-.19.051-.4.052-.6 0-1.65 0-3.29.008-4.94a8.01 8.01 0 0 1 .131-.98 6.232 6.232 0 0 1 2.764.14v15.54zM26.727 3.18a1.127 1.127 0 0 1 .369 1.05v8.92c.3-.29.5-.47.683-.66 2.631-2.67 5.257-5.35 7.893-8.01.359-.37.757-.69 1.144-1.03a1.051 1.051 0 0 1 1.208-.14 5.517 5.517 0 0 1 .091.74q.009 7.11 0 14.24c0 .78-.159.93-.957.94-.405 0-.81.01-1.214-.01a.638.638 0 0 1-.72-.68c-.016-.19 0-.38 0-.57V9.3c-.293.28-.491.45-.679.64q-4.15 4.155-8.3 8.3a5.872 5.872 0 0 1-.778.71 1.743 1.743 0 0 1-.738.26.436.436 0 0 1-.527-.47c-.008-.16-.005-.32-.005-.48v-14a5.164 5.164 0 0 1 .011-.57.5.5 0 0 1 .527-.5c.696-.01 1.392-.01 1.991-.01zm70.4 6.16a6.315 6.315 0 0 1-.5.64q-4.114 4.125-8.238 8.24a5.86 5.86 0 0 1-.842.76 1.721 1.721 0 0 1-.745.23.418.418 0 0 1-.474-.44c-.015-.18-.008-.37-.008-.56V4.29v-.16c.01-.85.1-.95.912-.96.458-.01.917 0 1.376.01a1.232 1.232 0 0 1 .292.05 1.107 1.107 0 0 1 .318 1.05v8.86c.281-.27.477-.44.66-.62q3.948-4.02 7.894-8.02a12.7 12.7 0 0 1 1.211-1.07 1.311 1.311 0 0 1 .665-.24.477.477 0 0 1 .587.5 3.506 3.506 0 0 1 .006.41v14.08a3.559 3.559 0 0 1 0 .4.622.622 0 0 1-.6.64c-.565.02-1.133.02-1.7 0a.588.588 0 0 1-.581-.57 4.673 4.673 0 0 1-.012-.65V9.43zm-47.084 3.11a6.037 6.037 0 0 1-.032-2.57c.265-.03.5-.06.734-.07.864 0 1.728.01 2.591 0 .456-.01.912-.07 1.367-.11a1.387 1.387 0 0 0 1.382-.93 1.855 1.855 0 0 0-.375-2.03 3.446 3.446 0 0 0-1.207-.76 6.016 6.016 0 0 0-6.242 1.21c-.754.7-.846.72-1.754.21-.348-.19-.686-.41-.963-.57a1.026 1.026 0 0 1 .169-1.07 6.126 6.126 0 0 1 2.538-2.07 9.8 9.8 0 0 1 7.986-.3 4.708 4.708 0 0 1 3.063 3.2 4.117 4.117 0 0 1-1.12 4.48 10.156 10.156 0 0 1 .86 1.26 4.563 4.563 0 0 1-1.851 6.14 8.535 8.535 0 0 1-3.588 1.1 10.133 10.133 0 0 1-3.913-.33 9.654 9.654 0 0 1-4.072-2.52.715.715 0 0 1 .048-1.23 11.273 11.273 0 0 1 .87-.72.819.819 0 0 1 1.173-.02c.439.31.846.67 1.292.97a6.117 6.117 0 0 0 4.536.98 4.745 4.745 0 0 0 1.691-.48 1.921 1.921 0 0 0 .942-2.28 1.566 1.566 0 0 0-1.475-1.36 7.768 7.768 0 0 0-1.362-.13c-1.077-.01-2.152 0-3.292 0zm29.983 6.77c-.722 0-1.472.02-2.222 0a1.048 1.048 0 0 1-.895-.72c-.32-.68-.646-1.35-.977-2.04h-7.161c-.3.61-.609 1.2-.867 1.81a1.328 1.328 0 0 1-1.484.97c-.454-.05-.917 0-1.374-.02a3.772 3.772 0 0 1-.647-.17c.124-.32.2-.54.3-.75q3.364-7.005 6.736-14.01a4.507 4.507 0 0 1 .536-.9.474.474 0 0 1 .816.02 3.675 3.675 0 0 1 .367.62q3.421 7.125 6.831 14.24a.771.771 0 0 1 .037.95zM72.379 8.88a28.243 28.243 0 0 0-2.161 4.77h4.407c-.755-1.6-1.494-3.16-2.25-4.77zM50.94 28.46c0 .94.034 1.83-.007 2.71a24.219 24.219 0 0 1-1.13 7.15 5.864 5.864 0 0 1-1.549 2.51 3.94 3.94 0 0 1-3.36.99.764.764 0 0 1-.8-.91 11.919 11.919 0 0 1 .005-1.3.505.505 0 0 1 .6-.59h.162a1.755 1.755 0 0 0 1.985-1.28 12.857 12.857 0 0 0 .862-3.26 64.558 64.558 0 0 0 .432-7.9v-.24c.036-.65.131-.76.775-.77q4.413 0 8.825.01a.649.649 0 0 1 .791.77c.008.13 0 .27 0 .4v13.6a5.305 5.305 0 0 1-.007.56.667.667 0 0 1-.778.72c-.458.01-.918.01-1.376 0a.651.651 0 0 1-.727-.76c-.009-.18 0-.37 0-.56v-11.8a25.662 25.662 0 0 0-4.707-.05zm-17.7 5.08l3.356 4.92c.516.75 1.039 1.5 1.544 2.27a.766.766 0 0 1 .235.85c-.15.01-.327.04-.5.05a14.115 14.115 0 0 0-1.455.01 2.024 2.024 0 0 1-2.12-1.13c-1.209-1.84-2.488-3.63-3.74-5.45h-2.171c-.018.23-.049.44-.05.64v4.94c0 .85-.134.98-.982.99-.4 0-.81.02-1.214-.01a.638.638 0 0 1-.7-.7c-.012-.16 0-.33 0-.49V26.76v-.32c.017-.74.118-.85.839-.87.458-.01.918-.01 1.376.01a.588.588 0 0 1 .677.63 5.019 5.019 0 0 1 .007.57v5.42c.66 0 1.273.04 1.879-.01a.95.95 0 0 0 .507-.44c.9-1.41 1.771-2.83 2.655-4.24.257-.41.528-.81.776-1.23a1.3 1.3 0 0 1 1.259-.71c.855.03 1.716-.05 2.683.06a15.821 15.821 0 0 1-1.552 2.67c-.52.88-1.087 1.73-1.634 2.6s-1.096 1.72-1.678 2.64zm42.925 5.31H69.01c-.3.62-.617 1.24-.891 1.88a1.3 1.3 0 0 1-1.435.91c-.455-.05-.917 0-1.376-.01-.6-.02-.71-.2-.447-.76.888-1.86 1.788-3.72 2.682-5.59l4.115-8.56a4.572 4.572 0 0 1 .528-.9.487.487 0 0 1 .867.04 4.348 4.348 0 0 1 .394.7q3.366 7 6.726 14.01l.069.15c.336.75.248.9-.556.91-.458.01-.918-.02-1.376.01a1.123 1.123 0 0 1-1.152-.71c-.323-.68-.65-1.36-.996-2.08zm-5.864-2.78c1.579.01 3.041 0 4.574.01l-2.292-4.86c-.776 1.64-1.501 3.18-2.283 4.85zM9.916 25.06a7.986 7.986 0 0 1 5.528 2.11 2.592 2.592 0 0 1 .336.35.477.477 0 0 1-.063.72c-.447.34-.906.67-1.378.98a.878.878 0 0 1-.924 0 5.787 5.787 0 0 1-.552-.32 6.013 6.013 0 0 0-6.67.36 4.644 4.644 0 0 0-1.59 2.29 6.116 6.116 0 0 0 .2 4.48 4.961 4.961 0 0 0 4.419 3.02c.161.02.324.01.485.02a4.835 4.835 0 0 0 3.353-.91 1.223 1.223 0 0 1 1.679.02c.288.24.612.44.9.69a.521.521 0 0 1 .061.89 7.99 7.99 0 0 1-6.715 2.26 9.088 9.088 0 0 1-3.461-.99 7.643 7.643 0 0 1-3.9-5.09 8.838 8.838 0 0 1 .849-6.85 7.8 7.8 0 0 1 5.452-3.79c.645-.14 1.321-.16 1.988-.24zM8.76 3.09l5.991 4.83v8.56H2.765V7.92l5.991-4.83m0-3.09a1.593 1.593 0 0 0-1.012.35L.6 6.11A1.625 1.625 0 0 0 0 7.37v10.27a1.611 1.611 0 0 0 1.612 1.61H15.9a1.61 1.61 0 0 0 1.612-1.61V7.37a1.624 1.624 0 0 0-.6-1.26L9.768.35A1.592 1.592 0 0 0 8.756 0zm79.647 44c0-.75-.005-1.5-.005-2.24.6-.16 10.934-.2 12.18-.05V44h2.91v-4.96a2.141 2.141 0 0 0-1.218-.29 5.69 5.69 0 0 1-1.534-.06v-.94-11c0-.21 0-.43-.006-.65a.483.483 0 0 0-.5-.51 5.436 5.436 0 0 0-.4-.02h-8.982c-.835 0-.931.11-.953.93-.05 1.88-.09 3.77-.163 5.65a18.683 18.683 0 0 1-.683 4.45 12.194 12.194 0 0 1-.728 1.69.715.715 0 0 1-.779.45c-.4-.02-.809-.01-1.213 0a.684.684 0 0 0-.807.84c-.006 1.48 0 2.95-.012 4.42h2.9zm4.416-15.57h4.99V38.7H91.47c1.185-3.35 1.22-6.81 1.349-10.27zm3.757-26.18h-5.7a.081.081 0 0 1-.077-.08V.55a.075.075 0 0 1 .077-.08h5.7a.075.075 0 0 1 .077.08v1.62a.082.082 0 0 1-.077.08z" fill="#a9a9a9" fill-rule="evenodd"/></svg>