<svg xmlns="http://www.w3.org/2000/svg" viewBox="0 0 72.69 130.42"><defs><style>.cls-1{fill:#fff;}.cls-1,.cls-2{stroke:#231f20;stroke-miterlimit:10;}.cls-2{fill:none;}</style></defs><title>louis_ghost</title><g id="Layer_2" data-name="Layer 2"><g id="Слой_1" data-name="Слой 1"><path class="cls-1" d="M23.05,45.28l-2.76-2.75S14.82,54.8,11.45,57.18l1.38,54.25h3.38l-.53-35.87s-.09-13,.78-14.51l.24-4.5Z"/><path class="cls-1" d="M49.61,45.28l2.76-2.75s5.47,12.27,8.84,14.65l-1.38,54.25H56.45L57,75.55s.09-13-.78-14.51L56,56.54Z"/><ellipse class="cls-1" cx="36.34" cy="25.92" rx="23.01" ry="25.42"/><ellipse class="cls-2" cx="36.34" cy="25.92" rx="20.66" ry="22.82"/><path class="cls-1" d="M71.56,35.29l-13-6L57,30.17v3.5l5.31,1.87,3.13,1.25,2.37,1.88-2,21.87.13,2.13-3.5-.5s-3.13,0-4.38-1.13-2.12-4.5-2.12-4.5-2.56.75-19.6.75-19.59-.75-19.59-.75-.87,3.38-2.12,4.5-4.38,1.13-4.38,1.13l-3.5.5.13-2.13-2-21.87,2.37-1.88,3.13-1.25,5.31-1.87v-3.5l-1.56-.88-13,6L.5,64.67l2.13,65.25h3.5v-53c0-1.13,4.12-1.63,10.87-.38s19.34,1.38,19.34,1.38,12.6-.13,19.35-1.38,10.87-.75,10.87.38v53h3.5l2.13-65.25Z"/><polyline class="cls-2" points="1.13 35.29 4.59 35.29 4.63 38.54"/><polyline class="cls-2" points="71.56 35.29 68.13 35.29 68.13 38.67"/><path class="cls-2" d="M6.75,62.67s-.62,10.58-.62,14.25"/><path class="cls-2" d="M65.94,62.67s.62,9.66.62,14.25"/><path class="cls-2" d="M6.75,65.84s16.5-1.09,30.5-1.09,29,1.09,29,1.09"/></g></g></svg>