<svg xmlns="http://www.w3.org/2000/svg" viewBox="0 0 83.72 131.64"><defs><style>.cls-1,.cls-2{fill:#fff;stroke:#231f20;}.cls-1{stroke-miterlimit:10;}.cls-2{stroke-linecap:round;stroke-linejoin:round;}</style></defs><title>masters</title><g id="Layer_2" data-name="Layer 2"><g id="Слой_2" data-name="Слой 2"><path class="cls-1" d="M15.87,63.24l1.67,41.9s-.25,1.75,1.34,1.75c0,0,1.25.41,1.16-2.59s-.36-39.9-.36-39.9Z"/><path class="cls-1" d="M66.6,63.24l-1.66,41.9s.25,1.75-1.34,1.75c0,0-1.25.41-1.16-2.59s.36-39.9.36-39.9Z"/><path class="cls-1" d="M80.75,26.36,80.34,26a53,53,0,0,0-5.62-3.94C78.89,11.42,80,4.92,78.1,1.7A2.06,2.06,0,0,0,77,.68c-1.26-.49-3.08,0-5.71,1.58a36.07,36.07,0,0,1-9,3.33,6.38,6.38,0,0,0-1-.74C57.39,2.53,51.07,1.4,42,1.39h-.2c-9.11,0-15.43,1.14-19.32,3.46a6.3,6.3,0,0,0-1,.74,35.91,35.91,0,0,1-9-3.33C9.84.69,8,.19,6.76.68a2.12,2.12,0,0,0-1.14,1C3.76,4.92,4.84,11.42,9,22.1A53,53,0,0,0,3.38,26L3,26.36C1.57,27.44,0,31.47.63,44.58.9,50.5,5.28,56.08,5.46,56.32l2.35-1.86-.14-.19,1.85-1c-.57-1-.81-2.31-.58-2.54a21.48,21.48,0,0,0,5.7-8.63c.36-1.18.88-3.3,1.45-5.81a68.53,68.53,0,0,1,3.25,9.25l2.9-.75c-.08-.34-2.12-8.07-5.15-13.07.87-4.13,1.72-8.45,2.21-11.31a64,64,0,0,1,22.56-4,64,64,0,0,1,22.57,4c.48,2.86,1.33,7.18,2.2,11.31-3,5-5.06,12.73-5.15,13.07l2.9.75a68.53,68.53,0,0,1,3.25-9.25c.57,2.51,1.09,4.63,1.45,5.81a21.62,21.62,0,0,0,5.71,8.63c.22.23,0,1.5-.59,2.54l1.85,1-.14.19,2.35,1.86c.19-.24,4.56-5.82,4.83-11.74C83.69,31.47,82.15,27.44,80.75,26.36Zm-8-21.52a10,10,0,0,1,2.88-1.31c.65,1.59.76,5.84-3.57,17.06q-2.49-1.34-5-2.37c-.6-3.59-1.38-7.32-2.87-10.06A35.54,35.54,0,0,0,72.78,4.84ZM41.86,13.39h-.1A67.39,67.39,0,0,0,19.88,17c.6-3.18,1.4-6.2,2.64-8.07A94.72,94.72,0,0,0,41.68,11h.37A94.62,94.62,0,0,0,61.2,8.91c1.24,1.87,2,4.89,2.64,8.07A67.35,67.35,0,0,0,42,13.39h-.1Zm0-9c7.13,0,12.51.73,16,2.15a94.51,94.51,0,0,1-16,1.51,94.51,94.51,0,0,1-16-1.51C29.35,5.12,34.73,4.39,41.86,4.39ZM8.06,3.53a9.92,9.92,0,0,1,2.88,1.31,35.54,35.54,0,0,0,8.54,3.32C18,10.9,17.21,14.63,16.61,18.22a54.71,54.71,0,0,0-5,2.37C7.3,9.37,7.41,5.12,8.06,3.53ZM6.82,48.58a3.54,3.54,0,0,0-.94,2.88,17,17,0,0,1-2.25-7c-.4-8.73.29-14.84,1.17-15.7l.46-.37A51.86,51.86,0,0,1,10.08,25a42.37,42.37,0,0,0,3.82,7.29c-.84,3.91-1.66,7.41-2.13,9A18.7,18.7,0,0,1,6.82,48.58Zm8-20.67a33.18,33.18,0,0,1-2.1-4.5c1.09-.6,2.19-1.14,3.3-1.64C15.67,23.61,15.26,25.74,14.81,27.91ZM71,23.41a33.18,33.18,0,0,1-2.1,4.5c-.44-2.17-.86-4.3-1.19-6.14C68.82,22.27,69.92,22.81,71,23.41Zm9.08,21a16.85,16.85,0,0,1-2.25,7,3.56,3.56,0,0,0-.93-2.88,18.63,18.63,0,0,1-5-7.38c-.47-1.55-1.29-5.05-2.13-9A42.37,42.37,0,0,0,73.64,25a51.86,51.86,0,0,1,4.82,3.42l.46.37C79.8,29.6,80.49,35.71,80.09,44.44Z"/><path class="cls-1" d="M80.59,129.32c-.12-1.56-3.13-58.35-4-64.93,0,0-.25-5,2.16-8s-8.25-5.59-10.91-6-4.84-.75-4.25-2.17,2.75-5.42,2-5.83-3.84,0-3.84,0-9.5.75-19.83.75-19.83-.75-19.83-.75-3.09-.42-3.84,0,1.42,4.41,2,5.83S18.71,50,16,50.39s-13.33,3-10.91,6,2.16,8,2.16,8c-.83,6.58-3.84,63.37-4,64.93s.35,1.82,1.6,1.82,1.5-.75,1.5-.75c.5-3.75,5.5-60,6-64.27s4.87-2.57,4.87-2.57C21.46,65.47,32.47,66.8,42,66.8s20.5-1.33,24.67-3.25c0,0,4.37-1.71,4.87,2.57s5.5,60.52,6,64.27c0,0,.25.75,1.5.75S80.72,130.89,80.59,129.32Z"/><path class="cls-2" d="M26.57,49.85S31,53.56,40.94,53.56a39.34,39.34,0,0,0,17-3.71"/><path class="cls-2" d="M8.71,55.47s9.78,7.77,33.15,7.77S76,55.47,76,55.47"/></g></g></svg>