<svg xmlns="http://www.w3.org/2000/svg" viewBox="0 0 62.27 40"><defs><style>.cls-1{fill:#fff;}.cls-2{fill:#dad9d9;}.cls-3{fill:#faa21b;}.cls-4{fill:#ed1c24;}.cls-5{fill:#f16122;}</style></defs><title>mastercard</title><g id="Layer_2" data-name="Layer 2"><g id="Layer_2-2" data-name="Layer 2"><rect class="cls-1" x="0.25" y="0.25" width="61.77" height="39.5" rx="5.42" ry="5.42"/><path class="cls-2" d="M56.6.5a5.18,5.18,0,0,1,5.17,5.17V34.33A5.18,5.18,0,0,1,56.6,39.5H5.67A5.18,5.18,0,0,1,.5,34.33V5.67A5.18,5.18,0,0,1,5.67.5H56.6m0-.5H5.67A5.67,5.67,0,0,0,0,5.67V34.33A5.67,5.67,0,0,0,5.67,40H56.6a5.67,5.67,0,0,0,5.67-5.67V5.67A5.67,5.67,0,0,0,56.6,0Z"/><circle class="cls-3" cx="37.94" cy="20" r="10.69"/><circle class="cls-4" cx="24.33" cy="20" r="10.69"/><ellipse class="cls-5" cx="31.14" cy="20" rx="3.89" ry="8.25"/></g></g></svg>