<svg xmlns="http://www.w3.org/2000/svg" viewBox="0 0 62.27 40"><defs><style>.cls-1{fill:#fff;}.cls-2{fill:#dad9d9;}.cls-3{fill:#4eb45e;}.cls-4{fill:#07b4e5;}</style></defs><title>mironline</title><g id="Layer_2" data-name="Layer 2"><g id="Layer_4" data-name="Layer 4"><rect class="cls-1" x="0.25" y="0.25" width="61.77" height="39.5" rx="5.42" ry="5.42"/><path class="cls-2" d="M56.6.5a5.18,5.18,0,0,1,5.17,5.17V34.33A5.18,5.18,0,0,1,56.6,39.5H5.67A5.18,5.18,0,0,1,.5,34.33V5.67A5.18,5.18,0,0,1,5.67.5H56.6m0-.5H5.67A5.67,5.67,0,0,0,0,5.67V34.33A5.67,5.67,0,0,0,5.67,40H56.6a5.67,5.67,0,0,0,5.67-5.67V5.67A5.67,5.67,0,0,0,56.6,0Z"/><g id="g5"><path id="path7" class="cls-3" d="M21.54,13.42h0a2.42,2.42,0,0,0-2.29,1.71c-.44,1.59-1.69,5.95-1.72,6.07h-.34s-1.28-4.46-1.72-6.07a2.42,2.42,0,0,0-2.3-1.72H9.05V26.54h4.12V18.75h.35l2.41,7.79h2.86l2.41-7.79h.34v7.79h4.13V13.42Z"/></g><g id="g9"><path id="path11" class="cls-3" d="M36.61,13.42a2.31,2.31,0,0,0-1.77,1.37l-2.92,6.42h-.35V13.42H27.44V26.54h3.9a2.38,2.38,0,0,0,1.84-1.37L36,18.75h.35v7.79h4.12V13.42Z"/></g><g id="g13"><path id="path15" class="cls-3" d="M42.35,19.38v7.16h4.12V22.36h4.47a4.45,4.45,0,0,0,4.21-3Z"/></g><g id="g17"><path id="path24" class="cls-4" d="M50.94,13.42H41.77a6.6,6.6,0,0,0,4.75,5.16h0a6.57,6.57,0,0,0,1.73.23h7.07a4.7,4.7,0,0,0,.09-.92A4.47,4.47,0,0,0,50.94,13.42Z"/></g></g></g></svg>