<svg xmlns="http://www.w3.org/2000/svg" viewBox="0 0 100.1 130.08"><defs><style>.cls-1{fill:#fff;}.cls-1,.cls-2{stroke:#231f20;stroke-miterlimit:10;stroke-width:0.75px;}.cls-2{fill:none;}</style></defs><title>panton_1</title><g id="Layer_2" data-name="Layer 2"><g id="Слой_2" data-name="Слой 2"><path class="cls-1" d="M30,128.76S37.18,110.2,37.51,92s-4-23.79-7.83-25.64-16.84-3-19.84-3S1.84,61,.68,54c0,0-.68-14.6,0-25.33.66-10.33.79-18.25,1.16-21.12S4.47.58,12.34.45s19.67.71,28.38,6C51.42,13,54.09,28.33,55.09,34.08s1.33,16.19,6.63,18.62c3.06,1.4,8.5,1.25,17.5,1.38s18.25,4,20,16.62-1.5,25.88-3.13,30.75-6.5,18.63-7,20.88c0,0-.12,1-5,.25s-31.62-4.38-45.87-4.13c0,0-3.5,11.25-3.88,11.25S34.48,129.64,30,128.76Z"/><path class="cls-1" d="M30,128.76s-16.51-2.06-20.18-7.23c0,0-1-2.83,4-4.66S28.55,111.45,36.7,102C36.7,102,37,121.16,30,128.76Z"/><path class="cls-2" d="M38.22,118.45S45.34,92.7,43.84,78.7,41.18,58.63,27.68,57.92s-22.17,1.21-23-9.5-.06-25.34,0-30.72C4.74,11.86,5.59,5.28,8.34,3,10.89.8,12.34.27,17.18.39"/><path class="cls-2" d="M85.19,122.72s7-17.85,8.4-24.85,6-27.42-1-29.42-14.58,2.33-20.25,2S51.54,71,49.78,79s-8.73,36.24-11.56,39.5"/><path class="cls-2" d="M13,57.21s10.37-3.13,24.5.49S56.09,61,61,59.42c1.75-.56,16.11-5.67,26.05-4.13"/></g></g></svg>