<svg xmlns="http://www.w3.org/2000/svg" viewBox="0 0 62.27 40"><defs><style>.cls-1{fill:#fff;}.cls-2{fill:#dad9d9;}.cls-3{fill:#48b269;}</style></defs><title>rouble_3</title><g id="Layer_2" data-name="Layer 2"><g id="Layer_2_copy" data-name="Layer 2 copy"><rect class="cls-1" x="0.25" y="0.25" width="61.77" height="39.5" rx="5.42" ry="5.42"/><path class="cls-2" d="M56.6.5a5.18,5.18,0,0,1,5.17,5.17V34.33A5.18,5.18,0,0,1,56.6,39.5H5.67A5.18,5.18,0,0,1,.5,34.33V5.67A5.18,5.18,0,0,1,5.67.5H56.6m0-.5H5.67A5.67,5.67,0,0,0,0,5.67V34.33A5.67,5.67,0,0,0,5.67,40H56.6a5.67,5.67,0,0,0,5.67-5.67V5.67A5.67,5.67,0,0,0,56.6,0Z"/><path class="cls-3" d="M29.76,24.29v3.06H27.39V24.29H25.47V22.4h1.92V20.81H25.47v-2h1.92v-7.7h3.93c3.9,0,5.75,2,5.75,4.9s-1.85,4.84-5.75,4.84H29.76V22.4h4.16v1.89Zm0-5.52h1.56c2.71,0,3.37-1.54,3.37-2.84s-.66-2.68-3.37-2.68H29.76Z"/></g></g></svg>