<?xml version="1.0" encoding="UTF-8"?><!DOCTYPE svg PUBLIC "-//W3C//DTD SVG 1.1//EN" "http://www.w3.org/Graphics/SVG/1.1/DTD/svg11.dtd"><svg xmlns="http://www.w3.org/2000/svg" xmlns:xlink="http://www.w3.org/1999/xlink"><defs><path id="a" d="M0 0h497.805v353.931H0z"/><path id="a" d="M0 0h370.892v480.704H0z"/></defs><symbol id="about-call" viewBox="0 0 25 25"><path d="M15.002 17.415s1.94-1.111 2.448-1.378c.506-.268 1.031-.335 1.349-.141.483.295 4.534 2.992 4.875 3.231.341.239.505.922.036 1.591-.467.669-2.622 3.316-3.535 3.287-.914-.03-4.717-.113-11.888-7.29C1.118 9.541 1.033 5.735 1.004 4.82c-.029-.915 2.615-3.071 3.284-3.539.67-.467 1.354-.292 1.591.037.27.375 2.934 4.415 3.227 4.878.201.317.128.845-.14 1.352-.267.508-1.377 2.449-1.377 2.449s.783 1.336 3.43 3.984c2.648 2.65 3.983 3.434 3.983 3.434z"/></symbol><symbol id="about-details" viewBox="0 0 20 27"><path fill-rule="evenodd" d="M17.647 27H2.353A2.35 2.35 0 0 1 0 24.652V4.109a2.35 2.35 0 0 1 2.353-2.348h1.765a.587.587 0 1 1 0 1.174H2.353c-.649 0-1.177.526-1.177 1.174v20.543c0 .648.528 1.174 1.177 1.174h15.294c.649 0 1.177-.526 1.177-1.174V4.109c0-.648-.528-1.174-1.177-1.174h-1.765a.587.587 0 1 1 0-1.174h1.765A2.35 2.35 0 0 1 20 4.109v20.543A2.35 2.35 0 0 1 17.647 27zM16.471 4.696a.588.588 0 0 1-.589.587H4.118a.588.588 0 1 1 0-1.174s.661-.074 1.176-.587l1.177-1.174s.459-.587 1.176-.587h.588C8.235.788 9.026 0 10 0c.975 0 1.765.788 1.765 1.761h.588c.772 0 1.176.587 1.176.587l1.177 1.174a2.183 2.183 0 0 0 1.176.587c.326 0 .589.263.589.587zM10 1.174a.587.587 0 0 0-.588.587h1.176A.587.587 0 0 0 10 1.174zm3.155 2.348s-.4-.587-1.069-.587H7.915c-.671 0-1.07.587-1.07.587l-.534.587h7.379l-.535-.587z"/></symbol><symbol id="about-email" viewBox="0 0 27 17"><path fill-rule="evenodd" d="M25.902 0H0v17h27V0h-1.098zm-1.08 1.063L14.391 11.324c-.476.468-1.306.468-1.782 0L2.177 1.063h22.645zM1.08 1.486l7.013 6.898-7.013 6.899V1.486zm.862 14.451l6.915-6.802 2.989 2.94a2.341 2.341 0 0 0 1.654.675c.625 0 1.213-.24 1.654-.675l2.989-2.94 6.915 6.802H1.942zm23.978-.654l-7.013-6.899 7.013-6.9v13.799z"/></symbol><symbol id="about-partner" viewBox="0 0 33 30"><path fill-rule="evenodd" d="M32.814 29.761a.732.732 0 0 1-1.033.051l-8.63-7.774c-2.433 2.701-5.951 4.413-9.872 4.413C5.957 26.451 0 20.518 0 13.225 0 5.933 5.957 0 13.279 0 20.6 0 26.556 5.933 26.556 13.225c0 2.863-.928 5.51-2.486 7.677l8.693 7.831c.3.269.323.73.051 1.028zm-7.72-16.536c0-6.49-5.301-11.769-11.815-11.769-6.516 0-11.816 5.279-11.816 11.769s5.3 11.77 11.816 11.77c6.514 0 11.815-5.28 11.815-11.77zm-4.769 1.137a.728.728 0 0 1 .308-.711 3.713 3.713 0 0 0 1.597-3.068c0-2.032-1.604-3.684-3.576-3.684-1.971 0-3.575 1.652-3.575 3.684 0 1.235.597 2.383 1.596 3.069a.727.727 0 0 1-.203 1.295 7.389 7.389 0 0 0-2.959 1.708.732.732 0 0 1-1.034-.022.725.725 0 0 1 .021-1.029 8.74 8.74 0 0 1 2.385-1.61 5.194 5.194 0 0 1-1.269-3.411c0-2.834 2.26-5.14 5.038-5.14 2.779 0 5.039 2.306 5.039 5.14 0 1.272-.46 2.48-1.27 3.41a8.775 8.775 0 0 1 1.706 1.029c.32.246.378.703.131 1.021a.734.734 0 0 1-1.026.13 7.557 7.557 0 0 0-2.398-1.227.73.73 0 0 1-.511-.584zm-5.145 5.581a.726.726 0 0 1-.648 1.064.732.732 0 0 1-.649-.391c-.775-1.479-2.318-2.689-4.129-3.235a.727.727 0 0 1-.203-1.295 3.713 3.713 0 0 0 1.597-3.069c0-2.031-1.604-3.684-3.576-3.684s-3.576 1.653-3.576 3.684c0 1.236.597 2.383 1.597 3.068a.727.727 0 0 1-.203 1.296 7.619 7.619 0 0 0-1.523.649.734.734 0 0 1-.997-.274.726.726 0 0 1 .276-.992c.214-.121.433-.232.657-.335a5.195 5.195 0 0 1-1.269-3.412c0-2.834 2.26-5.14 5.038-5.14 2.778 0 5.039 2.306 5.039 5.14a5.195 5.195 0 0 1-1.27 3.412c1.671.769 3.061 2.028 3.839 3.514z"/></symbol><symbol id="about-questions" viewBox="0 0 11 22"><path fill-rule="evenodd" d="M4.809 15.707v-.187c0-.866.069-1.518.207-1.956.139-.437.362-.855.67-1.253.308-.397.748-.837 1.319-1.319.5-.42.956-.81 1.367-1.172.41-.362.761-.737 1.051-1.125a4.77 4.77 0 0 0 .677-1.266c.16-.456.241-.987.241-1.594 0-1.536-.469-2.744-1.407-3.624C7.997 1.332 6.711.892 5.076.892c-.705 0-1.391.072-2.056.214-.665.143-1.489.429-2.471.858l.495 1.071c.715-.348 1.38-.6 1.996-.757a8.063 8.063 0 0 1 1.983-.234c1.214 0 2.194.335 2.94 1.005.746.669 1.119 1.571 1.119 2.705 0 .697-.139 1.313-.416 1.849-.277.536-.736 1.076-1.379 1.621l-1.219 1.058c-.902.795-1.521 1.541-1.856 2.237-.334.697-.502 1.594-.502 2.693v.495h1.099zm-.469 5.318c.732 0 1.098-.437 1.098-1.313 0-.875-.366-1.312-1.098-1.312-.715 0-1.072.437-1.072 1.312 0 .876.357 1.313 1.072 1.313z"/></symbol><symbol id="about-skype" viewBox="0 0 32 32"><path d="M29.348 18.108c.109-.687.166-1.391.166-2.108 0-7.464-6.052-13.515-13.515-13.515-.717 0-1.422.059-2.109.166a8.165 8.165 0 0 0-11.239 11.24c-.107.689-.166 1.39-.166 2.109 0 7.464 6.053 13.512 13.514 13.512.717 0 1.423-.056 2.109-.164a8.168 8.168 0 0 0 11.24-11.24zm-6.932 4.037c-.573.823-1.412 1.466-2.511 1.929-1.098.463-2.398.693-3.898.693-1.8 0-3.288-.315-4.465-.949a5.798 5.798 0 0 1-2.032-1.827c-.521-.763-.786-1.508-.786-2.236 0-.429.163-.803.483-1.107.32-.306.736-.461 1.224-.461.402 0 .747.121 1.026.361.279.239.513.587.704 1.046.228.531.476.976.742 1.33.262.351.632.642 1.111.872.475.23 1.105.344 1.894.344 1.079 0 1.952-.233 2.62-.694.671-.465.993-1.031.993-1.714 0-.546-.172-.979-.53-1.316-.358-.342-.824-.603-1.4-.785a25.681 25.681 0 0 0-2.33-.583c-1.308-.285-2.401-.617-3.286-.999-.888-.382-1.593-.905-2.118-1.567-.522-.668-.785-1.497-.785-2.48 0-.938.276-1.776.828-2.505.553-.732 1.352-1.291 2.395-1.682 1.037-.389 2.262-.585 3.662-.585 1.12 0 2.088.129 2.909.388.819.26 1.499.602 2.045 1.033.542.428.94.881 1.193 1.356.251.477.379.942.379 1.396 0 .422-.163.805-.483 1.141a1.594 1.594 0 0 1-1.202.506c-.43 0-.766-.1-1.001-.31-.227-.201-.467-.524-.724-.975-.327-.629-.719-1.118-1.174-1.468-.442-.343-1.173-.523-2.191-.52-.941 0-1.694.191-2.263.567-.572.383-.844.827-.846 1.346.002.326.094.6.283.835.191.236.457.441.8.615.342.176.688.312 1.039.409.354.1.939.246 1.756.437 1.023.221 1.951.467 2.787.736.831.27 1.542.596 2.13.983.59.388 1.053.88 1.382 1.475.333.597.499 1.325.499 2.182a4.747 4.747 0 0 1-.859 2.783z"/></symbol><symbol id="about-whatsapp" viewBox="0 0 27 27"><path fill-rule="evenodd" d="M13.667 26.686a13.26 13.26 0 0 1-7.072-2.04L-.001 27l2.466-6.417a13.287 13.287 0 0 1-2.131-7.239C.334 5.985 6.315 0 13.667 0 21.018 0 27 5.985 27 13.344c0 7.356-5.982 13.342-13.333 13.342zm0-25.739C6.836.947 1.28 6.508 1.28 13.344c0 2.477.729 4.869 2.107 6.917l.139.205-1.903 4.949 5.094-1.819.197.128a12.314 12.314 0 0 0 6.753 2.014c6.831 0 12.386-5.559 12.386-12.394 0-6.836-5.555-12.397-12.386-12.397zm3.357 19.021c-1.611 0-4.912-1.922-6.484-3.497-1.407-1.407-3.493-4.752-3.493-6.488 0-1.735 1.85-3.666 3.104-3.666h.174l.131.112c.333.284 2.011 1.726 2.347 2.382.485.947-.702 2.304-1.328 2.925.28.353.916 1.109 1.802 1.996.835.837 1.854 1.288 2.327 1.468.412-.405 1.251-1.129 2.019-1.129l.113.013.466.127c.65.334 2.09 2.013 2.371 2.345l.113.132v.174c0 1.255-1.928 3.106-3.662 3.106zm.787-4.893l-.234-.056c-.378.039-1.043.549-1.491 1.043l-.201.22-.286-.085c-.175-.052-1.738-.544-2.992-1.797-.821-.821-2.086-2.222-2.197-2.616l-.079-.282.219-.197c.852-.766 1.55-1.788 1.408-2.062-.171-.336-1.199-1.303-1.959-1.96-.749.18-2.007 1.558-2.007 2.7 0 1.435 1.946 4.547 3.216 5.819 1.534 1.534 4.577 3.218 5.816 3.218 1.141 0 2.517-1.26 2.695-2.008-.631-.731-1.544-1.711-1.908-1.937z"/></symbol><symbol id="bank" viewBox="0 0 46.982 40.997"><path d="M45.961 40.997H1.021A1.016 1.016 0 0 1 0 39.983c0-.56.456-1.013 1.021-1.013h44.94c.564 0 1.021.453 1.021 1.013 0 .561-.456 1.014-1.021 1.014zm-30.64-10.139c.565 0 1.021.454 1.021 1.014 0 .562-.456 1.014-1.021 1.014H7.149a1.016 1.016 0 0 1-1.021-1.014c0-.561.456-1.014 1.021-1.014h1.022V17.679H7.149a1.016 1.016 0 0 1-1.021-1.015c0-.559.456-1.014 1.021-1.014h8.171c.565 0 1.021.455 1.021 1.014 0 .562-.456 1.015-1.021 1.015h-1.021v13.179h1.022zm-3.065-13.179h-2.043v13.179h2.043V17.679zm15.321 13.179c.564 0 1.022.454 1.022 1.014 0 .562-.457 1.014-1.022 1.014h-8.171a1.016 1.016 0 0 1-1.021-1.014c0-.561.456-1.014 1.021-1.014h1.021V17.679h-1.021a1.016 1.016 0 0 1-1.021-1.015c0-.559.456-1.014 1.021-1.014h8.171c.564 0 1.022.455 1.022 1.014 0 .562-.457 1.015-1.022 1.015h-1.022v13.179h1.022zm-3.064-13.179H22.47v13.179h2.043V17.679zm19.405 18.249c0 .562-.456 1.013-1.021 1.013H4.085a1.015 1.015 0 0 1-1.021-1.013c0-.561.456-1.014 1.021-1.014h38.812c.565 0 1.021.454 1.021 1.014zm-4.085-5.07c.565 0 1.021.454 1.021 1.014 0 .562-.456 1.014-1.021 1.014h-8.171a1.018 1.018 0 0 1-1.022-1.014c0-.561.457-1.014 1.022-1.014h1.021V17.679h-1.021a1.018 1.018 0 0 1-1.022-1.015c0-.559.457-1.014 1.022-1.014h8.171c.565 0 1.021.455 1.021 1.014 0 .562-.456 1.015-1.021 1.015h-1.022v13.179h1.022zm-3.064-13.179h-2.043v13.179h2.043V17.679zM2.043 11.596L23.491 0 44.94 11.596v2.027H2.043v-2.027zm38.343 0l-16.895-8.67-16.958 8.67h33.853z"/></symbol><symbol id="box" viewBox="0 0 24 27"><path d="M5.723 3.608L1.06 6.288l11.012 6.33 4.663-2.68-11.012-6.33zm17.289 2.721L12 0 7.77 2.432 18.781 8.76l4.231-2.431zm-9.989 8.094V27L24 20.691V8.115l-10.977 6.308zM0 20.691l10.977 6.308V14.341L0 8.033v12.658z"/></symbol><symbol id="card" viewBox="0 0 27 16"><path d="M25.748 0H1.252C.561 0 0 .518 0 1.156v13.688C0 15.482.561 16 1.252 16h24.496c.691 0 1.252-.518 1.252-1.156V1.156C27 .518 26.439 0 25.748 0m-.603 14.163H1.854V8.214h23.29v5.949h.001zm0-10.847H1.854V1.837h23.29v1.479h.001zM7.73 10.118H3.868v1.021H7.73v-1.021zm5.774 0H8.469v1.021h5.035v-1.021zm.737 1.564H3.868v1.021h10.373v-1.021z"/></symbol><symbol id="card2" viewBox="0 0 46.013 32.013"><path d="M42.012 32.013H4.001A4.001 4.001 0 0 1 0 28.012V4.001A4.002 4.002 0 0 1 4.001 0h38.011a4.002 4.002 0 0 1 4.001 4.001v24.01a4.001 4.001 0 0 1-4.001 4.002zM2 13.006h42.012V9.004H2v4.002zm42.013-9.005c0-1.104-.897-2-2-2H4.001a2.002 2.002 0 0 0-2.001 2v3.002h42.012V4.001zm0 11.005H2v13.006c0 1.104.896 2.001 2.001 2.001h38.011c1.103 0 2-.897 2-2.001V15.006zm-19.005 6.003h-4.001a1 1 0 1 1 0-2h4.001a1 1 0 0 1 0 2zm-9.003 0H7.002a1 1 0 1 1 0-2h9.003a1 1 0 1 1 0 2zm-9.003 3.002h6.002a1 1 0 1 1 0 2H7.002a1 1 0 1 1 0-2z"/></symbol><symbol id="cart" viewBox="0 0 15 16"><path d="M4.781 2l-.156-.657S4.281 0 2 0H1S0 0 0 .999L1 2h1.062c.844 0 .938.999.938.999l1.189 7.16s.19 1.817 1.906 1.817C8.416 11.978 13 12 13 12s1 0 1-1l-1-1s-5.592.021-6.211.021c-.625 0-.71-.685-.71-.685l-.123-.77L14 7s1-.265 1-2V2H4.781zm1.724 10.981c-.821 0-1.487.677-1.487 1.51S5.684 16 6.505 16c.822 0 1.489-.676 1.489-1.509s-.667-1.51-1.489-1.51zm5.991 0c-.832 0-1.506.677-1.506 1.51S11.664 16 12.496 16s1.506-.676 1.506-1.509-.674-1.51-1.506-1.51z"/></symbol><symbol id="cheap-arrow" viewBox="0 0 22 9"><path fill-rule="evenodd" d="M21.99 4.5l-9.98 4.53 1.55-3.92H0V3.89h13.56L12.01-.02l9.98 4.52z"/></symbol><symbol id="cheap-buyer" viewBox="0 0 32 40"><path fill-rule="evenodd" d="M8.09 25.18c-.32-.45-.62-.85-.89-1.28-.97-1.56-1.47-3.25-1.47-5.09 0-3.04-.09-6.09.03-9.12.13-3.1 1.63-5.53 4.15-7.33C11.52 1.2 13.34.59 15.35.6c1.2 0 2.4-.03 3.6.01 3.16.09 5.64 1.48 7.53 3.94 1.23 1.59 1.9 3.41 1.9 5.44.02 3.02.03 6.05 0 9.08-.01 2.33-.9 4.36-2.4 6.13l-.24.27c-.02.02-.02.06-.05.13.2.11.41.21.62.32 2.82 1.45 4.59 3.72 5.31 6.79.28 1.22.12 2.41-.16 3.61-.2.87-.36 1.76-.54 2.64-.11.51-.44.74-.87.65-.39-.09-.56-.43-.46-.93a271 271 0 0 1 .75-3.71c.22-1.02.03-2.01-.29-2.97-1.06-3.12-3.24-5-6.52-5.6-.07-.01-.15-.04-.22-.05-.75-.14-.83-.11-1.25.55-1.57 2.43-3.13 4.87-4.7 7.3-.48.75-.94.77-1.46.06-1.85-2.54-3.69-5.08-5.52-7.63-.19-.26-.38-.34-.68-.32-3.18.23-6.15 2.36-7.2 5.69-.42 1.31-.46 2.61-.07 3.95.24.82.38 1.66.56 2.5.09.4-.11.73-.5.83-.39.09-.7-.09-.78-.44-.35-1.46-.8-2.92-.93-4.4-.12-1.43.33-2.83 1-4.12 1.28-2.44 3.22-4.1 5.86-4.96.14-.05.28-.11.45-.18zm18.97-10.63c0-.67.02-1.35-.01-2.03-.04-1.35 0-2.72-.2-4.04-.52-3.37-3.63-6.2-7.03-6.46-1.51-.11-3.03-.09-4.55-.09-1.39 0-2.71.33-3.92 1.02C8.44 4.6 7.1 7.16 7.07 10.44c-.02 2.76-.01 5.51 0 8.27.01 2.28.78 4.26 2.39 5.91.25.26.51.34.85.3.67-.09 1.18-.45 1.62-.93.77-.84 1.22-1.86 1.58-2.92.04-.11-.06-.33-.16-.43-.44-.44-.95-.82-1.33-1.29-1.86-2.29-2.39-4.92-1.89-7.76.34-1.89 1.37-3.2 3.34-3.61.71-.14 1.44-.22 2.16-.31 1.43-.17 2.85-.36 4.07-1.24.7-.51 1.6-.41 2.28.13.55.44.88 1.03 1.1 1.68.59 1.71.77 3.49.74 5.28-.04 3.01-1.15 5.5-3.64 7.31-.12.09-.2.34-.18.5.17.9.43 1.78.98 2.55.45.63 1.02 1.05 1.84 1.06.3.01.61.07.9.14.28.06.48-.01.69-.21 1.7-1.6 2.59-3.57 2.64-5.89.03-1.48.01-2.95.01-4.43zm-4.56-1.48c-.05-.61-.09-1.44-.2-2.26-.14-1.04-.37-2.07-.9-3-.29-.5-.55-.58-.99-.25-.9.69-1.93 1.05-3.03 1.24-1.12.18-2.26.27-3.38.45-1.21.18-2.17.72-2.44 2.01-.51 2.4-.33 4.72 1.06 6.81 2.21 3.32 6.59 3.21 8.69-.18.87-1.42 1.18-2.97 1.19-4.82zm-5.96 19.76c.1-.09.15-.12.19-.17 1.41-2.19 2.82-4.38 4.22-6.58.06-.09.01-.33-.08-.39-.93-.71-1.45-1.67-1.83-2.74-.15-.44-.27-.88-.41-1.34-.13.03-.24.04-.34.06-.98.23-1.96.26-2.91-.05-.48-.15-.62-.02-.78.39-.6 1.58-1.45 2.98-2.93 3.91-.02.01-.02.05-.04.12 1.62 2.24 3.26 4.51 4.91 6.79z"/></symbol><symbol id="cheap-factory" viewBox="0 0 40 39"><path fill-rule="evenodd" d="M29.27 8.01v3.52h-1.4c-.02-.08-.05-.17-.05-.26 0-1.06-.01-2.12 0-3.18a1.5 1.5 0 0 1 1.51-1.5c3.22-.01 6.44 0 9.65 0 .07 0 .14.02.24.03v1.39h-9.95zm-9.62 3.52h-1.46c0-.12-.02-.25-.02-.38V5.04c0-.97.68-1.63 1.65-1.63h10.86v1.41H19.65v6.71zM9.99 2.16c0 2.99-.01 5.98 0 8.97.01.32-.06.48-.43.45-.32-.03-.64-.01-1.03-.01V9.53c.01-2.54.01-5.09.01-7.64C8.54.87 9.16.25 10.2.25h10.41c.13 0 .27.01.42.02v1.37H9.99v.52zm3.22 12.3v5.85h1.76v-.42-5.29c0-1.03.65-1.67 1.7-1.67 1.51-.01 3.03.02 4.55-.01.82-.02 1.65.77 1.63 1.63-.06 1.91-.02 3.82-.02 5.77h1.77v-.44-5.33c0-.95.67-1.62 1.62-1.62 1.55-.01 3.1.02 4.64-.01.85-.02 1.64.79 1.62 1.6-.05 1.77-.02 3.55-.02 5.32v.5h4c.82.01 1.36.54 1.36 1.35v8.55c0 2.34-.04 4.68.01 7.02.02.81-.68 1.45-1.45 1.44-11.65-.02-23.31-.01-34.96-.01-.91 0-1.42-.5-1.42-1.39V21.76c0-.92.5-1.42 1.44-1.42h3.91V16.3v-1.86c0-.79.66-1.5 1.46-1.51 1.64-.02 3.27-.02 4.9 0 .83.01 1.49.71 1.5 1.53zm8.16-.05h-4.94v5.9h4.94v-5.9zm9.65 0h-4.94v5.9h4.94v-5.9zM1.43 21.79v15.46h34.93V21.79H1.43zm5.37-7.38v5.92h4.94v-5.92H6.8z"/></symbol><symbol id="cheap-profit" viewBox="0 0 42 46"><path fill-rule="evenodd" d="M41.93 37.6c0 4.63-3.79 8.4-8.44 8.4-4.15 0-7.6-3-8.3-6.94H.05v-1.43h2.54V16.05h-.55c-.95-.01-1.62-.68-1.62-1.62-.01-4.15.01-8.3-.03-12.45 0-.88.75-1.73 1.73-1.72 5.23.03 10.46.01 15.69.01 5.87 0 11.75.01 17.62.01 1.15 0 1.78.63 1.78 1.78V14.2c0 1.22-.6 1.83-1.81 1.85-.13 0-.25.01-.39.02v13.27c3.93.71 6.92 4.14 6.92 8.26zm-16.85-.56c.29-4.37 3.95-7.84 8.41-7.84V16.06h-8.41v20.98zM4.79 1.78H1.91v12.76h2.88V1.78zm4.39-.02H6.31v12.76h2.87V1.76zm4.45.02h-2.89v12.75h2.89V1.78zm4.39-.02h-2.85v12.76h2.85V1.76zm4.42.01h-2.86v12.77h2.86V1.77zm.67 14.26c-5.81.01-11.63.01-17.45.01H4.15v21.57h19.42v-.87c0-6.76 0-13.51.01-20.26 0-.37-.13-.45-.47-.45zm3.74-14.25h-2.89v12.74h2.89V1.78zm4.4-.02h-2.87v12.76h2.87V1.76zm4.43 12.77V1.77H32.8v12.76h2.88zm-2.19 16.26c-3.77 0-6.83 3.05-6.83 6.81 0 3.75 3.06 6.81 6.83 6.81s6.84-3.06 6.84-6.81c0-3.76-3.07-6.81-6.84-6.81zm2.47 10.14c-.53.47-1.22.73-2.08.76v1.03h-.71V41.7c-.61-.06-1.1-.18-1.48-.34-.39-.16-.71-.43-.99-.79-.28-.37-.44-.82-.48-1.35l1.22-.19c.09.55.26.95.5 1.21.34.36.75.56 1.23.6V37.6c-.5-.07-1.01-.24-1.54-.48-.38-.18-.68-.43-.89-.75-.21-.32-.31-.69-.31-1.09 0-.73.3-1.31.91-1.76.41-.3 1.02-.49 1.83-.55v-.49h.71v.49c.71.05 1.27.23 1.69.52.53.36.85.87.95 1.52l-1.25.15c-.07-.4-.22-.7-.45-.92-.23-.21-.54-.35-.94-.42v2.94c.62.12 1.02.22 1.22.3.38.14.69.3.92.5.24.2.43.44.55.72.13.27.2.57.2.89 0 .7-.27 1.29-.81 1.76zm-2.79-7.12c-.48.06-.85.22-1.12.48-.27.25-.41.56-.41.91 0 .34.12.63.35.87.23.23.62.42 1.18.56v-2.82zm2.02 4.54c-.22-.23-.65-.43-1.31-.61v3.1c.48-.05.87-.22 1.18-.51.3-.3.46-.66.46-1.09 0-.37-.11-.67-.33-.89z"/></symbol><symbol id="cheap-store" viewBox="0 0 38 40"><path fill-rule="evenodd" d="M.74 39.69v-1.44h2.53V16.5h-.55c-.94-.01-1.61-.68-1.61-1.64-.01-4.18.01-8.36-.02-12.54C1.08 1.43 1.82.58 2.8.59 7.99.62 13.19.6 18.38.6c5.84 0 11.67 0 17.51.01 1.14 0 1.76.63 1.76 1.79v12.24c0 1.22-.6 1.83-1.79 1.86-.13 0-.25.01-.39.02v21.72h2.5v1.45H.74zm23.37-1.47v-.88c0-6.8-.01-13.6.01-20.41 0-.38-.13-.45-.47-.45-5.78.01-11.56.01-17.33.01H4.81v21.73h19.3zm1.5-21.71v21.7h8.35v-21.7h-8.35zm-11.38-1.54V2.12h-2.87v12.85h2.87zm-8.78.01V2.12H2.59v12.86h2.86zM6.97 2.1v12.86h2.84V2.1H6.97zm8.79.01v12.85h2.83V2.11h-2.83zm7.22 12.86V2.11h-2.84v12.86h2.84zm1.51-.01h2.88V2.12h-2.88v12.84zM28.88 2.1v12.85h2.85V2.1h-2.85zm4.4.01v12.86h2.86V2.11h-2.86z"/></symbol><symbol id="cheap-total" viewBox="0 0 24 42"><path fill-rule="evenodd" d="M5.24 21.64c-.6-.16-.91-.03-1.01.56-.25 1.49-.48 2.99-.69 4.49-.35 2.45-.68 4.89-1.02 7.34-.31 2.23-.61 4.46-.91 6.69-.01.1-.02.2-.04.3-.11.45-.44.67-.87.59-.36-.06-.6-.4-.54-.81.2-1.56.42-3.12.63-4.68.31-2.22.6-4.44.92-6.65.37-2.54.74-5.08 1.14-7.62.05-.35.21-.68.33-1.05-.52-.31-1.06-.62-1.57-.98-.29-.2-.57-.46-.78-.74-.47-.64-.61-1.34-.18-2.06.41-.7 1.24-1.13 2.05-.95.68.16 1.34.44 2 .69.37.13.71.35 1.09.44.65.15 1.07-.16 1.08-.83 0-.5-.04-1.01-.14-1.5-.36-1.66-1.08-3.16-2.11-4.52-1.05-1.39-2.07-2.8-3.09-4.2C.68 4.98.4 3.65.6 2.24.79.92 1.88.04 3.34.08c.91.03 1.81.23 2.72.37 2.69.42 5.4.77 8.13.46 1.74-.2 3.47-.55 5.21-.8.62-.08 1.26-.17 1.86-.1 2.05.26 2.49 1.88 2.36 3.3-.11 1.2-.56 2.25-1.29 3.22-1.19 1.58-2.38 3.17-3.5 4.81-.92 1.33-1.37 2.86-1.54 4.46-.05.42-.09.92.34 1.18.44.27.91.14 1.37-.07.75-.34 1.5-.74 2.29-.92 1.45-.32 2.64.76 2.45 2.12-.09.61-.44 1.07-.92 1.43-.59.43-1.22.83-1.84 1.25.52 1.02.57 2.19.74 3.33.35 2.43.68 4.86 1.01 7.29.37 2.67.73 5.35 1.1 8.02.05.43.13.86.16 1.29.04.47-.41.94-.87.97-.39.02-.68-.27-.75-.76-.16-1.14-.3-2.29-.46-3.43l-1.11-7.98-.9-6.48a6.38 6.38 0 0 0-.24-1.05c-.05-.13-.24-.28-.38-.31-.55-.09-.59-.01-.54.54.1 1.24.19 2.48.25 3.72.17 3.36.32 6.72.48 10.09.02.38-.09.67-.47.78-.34.11-.64-.02-.83-.32a.83.83 0 0 1-.1-.41c-.16-3.12-.3-6.24-.45-9.36-.07-1.37-.18-2.74-.25-4.11-.02-.37-.17-.5-.55-.44-2.07.33-4.15.36-6.23.26-1.11-.05-2.21-.19-3.3-.31-.56-.07-.66-.04-.69.52-.13 2.06-.24 4.12-.35 6.19-.13 2.42-.24 4.85-.36 7.27-.02.42-.31.69-.7.68-.39 0-.69-.31-.68-.74.02-1.01.06-2.02.11-3.03.14-2.81.27-5.63.42-8.45.05-.97.13-1.95.2-2.92zm7.13-.82c1.92.02 3.84-.1 5.72-.55 1.45-.35 2.79-.92 3.94-1.86.19-.15.38-.51.33-.71-.08-.35-.46-.43-.8-.33-.43.12-.84.28-1.26.45-.43.17-.84.41-1.28.55-1.48.47-2.75-.23-3.02-1.66-.06-.31-.07-.64-.05-.95.14-1.97.78-3.79 1.89-5.42 1.19-1.73 2.47-3.4 3.7-5.1.6-.82.8-1.75.72-2.75-.06-.6-.43-1-1.03-1.04-.46-.04-.94-.03-1.39.05-3.05.53-6.1 1.08-9.22.8-1.6-.14-3.18-.37-4.77-.56-.88-.1-1.75-.26-2.63-.29-.74-.03-1.14.44-1.18 1.17-.04 1.03.23 1.96.85 2.8 1.24 1.68 2.52 3.33 3.67 5.07 1.17 1.78 1.88 3.75 1.78 5.92-.05 1.33-.93 2.1-2.27 2.12-.79.02-1.44-.35-2.13-.67-.48-.22-1.01-.34-1.53-.44-.15-.03-.45.16-.5.3-.04.14.1.42.25.53.97.72 2.02 1.31 3.18 1.68 2.29.73 4.65.9 7.03.89z"/></symbol><symbol id="cheap-wholesale" viewBox="0 0 41 40"><path fill-rule="evenodd" d="M38.04 16.05v3.92c0 6.1-.01 12.2.02 18.31 0 .69-.65 1.41-1.43 1.41-10.94-.02-21.88-.01-32.83-.01-.83 0-1.38-.54-1.38-1.4V25.65v-9.19c0-.13-.01-.25-.03-.41h-.73C.87 16.03.3 15.47.3 14.67c-.01-1.49-.01-2.99 0-4.49 0-.59.28-1.01.81-1.26C7.1 6.21 13.08 3.51 19.06.79c.46-.2.88-.19 1.33.01C26.69 3.5 33 6.19 39.31 8.89c.58.25.87.69.87 1.34-.01 1.48 0 2.97 0 4.45 0 .79-.57 1.36-1.37 1.37h-.77zm-1.43-1.5h2.14c0-1.41.01-2.76-.01-4.12 0-.11-.17-.27-.3-.32-6.13-2.64-12.27-5.27-18.42-7.88-.17-.07-.42-.08-.58 0-5.8 2.61-11.59 5.24-17.39 7.85-.25.12-.32.26-.31.51.01.7 0 1.4 0 2.1v1.9h2.15v23.62H6.7v-19.3h27.06v19.3h2.85V14.55zM32.3 38.22V20.38H8.16v17.83h1.76V25.36h7.83v4.28h6.41v4.32h6.42v4.26h1.72zM11.37 35.4v2.82h4.92V35.4h-4.92zm11.31 2.83v-2.82h-4.9v2.82h4.9zm-6.4-4.32v-2.79h-4.91v2.79h4.91zm1.47-2.79c0 .88 0 1.73.01 2.58.01.08.17.22.26.22 1.48.01 2.97.01 4.46 0 .08 0 .23-.12.23-.2.02-.86.01-1.72.01-2.6h-4.97zm11.35 4.29h-4.91v2.81h4.91v-2.81zm-12.8-8.59h-4.93v2.75h4.93v-2.75z"/></symbol><symbol id="check" viewBox="0 0 7.116 6.592"><path clip-rule="evenodd" stroke-width="1.5" stroke-miterlimit="10" d="M.53 3.469l2 2 4-5"/></symbol><symbol id="check2" viewBox="0 0 25 21"><path d="M24.356 0C16.751 4.539 11.233 10.266 8.753 13.139L2.682 8.508 0 10.613 10.492 21C12.298 16.498 18.017 7.698 25 1.445L24.356 0z"/></symbol><symbol id="check3" viewBox="0 0 38 26"><path d="M1.08 12.18L13.3 24.4 36.8.9"/></symbol><symbol id="cross" viewBox="0 0 8.484 8.484"><path fill-rule="evenodd" clip-rule="evenodd" d="M8.484 1.414L7.07 0 4.242 2.828 1.414 0 0 1.414l2.828 2.828L0 7.07l1.414 1.414 2.828-2.828L7.07 8.484 8.484 7.07 5.656 4.242z"/></symbol><symbol id="cross2" viewBox="0 0 10.607 10.607"><path clip-rule="evenodd" d="M10.607 10.607L0 0M0 10.607L10.607 0"/></symbol><symbol id="darr" viewBox="0 0 7.061 4.591"><path clip-rule="evenodd" stroke-width="1.5" stroke-miterlimit="10" d="M.53.53l3 3 3-3"/></symbol><symbol id="darr2" viewBox="0 0 12 6.971"><path d="M1.26.268l4.6 4.684c.081.08.211.08.291 0l4.6-4.684.08-.09A.65.65 0 0 1 11.28 0a.726.726 0 0 1 .54 1.203l-.08.089-5.461 5.56a.4.4 0 0 1-.569 0L.25 1.292l-.07-.098A.679.679 0 0 1 0 .736C0 .328.321 0 .721 0c.18 0 .329.069.459.179l.08.089z"/></symbol><symbol id="delivery-back" viewBox="0 0 27 20"><path fill-rule="evenodd" d="M11.87 2.041V6.369l1.069.01c7.423.07 11.604 3.298 12.693 9.839-4.078-4.611-8.78-4.613-12.682-4.614h-1.08v4.291L1.867 8.967 11.87 2.041M12.949 0L0 8.967l12.949 8.967v-5.275c5.183.002 9.988.257 14.051 7.341 0-4.499-.76-14.55-14.051-14.676V0z"/></symbol><symbol id="delivery-exchange" viewBox="0 0 23 34"><path d="M12.889 32.265v-3.679l-.91-.009c-6.323-.06-9.885-2.803-10.813-8.363 3.474 3.919 7.479 3.921 10.804 3.922h.92V20.49l8.521 5.888-8.522 5.887M11.969 34L23 26.378l-11.031-7.622v4.484C7.554 23.239 3.461 23.021 0 17c0 3.824.648 12.368 11.969 12.475V34zM10.112 1.734v3.679l.91.009c6.323.06 9.885 2.803 10.813 8.363-3.474-3.919-7.479-3.921-10.804-3.922h-.919v3.646L1.59 7.622l8.522-5.888M11.031 0L0 7.622l11.031 7.622V10.76c4.415.002 8.508.219 11.969 6.24 0-3.824-.648-12.367-11.969-12.475V0z"/></symbol><symbol id="delivery-legal" viewBox="0 0 24 21"><path fill-rule="evenodd" d="M24 14.501a.5.5 0 0 1-.503.499h-18a.498.498 0 0 1-.494-.499V12.5c0-.274.222-.5.494-.5h18c.28 0 .503.226.503.5v2.001zM3 12.5c0-.274-.223-.5-.503-.5H.503a.501.501 0 0 0-.503.5v2.001A.5.5 0 0 0 .503 15h1.994A.5.5 0 0 0 3 14.501V12.5zm21 6c0-.274-.223-.5-.503-.5h-18a.499.499 0 0 0-.494.5v2.001c0 .274.222.499.494.499h18a.5.5 0 0 0 .503-.499V18.5zm-21 0c0-.274-.223-.5-.503-.5H.503a.501.501 0 0 0-.503.5v2.001A.5.5 0 0 0 .503 21h1.994A.5.5 0 0 0 3 20.501V18.5zm21-12c0-.274-.223-.5-.503-.5h-18a.499.499 0 0 0-.494.5v2.001c0 .274.222.499.494.499h18A.5.5 0 0 0 24 8.501V6.5zm-21 0c0-.274-.223-.5-.503-.5H.503A.501.501 0 0 0 0 6.5v2.001A.5.5 0 0 0 .503 9h1.994A.5.5 0 0 0 3 8.501V6.5zm21-6c0-.274-.223-.5-.503-.5h-18a.499.499 0 0 0-.494.5v2.001c0 .274.222.499.494.499h18A.5.5 0 0 0 24 2.501V.5zM3 .5c0-.274-.223-.5-.503-.5H.503A.501.501 0 0 0 0 .5v2.001A.5.5 0 0 0 .503 3h1.994A.5.5 0 0 0 3 2.501V.5z"/></symbol><symbol id="delivery-lift" viewBox="0 0 26 22"><path fill-rule="evenodd" d="M21.317 2.458v4.837h-4.749V12.2h-4.74v4.879h-4.76V22H0v-2.48h4.733v-4.909h4.702V9.669h4.777V4.818h4.744V0H26v2.458h-4.683zM19.176 16.14h-2.145c-1.198 0-1.153-1.807 0-1.807h4.185c.604 0 1.02.427 1.02 1.059v4.239c-.002 1.22-1.791 1.175-1.785 0v-2.164l-4.019 4.108c-.961.979-2.241-.355-1.336-1.277l4.08-4.158z"/></symbol><symbol id="delivery-lock" viewBox="0 0 19 26"><g><path d="M9.5 7a9.5 9.5 0 0 1 9.5 9.5A9.5 9.5 0 0 1 9.5 26 9.5 9.5 0 0 1 0 16.5 9.5 9.5 0 0 1 9.5 7z"/><path d="M3 9V6.809C3 3.049 5.91 0 9.5 0S16 3.049 16 6.809V9M10 13v8"/></g></symbol><symbol id="delivery-pack" viewBox="0 0 26 24"><path fill-rule="evenodd" d="M24.917 6.4V24H1.083V6.4H0V0h26v6.4h-1.083zM2.167 22.933h21.666V6.4H2.167v16.533zm22.75-21.866H1.083v4.266h23.834V1.067zm-7.854 11.199H8.936c-1.045 0-1.895-.837-1.895-1.866 0-1.029.85-1.867 1.895-1.867h8.127c1.046 0 1.896.838 1.896 1.867s-.85 1.866-1.896 1.866zm0-2.666H8.936a.807.807 0 0 0-.812.8c0 .441.364.8.812.8h8.127a.807.807 0 0 0 .813-.8c0-.441-.364-.8-.813-.8z"/></symbol><symbol id="delivery-time" viewBox="0 0 21 21"><path fill-rule="evenodd" d="M10.5 21C4.701 21 0 16.299 0 10.5S4.701 0 10.5 0 21 4.701 21 10.5 16.299 21 10.5 21zm0-19.091A8.59 8.59 0 0 0 1.909 10.5a8.59 8.59 0 0 0 8.591 8.591 8.59 8.59 0 0 0 8.591-8.591A8.59 8.59 0 0 0 10.5 1.909zm2.025 11.967l-2.699-2.7a.932.932 0 0 1-.12-.146c-.015-.023-.025-.047-.038-.071-.017-.031-.036-.061-.05-.094-.012-.03-.02-.062-.029-.094-.008-.029-.019-.055-.025-.084a.918.918 0 0 1-.018-.181l-.001-.006V4.773a.956.956 0 0 1 1.91 0v5.332l2.42 2.421a.954.954 0 1 1-1.35 1.35z"/></symbol><symbol id="delivery-week" viewBox="0 0 22.583 29.418"><path d="M5.654 27.251h-.803v-4.73H1.529a19.879 19.879 0 0 1-.126 2.007c-.07.561-.15 1.03-.242 1.408a5.105 5.105 0 0 1-.281.88 2.757 2.757 0 0 1-.231.435H0v2.167h.594l.165-1.397h4.136l.165 1.397h.594v-2.167zm-4.125 0c.125-.235.235-.513.33-.836a9.04 9.04 0 0 0 .236-1.029c.062-.363.112-.726.149-1.089.037-.363.062-.698.077-1.006h1.65v3.96H1.529zM10.109 28.021h.88v-5.5h-.88v2.299H7.623v-2.299h-.88v5.5h.88V25.59h2.486v2.431zM16.368 26.943c-.125.117-.312.22-.561.308a2.24 2.24 0 0 1-.748.132c-.323 0-.596-.045-.82-.137s-.405-.224-.544-.396a1.674 1.674 0 0 1-.308-.632 3.361 3.361 0 0 1-.099-.858h3.531c.044-.293.066-.561.066-.803 0-.462-.062-.834-.187-1.117s-.286-.5-.484-.655a1.663 1.663 0 0 0-.671-.313 3.47 3.47 0 0 0-.748-.082c-.777 0-1.375.246-1.793.737-.418.491-.627 1.207-.627 2.145 0 .44.048.836.143 1.188.095.352.242.654.44.907s.451.448.759.583c.308.136.671.204 1.089.204.374 0 .728-.051 1.062-.154.333-.103.61-.242.83-.418l-.33-.639zm-.66-3.448c.213.224.319.614.319 1.171h-2.728c.051-.55.207-.939.468-1.166.26-.227.607-.341 1.04-.341.388 0 .688.112.901.336zM21.703 28.021h.88v-5.5h-.517l-2.475 3.322-.429.682h-.044l.033-.649v-3.355h-.88v5.5h.506l2.475-3.234.451-.704h.033l-.033.682v3.256zm-2.915-7.458a1.417 1.417 0 0 0 .616.968c.154.103.328.18.522.231s.391.077.589.077c.433 0 .805-.114 1.116-.341.312-.228.5-.554.566-.979l-.66-.209c-.066.315-.191.542-.374.682s-.392.209-.627.209-.442-.066-.622-.198-.306-.367-.379-.704l-.747.264zM11.634 16.419L18.417.82V0H7.793v1.078h9.288L10.32 16.419h1.314z"/></symbol><symbol id="delivery" viewBox="0 0 29.676 20.4"><path d="M23.76 17.926h3.318V11.5l.098-.075c1.589-1.223 2.5-3.043 2.5-4.996A6.436 6.436 0 0 0 23.248 0c-3.227 0-5.932 2.355-6.433 5.6l-.033.212H7.884L0 12.847v5.08h2.556l.038.206c.242 1.334 1.31 2.267 2.597 2.267 1.34 0 2.481-.987 2.597-2.247l.021-.227h10.7l.038.205c.243 1.336 1.312 2.269 2.598 2.269 1.341 0 2.481-.987 2.595-2.246l.02-.228zm-.512-16.819a5.326 5.326 0 0 1 5.32 5.321 5.326 5.326 0 0 1-5.32 5.32c-2.983 0-5.32-2.337-5.32-5.32a5.326 5.326 0 0 1 5.32-5.321zM5.315 19.168c-.918 0-1.486-.771-1.486-1.486 0-.918.771-1.486 1.486-1.486.918 0 1.487.771 1.487 1.486.001.918-.771 1.486-1.487 1.486zm7.423-2.472h-4.84l-.073-.118c-.632-1.011-1.57-1.615-2.51-1.615-.958 0-1.89.625-2.373 1.594l-.069.138H1.355v-3.332l7.205-6.32h4.178v9.653zm8.407 2.472c-.918 0-1.486-.771-1.486-1.486 0-.918.771-1.486 1.486-1.486.918 0 1.486.771 1.486 1.486 0 .875-.611 1.486-1.486 1.486zm2.374-2.61c-.483-.969-1.415-1.594-2.374-1.594-.958 0-1.889.625-2.372 1.594l-.069.138h-4.858V7.044h3.071l.025.222c.354 3.187 3.118 5.59 6.429 5.59.961 0 1.733-.153 2.361-.468l.375-.188-.144 4.496h-2.375l-.069-.138z"/><path d="M22.873 3.094h.75v3.834h-.75z"/><path d="M22.752 6.553h4.082v.75h-4.082z"/></symbol><symbol id="delivery2" viewBox="126.907 3.602 588.075 591.679"><path d="M272.124 483.666c20.463 0 37.205 16.742 37.205 37.205s-16.742 37.205-37.205 37.205c-20.462 0-37.204-16.742-37.204-37.205s16.742-37.205 37.204-37.205m0-37.205c-40.925 0-74.409 33.484-74.409 74.41 0 40.925 33.484 74.41 74.409 74.41 40.926 0 74.41-33.485 74.41-74.41 0-40.926-33.484-74.41-74.41-74.41zM569.765 483.666c20.463 0 37.205 16.742 37.205 37.205s-16.742 37.205-37.205 37.205-37.205-16.742-37.205-37.205 16.742-37.205 37.205-37.205m0-37.205c-40.926 0-74.41 33.484-74.41 74.41 0 40.925 33.484 74.41 74.41 74.41 40.925 0 74.41-33.485 74.41-74.41 0-40.926-33.485-74.41-74.41-74.41z"/><path d="M216.318 535.871h-89.411V3.602h327.64v331.243h-30V33.602h-267.64v472.269h59.411z"/><path d="M714.983 535.871h-70.808v-30h40.808V337.734L615.417 163.82h-160.87v357.051h-30V133.82h211.181l79.255 198.137z"/><path d="M439.547 319.845h260.436v30H439.547zM327.932 505.871h186.025v30H327.932zM644.175 394.256h55.808v30h-55.808zM141.907 375.653h297.64v30h-297.64z"/></symbol><symbol id="download" viewBox="0 0 80.961 69.007"><path d="M38.981 63.071l-9.745-9.646-2.249 2.226L40.48 69.007 53.974 55.65l-2.249-2.226-9.745 9.646V29.68h-2.999v33.391zm-2.998-15.582H15.001c-6.611 0-12.003-5.316-12.003-11.872 0-5.625 3.972-10.353 9.298-11.569a17.808 17.808 0 0 1-.302-3.271c0-9.835 8.055-17.808 17.991-17.808 7.842 0 14.513 4.967 16.976 11.896a13.522 13.522 0 0 1 8.512-2.992c7.071 0 12.873 5.385 13.447 12.237 5.188 1.306 9.043 5.963 9.043 11.507 0 6.543-5.374 11.872-12.003 11.872H44.978v2.968H65.97c8.279 0 14.991-6.661 14.991-14.84 0-6.222-3.858-11.55-9.347-13.755-1.568-7.4-8.199-12.957-16.141-12.957-2.587 0-5.036.59-7.215 1.641A21.017 21.017 0 0 0 29.986 0C18.393 0 8.996 9.302 8.996 20.776c0 .41.012.817.036 1.221C3.717 24.283 0 29.529 0 35.616c0 8.196 6.694 14.84 14.991 14.84h20.991v-2.967h.001z"/></symbol><symbol id="expand" viewBox="0 0 18 18"><path fill-rule="evenodd" d="M16.71 0h-3.85c-.71 0-1.29.58-1.29 1.29 0 .7.58 1.28 1.29 1.28h.77l-2.96 2.96c-.2.2-.38.48-.38.9 0 .7.55 1.28 1.28 1.28.41 0 .68-.15.9-.38l2.96-2.96v.77c0 .71.57 1.29 1.28 1.29.71 0 1.29-.58 1.29-1.29V1.29C18 .58 17.42 0 16.71 0zM6.43 10.29c-.41 0-.68.15-.9.38l-2.96 2.96v-.77c0-.71-.57-1.29-1.28-1.29-.71 0-1.29.58-1.29 1.29v3.85C0 17.42.58 18 1.29 18h3.85c.71 0 1.29-.58 1.29-1.29 0-.7-.58-1.28-1.29-1.28h-.77l2.96-2.96c.2-.2.38-.48.38-.9 0-.7-.55-1.28-1.28-1.28z"/></symbol><symbol id="guarantee" viewBox="0 0 19 30"><path d="M17.697 9.752L19 7.582l-2.113-1.391.231-2.519-2.507-.334-.884-2.374-2.401.789L9.5 0 7.677 1.754 5.272.965 4.39 3.339l-2.508.334.234 2.519L0 7.582l1.304 2.17L0 11.92l2.116 1.389-.234 2.522 2.508.332.883 2.371 2.405-.786L9.5 19.502l1.826-1.754 2.402.786.883-2.371 2.507-.332-.231-2.522L19 11.92l-1.303-2.168zm-5.921 9.973l-1.071 1.032L9.5 21.916l-1.206-1.159-1.07-1.032-1.412.465-1.421.465V30l5.016-3.154L14.609 30v-9.344l-1.422-.467-1.411-.464z"/></symbol><symbol id="help" viewBox="0 0 17 17"><path d="M10.292 5.182c-.446-.358-1.06-.786-1.811-.786-.71 0-1.271.415-1.702.748-.431.334-.691.813-.779 1.44l.973.101c.084-.468.259-.812.528-1.031.269-.221.604-.446 1.007-.446.417 0 .768.236 1.055.479.287.244.43.525.43.846 0 .178-.05.341-.147.491-.099.15-.311.351-.638.603s-.555.443-.681.576c-.171.18-.293.358-.37.536-.105.236-.157.22-.157.545l.004.247h.909c.007-.33.032-.273.078-.42.046-.147.116-.277.21-.392.094-.111.296-.287.605-.525.457-.354.766-.655.922-.904.158-.247.235-.518.235-.812.001-.507-.223-.939-.671-1.296zM7.84 12h1.29v-1.271H7.84V12zM8.5 0a8.501 8.501 0 0 0 0 17 8.501 8.501 0 0 0 0-17zm0 16A7.499 7.499 0 0 1 1 8.5C1 4.358 4.357 1 8.5 1S16 4.358 16 8.5c0 4.143-3.357 7.5-7.5 7.5z"/></symbol><symbol id="larr" viewBox="0 0 15 30"><path clip-rule="evenodd" d="M15 0L0 15l15 15"/></symbol><symbol id="larr2" viewBox="0 0 7 12"><path fill-rule="evenodd" d="M6.76 10.74l-4.69-4.6a.205.205 0 0 1 0-.29l4.69-4.6.09-.08c.1-.12.18-.27.18-.45A.728.728 0 0 0 5.82.18l-.09.08L.17 5.72c-.16.16-.16.41 0 .57l5.56 5.46.1.07c.12.11.28.18.46.18.41 0 .74-.32.74-.72 0-.18-.08-.33-.18-.46l-.09-.08z"/></symbol><symbol id="lock" viewBox="0 0 13 17"><path d="M11.143 6.926V4.721C11.143 2.114 9.059 0 6.5 0 3.936 0 1.857 2.113 1.857 4.721v2.205C.831 6.929 0 7.769 0 8.821v6.283C0 16.151.833 17 1.862 17h9.275C12.166 17 13 16.158 13 15.104V8.821c0-1.046-.83-1.892-1.857-1.895zm-4.205 4.961V14.2a.443.443 0 0 1-.438.438.442.442 0 0 1-.438-.438v-2.313a1.338 1.338 0 0 1-.877-1.262c0-.739.589-1.338 1.315-1.338s1.315.599 1.315 1.338c0 .582-.366 1.078-.877 1.262zm2.347-4.961H3.714V4.723c0-1.569 1.247-2.834 2.786-2.834 1.535 0 2.785 1.269 2.785 2.834v2.203z"/></symbol><symbol id="logo" viewBox="0 0 73.693 40.438"><path d="M14.287 2.321C12.681.838 10.448.096 7.588.096L2.901.29H0v.943c.547.307 1.233.548 2.058.725v14.01A6.433 6.433 0 0 0 0 16.683v.942h2.745l4.349.218c3.173 0 5.586-.83 7.241-2.49 1.582-1.588 2.374-3.792 2.374-6.612 0-2.781-.808-4.921-2.422-6.42zm-2.723 11.714a4.848 4.848 0 0 1-1.666 1.607c-.678.396-1.486.593-2.425.593-.939 0-1.54-.032-1.801-.097V1.802c.425-.065.984-.097 1.678-.097 1.845 0 3.242.725 4.189 2.176.849 1.298 1.274 2.925 1.274 4.884 0 2.208-.416 3.964-1.249 5.27zm16.358 1.583c-.61.468-1.374.701-2.291.701-.917 0-1.622-.246-2.117-.739l-1.022-3.649H21.47c-.09.299-.243.968-.459 2.01-.217 1.042-.341 1.982-.374 2.821.188.152.469.297.845.433 1.391.487 2.868.731 4.431.731 2.191 0 3.853-.448 4.985-1.345s1.699-2.17 1.699-3.819c0-.912-.2-1.678-.6-2.299a6.352 6.352 0 0 0-1.507-1.621 12.403 12.403 0 0 0-1.975-1.222 26.542 26.542 0 0 1-1.971-1.083 7.084 7.084 0 0 1-1.51-1.204c-.405-.436-.607-.984-.607-1.646 0-.661.243-1.173.73-1.536s1.118-.544 1.892-.544 1.443.133 2.008.399l1.151 3.385h1.029c.074-.242.192-.784.355-1.626.163-.842.273-1.807.331-2.896C30.561.29 28.907 0 26.964 0c-1.942 0-3.433.383-4.471 1.149-.52.387-.929.879-1.229 1.475-.3.597-.45 1.333-.45 2.208s.197 1.63.59 2.263a6.286 6.286 0 0 0 1.484 1.646c.596.464 1.238.864 1.925 1.203.687.339 1.331.682 1.932 1.028.601.347 1.1.727 1.497 1.138.396.411.595.981.595 1.712s-.305 1.327-.915 1.796zm15.396 1.065a4.755 4.755 0 0 0-1.788-.714V9.502h1.078c.368.628.76 1.273 1.176 1.934 1.47 2.297 2.76 4.129 3.871 5.5l1.005.688h4.361v-.847l-1.201-.713c-2.638-2.965-4.847-5.682-6.627-8.147l4.765-5.959c.808-.153 1.47-.395 1.984-.725V.29h-6.725v.943c.645.371 1.257.612 1.837.725l-4.042 5.936-1.482.35V1.958a6.704 6.704 0 0 0 1.788-.725V.29h-7.607v.943a5.07 5.07 0 0 0 2.058.725v14.01c-.637.121-1.323.358-2.058.714v.942h7.607v-.941zM13.377 34.177h-1.029l-1.69 4.436H5.819V24.555c.947-.138 1.751-.379 2.413-.726v-.943H0v.943c.556.354 1.242.597 2.058.726v14.01c-.669.105-1.355.342-2.058.712v.943h13.769a8.29 8.29 0 0 0 .012-.495c-.008-.451-.024-1.101-.049-1.947a25.214 25.214 0 0 0-.355-3.601zm12.597-11.581h-1.85l-6.48 15.969a6.114 6.114 0 0 0-1.776.713v.943h6.198v-.943a6.054 6.054 0 0 0-2.181-.713l1.482-3.94h5.562l1.458 3.94c-.596.113-1.291.351-2.083.713v.943h7.852v-.943c-.522-.338-1.151-.575-1.886-.713l-6.296-15.969zm-4.006 10.421l1.727-4.679.552-2.176h.049l.478 2.128 1.629 4.727h-4.435zm22.023-10.325l-4.687.193h-2.901v.943c.547.307 1.233.548 2.058.726v14.01a6.398 6.398 0 0 0-2.058.713v.943h2.745l4.35.218c3.172 0 5.586-.83 7.241-2.49 1.583-1.588 2.374-3.792 2.374-6.612 0-2.78-.807-4.92-2.421-6.419-1.609-1.482-3.841-2.225-6.701-2.225zm3.975 13.938a4.842 4.842 0 0 1-1.666 1.608c-.678.396-1.486.592-2.426.592-.939 0-1.539-.032-1.801-.097V24.396c.425-.063.984-.097 1.678-.097 1.846 0 3.242.726 4.189 2.176.85 1.298 1.274 2.926 1.274 4.885.002 2.208-.415 3.965-1.248 5.27zm7.889 1.415c-.365 0-.661.106-.888.319-.228.213-.341.492-.341.838 0 .345.115.624.345.837.23.214.526.319.888.319s.656-.105.884-.319c.228-.213.341-.492.341-.837 0-.346-.114-.625-.341-.838s-.523-.319-.888-.319zm7.053-6.183c-.502.467-.925 1.089-1.269 1.866h-.07l.496-2.35-.359-.216c-.962.109-1.785.322-2.468.639v.44l1.094.164-1.671 7.814h1.54l1.041-4.937c.323-.816.681-1.463 1.071-1.939.391-.478.741-.773 1.05-.889l1.409.725c.087-.08.169-.201.245-.362.28-.592.42-1.072.42-1.439-.25-.144-.554-.216-.91-.216-.578.001-1.117.234-1.619.7zm10.785-.483h-1.505l-.717 3.996c-.272.622-.504 1.094-.694 1.413a11.53 11.53 0 0 1-.574.891c-.21.298-.435.568-.672.814s-.491.445-.761.6-.516.231-.739.231a.695.695 0 0 1-.542-.233c-.14-.155-.209-.397-.209-.725s.032-.664.097-1.012c.064-.348.153-.812.267-1.396s.268-1.271.464-2.063c.195-.793.389-1.632.582-2.517l-.394-.216c-.572.04-1.394.254-2.467.639v.44l1.094.164c-.788 3.589-1.181 5.677-1.181 6.265s.143 1.029.429 1.323c.286.295.659.442 1.12.442s.899-.131 1.316-.395c.417-.262.823-.623 1.218-1.082.396-.459.839-1.197 1.329-2.213l.071.014c-.346 1.128-.519 2.092-.519 2.891 0 .167.074.32.223.462.148.141.394.211.737.211.718 0 1.344-.214 1.879-.64v-.457h-1.313l1.461-7.847z"/></symbol><symbol id="logo2" viewBox="0 0 32 24"><path fill-rule="evenodd" d="M27.94 9.81c-.64-.8-1.39-1.86-2.24-3.19-.25-.39-.47-.76-.69-1.12h-.62v3.75c.37.06.71.2 1.03.41v.55h-4.41v-.55c.43-.21.83-.34 1.2-.41V1.12c-.44-.06-.84-.2-1.2-.42V.15h4.41V.7a3.6 3.6 0 0 1-1.03.42v3.65l.86-.21 2.34-3.44c-.33-.06-.69-.21-1.06-.42V.15h3.9V.7c-.3.19-.68.33-1.15.42l-2.77 3.46c1.04 1.43 2.32 3 3.85 4.72l.69.42v.49h-2.53l-.58-.4zM15.55 22.77c.46-.21.87-.35 1.21-.42l-.84-2.28h-3.23l-.86 2.28c.44.06.87.2 1.26.42v.54H9.5v-.54c.33-.2.67-.34 1.03-.42l3.76-9.26h1.07l3.66 9.26c.42.08.79.22 1.09.42v.54h-4.56v-.54zm-.88-6.38l-.28-1.23h-.03l-.32 1.26-1 2.71h2.57l-.94-2.74zm.66-6.01c-.91 0-1.77-.14-2.57-.42-.22-.08-.38-.16-.49-.25.02-.49.09-1.04.21-1.64.13-.6.22-.99.27-1.17h.59l.59 2.12c.29.29.7.43 1.23.43.54 0 .98-.14 1.33-.41.36-.27.53-.62.53-1.04 0-.42-.11-.75-.34-.99-.23-.24-.52-.46-.87-.66s-.72-.4-1.12-.6c-.4-.19-.77-.43-1.12-.7a3.71 3.71 0 0 1-.86-.95c-.23-.37-.34-.81-.34-1.31 0-.51.08-.94.26-1.28.17-.35.41-.63.71-.86.6-.44 1.47-.67 2.6-.67 1.12 0 2.08.17 2.87.51-.03.63-.09 1.19-.19 1.68-.09.49-.16.8-.2.94h-.6l-.67-1.96c-.33-.16-.72-.23-1.16-.23-.45 0-.82.1-1.1.31-.28.21-.43.51-.43.89 0 .39.12.71.36.96.23.25.52.48.87.7.35.21.73.42 1.15.62.41.21.79.45 1.14.71.35.27.65.58.88.94.23.36.34.81.34 1.34 0 .95-.32 1.69-.98 2.21-.66.52-1.62.78-2.89.78zm-10.92-.05l-2.53-.12H.29v-.55c.36-.2.76-.34 1.19-.41V1.12C1.01 1.02.61.88.29.7V.15h1.68L4.69.04c1.66 0 2.96.43 3.89 1.29.94.87 1.41 2.11 1.41 3.72 0 1.64-.46 2.92-1.38 3.84-.96.96-2.36 1.44-4.2 1.44zm2.58-8.1C6.44 1.39 5.63.97 4.56.97c-.41 0-.73.02-.98.06v8.31c.15.04.5.06 1.05.06.54 0 1.01-.11 1.4-.34.4-.23.72-.54.97-.94.48-.75.73-1.77.73-3.05 0-1.14-.25-2.08-.74-2.84zM5.07 13.81c-.39.2-.85.34-1.4.42v8.15h2.81l.98-2.57h.59c.12.68.19 1.38.21 2.09.01.49.02.86.03 1.13 0 .11 0 .21-.01.28H.29v-.54c.41-.22.81-.36 1.19-.42v-8.12c-.47-.08-.87-.22-1.19-.42v-.55h4.78v.55zm20.75-.66c1.65 0 2.95.43 3.88 1.29.94.87 1.41 2.11 1.41 3.72 0 1.64-.46 2.91-1.38 3.83-.96.97-2.36 1.45-4.2 1.45l-2.52-.13h-1.6v-.54c.36-.21.76-.34 1.2-.42v-8.12c-.48-.11-.88-.25-1.2-.42v-.55h1.69l2.72-.11zm-1.12 9.3c.15.04.5.06 1.05.06.54 0 1.01-.12 1.41-.35.39-.23.71-.54.96-.93.48-.76.73-1.78.73-3.06 0-1.13-.25-2.08-.74-2.83-.55-.84-1.36-1.26-2.43-1.26-.41 0-.73.02-.98.05v8.32z"/></symbol><symbol id="mastercard" viewBox="0 0 29.02 17.364"><circle cx="8.682" cy="8.682" r="8.682"/><path d="M20.338 0a8.652 8.652 0 0 0-6.705 3.165h1.754c.24.293.46.599.662.92h-3.078a8.519 8.519 0 0 0-.5.921h4.078c.139.297.262.604.368.918h-4.814c-.101.3-.185.605-.252.919h5.318a8.773 8.773 0 0 1-.252 4.597h-4.814c.105.315.229.622.368.92h4.078a8.667 8.667 0 0 1-.5.919h-3.077c.201.321.422.628.662.919h1.753a8.76 8.76 0 0 1-.877.92 8.649 8.649 0 0 0 5.828 2.246 8.682 8.682 0 1 0 0-17.364z"/><path d="M27.863 13.521a.28.28 0 1 1 .56 0 .28.28 0 0 1-.56 0zm.28.213a.214.214 0 0 0 0-.427.213.213 0 0 0 0 .427zm-.038-.09h-.057v-.245h.104c.022 0 .044 0 .063.011.02.015.031.038.031.062a.068.068 0 0 1-.042.064l.045.107h-.064l-.037-.097h-.042l-.001.098zm0-.139h.032c.012 0 .024 0 .035-.005a.035.035 0 0 0 .015-.028c0-.009-.007-.021-.014-.024-.01-.007-.026-.006-.038-.006h-.031v.063z"/><g><g><path d="M6.655 9.632a1.509 1.509 0 0 0-.211-.015c-.534 0-.804.184-.804.545 0 .224.132.365.337.365.385 0 .662-.365.678-.895zm.685 1.596h-.781l.018-.37c-.238.294-.556.433-.988.433-.511 0-.861-.399-.861-.978 0-.873.609-1.382 1.655-1.382.107 0 .244.011.384.027a.886.886 0 0 0 .037-.231c0-.237-.164-.327-.604-.327a3.163 3.163 0 0 0-.998.162l.131-.806c.469-.138.779-.189 1.127-.189.809 0 1.238.362 1.237 1.05a4.72 4.72 0 0 1-.076.71c-.081.518-.257 1.63-.281 1.901zM4.334 11.228h-.943l.54-3.385-1.205 3.385h-.643l-.079-3.366-.568 3.366H.554l.738-4.404h1.354l.083 2.465.826-2.465h1.508zM21.502 9.632a1.506 1.506 0 0 0-.21-.015c-.535 0-.804.184-.804.545 0 .224.13.365.338.365.384 0 .66-.365.676-.895zm.686 1.596h-.781l.018-.37c-.238.294-.556.433-.988.433-.512 0-.861-.399-.861-.978 0-.873.61-1.382 1.655-1.382.107 0 .244.011.385.027a.886.886 0 0 0 .037-.231c0-.237-.164-.327-.604-.327a3.175 3.175 0 0 0-.998.162l.131-.806c.47-.138.779-.188 1.127-.188.809 0 1.238.362 1.237 1.05.001.184-.028.411-.077.71-.081.517-.257 1.629-.281 1.9zM11.529 11.173a2.133 2.133 0 0 1-.677.117c-.482 0-.745-.278-.745-.787-.007-.159.069-.575.129-.955.055-.335.409-2.444.409-2.444h.937l-.109.542h.566l-.128.861h-.567c-.109.681-.264 1.529-.266 1.642 0 .185.098.266.323.266a.79.79 0 0 0 .254-.034l-.126.792zM14.402 11.145a3.234 3.234 0 0 1-.961.146c-1.049-.001-1.596-.55-1.596-1.598 0-1.225.695-2.125 1.64-2.125.772 0 1.266.504 1.266 1.295 0 .264-.034.519-.115.881H12.77c-.063.52.269.736.814.736.335 0 .638-.069.974-.225l-.156.89zm-.527-2.124c.005-.075.099-.64-.437-.64-.298 0-.511.228-.598.64h1.035zM7.906 8.779c0 .452.219.765.718 1 .381.179.44.232.44.395 0 .224-.168.325-.541.325-.282 0-.543-.044-.845-.142l-.129.826c.213.047.405.09.98.106.995 0 1.454-.379 1.454-1.197 0-.492-.192-.78-.665-.998-.394-.18-.44-.221-.44-.388 0-.194.157-.293.461-.293.185 0 .438.02.677.053l.134-.83a6.336 6.336 0 0 0-.83-.07c-1.053.001-1.418.551-1.414 1.213zM18.985 7.661c.262 0 .507.068.842.237l.154-.955c-.138-.055-.625-.373-1.036-.373-.63 0-1.165.312-1.539.829-.547-.182-.772.185-1.048.551l-.245.057c.019-.12.036-.239.03-.36h-.866c-.118 1.109-.327 2.231-.491 3.341l-.043.24h.944c.158-1.021.243-1.677.295-2.121l.355-.197c.053-.197.219-.264.552-.256a4.055 4.055 0 0 0-.067.734c0 1.171.633 1.901 1.647 1.901.262 0 .486-.035.833-.129l.165-1.004c-.312.153-.568.226-.801.226-.547 0-.879-.404-.879-1.073.002-.968.494-1.648 1.198-1.648zM26.965 6.824l-.209 1.272c-.257-.339-.534-.585-.899-.585-.476 0-.908.36-1.191.893a7.874 7.874 0 0 1-.803-.222l-.001.003c.032-.296.045-.477.042-.538h-.866c-.117 1.108-.327 2.23-.492 3.34l-.042.24h.942c.129-.826.225-1.514.296-2.057.323-.293.484-.545.809-.529-.144.349-.229.75-.229 1.162 0 .896.453 1.486 1.138 1.486.346 0 .611-.12.869-.396l-.044.333h.892l.718-4.403h-.93zM25.787 10.4c-.321 0-.483-.238-.483-.706 0-.704.303-1.202.731-1.202.324 0 .499.246.499.701 0 .71-.309 1.207-.747 1.207z"/></g><path d="M4.605 10.967h-.942l.539-3.385-1.205 3.385h-.642l-.08-3.366-.567 3.366H.826l.736-4.404h1.356l.038 2.726.914-2.726h1.464zM6.926 9.371a1.666 1.666 0 0 0-.21-.015c-.534 0-.805.184-.805.545 0 .223.132.365.337.365.385.001.662-.366.678-.895zm.685 1.596H6.83l.018-.371c-.238.294-.556.432-.988.432-.51 0-.861-.398-.861-.979 0-.871.609-1.38 1.655-1.38.107 0 .244.01.384.027a.87.87 0 0 0 .037-.231c0-.237-.164-.325-.604-.325a3.084 3.084 0 0 0-.998.161l.131-.806c.469-.138.779-.189 1.128-.189.81 0 1.238.363 1.238 1.05 0 .184-.03.411-.077.709-.082.518-.258 1.631-.282 1.902zM20.253 6.681l-.155.957c-.337-.17-.581-.238-.842-.238-.704 0-1.197.681-1.197 1.65 0 .668.332 1.072.88 1.072.232 0 .489-.072.8-.227l-.165 1.005a2.952 2.952 0 0 1-.833.128c-1.015 0-1.646-.729-1.646-1.901 0-1.573.874-2.674 2.123-2.674.411-.001.897.174 1.035.228zM21.773 9.371a1.666 1.666 0 0 0-.21-.015c-.534 0-.805.184-.805.545 0 .223.132.365.338.365.384.001.662-.366.677-.895zm.686 1.596h-.78l.018-.371c-.238.294-.556.433-.988.433-.511 0-.861-.398-.861-.979 0-.871.609-1.38 1.654-1.38.107 0 .244.01.385.027a.88.88 0 0 0 .037-.232c0-.237-.164-.325-.604-.325a3.087 3.087 0 0 0-.997.161l.13-.806c.47-.138.779-.189 1.128-.189.809 0 1.238.363 1.236 1.05.003.185-.028.411-.076.71-.081.517-.258 1.63-.282 1.901zM11.8 10.912a2.148 2.148 0 0 1-.676.116c-.482 0-.745-.277-.745-.787-.007-.158.069-.574.129-.954.055-.336.409-2.444.409-2.444h.938l-.11.542h.481l-.128.86h-.482c-.109.682-.264 1.53-.266 1.643 0 .185.099.265.322.265.107 0 .19-.011.254-.034l-.126.793zM14.673 10.884a3.233 3.233 0 0 1-.961.145c-1.049-.001-1.595-.549-1.595-1.598 0-1.224.695-2.125 1.639-2.125.773 0 1.267.504 1.267 1.296 0 .263-.034.52-.116.881h-1.865c-.064.52.269.736.814.736.335 0 .638-.069.974-.227l-.157.892zm-.527-2.123c.005-.075.099-.64-.437-.64-.298 0-.512.228-.599.64h1.036zM8.177 8.517c0 .454.22.766.718 1.001.382.18.44.233.44.396 0 .223-.168.324-.541.324-.281 0-.543-.044-.845-.141l-.129.826c.214.046.405.089.981.105.995 0 1.454-.378 1.454-1.197 0-.491-.192-.78-.664-.997-.396-.182-.44-.222-.44-.39 0-.192.157-.293.461-.293.185 0 .438.021.677.055l.134-.831a6.506 6.506 0 0 0-.83-.069c-1.055 0-1.419.55-1.416 1.211zM27.448 10.967h-.892l.044-.334c-.259.276-.523.396-.869.396-.685 0-1.138-.59-1.138-1.486 0-1.191.703-2.194 1.534-2.194.366 0 .642.148.9.488l.209-1.272h.929l-.717 4.402zm-1.39-.827c.439 0 .748-.497.748-1.208 0-.454-.175-.702-.5-.702-.428 0-.731.5-.731 1.204 0 .468.162.706.483.706zM23.309 7.386c-.118 1.108-.328 2.23-.492 3.341l-.042.24h.942c.338-2.19.418-2.617.947-2.563.084-.448.241-.842.358-1.039-.395-.083-.615.141-.904.564.023-.184.065-.361.057-.543h-.866zM15.55 7.386c-.118 1.108-.328 2.23-.491 3.341l-.043.24h.944c.337-2.19.418-2.617.946-2.563.084-.448.242-.842.358-1.039-.395-.083-.615.141-.904.564.023-.184.065-.361.057-.543h-.867zM27.862 10.687a.28.28 0 1 1 .56 0 .28.28 0 0 1-.56 0zm.281.212a.214.214 0 0 0 0-.427.213.213 0 0 0 0 .427zm-.039-.091h-.057v-.245h.104c.022 0 .043 0 .062.013a.07.07 0 0 1 .032.062.067.067 0 0 1-.042.063l.045.107h-.064l-.037-.097h-.042v.097h-.001zm0-.138h.032c.012 0 .025 0 .036-.006a.037.037 0 0 0 .014-.028.03.03 0 0 0-.014-.024c-.009-.006-.026-.005-.037-.005h-.031v.063z"/></g></symbol><symbol id="menu-armchair" viewBox="0 0 28 23"><path fill-rule="evenodd" d="M24.83 19.81c-.37.01-.74 0-1.13 0 0 .33 0 .63-.01.92 0 .97-.64 1.6-1.61 1.61-.35 0-.7 0-1.05-.01-.88 0-1.52-.63-1.54-1.51-.01-.32 0-.63 0-.99H7.83v.88c0 1-.63 1.63-1.63 1.62-.34 0-.68.01-1.02.01-.9-.01-1.53-.65-1.55-1.54v-.99h-1c-1.39.01-2.33-.93-2.34-2.32v-9.5c0-.91.63-1.55 1.53-1.56.66-.01 1.33-.01 1.99 0 .89.01 1.5.65 1.5 1.54v4.38c.01 1 .61 1.6 1.61 1.6h13.47c1.04 0 1.63-.6 1.63-1.64 0-1.45-.01-2.89 0-4.34 0-.91.62-1.53 1.54-1.54.65-.01 1.3-.01 1.96 0 .88.01 1.51.64 1.51 1.53.01 3.2.01 6.4 0 9.6 0 1.28-.92 2.21-2.2 2.25zm-4.49-8.33c-.07.5-.42.81-.93.81H8.02c-.68 0-1.04-.36-1.04-1.04-.01-2.56-.01-5.12-.01-7.67C6.98 2.04 7.8.95 9.19.65c.26-.06.54-.06.81-.06 2.48 0 4.96.03 7.43-.01 1.56-.03 2.95 1.15 2.94 2.93-.02 2.52-.01 5.03-.01 7.54 0 .14 0 .29-.02.43z"/></symbol><symbol id="menu-chair" viewBox="0 0 17 25"><path fill-rule="evenodd" d="M16.99 23.55c0 .92-.5 1.42-1.42 1.43h-.8c-.83-.02-1.33-.53-1.33-1.38-.01-1.66 0-3.32 0-4.98 0-.46 0-.91-.01-1.36 0-.54-.31-.84-.84-.84H4.47c-.62 0-.91.29-.91.92v6.23c0 .48-.14.9-.55 1.18-.46.33-1.98.33-2.45.01-.39-.28-.56-.67-.56-1.15v-8.74c0-.19-.01-.39.02-.58.1-.88.73-1.44 1.63-1.44 1.09-.01 2.19 0 3.28 0h3.59c2.25 0 4.5.02 6.74-.01 1.08-.02 1.75.78 1.74 1.75-.02 2.99-.01 5.97-.01 8.96zM12.05 11.4c-.01-.08-.02-.15-.02-.24V6.63c0-.59-.3-.9-.87-.9H5.85c-.59 0-.89.3-.89.91V11.41H1.43v-.55-9.47c0-.89.5-1.38 1.39-1.38.28 0 .55-.01.83 0 .77 0 1.28.5 1.31 1.27.01.04.01.09.02.15h7.03c.01-.15.01-.3.05-.44.12-.56.62-.97 1.19-.98.37-.01.74-.01 1.1 0 .66.02 1.21.56 1.21 1.2.01 3.37.01 6.74.01 10.11 0 .02-.01.03-.02.08h-3.5z"/></symbol><symbol id="menu-light" viewBox="0 0 23 25"><path fill-rule="evenodd" d="M22.8 18.46c-.41.72-1 .93-1.66.56-1.05-.59-2.1-1.19-3.15-1.8-.47-.27-.68-.79-.5-1.28.23-.61.6-1.08 1.2-1.08.21.08.44.13.63.23 1.03.58 2.05 1.16 3.07 1.75.63.37.78.98.41 1.62zm-4.97-5.91c-1.04.01-2.08 0-3.13 0h-.38c.11 1.02-.18 1.88-.91 2.56-.56.52-1.23.78-2 .78-.9 0-1.64-.33-2.23-.99-.51-.55-.62-.94-.75-2.34-.09 0-.18-.01-.28-.01H5.03c-1.42.01-2.48-1.04-2.48-2.43.01-3.44 2.56-6.29 6.01-6.71.22-.03.45-.03.72-.05 0-.42-.01-.82 0-1.22.04-.89.45-1.56 1.28-1.92.79-.34 1.54-.22 2.21.33.52.42.74 1 .74 1.66.01.38 0 .75 0 1.06.75.16 1.46.24 2.13.47 2.86.95 4.72 3.66 4.6 6.64-.04 1.16-1.15 2.16-2.41 2.17zm-13.5 2.32c.54.04.96.4 1.18 1.05.16.46.02.98-.41 1.24-1.11.66-2.24 1.31-3.38 1.92-.59.32-1.18.03-1.56-.7-.31-.58-.16-1.18.41-1.51 1.05-.62 2.11-1.23 3.17-1.83.18-.09.4-.11.59-.17zm1.91 3.69c.23-.39.56-.6.97-.6.9.06 1.83.88 1.2 1.92-.59.96-1.14 1.94-1.71 2.92-.42.71-1.02.84-1.78.4-.65-.37-.81-.99-.42-1.66.58-.99 1.16-1.99 1.74-2.98zm4.97.58c.76-.09 1.3.19 1.48.78.04.13.05.26.05.39.01.58 0 1.17 0 1.75 0 .58.01 1.17 0 1.75 0 .69-.45 1.16-1.13 1.17-.87.02-1.38-.37-1.4-1.13-.02-.77-.01-1.54-.01-2.3 0-.44-.01-.87.01-1.3.03-.61.44-1.04 1-1.11zm4.55-1.18c.41 0 .74.17.95.53.63 1.06 1.26 2.12 1.87 3.2.34.61.09 1.19-.62 1.58-.59.34-1.24.21-1.58-.34-.63-1.05-1.25-2.11-1.85-3.18-.45-.82.22-1.79 1.23-1.79z"/></symbol><symbol id="menu-sale" viewBox="0 0 21 21"><path fill-rule="evenodd" d="M16.45 21c-2.52 0-4.57-2.05-4.57-4.57 0-2.52 2.05-4.56 4.57-4.56 2.52 0 4.56 2.04 4.56 4.56 0 2.52-2.04 4.57-4.56 4.57zM4.69 18.7c-.53.54-1.4.54-1.94 0a1.37 1.37 0 0 1 0-1.93L16.31 3.21c.54-.54 1.4-.54 1.94 0 .53.53.53 1.4 0 1.94L4.69 18.7zm-.11-9.57C2.05 9.13.01 7.08.01 4.56A4.56 4.56 0 0 1 4.58 0C7.1 0 9.14 2.04 9.14 4.56c0 2.52-2.04 4.57-4.56 4.57z"/></symbol><symbol id="menu-sofa" viewBox="0 0 30 19"><path fill-rule="evenodd" d="M28.24 5.66h-2.7c-1.1 0-1.86.76-1.86 1.86v2c-.01.66-.37 1.04-1.03 1.04H6.79c-.73 0-1.07-.35-1.07-1.08V7.47c-.01-1.03-.78-1.8-1.82-1.81-.9-.01-1.8 0-2.7 0C.46 5.65 0 5.2 0 4.47 0 2.34 1.57.76 3.7.76h21.97c2.19-.01 3.78 1.64 3.7 3.81-.02.64-.48 1.09-1.13 1.09zM1.32 7.28c.48-.04.98-.04 1.46 0 .79.07 1.31.68 1.33 1.49.01.64-.01 1.27 0 1.91.01.91.59 1.48 1.5 1.48 4.96.01 9.92 0 14.88 0 1.11 0 2.21.01 3.32 0 .87 0 1.47-.61 1.47-1.48.01-.62 0-1.23 0-1.85 0-.95.62-1.56 1.58-1.57.35 0 .7 0 1.05.01.83.01 1.46.62 1.46 1.45.01 1.78.01 3.57 0 5.35-.01 1.26-.88 2.13-2.14 2.18-.08 0-.16.01-.3.02v.91c0 .78-.44 1.39-1.2 1.49-.57.07-1.17.06-1.74-.02-.69-.09-1.12-.67-1.14-1.37v-1H6.55v.91c0 .89-.63 1.52-1.53 1.52-.47 0-.96.02-1.42-.06-.69-.11-1.12-.68-1.13-1.37-.01-.33 0-.66 0-1.01-.14-.01-.24-.01-.35-.02C.91 16.19.03 15.32.01 14.1c-.02-1.79-.02-3.59 0-5.38 0-.76.55-1.37 1.31-1.44z"/></symbol><symbol id="menu-table" viewBox="0 0 27 20"><path fill-rule="evenodd" d="M27 2.38c-.01.9-.58 1.48-1.49 1.48-4 .01-8.01.01-12.02.01H1.77c-.23 0-.47-.01-.69-.05C.48 3.71.04 3.26 0 2.65c-.03-.47-.03-.96 0-1.43C.05.58.52.08 1.16.04 1.85-.01 2.54 0 3.23 0h22.16c1.09 0 1.62.54 1.61 1.63v.75zm-15.72 9.53c.14-.05.28-.06.27-.28-.01-1.25 0-2.5 0-3.75 0-.04-.01-.09-.03-.18-.42 0-.84.01-1.26 0-.55-.02-.98-.42-1.02-.95-.07-.73.22-1.21.81-1.34.11-.03.22-.03.33-.03h6.21c.73 0 1.14.4 1.14 1.13 0 .78-.39 1.19-1.14 1.19-.37.01-.74 0-1.14 0v4.08c.63.25 1.28.45 1.86.76 2.33 1.23 3.79 3.15 4.36 5.72.2.89-.43 1.67-1.35 1.68-.33 0-.66.02-.99-.01-.63-.05-1.07-.46-1.23-1.11-.22-.93-.68-1.73-1.4-2.36-.36-.33-.79-.58-1.19-.87a.27.27 0 0 0-.08.07v2.92c-.01.75-.5 1.31-1.24 1.39-.46.04-.94.04-1.41 0-.76-.08-1.22-.63-1.23-1.41-.01-.84 0-1.68 0-2.52v-.42c-.79.35-1.39.84-1.88 1.48-.39.52-.65 1.1-.81 1.73-.17.7-.67 1.11-1.4 1.11-.38 0-.77.02-1.14-.05-.73-.13-1.2-.86-1.04-1.58.77-3.27 2.76-5.41 6-6.4z"/></symbol><symbol id="moneyback" viewBox="0 0 497.805 353.931"><clipPath id="b"><use xlink:href="#a" overflow="visible"/></clipPath><path clip-path="url(#b)" d="M277.217 304.094c3.791-9.918 7.447-19.482 11.105-29.057 78.291 32.285 152.697-15.57 171.883-78.762 20.021-65.944-14.934-135.063-80.913-157.571-63.56-21.682-127.507 11.389-152.093 61.818l19.69 9.8-61.528 43.108-5.045-75.675 17.561 8.379c26.987-48.161 67.306-77.609 122.251-84.748 40.579-5.272 78.171 4.553 111.407 28.565 68.24 49.303 86.433 141.182 42.128 212.433-44.446 71.479-131.947 90.831-196.446 61.71M240.552 273.681c-.292 1.431-.424 2.568-.757 3.643-6.253 20.166-12.503 40.332-18.815 60.48-1.917 6.121-5.594 10.923-11.29 14.038-5.182 2.835-10.454 2.469-15.945.771-41.132-12.725-82.293-25.357-123.446-38.018-18.273-5.622-36.552-11.224-54.819-16.867C3.57 294.047-2.016 284.424.657 272.243c.356-1.621.884-3.206 1.379-4.793 6.384-20.458 12.776-40.914 19.399-62.112l219.117 68.343m-63.103 20.404c-.886 1.013-2.341 1.996-2.803 3.325-1.797 5.16-3.247 10.441-4.89 15.657-.895 2.84.218 4.417 2.916 5.242 9.189 2.811 18.364 5.67 27.554 8.478 2.878.881 4.769 0 5.64-3.077 1.352-4.782 2.737-9.566 4.4-14.246 1.355-3.81-.083-5.435-3.664-6.479-8.589-2.506-17.102-5.271-25.648-7.925-.942-.292-1.901-.53-3.505-.975"/><path clip-path="url(#b)" d="M28.63 181.712c2.582-7.698 4.479-15.136 7.539-22.061 4.6-10.412 14.36-14.381 25.191-11.009a317776.19 317776.19 0 0 1 178.551 55.633c11.532 3.597 17.293 12.744 14.793 24.6-1.499 7.108-4.135 13.977-6.392 21.385A50651507.5 50651507.5 0 0 0 28.63 181.712"/><g><path d="M307.57 180.579v-23.85h-42.497v-11.564l38.305-58.541h20.96v56.662h12.142v13.443h-12.142v23.85H307.57zm0-37.293v-25.585c0-5.348.145-10.841.578-16.333h-.578c-2.891 5.926-5.349 10.696-8.239 15.9l-17.201 25.729-.145.289h25.585zM405.575 101.367h-36.137l-2.746 18.791c2.168-.289 4.047-.434 6.794-.434 8.239 0 16.478 1.879 22.838 6.071 7.083 4.481 12.286 12.431 12.286 23.85 0 17.924-14.888 32.523-38.016 32.523-10.841 0-19.947-2.746-24.861-5.493l3.613-13.443c4.047 2.168 12.142 4.915 20.67 4.915 10.407 0 20.381-5.926 20.381-17.201 0-10.697-7.949-17.779-26.74-17.779-5.204 0-9.106.289-12.865.867l6.216-47.411h48.567v14.744z"/></g><g><path d="M299.747 200.944v26.509l3.463.133-.333 16.186h-6.261l-.333-10.391H274.97l-.399 10.391h-6.261l-.267-16.118 2.931-.2c1.332-2.064 2.464-4.329 3.197-6.66 1.132-3.73 1.665-7.66 1.665-11.656v-8.192h23.911zm-16.785 10.523c0 3.464-.466 6.927-1.398 10.058-.533 2.064-1.398 4.062-2.397 5.795h12.654v-20.248h-8.858v4.395zM317.462 200.944v12.389h12.521v-12.389h8.192v32.437h-8.192v-13.654h-12.521v13.654h-8.192v-32.437h8.192zM352.694 219.46c.2 5.86 4.796 8.392 9.991 8.392 3.796 0 6.526-.532 8.991-1.465l1.199 5.661c-2.798 1.132-6.661 1.998-11.323 1.998-10.523 0-16.718-6.461-16.718-16.385 0-8.991 5.462-17.45 15.852-17.45 10.524 0 13.987 8.658 13.987 15.785 0 1.532-.133 2.73-.267 3.464h-21.712zm14.254-5.728c.066-2.997-1.266-7.926-6.728-7.926-5.062 0-7.193 4.596-7.526 7.926h14.254zM388.993 200.944V212.6c0 5.128-.2 8.592-.466 13.121h.199c1.731-3.797 2.73-6.194 4.396-9.592l7.992-15.186h9.924v32.437h-7.793v-11.589c0-5.195.2-7.593.533-13.721h-.267c-1.599 3.863-2.664 6.194-4.263 9.324-2.53 4.796-5.461 10.657-8.259 15.985H381.2v-32.437h7.793zm3.397-13.254c.134 2.863 1.332 4.861 3.597 4.861 2.398 0 3.597-1.998 3.863-4.861h5.396c-.333 5.794-3.93 8.858-9.392 8.858-5.994 0-8.659-3.664-8.925-8.858h5.461z"/></g></symbol><symbol id="nav-left" viewBox="0 0 34 34"><path d="M20.217 12.26l-4.684 4.6a.206.206 0 0 0 0 .291l4.684 4.6.09.08c.109.119.179.27.179.449a.726.726 0 0 1-1.203.541l-.089-.08-5.561-5.461a.4.4 0 0 1 0-.568l5.561-5.461.099-.07A.666.666 0 0 1 19.75 11c.407 0 .735.32.735.721 0 .18-.069.328-.179.459l-.089.08z"/><path d="M33 1v32H4a3 3 0 0 1-3-3V4a3 3 0 0 1 3-3h29m1-1H4C1.794 0 0 1.794 0 4v26c0 2.206 1.794 4 4 4h30V0z"/></symbol><symbol id="nav-right" viewBox="0 0 34 34"><path d="M13.783 21.74l4.684-4.6a.206.206 0 0 0 0-.291l-4.684-4.6-.09-.08a.654.654 0 0 1-.179-.449.726.726 0 0 1 1.203-.541l.089.08 5.561 5.461a.4.4 0 0 1 0 .568l-5.561 5.461-.099.07a.666.666 0 0 1-.457.181.726.726 0 0 1-.735-.721c0-.18.069-.328.179-.459l.089-.08z"/><path d="M30 1a3 3 0 0 1 3 3v26a3 3 0 0 1-3 3H1V1h29m0-1H0v34h30c2.206 0 4-1.794 4-4V4c0-2.206-1.794-4-4-4z"/></symbol><symbol id="number2" viewBox="0 0 10.02 14.482"><path d="M10.02 11.943H3.799v-.137l1.836-1.729C6.859 8.958 7.713 8.095 8.198 7.49c.484-.606.843-1.197 1.074-1.773.23-.576.347-1.192.347-1.851 0-.755-.189-1.425-.566-2.011C8.675 1.27 8.145.814 7.461.489S5.989 0 5.098 0C4.42 0 3.809.067 3.262.2a6.411 6.411 0 0 0-1.514.572C1.285 1.02.703 1.442 0 2.041l1.641 1.943c.566-.468 1.109-.829 1.63-1.084a3.635 3.635 0 0 1 1.611-.38c.527 0 .948.14 1.265.419.315.28.474.707.474 1.279 0 .385-.072.756-.215 1.113-.143.359-.378.749-.703 1.169-.326.419-1.02 1.173-2.08 2.261L.039 12.384v2.1h9.98v-2.541z"/></symbol><symbol id="number30" viewBox="0 0 21.357 14.697"><path d="M6.377 7.042v-.06c.977-.234 1.734-.664 2.275-1.289.54-.625.811-1.383.811-2.275 0-1.067-.429-1.9-1.284-2.5C7.322.319 6.155.02 4.678.02 2.874.02 1.322.489.02 1.427l1.396 2.08c.592-.384 1.131-.655 1.616-.811a4.658 4.658 0 0 1 1.431-.235c1.354 0 2.031.541 2.031 1.621 0 .703-.256 1.2-.767 1.49-.512.29-1.32.435-2.427.435H2.197V8.32h1.084c1.197 0 2.07.141 2.617.42s.82.755.82 1.425c0 .749-.238 1.293-.713 1.631-.476.339-1.211.508-2.207.508a7.72 7.72 0 0 1-1.973-.263A9.329 9.329 0 0 1 0 11.358v2.568c1.197.514 2.571.771 4.121.771 1.849 0 3.271-.382 4.268-1.147.996-.765 1.494-1.834 1.494-3.208 0-.944-.297-1.694-.889-2.251-.593-.557-1.465-.906-2.617-1.049zm13.716-5.167C19.249.625 18.004 0 16.357 0c-1.693 0-2.946.598-3.76 1.792-.814 1.195-1.221 3.052-1.221 5.571 0 2.416.418 4.242 1.255 5.479.836 1.237 2.078 1.855 3.726 1.855 1.699 0 2.957-.599 3.774-1.797.816-1.197 1.226-3.043 1.226-5.537 0-2.408-.421-4.238-1.264-5.488zm-2.212 9.238c-.312.769-.82 1.152-1.523 1.152-.717 0-1.226-.379-1.528-1.138-.303-.758-.454-2.013-.454-3.765 0-1.751.152-3.009.459-3.774.306-.765.813-1.147 1.523-1.147.696 0 1.202.382 1.519 1.147.315.766.474 2.023.474 3.774-.001 1.734-.158 2.984-.47 3.751z"/></symbol><symbol id="pickup" viewBox="131.301 36.189 589.621 559.092"><path d="M439.547 483.666c20.463 0 37.205 16.742 37.205 37.205s-16.742 37.205-37.205 37.205-37.205-16.742-37.205-37.205 16.742-37.205 37.205-37.205m0-37.205c-40.926 0-74.41 33.484-74.41 74.41 0 40.925 33.484 74.41 74.41 74.41s74.41-33.485 74.41-74.41c0-40.926-33.484-74.41-74.41-74.41zM551.162 486.276l-372.049-372.05-26.599 26.598-21.213-21.213 47.812-47.812L551.162 443.85l82.407-82.406 21.212 21.213z"/><path d="M551.071 394.307L362.803 206.041 532.656 36.189l188.267 188.267-169.852 169.851zM405.23 206.041l145.84 145.841 127.426-127.426-145.84-145.841L405.23 206.041z"/><path d="M596.36 119.607l21.214 21.213-148.82 148.82-21.213-21.214z"/><path d="M468.755 119.607l167.421 167.421-21.213 21.213L447.542 140.82z"/></symbol><symbol id="rarr" viewBox="0 0 15 30"><path clip-rule="evenodd" d="M0 30l15-15L0 0"/></symbol><symbol id="rarr2" viewBox="0 0 7 12"><path fill-rule="evenodd" d="M.24 10.74l4.69-4.6c.08-.08.08-.21 0-.29L.24 1.25l-.09-.08A.701.701 0 0 1-.03.72.728.728 0 0 1 1.18.18l.09.08 5.56 5.46c.16.16.16.41 0 .57l-5.56 5.46-.1.07c-.12.11-.28.18-.46.18-.41 0-.74-.32-.74-.72 0-.18.08-.33.18-.46l.09-.08z"/></symbol><symbol id="rarr3" viewBox="0 0 2.927 5.907"><path clip-rule="evenodd" d="M0 5.907l2.927-2.954L0 0"/></symbol><symbol id="search" viewBox="0 0 18.007 17.983"><path d="M11.286 12.952a7.118 7.118 0 0 1-4.142 1.319C3.198 14.271 0 11.077 0 7.136 0 3.196 3.198 0 7.145 0c3.945 0 7.145 3.196 7.145 7.136a7.106 7.106 0 0 1-1.321 4.137l4.693 4.688a1.168 1.168 0 0 1 0 1.659l-.02.021a1.178 1.178 0 0 1-1.662 0l-4.694-4.689zm-4.141-.359c3.018 0 5.463-2.443 5.463-5.457s-2.445-5.457-5.463-5.457-5.464 2.444-5.464 5.457 2.446 5.457 5.464 5.457z"/></symbol><symbol id="share-facebook" viewBox="8.668 5.467 8.1 14.536"><path d="M8.668 9.649h1.76v-.78c0-.871.107-1.521.322-1.95.214-.429.609-.778 1.184-1.048s1.303-.404 2.183-.404c.902 0 1.786.116 2.651.351l-.429 1.911a7.198 7.198 0 0 0-1.455-.156c-.459 0-.788.093-.987.278-.2.185-.299.541-.299 1.067v.731h2.369v2.154h-2.369v8.2h-3.169v-8.2h-1.76V9.649h-.001z"/></symbol><symbol id="share-instagram" viewBox="6.379 6.38 12.743 12.742"><path d="M16.661 6.38h-7.82a2.465 2.465 0 0 0-2.462 2.461v7.82a2.465 2.465 0 0 0 2.462 2.461h7.818a2.465 2.465 0 0 0 2.463-2.461v-7.82a2.464 2.464 0 0 0-2.461-2.461zm.705 1.468h.281v2.157l-2.152.009-.008-2.158 1.879-.008zm-6.434 3.595a2.24 2.24 0 0 1 1.819-.935c.75 0 1.412.369 1.818.935.266.366.426.818.426 1.306a2.248 2.248 0 0 1-2.244 2.244 2.247 2.247 0 0 1-2.244-2.244c0-.487.16-.939.425-1.306zm6.947 5.216a1.22 1.22 0 0 1-1.219 1.221H8.84a1.22 1.22 0 0 1-1.22-1.221v-5.216h1.901a3.467 3.467 0 0 0-.257 1.306 3.488 3.488 0 0 0 3.485 3.485 3.49 3.49 0 0 0 3.485-3.485c0-.46-.094-.902-.257-1.306h1.901v5.216h.001z"/></symbol><symbol id="share-like" viewBox="6.25 8.251 13.002 10.999"><path d="M12.748 10.655c-1.683-3.814-6.467-2.924-6.498 1.503-.018 2.432 2.278 3.341 3.806 4.312 1.482.942 2.537 2.231 2.702 2.78.142-.537 1.316-1.863 2.688-2.807 1.499-1.032 3.822-1.881 3.806-4.312-.033-4.437-4.899-5.138-6.504-1.476z"/></symbol><symbol id="share-twitter" viewBox="5.984 7.798 14.033 11.404"><path d="M20.017 9.149a5.66 5.66 0 0 1-1.652.451 2.878 2.878 0 0 0 1.266-1.592 5.73 5.73 0 0 1-1.829.698 2.879 2.879 0 0 0-4.905 2.627 8.184 8.184 0 0 1-5.936-3.009c-.247.426-.389.92-.389 1.449 0 .996.507 1.881 1.28 2.395a2.92 2.92 0 0 1-1.304-.359v.036c0 1.396.992 2.557 2.309 2.822a2.92 2.92 0 0 1-.759.102c-.185 0-.366-.02-.541-.053a2.882 2.882 0 0 0 2.689 1.999 5.775 5.775 0 0 1-3.575 1.232c-.232 0-.461-.013-.687-.039a8.153 8.153 0 0 0 4.414 1.294c5.295 0 8.192-4.388 8.192-8.193 0-.125-.002-.248-.009-.372a5.855 5.855 0 0 0 1.436-1.488z"/></symbol><symbol id="share-vk" viewBox="8.021 6.474 10.792 12.554"><path d="M8.021 6.474h5.149c1.02 0 1.78.041 2.281.124.5.083.949.256 1.344.518.396.263.725.612.989 1.05.264.437.396.926.396 1.468 0 .588-.163 1.128-.488 1.618a3.004 3.004 0 0 1-1.323 1.105c.785.223 1.389.602 1.811 1.139.422.536.633 1.167.633 1.893 0 .57-.136 1.126-.409 1.665a3.388 3.388 0 0 1-1.116 1.293c-.471.322-1.053.521-1.744.595-.434.046-1.479.074-3.138.086H8.021V6.474zm2.602 2.088v2.903h1.705c1.014 0 1.644-.015 1.89-.043.445-.052.795-.201 1.05-.449.255-.249.382-.575.382-.98 0-.389-.109-.704-.329-.946-.22-.243-.546-.39-.98-.441-.258-.028-.999-.043-2.224-.043l-1.494-.001zm0 4.993v3.356h2.408c.938 0 1.532-.025 1.784-.077.387-.068.701-.235.944-.501.243-.265.365-.62.365-1.065 0-.377-.094-.696-.281-.959-.187-.263-.458-.454-.812-.574s-1.124-.18-2.307-.18h-2.101z"/></symbol><symbol id="star-disabled" viewBox="0 0 16 15"><path d="M12.929 15l-4.946-3.496-4.96 3.476 1.853-5.706L0 6.014h6L8.008 0 10 6.014h6l-4.9 3.273L12.929 15z"/></symbol><symbol id="star-enabled" viewBox="0 0 16 15"><path d="M12.929 15l-4.945-3.496-4.96 3.476 1.853-5.706L0 6.014h6L8.008 0 10 6.014h6l-4.9 3.273L12.929 15z"/></symbol><symbol id="uarr" viewBox="0 0 12 6.971"><path d="M10.741 6.703l-4.6-4.684a.206.206 0 0 0-.291 0l-4.6 4.684-.081.089a.647.647 0 0 1-.449.179.725.725 0 0 1-.54-1.203l.08-.089L5.721.118a.4.4 0 0 1 .569.001l5.46 5.561.07.099a.67.67 0 0 1 .18.457c0 .408-.32.735-.721.735a.693.693 0 0 1-.459-.179l-.079-.089z"/></symbol><symbol id="visa" viewBox="0 0 48.564 15.653"><path d="M16.479 15.424L18.993.418h4.022l-2.519 15.006zM35.05.793a10.697 10.697 0 0 0-3.596-.621c-3.977 0-6.752 2.029-6.776 4.945-.023 2.154 1.987 3.357 3.506 4.08 1.568.738 2.097 1.201 2.076 1.861 0 1.018-1.237 1.471-2.395 1.471-1.604 0-2.455-.232-3.773-.787l-.53-.248-.547 3.348c.929.441 2.659.789 4.461.812 4.218 0 6.943-2.013 6.979-5.136.025-1.691-1.053-2.998-3.368-4.07-1.394-.686-2.246-1.135-2.246-1.844 0-.646.723-1.307 2.295-1.307a7.125 7.125 0 0 1 3.002.58l.365.168.547-3.252zM45.337.442h-3.102c-.955 0-1.688.272-2.117 1.239l-5.941 13.768h4.201s.688-1.869.852-2.262h5.134c.123.518.489 2.262.489 2.262h3.712L45.337.442m-4.955 9.662c.328-.842 1.609-4.176 1.609-4.176-.041.043.328-.871.529-1.43l.256 1.281s.773 3.582.938 4.324h-3.332zM13.125.442L9.187 10.668l-.404-2.076c-.948-2.467-2.836-4.634-5.53-6.162l3.564 12.994h4.243L17.372.443h-4.247z"/><path d="M6.514 0H.037L0 .333C5.014 1.575 8.358 4.57 9.742 8.174L8.322 1.29C8.08.333 7.387.049 6.514 0z"/></symbol><symbol id="wallet" viewBox="0 0 46.013 40.892"><path d="M46.013 35.905a4.994 4.994 0 0 1-5.001 4.987H5.002A4.994 4.994 0 0 1 0 35.905V6.977a3.996 3.996 0 0 1 4.001-3.99h20.177L32.279.059a.992.992 0 0 1 1.269.588l.853 2.339h3.61a3.996 3.996 0 0 1 4.002 3.99v1.995a3.996 3.996 0 0 1 4.001 3.99v22.944zM4.001 4.982A2 2 0 0 0 2 6.977c0 1.101.896 1.995 2.001 1.995H7.636c.013-.005.021-.016.034-.021l10.985-3.969H4.001zm29.087.18l-1.063-2.916-2.052.741h.003L24.46 4.982h-.01l-11.042 3.99h21.068l-1.388-3.81zm6.924 1.815a2 2 0 0 0-2.001-1.995h-2.883l1.453 3.99h3.431V6.977zm2 3.99H4.001A3.977 3.977 0 0 1 2 10.414v25.492a2.997 2.997 0 0 0 3.001 2.992h36.01c1.657 0 3-1.34 3-2.992v-6.983H40.01a3.996 3.996 0 0 1-4.002-3.99 3.996 3.996 0 0 1 4.002-3.99h4.001v-7.98a1.996 1.996 0 0 0-1.999-1.996zm2.001 15.96v-3.99h-4.001a2 2 0 0 0-2.001 1.995 2 2 0 0 0 2.001 1.995h4.001zm-4.001-2.992h2v1.995h-2v-1.995z"/></symbol><symbol id="warranty" viewBox="0 0 370.892 480.704"><clipPath id="b"><use xlink:href="#a" overflow="visible"/></clipPath><path clip-path="url(#b)" d="M0 147.432c3.886-5.106 7.263-10.722 11.766-15.209 9.059-9.027 13.88-19.717 12.987-32.273-1.117-15.705 5.736-25.154 20.211-30.206 11.611-4.053 19.153-12.193 24.34-23.509 9.386-20.474 10.063-20.444 32.735-21.646 3.477-.185 7.187.042 10.35-1.118 4.903-1.798 9.755-4.158 14.029-7.139 4.89-3.41 9.122-7.763 13.646-11.699 5.37-4.672 11.467-5.727 18.161-3.541 5.684 1.857 11.373 3.709 17.008 5.707 6.698 2.374 13.357 2.33 20.051.096 5.515-1.841 11.062-3.595 16.535-5.555 7.268-2.602 13.675-1.408 19.43 3.768 4.581 4.12 8.86 8.805 14.055 11.952 5.387 3.265 11.541 5.716 17.68 7.161 5.749 1.353 11.919.91 17.902 1.282 6.854.427 12.04 3.584 15.229 9.695a393.004 393.004 0 0 1 7.745 15.644c3.456 7.41 8.862 12.753 16.242 16.223 5.113 2.404 10.195 4.885 15.211 7.487 5.887 3.053 9.322 7.842 9.82 14.593.515 6.972.388 14.093 1.865 20.861 1.199 5.494 3.726 10.97 6.812 15.707 3.421 5.252 8.173 9.632 12.295 14.434 4.584 5.339 6.004 11.365 3.698 18.121-10.159 29.764-10.214 24.897-.042 54.507 2.312 6.73 1.038 12.773-3.567 18.142-3.145 3.666-6.1 7.53-9.524 10.915-7.604 7.516-10.451 16.75-10.686 27.117-.082 3.657-.535 7.307-.617 10.965-.198 8.836-4.597 14.659-12.585 18.021-.765.322-1.455.833-2.233 1.103-15.814 5.479-26.343 16.164-31.899 31.94-3.557 10.1-10.773 15.812-21.595 14.976-18.78-1.452-32.958 6.731-45.403 19.69-5.737 5.977-12.831 7.081-20.661 4.014-5.099-1.998-10.39-3.5-15.569-5.298-6.52-2.263-13.026-2.334-19.566-.129-5.666 1.91-11.389 3.663-16.997 5.73-7.333 2.702-13.694 1.184-19.419-3.868-3.371-2.976-6.929-5.767-10.089-8.953-7.365-7.423-16.366-10.455-26.59-10.733-4.655-.128-9.304-.553-13.95-.908-6.524-.498-11.24-3.81-14.222-9.543-2.532-4.868-5.057-9.751-7.298-14.756-3.645-8.145-9.539-13.874-17.61-17.549-4.384-1.995-8.626-4.305-13.005-6.313-7.239-3.323-10.836-9.038-11.385-16.833-.398-5.646-.823-11.292-1.093-16.945-.339-7.087-2.869-13.255-7.449-18.615-2.596-3.04-5.384-5.928-7.823-9.086-3.114-4.035-5.962-8.274-8.925-12.425v-9c2.306-6.317 5.219-12.493 6.728-18.995 1.241-5.346 1.944-11.31.861-16.584-1.575-7.67-4.97-14.966-7.589-22.421L0 147.432M185.456 46.218c-76.868-.072-139.381 62.135-139.495 138.811-.115 77.332 62.302 140.137 139.327 140.195 76.709.059 139.491-62.704 139.589-139.541.096-76.93-62.348-139.393-139.421-139.465"/><path clip-path="url(#b)" d="M0 156.431c2.619 7.455 6.014 14.751 7.589 22.421 1.083 5.275.38 11.239-.861 16.585-1.509 6.501-4.422 12.677-6.728 18.994v-58"/><path clip-path="url(#b)" d="M127.065 480.704c-9.521-13.902-18.441-26.924-27.359-39.948-3.197-4.67-6.597-9.219-9.5-14.065-1.744-2.912-3.778-3.635-6.96-3.189-20.917 2.927-41.852 5.73-62.784 8.557-.299.04-.627-.126-1.729-.368l44.068-99.151c1.613 3.068 2.831 5.319 3.99 7.6 4.978 9.793 13.054 14.729 23.921 15.344 5.818.328 11.761.084 17.41 1.249 4.545.937 9.123 3.029 12.983 5.646 4.786 3.247 8.837 7.574 13.222 11.416 8.251 7.229 17.614 8.812 27.928 5.431 3.464-1.135 6.911-2.324 11.653-3.923l-46.843 105.401M353.536 432.283c-11.569-1.526-22.242-2.91-32.907-4.347-10.876-1.464-21.755-2.915-32.61-4.515-2.916-.43-4.492.718-6.067 3.048-11.185 16.548-22.504 33.005-33.795 49.48-.896 1.309-1.91 2.539-3.356 4.449l-46.704-104.99c4.346 1.429 7.679 2.499 10.995 3.62 10.636 3.595 20.308 2.149 28.822-5.451 1.118-.998 2.4-1.851 3.366-2.978 9.439-11.016 21.483-15.599 35.831-15.011 14.69.604 24.801-6.059 30.216-19.779.299-.759.809-1.434 1.84-3.225 14.896 33.475 29.462 66.203 44.369 99.699M151.721 130.414v32.057H182.5v11.064h-30.779v32.341h-11.632v-32.341h-30.78v-11.064h30.78v-32.057zM194.275 205.876v-10.638l10.922-10.071c21.702-20.143 31.915-31.207 32.057-43.405 0-8.227-4.396-15.462-16.453-15.462-8.086 0-15.036 4.114-19.717 7.66l-5.106-12.34c6.667-5.39 16.737-9.504 28.369-9.504 20.426 0 30.354 12.908 30.354 27.944 0 16.17-11.631 29.22-27.66 44.113l-8.085 6.951v.284h37.873v14.468h-62.554zM139.223 238.408v7.028h-14.417v28.254h-8.912v-35.282zM177.401 255.724c0 12.968-9.128 18.764-18.111 18.764-9.998 0-17.678-6.883-17.678-18.185 0-11.592 7.607-18.692 18.257-18.692 10.505 0 17.532 7.391 17.532 18.113m-26.588.362c0 6.81 3.333 11.954 8.766 11.954 5.071 0 8.622-4.999 8.622-12.1 0-5.506-2.464-11.809-8.549-11.809-6.303.001-8.839 6.086-8.839 11.955M214.203 238.408v28.835l3.768.144-.361 17.605h-6.812l-.361-11.302h-23.185l-.434 11.302h-6.81l-.291-17.532 3.188-.217c1.449-2.246 2.681-4.71 3.478-7.245 1.231-4.058 1.812-8.332 1.812-12.679v-8.911h26.008zm-18.257 11.447c0 3.767-.507 7.534-1.521 10.938-.58 2.247-1.521 4.42-2.608 6.304h13.765v-22.024h-9.636v4.782zM244.485 273.69l-.581-3.911h-.217c-2.174 2.752-5.868 4.709-10.433 4.709-7.1 0-11.084-5.145-11.084-10.505 0-8.911 7.896-13.404 20.937-13.331v-.579c0-2.319-.94-6.159-7.172-6.159-3.478 0-7.1 1.087-9.491 2.607l-1.738-5.796c2.608-1.593 7.173-3.115 12.751-3.115 11.303 0 14.562 7.172 14.562 14.852v12.751c0 3.188.145 6.303.507 8.477h-8.041zm-1.159-17.242c-6.304-.146-12.316 1.23-12.316 6.593 0 3.477 2.245 5.071 5.071 5.071 3.55 0 6.157-2.318 6.955-4.854.217-.652.29-1.376.29-1.956v-4.854z"/></symbol></svg>