<svg xmlns="http://www.w3.org/2000/svg" viewBox="0 0 2201.39 885.43"><defs><style>.cls-1,.cls-2{fill:#1769ff;}.cls-2{fill-rule:evenodd;}.cls-3{fill:#d00000;}.cls-10,.cls-3,.cls-5,.cls-6,.cls-7,.cls-8{stroke:#000;}.cls-3,.cls-8{stroke-width:0.83px;}.cls-4{fill:#0e0000;opacity:0.1;}.cls-11,.cls-4,.cls-5,.cls-6,.cls-9{isolation:isolate;}.cls-5{stroke-width:0.83px;opacity:0.27;}.cls-6,.cls-7{stroke-width:0.6px;}.cls-6{opacity:0.29;}.cls-10,.cls-7{fill:#fff;}.cls-8{fill:none;}.cls-9{opacity:0.11;}.cls-10{stroke-width:0.81px;}.cls-11{opacity:0.1;}.cls-12{fill-opacity:0.22;}</style></defs><title>Asset 1</title><g id="Layer_2" data-name="Layer 2"><g id="Layer_1-2" data-name="Layer 1"><rect class="cls-1" x="1666.82" y="142.77" width="97.4" height="29.32" rx="5" ry="5"/><path class="cls-2" d="M1341.21,678.34l18.71,38,18.7,38h-74.83l18.71-38Zm92.68,168.24h27.81c6.92,0,9.81-5.72,6.43-12.7l-5.63-11.65L1361.24,610.39c-17.75-38-22.06-37.81-40.13-3.84-36.71,75.64-72.66,151.64-109.28,227.33-3.38,7-.48,12.7,6.44,12.7h27.81c6.92,0,15.34-5.72,18.72-12.7,5-10.35,10.6-20.93,15.19-31.4l.68-1.41,118.61,0,15.88,32.83C1418.54,840.86,1427,846.58,1433.89,846.58Z"/><path class="cls-2" d="M1640.5,351.6l0-151.8V199A11.46,11.46,0,0,0,1629,187.56h-25.29A11.46,11.46,0,0,0,1592.32,199v11.48c-.08,4.47,0,10,0,17V437.91c0,8.84.91,14,10,14.51,9.37.51,18.7-11.52,30-22.62l143.06-140.89V437.33c.08,11.67,3.38,14.81,14.83,15.1,36.28.92,33.32-.27,33.32-26.3V247.71c0-8.83.09-27.11,0-40.4-.1-16.88-5.67-27.53-24.62-12.73"/><path class="cls-2" d="M1807.28,632.41V798c5.24.39,25.45.08,27.71.08h12a6.22,6.22,0,0,1,6.23,6.26l-.29,70.16a11,11,0,0,1-11,11h-26.1a11,11,0,0,1-11-11l.12-28.54H1602.66l-.12,28.63a11,11,0,0,1-11,11h-26.1a11,11,0,0,1-11-11l.3-70a6.32,6.32,0,0,1,6.32-6.3h33c4.73-1.17,9.16-10.84,11.75-16.37,6.09-12.95,9.3-23.28,12.49-38.69,8.12-39.27,7.7-102.41,9-146.11.56-18.7,4.45-15.56,35.72-15.56H1792c10,0,15.23,0,15.48,10.85.14,5.8,0,20.82-.18,40.24M1653.92,798c.34-3.4,4.24-13.47,5.51-18.09,14.1-51.17,14.66-98,16.61-151.48l82.88.14V798.05h-46.23Z"/><path class="cls-2" d="M299.46,135.49c-10.14,2-25.3,16.28-33.62,23.07-31,25.28-64.37,50.88-95.13,76.19-8.15,6.7-11.48,11.32-11.46,26.51V413.18c0,14.3-1.15,22.41,7.42,31.13s14.51,8.43,29.36,8.43H386.18c12.35,0,25.43.41,37.7,0a26.83,26.83,0,0,0,23.46-14.88c4.15-8.5,2.66-24.73,2.66-35.25V288.34c0-9,1.05-29.71-.63-37.38-2.45-11.24-10-15.51-17-21.18-6.8-5.52-14.27-11.15-21-16.72-25.6-21.31-58-46.65-84.26-67.64-6.88-5.5-14.2-12.56-27.68-9.93m-93.53,130c1-1.48,9.78-8.21,12-10,10.53-8.31,79.83-64.85,86.56-69.33l74.4,59.4c3.34,2.66,23.33,18.2,24.39,19.92,1.15,4.25.42,133.35.42,141.33l-198.21,0C205.5,398.83,204.76,269.75,205.93,265.46Z"/><path class="cls-2" d="M744,288.91V437.33c.07,11.67,3.38,14.81,14.83,15.1,36.28.92,33.32-.27,33.32-26.3V247.71c0-8.83.09-27.11,0-40.4-.09-16.88-5.67-27.53-24.61-12.73-8.15,8.22-19.13,19-27.22,27.19L609.15,351.6l0-151.8V199a11.47,11.47,0,0,0-11.43-11.44H572.41A11.47,11.47,0,0,0,561,199v11.48c-.07,4.47,0,10,0,17V437.91c0,8.84.91,14,10,14.51,9.37.51,18.7-11.52,30-22.62Z"/><path class="cls-2" d="M990.36,340c2,1.36,22.35.49,26.31.49,20.73,0,59.38-2.48,70.25,12.48,8.39,11.55,7.36,32-1.1,42.28-7.52,9.16-23.21,13.35-39.14,15.65-36.79,5.31-62-6.66-83.71-23.46-19.38-15-21.05-18.83-42.57.73-8.92,8.11-14.61,12.43-1.77,24.79,19.55,18.82,41.54,33.42,68.85,40.65,52.77,13.95,135.52,1.86,155.89-53.22,7.72-20.87,5.62-47-6.42-66.25-3.61-5.76-8.57-10.88-11.5-16.31,1.1-1.81,4.93-5.15,6.93-7.33a59.92,59.92,0,0,0,6-8.17c12.65-21.42,11.07-47.81,1.72-69-25.18-57.14-112.21-62-163.5-43.9-14.2,5-27.46,11.44-37.73,19.39-6.16,4.77-24.92,21-24.8,32.51.08,7.57,3.53,8.16,14.26,14.21,23.09,13,19.66,7.77,36.19-5.17,5.8-4.53,9.87-7.8,17.13-11.71a92.8,92.8,0,0,1,45.66-10.89c15.73.16,35.18,3.47,46.48,10.64,14.63,9.28,21.48,18.36,17.83,36.63-3.88,19.42-15.71,19.61-35.93,21.33-20.71,1.76-41.42,1.21-62.58,1.39-3.13.31-3.49,0-4,3-1.65,9-2.68,34.09,1.33,39.28"/><path class="cls-2" d="M1076.42,581.37H949.56c-7.44,0-13.13-.72-14.76,6.68-1.25,5.65-1.64,54.15-1.87,62.43-.76,26.92-2.2,53.48-6.27,79.57-3.15,20.16-10.66,52.66-21.51,64.44-13.6,14.75-23,6.33-33.31,9.69-5.47,1.78-4.92,9.45-5,15.87-.37,19.16-1.48,27,13.37,29.39,19.36,3.18,36.36-1.43,51.08-12.36,33-24.51,43-84.08,46.81-125.25,1.64-17.62,4.18-62.64,4.05-84.18h76.45l0,197.19v10.22a11.47,11.47,0,0,0,11.43,11.44h25.28a11.48,11.48,0,0,0,11.44-11.44l0-242.25a11.47,11.47,0,0,0-11.43-11.44Z"/><path class="cls-2" d="M218.82,595c-42.08,26.26-66,75.42-62.13,127.38,2,26.36,10.69,53.95,22.88,71.79,29,42.42,76,62,129.48,59.26,35.5-1.86,61-15.09,83.57-35.12,13.77-12.22,3.14-16.3-8.69-25.4-10.58-8.13-17.78-14.06-32.62-3.55-17,12-33.81,15.86-55.8,14.79-32.71-1.61-51.24-10.81-66.82-27.9-32.81-36-30.74-104.79,9.72-134.57,29-21.36,76.31-27.43,109.08-6,21,13.71,21.47,9.29,46.64-9,11.9-8.61-.48-17.39-11.1-26C339.22,565,265.86,565.6,218.82,595"/><path class="cls-2" d="M2007,452.8h-25.29a11.45,11.45,0,0,1-11.43-11.44V198.9a11.45,11.45,0,0,1,11.43-11.44H2007a11.46,11.46,0,0,1,11.44,11.44v98.45h134.77V198.9a11.46,11.46,0,0,1,11.44-11.44H2190a11.45,11.45,0,0,1,11.43,11.44V441.36A11.45,11.45,0,0,1,2190,452.8h-25.29a11.46,11.46,0,0,1-11.44-11.44v-98.3H2018.46v98.3A11.46,11.46,0,0,1,2007,452.8"/><path class="cls-2" d="M1361.55,284.45l18.71,38,18.71,38h-74.83l18.7-38Zm92.68,168.24H1482c6.92,0,9.82-5.72,6.44-12.7l-5.64-11.65L1381.58,216.5c-17.74-38-22.06-37.81-40.13-3.84-36.7,75.64-72.66,151.64-109.28,227.33-3.37,7-.48,12.7,6.44,12.7h27.81c6.92,0,15.35-5.72,18.72-12.7,5-10.35,10.6-20.93,15.19-31.4l.68-1.41,118.62,0L1435.51,440C1438.89,447,1447.31,452.69,1454.23,452.69Z"/><path class="cls-2" d="M594,846.73H568.73a11.46,11.46,0,0,1-11.44-11.44V592.83a11.46,11.46,0,0,1,11.44-11.44H594a11.46,11.46,0,0,1,11.44,11.44v97.54h35.14l59.89-94.58c5-7.94,15.66-14.41,23.59-14.41H756c7.92,0,10.26,6.47,5.23,14.41L686.51,713.71l82.77,118.44c5.55,7.94,3.59,14.41-4.41,14.41H732.72c-8,0-19.11-6.47-24.66-14.41L642.27,738H605.45v97.28A11.46,11.46,0,0,1,594,846.73"/><path class="cls-2" d="M1671.82,172.08a5,5,0,0,1-5-5V147.77a5,5,0,0,1,5-5"/><g id="layer1"><path id="path1309" class="cls-3" d="M225.2,4.4c-28.1,7.73-56.9,23.11-77.17,38S74.84,94.82,62.76,106.71C51,118.24,37.2,122.26,31.15,136.47c-2.34,5.48,15.84,22,19.4,23.72,9.24,4.45,24.3-3.44,31.17-3.92,22.31-1.53,45.17-4.49,67.76,10.8-4.18,4.22,2.46-.33-6.08,36.69-3,13.05-9.6,46.92-1.51,53.38s13-18.6,20.94-14.77c0,0,0,0,0,0v.06h0a.55.55,0,0,0,.13,0H163a.8.8,0,0,0,.16.08l0-.12c3.78-1,33.26-14,60.17-8.75,15.18,3,39.37-5.31,53.29-9.61,22.08-6.83,53.07-13,72.73-13.35,14.49-.26,27.59-8.46,41.52-9.42,8.22-.56.6-27.06.43-29.86-.81-13.46-17.56-34.13-26.19-52.51a277.89,277.89,0,0,0-39-60c-15.92-18.29-37.4-42-52.53-49.26S255.7-4,225.2,4.4Z"/><path id="path5882" class="cls-4" d="M158.05,69c-18.23,4.41-33.84,62.69-56.32,72.82C87,148.41,47,158.47,50.55,160.19c9.24,4.45,24.3-3.44,31.17-3.92,22.31-1.53,45.17-4.49,67.76,10.8-4.18,4.22,2.46-.33-6.08,36.69-3,13.05-9.6,46.92-1.51,53.38s13-18.6,20.94-14.77c0,0,0,0,0,0v.06h0a.55.55,0,0,0,.13,0H163a.8.8,0,0,0,.16.08l0-.12c3.78-1,33.26-14,60.17-8.75,15.18,3,39.37-5.31,53.29-9.61,22.08-6.83,53.07-13,72.73-13.35,14.49-.26,27.59-8.46,41.52-9.42,8.22-.56-51.08,4.52-27.45-12.57,10.49-7.59-105,15.81-149.31-34.78C170.28,103.85,176.72,64.44,158.05,69Z"/><path id="path5878" class="cls-5" d="M33,130.25c3.55,2.35,27.4,32.51,30.22,30.4.34-3.33-2.44-4.64-4.4-5,2.62-3.33,3.11-6.81-1.43-7.11-5-.89-10.55-1.51-5.14-6.94,2.5-3-.16-8.43-1.7-11.18-4-2.17-7.06-6.11-8.72-8.79"/><path id="path5003" class="cls-6" d="M356.69,195.2c-7.45-2.64-16.8-5.69-23.38-5.29-4.53-3.82-8,.89-11.92,2.15-.66-7.36-11.51,3.11-16.29,3.17-3.4,2-1.06-5.8-7.14-2.86-7.56.72-12.23,1.24-17.84,3.67-1.34,8-13.45,12.52-15.26,3.74-6.6,2.87-18.87,8.44-19-.64-10.56,8.19-10.9,15.6-21.21,19.55.91-7.09-22.37-10.91-25.54-3.46-6.39,2.57,1.32-9.33-7.91-6.06-10.4-3-4.35,17.94-25.55,9.37-11.81-.38-5.27,16.72-13.06,23.88-2.08,7.53-11.09-2.62-14.73-2.06.84,11.93,3.4,7.88.72,16-1.61,10.16-3.75,15.25,7.43,17.37,3.62-4.9-.18-2.83.63,6.22,6.45-1.88,14.94-12.64,14.07-1.58,4.38-6.68,18.26-10.15,18.08-17.34,7,.73,14.9,8.58,20.83-1,6-7,14.51-10.3,14.6-4.86,7.23,6.75,7.95,5.38,15.47,3.66-1.93-8.71,17.6-.59,7.29-9.27,4.09-4.1,15.18-6.5,21.59-5.07,5.67,8.25,22.95,8.93,25.63-1.75.57-8.4,13.69-11.28,18.59-5.47,8.53-7.48,22,3.39,29.33-2.34-6.6-8.57,9.32-14.16,12.29-7.6,5.84-3.13,11.28-14.42,17.67-6.34,7.35-2.39,16.33-5.72,22.54-8.22,4.67,7.69,16.75-.22,11.51-9.53-2.83-6.65,9.31,3.27,6-5.17-3.76-9.07-9-21.69-15.52-21.27-8.81-2.2-14,3.74-14.4,12.16-.11-6.14-10.52-.16-16,2.07l-3,.71-3.57-2.52"/><path id="path1307" class="cls-7" d="M361.62,197.45a51.11,51.11,0,0,0-20.94-2.61c-4.53-3.82-9.9-2.57-13.82-1.32-.66-7.36-9.61,6.57-14.39,6.63-3.4,1.95-1.06-5.8-7.14-2.85-7.55.71-16.32-4-21.92-1.55-1.35,8-13.45,12.53-15.26,3.75-6.6,2.87-14.79,13.65-14.86,4.56-12.39-.54-17.69,11.64-28,15.59.91-7.09-15.58-6.94-18.75.5-6.39,2.57-1.7-13.44-10.94-10.17-10.4-3-10.11,17.7-22.52,13.48-11.81-.38-10.16,11.36-17.95,18.53-2.08,7.53-6.2,2.73-9.84,3.3,6,8.51-18.39,6.74-11.15,19.87-1.61,10.16.85,17.47,12,19.59,3.62-4.91,7.09-8.92,7.9.12,6.46-1.88,14.94-12.64,14.07-1.58,4.38-6.67,18.26-10.15,18.08-17.34,7,.74,14.9,8.58,20.83-.95,6-7,6.94-1.3,7,4.14,7.23,6.76,15.52-3.62,23-5.34-1.93-8.71,17.6-.6,7.29-9.27,4.09-4.11,15.18-6.5,21.59-5.08,5.63,5.34,22.95,8.94,25.64-1.75.56-8.4,13.68-11.27,18.58-5.46,8.53-7.48,22,3.39,29.33-2.35-6.6-8.56,9.32-14.16,12.29-7.59,5.85-3.14,11.28-14.42,17.67-6.34,7.35-2.4,16.33-5.73,22.55-8.23,4.66,7.7,16.74-.22,11.51-9.53-2.84-6.65,9.31,3.28,6-5.16.07-9.66-3.56-24.6-15.51-21.28-8.82-2.2-14,3.75-14.41,12.16-.11-6.14-14-3.92-19.48-1.69l-1.79.94-1.28,1"/><path id="path3126" class="cls-8" d="M146.78,186.5c3.14-40.84,23.78-59.45,20.15-92.12-2.15-19.31-19.54-4.67-13.87,13.44"/><path id="path3249" class="cls-9" d="M155.08,242.23c-2.08,7.54-6.2,2.74-9.84,3.3,6,8.52-18.4,6.74-11.16,19.87-1.6,10.17.85,17.48,12,19.59,3.62-4.9,7.09-8.92,7.9.13,6.45-1.88,14.94-12.64,14.07-1.58,4.38-6.67,18.25-10.15,18.08-17.34,7,.74,14.57,7.35,20.49-2.18,6-7,7.27-.07,7.36,5.37,7.24,6.76,15.53-3.62,23-5.34-1.94-8.71,8.87-1.55,7.28-9.27-1-5.07,33.65-3.57,28.66-8.52-14.9-14.78-38.19,7.5-41.56,6.07s-7.09-.55-2.38-2.71-6.75,1.39-16.28-2-16.52.9-17.15,9.34c-7.18-4.46-7.7.61-18.89,3.72,7.13-10.42-12.6-2.77-12.6-2.77s3.44-11.42-2.74-9.92c3.32-6-.36-7.8-.36-7.8S162.87,235.07,155.08,242.23Z"/><path id="path2251" class="cls-10" d="M38,121.86c-1.3-2.32-5.36-3-5.88-4.92.91-2.29-2.66-.63-3.36-1.89-4.19,3.44-10,4.92-13.09,9.65,1.65-.37,1.65-2.78-.16-1-3.4,1.69-6.69,4.66-5.41,8.89.31,2.18-2.42,4,.92,4.56-.44,3.48-5.66,3.33-5.66,6.41,1.15,3.34.64,6.84-2.1,9.18-2.72,2.55-1.6,6.29-1.5,9.38-1.37,2.06-2.14,4-.34,5.95.38,3.55,3.33,5.9,3.35,9.59,1.24,1.93,3.73,1.81,5,4,3.71.32,4,5.5,7.52,6.21,3,1,6.62.31,9.36,1a16.87,16.87,0,0,0,7.64,3.6c3.55,2.26,4.76-3.36,6.91-5.17.11-2.84,2.15-3.06,3.51-.67,3.1,2.1,6.31-1.52,8.54-3.44a79.81,79.81,0,0,1,7-6.49c3.43-3.88,4.65-9.43,4.46-14.54.34-3.2-2.63-3.37-4.59-3.74.89-2.68,3.11-6.54-1.43-6.83-2.61-.68-8.52-3.59-5.13-6.66,2.49-2.92-.94-6.85-2.48-9.48-2.65-2.12-4.2-5.06-5.85-7.63-3.2-.51-6.19-2.46-7-5.85-.85-2.69-.23-.7,0,.61"/><path id="path4128" class="cls-11" d="M11.5,157.46c-1.6-2,4.72-1,4.2-3,.91-2.28-.18-2.37-.88-3.63-4.19,3.43-3.21-4.7-6.31,0,1.65-.36,1.38-6.33-.43-4.55-3.4,1.69-2.68-5.81-2.68-2.73,1.15,3.34.64,6.84-2.1,9.18-2.72,2.55-1.6,6.29-1.5,9.38-1.37,2.06-2.14,4-.34,5.95.38,3.55,3.33,5.9,3.35,9.59,1.24,1.93,3.73,1.81,5,4,3.71.32,4,5.5,7.52,6.21,3,1,6.62.31,9.36,1a16.87,16.87,0,0,0,7.64,3.6c3.55,2.26,4.76-3.36,6.91-5.17.11-2.84,2.15-3.06,3.51-.67,3.1,2.1,6.31-1.52,8.54-3.44,2.17-2.36-8.35.36-5.93-1.71,3.44-3.88-7.75,5.41-7.94.31.34-3.2-12.37,4.07-9.68-1.56.88-2.68,1.53-.75-3-1-2.61-.68-9.81-5.5-6.42-8.57,2.5-2.91-1.34.46-2.88-2.18-2.65-2.11-1-.95-2.61-3.52-3.2-.51-1.79-1.81-2.61-5.21C10.83,163.73,11.23,156.15,11.5,157.46Z"/><path id="path5880" class="cls-12" d="M148.77,168s13.14-33.52,16.3-46.89c3-12.5,2.57-31.6-1.85-35.13S153,88.54,152.36,95.77s-1.13,9.06,1.84,22.87c1.35,6.26.67,21.09-1.16,28.1S147.22,169.68,148.77,168Z"/></g></g></g></svg>