<svg xmlns="http://www.w3.org/2000/svg" xmlns:xlink="http://www.w3.org/1999/xlink">
    <defs>
        <style>.cls-1{fill:#186aff;fill-rule:evenodd}</style><style>.cls-1{fill:#1769ff;fill-rule:evenodd}</style>
        <path id="a" d="M0 0h112.74v138.139H0z"/><path id="a" d="M0 0h80.346v136.03H0z"/><path id="a" d="M0 0h170.397v136.462H0z"/>
        <path id="a" d="M0 0h205.5v136.389H0z"/><path id="a" d="M0 0h142.319v143.062H0z"/><path id="a" d="M0 0h497.805v353.931H0z"/>
        <path id="a" d="M0 0h81.483v120.5H0z"/><path id="a" d="M0 0h107.744v130.286H0z"/><path id="a" d="M0 0h75.331v131.03H0z"/>
        <path id="a" d="M0 0h72.689v130.417H0z"/><path id="a" d="M-19.599 0H83.723v131.636H-19.599"/><path id="a" d="M0 0h160.899v131.462H0z"/>
        <path id="a" d="M0 0h121.443v133.062H0z"/><path id="a" d="M0 0h68.454v132.241H0z"/><path id="a" d="M0 0h198.64v122.375H0z"/>
        <path id="a" d="M0 0h129.742v129.742H0z"/><path id="a" d="M0 0h126.399v129.378H0z"/><path id="c" d="M0 0h126.399v129.378H0z"/>
        <path id="a" d="M0 0h311.75v126.218H0z"/><path id="c" d="M0 0h311.75v126.218H0z"/><path id="a" d="M0 0h322.25v133.043H0z"/>
        <path id="a" d="M0 0h82.5v130.172H0z"/><path id="a" d="M0 0h131.579v132.291H0z"/><path id="a" d="M0 0h370.892v480.704H0z"/>
    </defs>
    <symbol id="cashout" version="1.1" xmlns="http://www.w3.org/2000/svg" xmlns:xlink="http://www.w3.org/1999/xlink" x="0px" y="0px"
	 viewBox="0 0 331.493 331.493" style="enable-background:new 0 0 331.493 331.493;" xml:space="preserve">
<g>
	<g>
		<path d="M298.761,57.093l-101.2-54.8c-9.6-5.2-22.8-1.2-28,8.4l-59.2,110h-72c-9.2,0-16.4,7.2-16.4,16.4v28.8v149.2
			c0,9.2,7.2,16.4,16.4,16.4h230c9.2,0,16.4-7.2,16.4-16.4v-41.6h6.8c3.6,0,6.4-2.8,6.4-6.4v-47.6c0-3.6-2.8-6.4-6.4-6.4h-6.8v-46.8
			c0-7.6-5.6-14.4-12.8-16l35.2-65.2C312.361,75.093,308.761,62.693,298.761,57.093z M226.761,32.693l-63.2,117.2h-18l67.6-124.4
			L226.761,32.693z M181.161,16.693c2-3.6,6.8-5.2,10.4-3.2l10,5.6l-70.4,130.8h-22L181.161,16.693z M34.361,136.693
			c0-1.2,1.6-3.2,3.6-3.2h65.2l-8.8,16h-56.4c-1.2,0-2.4,0-3.6,0.4V136.693z M271.561,315.093c0,2-1.6,3.6-3.6,3.6h-230
			c-2,0-3.6-1.6-3.6-3.6v-148.8c0-2,1.6-3.6,3.6-3.6h60.4h25.6h46.8h90h6.8c2,0,3.6,1.6,3.6,3.6v46.8h-24.4v0
			c-10.8,0-19.2,8.8-19.2,19.2v22c0,10.8,8.8,19.2,19.2,19.2h24.8V315.093z M284.361,225.893h0.4v34.8h-0.4h-37.6
			c-3.6,0-6.4-2.8-6.4-6.4v-22c0-3.6,2.8-6.4,6.4-6.4H284.361z M295.561,78.693l-38.4,71.2h-79.2l60-110.8l54.4,29.6
			C296.361,70.293,297.561,75.093,295.561,78.693z"/>
	</g>
</g>
<g>
	<g>
		<path d="M271.161,72.693l-3.2-1.6c-8-4.4-18.8-1.2-23.2,6.8l-4,7.6c-2,4-2.8,8.8-1.2,13.2c1.2,4.4,4.4,8,8.4,10l3.2,1.6
			c2.4,1.2,5.2,2,8,2c6.4,0,12-3.6,15.2-8.8l4-7.6C282.361,87.493,279.161,77.093,271.161,72.693z M266.761,89.893l-4,7.6
			c-1.2,2-4,2.8-6,1.6l-3.2-2c-0.8-0.4-1.6-1.6-2-2.4c-0.4-1.2-0.4-2.4,0.4-3.2l4-7.6c0.8-1.2,2.4-2.4,4-2.4c0.8,0,1.2,0,2,0.4
			l3.2,1.6C266.761,85.093,267.561,87.493,266.761,89.893z"/>
	</g>
</g>
</symbol>
    <symbol id="about-call" viewBox="0 0 25 25"><path fill-rule="evenodd" d="M15.002 17.415s1.94-1.111 2.448-1.378c.506-.268 1.031-.335 1.349-.141.483.295 4.534 2.992 4.875 3.231.341.239.505.922.036 1.591-.467.669-2.622 3.316-3.535 3.287-.914-.03-4.717-.113-11.888-7.29C1.118 9.541 1.033 5.735 1.004 4.82c-.029-.915 2.615-3.071 3.284-3.539.67-.467 1.354-.292 1.591.037.27.375 2.934 4.415 3.227 4.878.201.317.128.845-.14 1.352-.267.508-1.377 2.449-1.377 2.449s.783 1.336 3.43 3.984c2.648 2.65 3.983 3.434 3.983 3.434z"/></symbol>
    <symbol id="about-details" viewBox="0 0 20 27"><path fill-rule="evenodd" d="M17.647 27H2.353A2.35 2.35 0 0 1 0 24.652V4.109a2.35 2.35 0 0 1 2.353-2.348h1.765a.587.587 0 1 1 0 1.174H2.353c-.649 0-1.177.526-1.177 1.174v20.543c0 .648.528 1.174 1.177 1.174h15.294c.649 0 1.177-.526 1.177-1.174V4.109c0-.648-.528-1.174-1.177-1.174h-1.765a.587.587 0 1 1 0-1.174h1.765A2.35 2.35 0 0 1 20 4.109v20.543A2.35 2.35 0 0 1 17.647 27zM16.471 4.696a.588.588 0 0 1-.589.587H4.118a.588.588 0 1 1 0-1.174s.661-.074 1.176-.587l1.177-1.174s.459-.587 1.176-.587h.588C8.235.788 9.026 0 10 0c.975 0 1.765.788 1.765 1.761h.588c.772 0 1.176.587 1.176.587l1.177 1.174a2.183 2.183 0 0 0 1.176.587c.326 0 .589.263.589.587zM10 1.174a.587.587 0 0 0-.588.587h1.176A.587.587 0 0 0 10 1.174zm3.155 2.348s-.4-.587-1.069-.587H7.915c-.671 0-1.07.587-1.07.587l-.534.587h7.379l-.535-.587z"/></symbol>
    <symbol id="about-email" viewBox="0 0 27 17"><path fill-rule="evenodd" d="M25.902 0H0v17h27V0h-1.098zm-1.08 1.063L14.391 11.324c-.476.468-1.306.468-1.782 0L2.177 1.063h22.645zM1.08 1.486l7.013 6.898-7.013 6.899V1.486zm.862 14.451l6.915-6.802 2.989 2.94a2.341 2.341 0 0 0 1.654.675c.625 0 1.213-.24 1.654-.675l2.989-2.94 6.915 6.802H1.942zm23.978-.654l-7.013-6.899 7.013-6.9v13.799z"/></symbol>
    <symbol id="about-partner" viewBox="0 0 33 30"><path fill-rule="evenodd" d="M32.814 29.761a.732.732 0 0 1-1.033.051l-8.63-7.774c-2.433 2.701-5.951 4.413-9.872 4.413C5.957 26.451 0 20.518 0 13.225 0 5.933 5.957 0 13.279 0 20.6 0 26.556 5.933 26.556 13.225c0 2.863-.928 5.51-2.486 7.677l8.693 7.831c.3.269.323.73.051 1.028zm-7.72-16.536c0-6.49-5.301-11.769-11.815-11.769-6.516 0-11.816 5.279-11.816 11.769s5.3 11.77 11.816 11.77c6.514 0 11.815-5.28 11.815-11.77zm-4.769 1.137a.728.728 0 0 1 .308-.711 3.713 3.713 0 0 0 1.597-3.068c0-2.032-1.604-3.684-3.576-3.684-1.971 0-3.575 1.652-3.575 3.684 0 1.235.597 2.383 1.596 3.069a.727.727 0 0 1-.203 1.295 7.389 7.389 0 0 0-2.959 1.708.732.732 0 0 1-1.034-.022.725.725 0 0 1 .021-1.029 8.74 8.74 0 0 1 2.385-1.61 5.194 5.194 0 0 1-1.269-3.411c0-2.834 2.26-5.14 5.038-5.14 2.779 0 5.039 2.306 5.039 5.14 0 1.272-.46 2.48-1.27 3.41a8.775 8.775 0 0 1 1.706 1.029c.32.246.378.703.131 1.021a.734.734 0 0 1-1.026.13 7.557 7.557 0 0 0-2.398-1.227.73.73 0 0 1-.511-.584zm-5.145 5.581a.726.726 0 0 1-.648 1.064.732.732 0 0 1-.649-.391c-.775-1.479-2.318-2.689-4.129-3.235a.727.727 0 0 1-.203-1.295 3.713 3.713 0 0 0 1.597-3.069c0-2.031-1.604-3.684-3.576-3.684s-3.576 1.653-3.576 3.684c0 1.236.597 2.383 1.597 3.068a.727.727 0 0 1-.203 1.296 7.619 7.619 0 0 0-1.523.649.734.734 0 0 1-.997-.274.726.726 0 0 1 .276-.992c.214-.121.433-.232.657-.335a5.195 5.195 0 0 1-1.269-3.412c0-2.834 2.26-5.14 5.038-5.14 2.778 0 5.039 2.306 5.039 5.14a5.195 5.195 0 0 1-1.27 3.412c1.671.769 3.061 2.028 3.839 3.514z"/></symbol>
    <symbol id="about-questions" viewBox="0 0 11 22"><path fill-rule="evenodd" d="M4.809 15.707v-.187c0-.866.069-1.518.207-1.956.139-.437.362-.855.67-1.253.308-.397.748-.837 1.319-1.319.5-.42.956-.81 1.367-1.172.41-.362.761-.737 1.051-1.125a4.77 4.77 0 0 0 .677-1.266c.16-.456.241-.987.241-1.594 0-1.536-.469-2.744-1.407-3.624C7.997 1.332 6.711.892 5.076.892c-.705 0-1.391.072-2.056.214-.665.143-1.489.429-2.471.858l.495 1.071c.715-.348 1.38-.6 1.996-.757a8.063 8.063 0 0 1 1.983-.234c1.214 0 2.194.335 2.94 1.005.746.669 1.119 1.571 1.119 2.705 0 .697-.139 1.313-.416 1.849-.277.536-.736 1.076-1.379 1.621l-1.219 1.058c-.902.795-1.521 1.541-1.856 2.237-.334.697-.502 1.594-.502 2.693v.495h1.099zm-.469 5.318c.732 0 1.098-.437 1.098-1.313 0-.875-.366-1.312-1.098-1.312-.715 0-1.072.437-1.072 1.312 0 .876.357 1.313 1.072 1.313z"/></symbol>
    <symbol id="bank" viewBox="0 0 46.982 40.997"><path d="M45.961 40.997H1.021A1.016 1.016 0 0 1 0 39.983c0-.56.456-1.013 1.021-1.013h44.94c.564 0 1.021.453 1.021 1.013 0 .561-.456 1.014-1.021 1.014zm-30.64-10.139c.565 0 1.021.454 1.021 1.014 0 .562-.456 1.014-1.021 1.014H7.149a1.016 1.016 0 0 1-1.021-1.014c0-.561.456-1.014 1.021-1.014h1.022V17.679H7.149a1.016 1.016 0 0 1-1.021-1.015c0-.559.456-1.014 1.021-1.014h8.171c.565 0 1.021.455 1.021 1.014 0 .562-.456 1.015-1.021 1.015h-1.021v13.179h1.022zm-3.065-13.179h-2.043v13.179h2.043V17.679zm15.321 13.179c.564 0 1.022.454 1.022 1.014 0 .562-.457 1.014-1.022 1.014h-8.171a1.016 1.016 0 0 1-1.021-1.014c0-.561.456-1.014 1.021-1.014h1.021V17.679h-1.021a1.016 1.016 0 0 1-1.021-1.015c0-.559.456-1.014 1.021-1.014h8.171c.564 0 1.022.455 1.022 1.014 0 .562-.457 1.015-1.022 1.015h-1.022v13.179h1.022zm-3.064-13.179H22.47v13.179h2.043V17.679zm19.405 18.249c0 .562-.456 1.013-1.021 1.013H4.085a1.015 1.015 0 0 1-1.021-1.013c0-.561.456-1.014 1.021-1.014h38.812c.565 0 1.021.454 1.021 1.014zm-4.085-5.07c.565 0 1.021.454 1.021 1.014 0 .562-.456 1.014-1.021 1.014h-8.171a1.018 1.018 0 0 1-1.022-1.014c0-.561.457-1.014 1.022-1.014h1.021V17.679h-1.021a1.018 1.018 0 0 1-1.022-1.015c0-.559.457-1.014 1.022-1.014h8.171c.565 0 1.021.455 1.021 1.014 0 .562-.456 1.015-1.021 1.015h-1.022v13.179h1.022zm-3.064-13.179h-2.043v13.179h2.043V17.679zM2.043 11.596L23.491 0 44.94 11.596v2.027H2.043v-2.027zm38.343 0l-16.895-8.67-16.958 8.67h33.853z"/></symbol>
    <symbol id="box" viewBox="0 0 24 27"><path d="M5.723 3.608L1.06 6.288l11.012 6.33 4.663-2.68-11.012-6.33zm17.289 2.721L12 0 7.77 2.432 18.781 8.76l4.231-2.431zm-9.989 8.094V27L24 20.691V8.115l-10.977 6.308zM0 20.691l10.977 6.308V14.341L0 8.033v12.658z"/></symbol>
    <symbol id="card" viewBox="0 0 27 16"><path d="M25.748 0H1.252C.561 0 0 .518 0 1.156v13.688C0 15.482.561 16 1.252 16h24.496c.691 0 1.252-.518 1.252-1.156V1.156C27 .518 26.439 0 25.748 0m-.603 14.163H1.854V8.214h23.29v5.949h.001zm0-10.847H1.854V1.837h23.29v1.479h.001zM7.73 10.118H3.868v1.021H7.73v-1.021zm5.774 0H8.469v1.021h5.035v-1.021zm.737 1.564H3.868v1.021h10.373v-1.021z"/></symbol>
    <symbol id="card2" viewBox="0 0 46.013 32.013"><path d="M42.012 32.013H4.001A4.001 4.001 0 0 1 0 28.012V4.001A4.002 4.002 0 0 1 4.001 0h38.011a4.002 4.002 0 0 1 4.001 4.001v24.01a4.001 4.001 0 0 1-4.001 4.002zM2 13.006h42.012V9.004H2v4.002zm42.013-9.005c0-1.104-.897-2-2-2H4.001a2.002 2.002 0 0 0-2.001 2v3.002h42.012V4.001zm0 11.005H2v13.006c0 1.104.896 2.001 2.001 2.001h38.011c1.103 0 2-.897 2-2.001V15.006zm-19.005 6.003h-4.001a1 1 0 1 1 0-2h4.001a1 1 0 0 1 0 2zm-9.003 0H7.002a1 1 0 1 1 0-2h9.003a1 1 0 1 1 0 2zm-9.003 3.002h6.002a1 1 0 1 1 0 2H7.002a1 1 0 1 1 0-2z"/></symbol><symbol id="cart" viewBox="0 0 15 16"><path d="M4.781 2l-.156-.657S4.281 0 2 0H1S0 0 0 .999L1 2h1.062c.844 0 .938.999.938.999l1.189 7.16s.19 1.817 1.906 1.817C8.416 11.978 13 12 13 12s1 0 1-1l-1-1s-5.592.021-6.211.021c-.625 0-.71-.685-.71-.685l-.123-.77L14 7s1-.265 1-2V2H4.781zm1.724 10.981c-.821 0-1.487.677-1.487 1.51S5.684 16 6.505 16c.822 0 1.489-.676 1.489-1.509s-.667-1.51-1.489-1.51zm5.991 0c-.832 0-1.506.677-1.506 1.51S11.664 16 12.496 16s1.506-.676 1.506-1.509-.674-1.51-1.506-1.51z"/></symbol><symbol id="cheap-buyer" viewBox="0 0 32 40"><path fill-rule="evenodd" d="M8.09 25.18c-.32-.45-.62-.85-.89-1.28-.97-1.56-1.47-3.25-1.47-5.09 0-3.04-.09-6.09.03-9.12.13-3.1 1.63-5.53 4.15-7.33C11.52 1.2 13.34.59 15.35.6c1.2 0 2.4-.03 3.6.01 3.16.09 5.64 1.48 7.53 3.94 1.23 1.59 1.9 3.41 1.9 5.44.02 3.02.03 6.05 0 9.08-.01 2.33-.9 4.36-2.4 6.13l-.24.27c-.02.02-.02.06-.05.13.2.11.41.21.62.32 2.82 1.45 4.59 3.72 5.31 6.79.28 1.22.12 2.41-.16 3.61-.2.87-.36 1.76-.54 2.64-.11.51-.44.74-.87.65-.39-.09-.56-.43-.46-.93a271 271 0 0 1 .75-3.71c.22-1.02.03-2.01-.29-2.97-1.06-3.12-3.24-5-6.52-5.6-.07-.01-.15-.04-.22-.05-.75-.14-.83-.11-1.25.55-1.57 2.43-3.13 4.87-4.7 7.3-.48.75-.94.77-1.46.06-1.85-2.54-3.69-5.08-5.52-7.63-.19-.26-.38-.34-.68-.32-3.18.23-6.15 2.36-7.2 5.69-.42 1.31-.46 2.61-.07 3.95.24.82.38 1.66.56 2.5.09.4-.11.73-.5.83-.39.09-.7-.09-.78-.44-.35-1.46-.8-2.92-.93-4.4-.12-1.43.33-2.83 1-4.12 1.28-2.44 3.22-4.1 5.86-4.96.14-.05.28-.11.45-.18zm18.97-10.63c0-.67.02-1.35-.01-2.03-.04-1.35 0-2.72-.2-4.04-.52-3.37-3.63-6.2-7.03-6.46-1.51-.11-3.03-.09-4.55-.09-1.39 0-2.71.33-3.92 1.02C8.44 4.6 7.1 7.16 7.07 10.44c-.02 2.76-.01 5.51 0 8.27.01 2.28.78 4.26 2.39 5.91.25.26.51.34.85.3.67-.09 1.18-.45 1.62-.93.77-.84 1.22-1.86 1.58-2.92.04-.11-.06-.33-.16-.43-.44-.44-.95-.82-1.33-1.29-1.86-2.29-2.39-4.92-1.89-7.76.34-1.89 1.37-3.2 3.34-3.61.71-.14 1.44-.22 2.16-.31 1.43-.17 2.85-.36 4.07-1.24.7-.51 1.6-.41 2.28.13.55.44.88 1.03 1.1 1.68.59 1.71.77 3.49.74 5.28-.04 3.01-1.15 5.5-3.64 7.31-.12.09-.2.34-.18.5.17.9.43 1.78.98 2.55.45.63 1.02 1.05 1.84 1.06.3.01.61.07.9.14.28.06.48-.01.69-.21 1.7-1.6 2.59-3.57 2.64-5.89.03-1.48.01-2.95.01-4.43zm-4.56-1.48c-.05-.61-.09-1.44-.2-2.26-.14-1.04-.37-2.07-.9-3-.29-.5-.55-.58-.99-.25-.9.69-1.93 1.05-3.03 1.24-1.12.18-2.26.27-3.38.45-1.21.18-2.17.72-2.44 2.01-.51 2.4-.33 4.72 1.06 6.81 2.21 3.32 6.59 3.21 8.69-.18.87-1.42 1.18-2.97 1.19-4.82zm-5.96 19.76c.1-.09.15-.12.19-.17 1.41-2.19 2.82-4.38 4.22-6.58.06-.09.01-.33-.08-.39-.93-.71-1.45-1.67-1.83-2.74-.15-.44-.27-.88-.41-1.34-.13.03-.24.04-.34.06-.98.23-1.96.26-2.91-.05-.48-.15-.62-.02-.78.39-.6 1.58-1.45 2.98-2.93 3.91-.02.01-.02.05-.04.12 1.62 2.24 3.26 4.51 4.91 6.79z"/></symbol><symbol id="cheap-factory" viewBox="0 0 40 39"><path fill-rule="evenodd" d="M29.27 8.01v3.52h-1.4c-.02-.08-.05-.17-.05-.26 0-1.06-.01-2.12 0-3.18a1.5 1.5 0 0 1 1.51-1.5c3.22-.01 6.44 0 9.65 0 .07 0 .14.02.24.03v1.39h-9.95zm-9.62 3.52h-1.46c0-.12-.02-.25-.02-.38V5.04c0-.97.68-1.63 1.65-1.63h10.86v1.41H19.65v6.71zM9.99 2.16c0 2.99-.01 5.98 0 8.97.01.32-.06.48-.43.45-.32-.03-.64-.01-1.03-.01V9.53c.01-2.54.01-5.09.01-7.64C8.54.87 9.16.25 10.2.25h10.41c.13 0 .27.01.42.02v1.37H9.99v.52zm3.22 12.3v5.85h1.76V14.6c0-1.03.65-1.67 1.7-1.67 1.51-.01 3.03.02 4.55-.01.82-.02 1.65.77 1.63 1.63-.06 1.91-.02 3.82-.02 5.77h1.77V14.55c0-.95.67-1.62 1.62-1.62 1.55-.01 3.1.02 4.64-.01.85-.02 1.64.79 1.62 1.6-.05 1.77-.02 3.55-.02 5.32v.5h4c.82.01 1.36.54 1.36 1.35v8.55c0 2.34-.04 4.68.01 7.02.02.81-.68 1.45-1.45 1.44-11.65-.02-23.31-.01-34.96-.01-.91 0-1.42-.5-1.42-1.39V21.76c0-.92.5-1.42 1.44-1.42h3.91v-5.9c0-.79.66-1.5 1.46-1.51 1.64-.02 3.27-.02 4.9 0 .83.01 1.49.71 1.5 1.53zm8.16-.05h-4.94v5.9h4.94v-5.9zm9.65 0h-4.94v5.9h4.94v-5.9zM1.43 21.79v15.46h34.93V21.79H1.43zm5.37-7.38v5.92h4.94v-5.92H6.8z"/></symbol><symbol id="cheap-profit" viewBox="0 0 42 46"><path fill-rule="evenodd" d="M41.93 37.6c0 4.63-3.79 8.4-8.44 8.4-4.15 0-7.6-3-8.3-6.94H.05v-1.43h2.54V16.05h-.55c-.95-.01-1.62-.68-1.62-1.62-.01-4.15.01-8.3-.03-12.45 0-.88.75-1.73 1.73-1.72 5.23.03 10.46.01 15.69.01 5.87 0 11.75.01 17.62.01 1.15 0 1.78.63 1.78 1.78V14.2c0 1.22-.6 1.83-1.81 1.85-.13 0-.25.01-.39.02v13.27c3.93.71 6.92 4.14 6.92 8.26zm-16.85-.56c.29-4.37 3.95-7.84 8.41-7.84V16.06h-8.41v20.98zM4.79 1.78H1.91v12.76h2.88V1.78zm4.39-.02H6.31v12.76h2.87V1.76zm4.45.02h-2.89v12.75h2.89V1.78zm4.39-.02h-2.85v12.76h2.85V1.76zm4.42.01h-2.86v12.77h2.86V1.77zm.67 14.26c-5.81.01-11.63.01-17.45.01H4.15v21.57h19.42v-.87c0-6.76 0-13.51.01-20.26 0-.37-.13-.45-.47-.45zm3.74-14.25h-2.89v12.74h2.89V1.78zm4.4-.02h-2.87v12.76h2.87V1.76zm4.43 12.77V1.77H32.8v12.76h2.88zm-2.19 16.26c-3.77 0-6.83 3.05-6.83 6.81 0 3.75 3.06 6.81 6.83 6.81s6.84-3.06 6.84-6.81c0-3.76-3.07-6.81-6.84-6.81zm2.47 10.14c-.53.47-1.22.73-2.08.76v1.03h-.71V41.7c-.61-.06-1.1-.18-1.48-.34-.39-.16-.71-.43-.99-.79-.28-.37-.44-.82-.48-1.35l1.22-.19c.09.55.26.95.5 1.21.34.36.75.56 1.23.6V37.6c-.5-.07-1.01-.24-1.54-.48-.38-.18-.68-.43-.89-.75-.21-.32-.31-.69-.31-1.09 0-.73.3-1.31.91-1.76.41-.3 1.02-.49 1.83-.55v-.49h.71v.49c.71.05 1.27.23 1.69.52.53.36.85.87.95 1.52l-1.25.15c-.07-.4-.22-.7-.45-.92-.23-.21-.54-.35-.94-.42v2.94c.62.12 1.02.22 1.22.3.38.14.69.3.92.5.24.2.43.44.55.72.13.27.2.57.2.89 0 .7-.27 1.29-.81 1.76zm-2.79-7.12c-.48.06-.85.22-1.12.48-.27.25-.41.56-.41.91 0 .34.12.63.35.87.23.23.62.42 1.18.56v-2.82zm2.02 4.54c-.22-.23-.65-.43-1.31-.61v3.1c.48-.05.87-.22 1.18-.51.3-.3.46-.66.46-1.09 0-.37-.11-.67-.33-.89z"/></symbol><symbol id="cheap-store" viewBox="0 0 38 40"><path fill-rule="evenodd" d="M.74 39.69v-1.44h2.53V16.5h-.55c-.94-.01-1.61-.68-1.61-1.64-.01-4.18.01-8.36-.02-12.54C1.08 1.43 1.82.58 2.8.59 7.99.62 13.19.6 18.38.6c5.84 0 11.67 0 17.51.01 1.14 0 1.76.63 1.76 1.79v12.24c0 1.22-.6 1.83-1.79 1.86-.13 0-.25.01-.39.02v21.72h2.5v1.45H.74zm23.37-1.47v-.88c0-6.8-.01-13.6.01-20.41 0-.38-.13-.45-.47-.45-5.78.01-11.56.01-17.33.01H4.81v21.73h19.3zm1.5-21.71v21.7h8.35v-21.7h-8.35zm-11.38-1.54V2.12h-2.87v12.85h2.87zm-8.78.01V2.12H2.59v12.86h2.86zM6.97 2.1v12.86h2.84V2.1H6.97zm8.79.01v12.85h2.83V2.11h-2.83zm7.22 12.86V2.11h-2.84v12.86h2.84zm1.51-.01h2.88V2.12h-2.88v12.84zM28.88 2.1v12.85h2.85V2.1h-2.85zm4.4.01v12.86h2.86V2.11h-2.86z"/></symbol><symbol id="cheap-wholesale" viewBox="0 0 41 40"><path fill-rule="evenodd" d="M38.04 16.05v3.92c0 6.1-.01 12.2.02 18.31 0 .69-.65 1.41-1.43 1.41-10.94-.02-21.88-.01-32.83-.01-.83 0-1.38-.54-1.38-1.4V16.46c0-.13-.01-.25-.03-.41h-.73C.87 16.03.3 15.47.3 14.67c-.01-1.49-.01-2.99 0-4.49 0-.59.28-1.01.81-1.26C7.1 6.21 13.08 3.51 19.06.79c.46-.2.88-.19 1.33.01C26.69 3.5 33 6.19 39.31 8.89c.58.25.87.69.87 1.34-.01 1.48 0 2.97 0 4.45 0 .79-.57 1.36-1.37 1.37h-.77zm-1.43-1.5h2.14c0-1.41.01-2.76-.01-4.12 0-.11-.17-.27-.3-.32-6.13-2.64-12.27-5.27-18.42-7.88-.17-.07-.42-.08-.58 0-5.8 2.61-11.59 5.24-17.39 7.85-.25.12-.32.26-.31.51.01.7 0 1.4 0 2.1v1.9h2.15v23.62H6.7v-19.3h27.06v19.3h2.85V14.55zM32.3 38.22V20.38H8.16v17.83h1.76V25.36h7.83v4.28h6.41v4.32h6.42v4.26h1.72zM11.37 35.4v2.82h4.92V35.4h-4.92zm11.31 2.83v-2.82h-4.9v2.82h4.9zm-6.4-4.32v-2.79h-4.91v2.79h4.91zm1.47-2.79c0 .88 0 1.73.01 2.58.01.08.17.22.26.22 1.48.01 2.97.01 4.46 0 .08 0 .23-.12.23-.2.02-.86.01-1.72.01-2.6h-4.97zm11.35 4.29h-4.91v2.81h4.91v-2.81zm-12.8-8.59h-4.93v2.75h4.93v-2.75z"/></symbol><symbol id="check" viewBox="0 0 7.116 6.592"><path fill-rule="evenodd" clip-rule="evenodd" d="M.53 3.469l2 2 4-5"/></symbol><symbol id="check2" viewBox="0 0 25 21"><path d="M24.356 0C16.751 4.539 11.233 10.266 8.753 13.139L2.682 8.508 0 10.613 10.492 21C12.298 16.498 18.017 7.698 25 1.445L24.356 0z"/></symbol><symbol id="check3" viewBox="0 0 38 26"><path fill-rule="evenodd" d="M1.08 12.18L13.3 24.4 36.8.9"/></symbol><symbol id="cross" viewBox="0 0 8.484 8.484"><path fill-rule="evenodd" clip-rule="evenodd" d="M8.484 1.414L7.07 0 4.242 2.828 1.414 0 0 1.414l2.828 2.828L0 7.07l1.414 1.414 2.828-2.828L7.07 8.484 8.484 7.07 5.656 4.242z"/></symbol><symbol id="cross2" viewBox="0 0 10.607 10.607"><path fill-rule="evenodd" clip-rule="evenodd" d="M10.607 10.607L0 0m0 10.607L10.607 0"/></symbol><symbol id="darr" viewBox="0 0 7.061 4.591"><path fill-rule="evenodd" clip-rule="evenodd" d="M.53.53l3 3 3-3"/></symbol><symbol id="darr2" viewBox="0 0 12 6.971"><path d="M1.26.268l4.6 4.684c.081.08.211.08.291 0l4.6-4.684.08-.09A.65.65 0 0 1 11.28 0a.726.726 0 0 1 .54 1.203l-.08.089-5.461 5.56a.4.4 0 0 1-.569 0L.25 1.292l-.07-.098A.679.679 0 0 1 0 .736C0 .328.321 0 .721 0c.18 0 .329.069.459.179l.08.089z"/></symbol><symbol id="delete" viewBox="0 0 11 11"><g fill-rule="evenodd"><path d="M5.5 0a5.5 5.5 0 1 1 0 11 5.5 5.5 0 1 1 0-11z"/><path d="M7.164 3.004l.832.832-4.16 4.16-.832-.832 4.16-4.16z"/><path d="M7.996 7.164l-.832.832-4.16-4.16.832-.832 4.16 4.16z"/></g></symbol><symbol id="delivery-back" viewBox="0 0 27 20"><path fill-rule="evenodd" d="M11.87 2.041v4.328l1.069.01c7.423.07 11.604 3.298 12.693 9.839-4.078-4.611-8.78-4.613-12.682-4.614h-1.08v4.291L1.867 8.967 11.87 2.041M12.949 0L0 8.967l12.949 8.967v-5.275c5.183.002 9.988.257 14.051 7.341 0-4.499-.76-14.55-14.051-14.676V0z"/></symbol><symbol id="delivery-exchange" viewBox="0 0 23 34"><path d="M12.889 32.265v-3.679l-.91-.009c-6.323-.06-9.885-2.803-10.813-8.363 3.474 3.919 7.479 3.921 10.804 3.922h.92V20.49l8.521 5.888-8.522 5.887M11.969 34L23 26.378l-11.031-7.622v4.484C7.554 23.239 3.461 23.021 0 17c0 3.824.648 12.368 11.969 12.475V34zM10.112 1.734v3.679l.91.009c6.323.06 9.885 2.803 10.813 8.363-3.474-3.919-7.479-3.921-10.804-3.922h-.919v3.646L1.59 7.622l8.522-5.888M11.031 0L0 7.622l11.031 7.622V10.76c4.415.002 8.508.219 11.969 6.24 0-3.824-.648-12.367-11.969-12.475V0z"/></symbol><symbol id="delivery-lift" viewBox="0 0 26 22"><path fill-rule="evenodd" d="M21.317 2.458v4.837h-4.749V12.2h-4.74v4.879h-4.76V22H0v-2.48h4.733v-4.909h4.702V9.669h4.777V4.818h4.744V0H26v2.458h-4.683zM19.176 16.14h-2.145c-1.198 0-1.153-1.807 0-1.807h4.185c.604 0 1.02.427 1.02 1.059v4.239c-.002 1.22-1.791 1.175-1.785 0v-2.164l-4.019 4.108c-.961.979-2.241-.355-1.336-1.277l4.08-4.158z"/></symbol><symbol id="delivery-legal" viewBox="0 0 24 21"><path fill-rule="evenodd" d="M24 14.501a.5.5 0 0 1-.503.499h-18a.498.498 0 0 1-.494-.499V12.5c0-.274.222-.5.494-.5h18c.28 0 .503.226.503.5v2.001zM3 12.5c0-.274-.223-.5-.503-.5H.503a.501.501 0 0 0-.503.5v2.001A.5.5 0 0 0 .503 15h1.994A.5.5 0 0 0 3 14.501V12.5zm21 6c0-.274-.223-.5-.503-.5h-18a.499.499 0 0 0-.494.5v2.001c0 .274.222.499.494.499h18a.5.5 0 0 0 .503-.499V18.5zm-21 0c0-.274-.223-.5-.503-.5H.503a.501.501 0 0 0-.503.5v2.001A.5.5 0 0 0 .503 21h1.994A.5.5 0 0 0 3 20.501V18.5zm21-12c0-.274-.223-.5-.503-.5h-18a.499.499 0 0 0-.494.5v2.001c0 .274.222.499.494.499h18A.5.5 0 0 0 24 8.501V6.5zm-21 0c0-.274-.223-.5-.503-.5H.503A.501.501 0 0 0 0 6.5v2.001A.5.5 0 0 0 .503 9h1.994A.5.5 0 0 0 3 8.501V6.5zm21-6c0-.274-.223-.5-.503-.5h-18a.499.499 0 0 0-.494.5v2.001c0 .274.222.499.494.499h18A.5.5 0 0 0 24 2.501V.5zM3 .5c0-.274-.223-.5-.503-.5H.503A.501.501 0 0 0 0 .5v2.001A.5.5 0 0 0 .503 3h1.994A.5.5 0 0 0 3 2.501V.5z"/></symbol><symbol id="delivery-pack" viewBox="0 0 26 24"><path fill-rule="evenodd" d="M24.917 6.4V24H1.083V6.4H0V0h26v6.4h-1.083zM2.167 22.933h21.666V6.4H2.167v16.533zm22.75-21.866H1.083v4.266h23.834V1.067zm-7.854 11.199H8.936c-1.045 0-1.895-.837-1.895-1.866 0-1.029.85-1.867 1.895-1.867h8.127c1.046 0 1.896.838 1.896 1.867s-.85 1.866-1.896 1.866zm0-2.666H8.936a.807.807 0 0 0-.812.8c0 .441.364.8.812.8h8.127a.807.807 0 0 0 .813-.8c0-.441-.364-.8-.813-.8z"/></symbol><symbol id="delivery-time" viewBox="0 0 21 21"><path fill-rule="evenodd" d="M10.5 21C4.701 21 0 16.299 0 10.5S4.701 0 10.5 0 21 4.701 21 10.5 16.299 21 10.5 21zm0-19.091A8.59 8.59 0 0 0 1.909 10.5a8.59 8.59 0 0 0 8.591 8.591 8.59 8.59 0 0 0 8.591-8.591A8.59 8.59 0 0 0 10.5 1.909zm2.025 11.967l-2.699-2.7a.932.932 0 0 1-.12-.146c-.015-.023-.025-.047-.038-.071-.017-.031-.036-.061-.05-.094-.012-.03-.02-.062-.029-.094-.008-.029-.019-.055-.025-.084a.918.918 0 0 1-.018-.181l-.001-.006V4.773a.956.956 0 0 1 1.91 0v5.332l2.42 2.421a.954.954 0 1 1-1.35 1.35z"/></symbol><symbol id="delivery-week" viewBox="0 0 22.583 29.418"><path d="M5.654 27.251h-.803v-4.73H1.529a19.879 19.879 0 0 1-.126 2.007c-.07.561-.15 1.03-.242 1.408a5.105 5.105 0 0 1-.281.88 2.757 2.757 0 0 1-.231.435H0v2.167h.594l.165-1.397h4.136l.165 1.397h.594v-2.167zm-4.125 0c.125-.235.235-.513.33-.836a9.04 9.04 0 0 0 .236-1.029c.062-.363.112-.726.149-1.089.037-.363.062-.698.077-1.006h1.65v3.96H1.529zm8.58.77h.88v-5.5h-.88v2.299H7.623v-2.299h-.88v5.5h.88V25.59h2.486v2.431zm6.259-1.078c-.125.117-.312.22-.561.308a2.24 2.24 0 0 1-.748.132c-.323 0-.596-.045-.82-.137s-.405-.224-.544-.396a1.674 1.674 0 0 1-.308-.632 3.361 3.361 0 0 1-.099-.858h3.531c.044-.293.066-.561.066-.803 0-.462-.062-.834-.187-1.117s-.286-.5-.484-.655a1.663 1.663 0 0 0-.671-.313 3.47 3.47 0 0 0-.748-.082c-.777 0-1.375.246-1.793.737-.418.491-.627 1.207-.627 2.145 0 .44.048.836.143 1.188.095.352.242.654.44.907s.451.448.759.583c.308.136.671.204 1.089.204.374 0 .728-.051 1.062-.154.333-.103.61-.242.83-.418l-.33-.639zm-.66-3.448c.213.224.319.614.319 1.171h-2.728c.051-.55.207-.939.468-1.166.26-.227.607-.341 1.04-.341.388 0 .688.112.901.336zm5.995 4.526h.88v-5.5h-.517l-2.475 3.322-.429.682h-.044l.033-.649v-3.355h-.88v5.5h.506l2.475-3.234.451-.704h.033l-.033.682v3.256zm-2.915-7.458a1.417 1.417 0 0 0 .616.968c.154.103.328.18.522.231s.391.077.589.077c.433 0 .805-.114 1.116-.341.312-.228.5-.554.566-.979l-.66-.209c-.066.315-.191.542-.374.682s-.392.209-.627.209-.442-.066-.622-.198-.306-.367-.379-.704l-.747.264zm-7.154-4.144L18.417.82V0H7.793v1.078h9.288L10.32 16.419h1.314z"/></symbol><symbol id="delivery2" viewBox="126.907 3.602 588.075 591.679"><path d="M272.124 483.666c20.463 0 37.205 16.742 37.205 37.205s-16.742 37.205-37.205 37.205c-20.462 0-37.204-16.742-37.204-37.205s16.742-37.205 37.204-37.205m0-37.205c-40.925 0-74.409 33.484-74.409 74.41 0 40.925 33.484 74.41 74.409 74.41 40.926 0 74.41-33.485 74.41-74.41 0-40.926-33.484-74.41-74.41-74.41zm297.641 37.205c20.463 0 37.205 16.742 37.205 37.205s-16.742 37.205-37.205 37.205-37.205-16.742-37.205-37.205 16.742-37.205 37.205-37.205m0-37.205c-40.926 0-74.41 33.484-74.41 74.41 0 40.925 33.484 74.41 74.41 74.41 40.925 0 74.41-33.485 74.41-74.41 0-40.926-33.485-74.41-74.41-74.41z"/><path d="M216.318 535.871h-89.411V3.602h327.64v331.243h-30V33.602h-267.64v472.269h59.411z"/><path d="M714.983 535.871h-70.808v-30h40.808V337.734L615.417 163.82h-160.87v357.051h-30V133.82h211.181l79.255 198.137z"/><path d="M439.547 319.845h260.436v30H439.547zM327.932 505.871h186.025v30H327.932zm316.243-111.615h55.808v30h-55.808zm-502.268-18.603h297.64v30h-297.64z"/></symbol><symbol id="download" viewBox="0 0 80.961 69.007"><path d="M38.981 63.071l-9.745-9.646-2.249 2.226L40.48 69.007 53.974 55.65l-2.249-2.226-9.745 9.646V29.68h-2.999v33.391zm-2.998-15.582H15.001c-6.611 0-12.003-5.316-12.003-11.872 0-5.625 3.972-10.353 9.298-11.569a17.808 17.808 0 0 1-.302-3.271c0-9.835 8.055-17.808 17.991-17.808 7.842 0 14.513 4.967 16.976 11.896a13.522 13.522 0 0 1 8.512-2.992c7.071 0 12.873 5.385 13.447 12.237 5.188 1.306 9.043 5.963 9.043 11.507 0 6.543-5.374 11.872-12.003 11.872H44.978v2.968H65.97c8.279 0 14.991-6.661 14.991-14.84 0-6.222-3.858-11.55-9.347-13.755-1.568-7.4-8.199-12.957-16.141-12.957-2.587 0-5.036.59-7.215 1.641A21.017 21.017 0 0 0 29.986 0C18.393 0 8.996 9.302 8.996 20.776c0 .41.012.817.036 1.221C3.717 24.283 0 29.529 0 35.616c0 8.196 6.694 14.84 14.991 14.84h20.991v-2.967h.001z"/></symbol><symbol id="guarantee" viewBox="0 0 19 30"><path d="M17.697 9.752L19 7.582l-2.113-1.391.231-2.519-2.507-.334-.884-2.374-2.401.789L9.5 0 7.677 1.754 5.272.965 4.39 3.339l-2.508.334.234 2.519L0 7.582l1.304 2.17L0 11.92l2.116 1.389-.234 2.522 2.508.332.883 2.371 2.405-.786L9.5 19.502l1.826-1.754 2.402.786.883-2.371 2.507-.332-.231-2.522L19 11.92l-1.303-2.168zm-5.921 9.973l-1.071 1.032L9.5 21.916l-1.206-1.159-1.07-1.032-1.412.465-1.421.465V30l5.016-3.154L14.609 30v-9.344l-1.422-.467-1.411-.464z"/></symbol><symbol id="help" viewBox="0 0 17 17"><path d="M10.292 5.182c-.446-.358-1.06-.786-1.811-.786-.71 0-1.271.415-1.702.748-.431.334-.691.813-.779 1.44l.973.101c.084-.468.259-.812.528-1.031.269-.221.604-.446 1.007-.446.417 0 .768.236 1.055.479.287.244.43.525.43.846 0 .178-.05.341-.147.491-.099.15-.311.351-.638.603s-.555.443-.681.576c-.171.18-.293.358-.37.536-.105.236-.157.22-.157.545l.004.247h.909c.007-.33.032-.273.078-.42.046-.147.116-.277.21-.392.094-.111.296-.287.605-.525.457-.354.766-.655.922-.904.158-.247.235-.518.235-.812.001-.507-.223-.939-.671-1.296zM7.84 12h1.29v-1.271H7.84V12zM8.5 0a8.501 8.501 0 0 0 0 17 8.501 8.501 0 0 0 0-17zm0 16A7.499 7.499 0 0 1 1 8.5C1 4.358 4.357 1 8.5 1S16 4.358 16 8.5c0 4.143-3.357 7.5-7.5 7.5z"/></symbol><symbol id="larr" viewBox="0 0 15 30"><path fill-rule="evenodd" clip-rule="evenodd" d="M15 0L0 15l15 15"/></symbol><symbol id="larr2" viewBox="0 0 7 12"><path fill-rule="evenodd" d="M6.76 10.74l-4.69-4.6a.205.205 0 0 1 0-.29l4.69-4.6.09-.08c.1-.12.18-.27.18-.45A.728.728 0 0 0 5.82.18l-.09.08L.17 5.72c-.16.16-.16.41 0 .57l5.56 5.46.1.07c.12.11.28.18.46.18.41 0 .74-.32.74-.72 0-.18-.08-.33-.18-.46l-.09-.08z"/></symbol><symbol id="lock" viewBox="0 0 13 17"><path d="M11.143 6.926V4.721C11.143 2.114 9.059 0 6.5 0 3.936 0 1.857 2.113 1.857 4.721v2.205C.831 6.929 0 7.769 0 8.821v6.283C0 16.151.833 17 1.862 17h9.275C12.166 17 13 16.158 13 15.104V8.821c0-1.046-.83-1.892-1.857-1.895zm-4.205 4.961V14.2a.443.443 0 0 1-.438.438.442.442 0 0 1-.438-.438v-2.313a1.338 1.338 0 0 1-.877-1.262c0-.739.589-1.338 1.315-1.338s1.315.599 1.315 1.338c0 .582-.366 1.078-.877 1.262zm2.347-4.961H3.714V4.723c0-1.569 1.247-2.834 2.786-2.834 1.535 0 2.785 1.269 2.785 2.834v2.203z"/></symbol><symbol id="logo.short" viewBox="0 0 105 18"><path id="logo_копия" data-name="logo копия" class="cls-1" d="M1432.4 26.807c0 .792.03 1.549 0 2.3a20.765 20.765 0 0 1-.94 6.063 5.039 5.039 0 0 1-1.28 2.135 3.2 3.2 0 0 1-2.79.838.637.637 0 0 1-.66-.772 10.067 10.067 0 0 1 0-1.1.422.422 0 0 1 .49-.5.639.639 0 0 1 .14 0 1.469 1.469 0 0 0 1.65-1.092 11.431 11.431 0 0 0 .71-2.767 55.666 55.666 0 0 0 .36-6.707V25c.03-.545.11-.645.64-.647q3.66-.012 7.33 0c.5 0 .62.154.65.656.01.114 0 .229 0 .343V36.9c0 .16.01.322 0 .481a.562.562 0 0 1-.65.606c-.38.01-.76.014-1.14 0a.54.54 0 0 1-.6-.639c-.01-.16 0-.32 0-.481V26.846a20.37 20.37 0 0 0-3.91-.039zm-14.68 4.31c.95 1.425 1.87 2.8 2.79 4.178.42.641.86 1.278 1.28 1.925a.674.674 0 0 1 .19.721 4.17 4.17 0 0 1-.42.043 9.867 9.867 0 0 0-1.2.012 1.671 1.671 0 0 1-1.76-.957c-1.01-1.564-2.07-3.089-3.11-4.631h-1.79a5.392 5.392 0 0 0-.04.544v4.19c-.01.728-.12.837-.82.843-.33 0-.67.014-1.01 0a.528.528 0 0 1-.57-.6c-.01-.137-.01-.275-.01-.412V25.088c.02-.626.1-.72.7-.735.38-.009.76-.014 1.14.006a.491.491 0 0 1 .56.537 3.842 3.842 0 0 1 .01.48v4.6c.54 0 1.05.038 1.56-.006a.772.772 0 0 0 .42-.376c.74-1.193 1.47-2.4 2.2-3.6.21-.349.44-.689.64-1.042a1.091 1.091 0 0 1 1.05-.606c.71.028 1.42-.036 2.22.051a13.941 13.941 0 0 1-1.28 2.274c-.44.746-.91 1.469-1.36 2.2s-.91 1.467-1.39 2.246zm35.61 4.509h-5.93c-.25.53-.52 1.054-.74 1.594a1.08 1.08 0 0 1-1.19.774c-.38-.037-.76 0-1.14-.009-.5-.017-.59-.171-.38-.64.74-1.585 1.49-3.165 2.23-4.747 1.14-2.425 2.27-4.851 3.41-7.274a4.229 4.229 0 0 1 .44-.764.4.4 0 0 1 .72.034 4.22 4.22 0 0 1 .33.6l5.58 11.9a.622.622 0 0 1 .05.123c.28.64.21.766-.46.774-.38 0-.76-.014-1.14 0a.915.915 0 0 1-.95-.6l-.83-1.765zm-4.86-2.358c1.31.005 2.52 0 3.79 0-.64-1.383-1.25-2.715-1.9-4.124-.64 1.4-1.24 2.709-1.89 4.124zm-48.85-9.35a6.506 6.506 0 0 1 4.58 1.794 2.171 2.171 0 0 1 .28.3.41.41 0 0 1-.05.608c-.37.293-.75.573-1.14.835a.73.73 0 0 1-.77 0 4.623 4.623 0 0 1-.46-.28 4.9 4.9 0 0 0-5.53.308 3.925 3.925 0 0 0-1.32 1.943 5.27 5.27 0 0 0 .16 3.808 4.124 4.124 0 0 0 3.67 2.564c.13.013.27.006.4.016a3.978 3.978 0 0 0 2.78-.773.993.993 0 0 1 1.39.019c.24.206.51.374.75.581a.445.445 0 0 1 .05.754 6.537 6.537 0 0 1-.98.83 6.713 6.713 0 0 1-4.59 1.091 7.42 7.42 0 0 1-2.87-.836 6.466 6.466 0 0 1-3.24-4.32 7.666 7.666 0 0 1 .71-5.82 6.46 6.46 0 0 1 4.52-3.221c.54-.114 1.1-.137 1.66-.201zm-21.36.715l4.97 4.1V36h-9.94v-7.268l4.97-4.1m0-2.625a1.342 1.342 0 0 0-.84.3l-5.92 4.893a1.365 1.365 0 0 0-.5 1.065v8.718a1.354 1.354 0 0 0 1.34 1.368h11.85a1.354 1.354 0 0 0 1.34-1.368v-8.718a1.4 1.4 0 0 0-.5-1.065l-5.93-4.892a1.3 1.3 0 0 0-.84-.3zM1463.49 40c-.01-.636-.01-1.273-.01-1.9.5-.132 9.07-.169 10.11-.042V40h2.41v-4.209a1.708 1.708 0 0 0-1.01-.249 4.653 4.653 0 0 1-1.27-.05V25.355c0-.183 0-.366-.01-.549a.416.416 0 0 0-.42-.439c-.11-.01-.22-.014-.33-.014h-7.45c-.7 0-.78.094-.79.785-.05 1.6-.08 3.2-.14 4.8a16.076 16.076 0 0 1-.57 3.778 9.831 9.831 0 0 1-.6 1.439.6.6 0 0 1-.65.381 9.53 9.53 0 0 0-1 0 .574.574 0 0 0-.67.715c-.01 1.25 0 2.5-.01 3.749h2.41zm3.66-13.222h4.14V35.5h-5.26a29.639 29.639 0 0 0 1.12-8.723zm-77.93 11.574a1.157 1.157 0 0 1-1.14-1.173 1.157 1.157 0 0 1 1.14-1.179 1.159 1.159 0 0 1 1.15 1.173 1.159 1.159 0 0 1-1.15 1.178z" transform="translate(-1371 -22)"/></symbol><symbol id="logo" viewBox="0 0 123 44"><path id="logo" class="cls-1" d="M157 95.907a1.281 1.281 0 0 1-.951.328c-.375-.033-.755 0-1.132-.01a.688.688 0 0 1-.814-.835c-.013-.755 0-1.51 0-2.265v-3.378a77 77 0 0 0-8.075-.053c-.016.193-.048.4-.048.6v4.934c0 .86-.133.988-.98 1-.4 0-.81.016-1.213 0a.641.641 0 0 1-.7-.7c-.013-.161 0-.323 0-.485V81.292a1.162 1.162 0 0 1 .284-1.059 11.25 11.25 0 0 1 2.252-.021 1.043 1.043 0 0 1 .36 1v5.482a75.369 75.369 0 0 0 8.072.058c.018-.192.051-.4.052-.6 0-1.645 0-3.289.008-4.934a7.937 7.937 0 0 1 .131-.981 6.336 6.336 0 0 1 2.764.136v15.54zM60.726 80.184a1.121 1.121 0 0 1 .369 1.05v8.911c.3-.287.5-.466.683-.656l7.893-8.019c.359-.363.757-.688 1.144-1.022a1.057 1.057 0 0 1 1.208-.147 5.776 5.776 0 0 1 .091.741q.009 7.121 0 14.243c0 .783-.159.929-.957.938-.405 0-.81.014-1.215 0a.642.642 0 0 1-.72-.684c-.016-.187 0-.377 0-.566V86.3c-.293.277-.491.455-.679.642l-8.3 8.3a5.639 5.639 0 0 1-.778.7 1.76 1.76 0 0 1-.738.265.439.439 0 0 1-.527-.47c-.008-.161-.005-.323-.005-.485v-14a5.1 5.1 0 0 1 .011-.566.506.506 0 0 1 .527-.506c.698-.003 1.394.004 1.993.004zm70.4 6.161a7.288 7.288 0 0 1-.5.631q-4.114 4.129-8.238 8.247a5.951 5.951 0 0 1-.842.753 1.686 1.686 0 0 1-.745.236.418.418 0 0 1-.474-.437c-.015-.188-.008-.377-.008-.566V81.127c.01-.847.1-.944.912-.958.458-.008.917 0 1.376.008a1.744 1.744 0 0 1 .292.052 1.111 1.111 0 0 1 .318 1.055v8.855c.281-.264.477-.437.66-.623l7.894-8.018a12.123 12.123 0 0 1 1.211-1.068 1.365 1.365 0 0 1 .665-.242.479.479 0 0 1 .587.5 3.4 3.4 0 0 1 .006.4v14.081a3.633 3.633 0 0 1 0 .4.616.616 0 0 1-.6.635 19.67 19.67 0 0 1-1.7 0 .591.591 0 0 1-.581-.568 4.8 4.8 0 0 1-.022-.636v-8.569zm-47.084 3.1a6.037 6.037 0 0 1-.032-2.57c.265-.023.5-.06.734-.062.864-.007 1.727.009 2.591-.008.456-.009.912-.064 1.367-.106a1.388 1.388 0 0 0 1.382-.926 1.853 1.853 0 0 0-.375-2.031 3.433 3.433 0 0 0-1.207-.768 6.025 6.025 0 0 0-6.242 1.215c-.754.7-.846.719-1.754.211-.348-.195-.686-.409-.963-.575a1.024 1.024 0 0 1 .169-1.068 6.139 6.139 0 0 1 2.538-2.069 9.834 9.834 0 0 1 7.986-.3 4.717 4.717 0 0 1 3.063 3.2 4.112 4.112 0 0 1-1.12 4.476 10.263 10.263 0 0 1 .86 1.262 4.56 4.56 0 0 1-1.851 6.138 8.43 8.43 0 0 1-3.588 1.1 10.182 10.182 0 0 1-3.913-.326 9.576 9.576 0 0 1-4.072-2.523.711.711 0 0 1 .048-1.226c.28-.252.566-.5.87-.724a.824.824 0 0 1 1.173-.015c.439.311.846.668 1.292.968a6.127 6.127 0 0 0 4.536.978 4.806 4.806 0 0 0 1.691-.482 1.917 1.917 0 0 0 .942-2.278 1.565 1.565 0 0 0-1.475-1.362 8.132 8.132 0 0 0-1.362-.123c-1.076-.016-2.151-.004-3.291-.004zm29.983 6.776c-.722 0-1.472.018-2.222-.006a1.041 1.041 0 0 1-.895-.716c-.32-.677-.645-1.353-.977-2.045h-7.161c-.3.613-.609 1.2-.867 1.819a1.327 1.327 0 0 1-1.483.962c-.455-.046-.918.006-1.375-.016a3.4 3.4 0 0 1-.647-.175c.124-.314.2-.538.3-.748q3.364-7.007 6.735-14.01a4.653 4.653 0 0 1 .536-.9.475.475 0 0 1 .816.019 3.385 3.385 0 0 1 .367.623q3.421 7.114 6.831 14.233a.78.78 0 0 1 .039.962zm-7.647-10.342a28.546 28.546 0 0 0-2.161 4.765h4.407c-.754-1.591-1.492-3.159-2.249-4.763zm-21.442 19.583c0 .933.034 1.825-.007 2.712a24.191 24.191 0 0 1-1.13 7.141 5.845 5.845 0 0 1-1.549 2.515 3.919 3.919 0 0 1-3.36.987.759.759 0 0 1-.8-.909 11.833 11.833 0 0 1 .005-1.294.5.5 0 0 1 .6-.591.729.729 0 0 1 .162 0 1.757 1.757 0 0 0 1.985-1.286 12.887 12.887 0 0 0 .862-3.259 64.544 64.544 0 0 0 .432-7.9v-.243c.036-.641.131-.759.775-.761q4.413-.015 8.825 0a.651.651 0 0 1 .791.773c.008.135 0 .27 0 .405v13.594a5.4 5.4 0 0 1-.007.565.663.663 0 0 1-.778.714c-.458.012-.918.017-1.376 0a.644.644 0 0 1-.727-.753c-.009-.188 0-.377 0-.566v-11.8a25.09 25.09 0 0 0-4.703-.044zm-17.7 5.077l3.356 4.92c.516.755 1.039 1.5 1.544 2.268a.768.768 0 0 1 .235.849c-.15.016-.327.049-.5.051a12.168 12.168 0 0 0-1.455.015 2.029 2.029 0 0 1-2.12-1.128c-1.209-1.841-2.488-3.638-3.74-5.454h-2.167c-.018.23-.049.436-.049.641v4.935c0 .858-.135.986-.982.994-.4 0-.81.016-1.214 0a.642.642 0 0 1-.7-.707c-.012-.161 0-.323 0-.485v-13.995c.017-.737.119-.848.839-.866.458-.011.918-.015 1.376.007a.589.589 0 0 1 .677.632 4.963 4.963 0 0 1 .007.566v5.418c.66.005 1.273.044 1.879-.008a.91.91 0 0 0 .507-.442c.9-1.406 1.771-2.824 2.655-4.238.257-.41.528-.811.776-1.227a1.312 1.312 0 0 1 1.259-.713c.856.032 1.716-.043 2.683.06a16.225 16.225 0 0 1-1.552 2.678c-.52.878-1.087 1.729-1.634 2.593zm42.925 5.31h-7.155c-.3.624-.616 1.242-.891 1.877a1.3 1.3 0 0 1-1.435.912c-.455-.043-.917 0-1.376-.011-.6-.019-.71-.2-.447-.754.888-1.866 1.788-3.727 2.682-5.591q2.056-4.284 4.115-8.567a4.871 4.871 0 0 1 .528-.9.49.49 0 0 1 .867.041 4.411 4.411 0 0 1 .394.7q3.366 7.005 6.726 14.015l.069.145c.336.754.248.9-.556.912-.458.006-.918-.017-1.376.006a1.114 1.114 0 0 1-1.152-.708c-.319-.677-.646-1.353-.992-2.077zm-5.864-2.777c1.579.006 3.041 0 4.575 0l-2.293-4.857c-.772 1.649-1.497 3.19-2.279 4.857zM43.913 102.06a7.957 7.957 0 0 1 5.528 2.113 2.65 2.65 0 0 1 .336.348.472.472 0 0 1-.063.716 21.8 21.8 0 0 1-1.378.983.889.889 0 0 1-.924 0 5.661 5.661 0 0 1-.552-.329 6.032 6.032 0 0 0-6.67.362 4.676 4.676 0 0 0-1.59 2.289 6.126 6.126 0 0 0 .2 4.485 4.969 4.969 0 0 0 4.419 3.02c.161.015.324.007.485.019a4.887 4.887 0 0 0 3.353-.91 1.221 1.221 0 0 1 1.679.022c.288.242.612.441.9.684a.52.52 0 0 1 .061.889 7.67 7.67 0 0 1-1.179.977 8.246 8.246 0 0 1-5.535 1.285 9.153 9.153 0 0 1-3.461-.985 7.651 7.651 0 0 1-3.9-5.088 8.847 8.847 0 0 1 .849-6.855 7.807 7.807 0 0 1 5.452-3.794c.647-.129 1.323-.156 1.99-.231zm-1.156-21.976l5.991 4.832v8.565H36.765v-8.563l5.991-4.832m0-3.092a1.61 1.61 0 0 0-1.012.357L34.6 83.114a1.611 1.611 0 0 0-.6 1.254v10.268a1.612 1.612 0 0 0 1.612 1.611H49.9a1.612 1.612 0 0 0 1.612-1.611V84.368a1.61 1.61 0 0 0-.6-1.254l-7.144-5.762a1.61 1.61 0 0 0-1.012-.357zM122.4 121v-2.244c.595-.155 10.933-.2 12.179-.049V121h2.91v-4.956a2.105 2.105 0 0 0-1.218-.294 5.763 5.763 0 0 1-1.533-.059v-11.94c0-.215 0-.431-.006-.646a.493.493 0 0 0-.5-.518 4.502 4.502 0 0 0-.4-.016h-8.983c-.835 0-.931.111-.953.925-.05 1.884-.09 3.769-.163 5.652a18.755 18.755 0 0 1-.682 4.45 12.544 12.544 0 0 1-.729 1.695.726.726 0 0 1-.779.449 11.685 11.685 0 0 0-1.213 0 .685.685 0 0 0-.807.842c-.006 1.472 0 2.944-.011 4.416h2.9zm4.416-15.572h4.99V115.7h-6.336c1.185-3.35 1.22-6.806 1.349-10.273zm3.757-26.18h-5.7a.077.077 0 0 1-.077-.077v-1.626a.077.077 0 0 1 .077-.077h5.7a.078.078 0 0 1 .077.077v1.625a.077.077 0 0 1-.074.077z" transform="translate(-34 -77)"/></symbol><symbol id="pickup" viewBox="131.301 36.189 589.621 559.092"><path d="M439.547 483.666c20.463 0 37.205 16.742 37.205 37.205s-16.742 37.205-37.205 37.205-37.205-16.742-37.205-37.205 16.742-37.205 37.205-37.205m0-37.205c-40.926 0-74.41 33.484-74.41 74.41 0 40.925 33.484 74.41 74.41 74.41s74.41-33.485 74.41-74.41c0-40.926-33.484-74.41-74.41-74.41zm111.615 39.815l-372.049-372.05-26.599 26.598-21.213-21.213 47.812-47.812L551.162 443.85l82.407-82.406 21.212 21.213z"/><path d="M551.071 394.307L362.803 206.041 532.656 36.189l188.267 188.267-169.852 169.851zM405.23 206.041l145.84 145.841 127.426-127.426-145.84-145.841L405.23 206.041z"/><path d="M596.36 119.607l21.214 21.213-148.82 148.82-21.213-21.214z"/><path d="M468.755 119.607l167.421 167.421-21.213 21.213L447.542 140.82z"/></symbol><symbol id="rarr" viewBox="0 0 15 30"><path fill-rule="evenodd" clip-rule="evenodd" d="M0 30l15-15L0 0"/></symbol><symbol id="rarr2" viewBox="0 0 7 12"><path fill-rule="evenodd" d="M.24 10.74l4.69-4.6c.08-.08.08-.21 0-.29L.24 1.25l-.09-.08A.701.701 0 0 1-.03.72.728.728 0 0 1 1.18.18l.09.08 5.56 5.46c.16.16.16.41 0 .57l-5.56 5.46-.1.07c-.12.11-.28.18-.46.18-.41 0-.74-.32-.74-.72 0-.18.08-.33.18-.46l.09-.08z"/></symbol><symbol id="rarr3" viewBox="0 0 2.927 5.907"><path fill-rule="evenodd" clip-rule="evenodd" d="M0 5.907l2.927-2.954L0 0"/></symbol><symbol id="search" viewBox="0 0 18.007 17.983"><path d="M11.286 12.952a7.118 7.118 0 0 1-4.142 1.319C3.198 14.271 0 11.077 0 7.136 0 3.196 3.198 0 7.145 0c3.945 0 7.145 3.196 7.145 7.136a7.106 7.106 0 0 1-1.321 4.137l4.693 4.688a1.168 1.168 0 0 1 0 1.659l-.02.021a1.178 1.178 0 0 1-1.662 0l-4.694-4.689zm-4.141-.359c3.018 0 5.463-2.443 5.463-5.457s-2.445-5.457-5.463-5.457-5.464 2.444-5.464 5.457 2.446 5.457 5.464 5.457z"/></symbol><symbol id="share-facebook" viewBox="8.668 5.467 8.1 14.536"><path d="M8.668 9.649h1.76v-.78c0-.871.107-1.521.322-1.95.214-.429.609-.778 1.184-1.048s1.303-.404 2.183-.404c.902 0 1.786.116 2.651.351l-.429 1.911a7.198 7.198 0 0 0-1.455-.156c-.459 0-.788.093-.987.278-.2.185-.299.541-.299 1.067v.731h2.369v2.154h-2.369v8.2h-3.169v-8.2h-1.76V9.649h-.001z"/></symbol><symbol id="share-instagram" viewBox="6.379 6.38 12.743 12.742"><path d="M16.661 6.38h-7.82a2.465 2.465 0 0 0-2.462 2.461v7.82a2.465 2.465 0 0 0 2.462 2.461h7.818a2.465 2.465 0 0 0 2.463-2.461v-7.82a2.464 2.464 0 0 0-2.461-2.461zm.705 1.468h.281v2.157l-2.152.009-.008-2.158 1.879-.008zm-6.434 3.595a2.24 2.24 0 0 1 1.819-.935c.75 0 1.412.369 1.818.935.266.366.426.818.426 1.306a2.248 2.248 0 0 1-2.244 2.244 2.247 2.247 0 0 1-2.244-2.244c0-.487.16-.939.425-1.306zm6.947 5.216a1.22 1.22 0 0 1-1.219 1.221H8.84a1.22 1.22 0 0 1-1.22-1.221v-5.216h1.901a3.467 3.467 0 0 0-.257 1.306 3.488 3.488 0 0 0 3.485 3.485 3.49 3.49 0 0 0 3.485-3.485c0-.46-.094-.902-.257-1.306h1.901v5.216h.001z"/></symbol><symbol id="share-like" viewBox="6.25 8.251 13.002 10.999"><path d="M12.748 10.655c-1.683-3.814-6.467-2.924-6.498 1.503-.018 2.432 2.278 3.341 3.806 4.312 1.482.942 2.537 2.231 2.702 2.78.142-.537 1.316-1.863 2.688-2.807 1.499-1.032 3.822-1.881 3.806-4.312-.033-4.437-4.899-5.138-6.504-1.476z"/></symbol><symbol id="share-vk" viewBox="8.021 6.474 10.792 12.554"><path d="M8.021 6.474h5.149c1.02 0 1.78.041 2.281.124.5.083.949.256 1.344.518.396.263.725.612.989 1.05.264.437.396.926.396 1.468 0 .588-.163 1.128-.488 1.618a3.004 3.004 0 0 1-1.323 1.105c.785.223 1.389.602 1.811 1.139.422.536.633 1.167.633 1.893 0 .57-.136 1.126-.409 1.665a3.388 3.388 0 0 1-1.116 1.293c-.471.322-1.053.521-1.744.595-.434.046-1.479.074-3.138.086H8.021V6.474zm2.602 2.088v2.903h1.705c1.014 0 1.644-.015 1.89-.043.445-.052.795-.201 1.05-.449.255-.249.382-.575.382-.98 0-.389-.109-.704-.329-.946-.22-.243-.546-.39-.98-.441-.258-.028-.999-.043-2.224-.043l-1.494-.001zm0 4.993v3.356h2.408c.938 0 1.532-.025 1.784-.077.387-.068.701-.235.944-.501.243-.265.365-.62.365-1.065 0-.377-.094-.696-.281-.959-.187-.263-.458-.454-.812-.574s-1.124-.18-2.307-.18h-2.101z"/></symbol><symbol id="star-disabled" viewBox="0 0 16 15"><path d="M12.929 15l-4.946-3.496-4.96 3.476 1.853-5.706L0 6.014h6L8.008 0 10 6.014h6l-4.9 3.273L12.929 15z"/></symbol><symbol id="star-disabled2" viewBox="0 0 49 49"><filter id="a"><feFlood flood-color="#000" flood-opacity="1" result="floodOut"/><feComposite operator="atop" in="floodOut" in2="SourceGraphic" result="compOut"/><feBlend in="compOut" in2="SourceGraphic"/></filter><path fill-rule="evenodd" d="M39.383 47.025L24.319 36.059 9.21 46.962l5.644-17.895L0 18.842h18.277L24.392-.021l6.07 18.863h18.276L33.812 29.106l5.571 17.919z" filter="url(#a)"/><path d="M39.383 47.025L24.319 36.059 9.21 46.962l5.644-17.895L0 18.842h18.277L24.392-.021l6.07 18.863h18.276L33.812 29.106l5.571 17.919z"/></symbol><symbol id="star-enabled" viewBox="0 0 16 15"><path d="M12.929 15l-4.945-3.496-4.96 3.476 1.853-5.706L0 6.014h6L8.008 0 10 6.014h6l-4.9 3.273L12.929 15z"/></symbol><symbol id="uarr" viewBox="0 0 12 6.971"><path d="M10.741 6.703l-4.6-4.684a.206.206 0 0 0-.291 0l-4.6 4.684-.081.089a.647.647 0 0 1-.449.179.725.725 0 0 1-.54-1.203l.08-.089L5.721.118a.4.4 0 0 1 .569.001l5.46 5.561.07.099a.67.67 0 0 1 .18.457c0 .408-.32.735-.721.735a.693.693 0 0 1-.459-.179l-.079-.089z"/></symbol><symbol id="wallet" viewBox="0 0 46.013 40.892"><path d="M46.013 35.905a4.994 4.994 0 0 1-5.001 4.987H5.002A4.994 4.994 0 0 1 0 35.905V6.977a3.996 3.996 0 0 1 4.001-3.99h20.177L32.279.059a.992.992 0 0 1 1.269.588l.853 2.339h3.61a3.996 3.996 0 0 1 4.002 3.99v1.995a3.996 3.996 0 0 1 4.001 3.99v22.944zM4.001 4.982A2 2 0 0 0 2 6.977c0 1.101.896 1.995 2.001 1.995h3.635c.013-.005.021-.016.034-.021l10.985-3.969H4.001zm29.087.18l-1.063-2.916-2.052.741h.003L24.46 4.982h-.01l-11.042 3.99h21.068l-1.388-3.81zm6.924 1.815a2 2 0 0 0-2.001-1.995h-2.883l1.453 3.99h3.431V6.977zm2 3.99H4.001A3.977 3.977 0 0 1 2 10.414v25.492a2.997 2.997 0 0 0 3.001 2.992h36.01c1.657 0 3-1.34 3-2.992v-6.983H40.01a3.996 3.996 0 0 1-4.002-3.99 3.996 3.996 0 0 1 4.002-3.99h4.001v-7.98a1.996 1.996 0 0 0-1.999-1.996zm2.001 15.96v-3.99h-4.001a2 2 0 0 0-2.001 1.995 2 2 0 0 0 2.001 1.995h4.001zm-4.001-2.992h2v1.995h-2v-1.995z"/></symbol><symbol id="apple-pay" xmlns="http://www.w3.org/2000/svg" xmlns:xlink="http://www.w3.org/1999/xlink" x="0px" y="0px" viewBox="0 0 52.226 52.226" style="enable-background:new 0 0 52.226 52.226;"><path d="M36.802,1.055L36.747,0l-1.05,0.113c-0.103,0.011-10.252,1.234-10.948,12.581l-0.07,1.136l1.136-0.077 C25.931,13.745,37.426,12.828,36.802,1.055z M34.821,2.322c-0.191,6.838-5.511,8.74-7.953,9.253 C27.798,4.93,32.617,2.905,34.821,2.322z"/><path d="M46.584,37.517l-0.639-0.207c-3.867-1.25-6.464-4.792-6.464-8.814c0-3.578,2.023-6.778,5.281-8.352l0.972-0.469 l-0.542-0.933c-0.232-0.4-2.401-3.943-6.983-5.116c-3.634-0.93-7.72-0.107-12.149,2.447c-1.875-1.138-8.103-4.418-13.058-1.13 c-0.97,0.536-11.251,6.695-5.9,23.313c0.157,0.372,3.888,9.113,8.303,12.387c1.191,1.138,4.237,2.56,7.718,0.187 c0.603-0.249,4.638-1.802,7.198,0.017c0.945,0.647,2.595,1.38,4.338,1.38c1.322,0,2.697-0.421,3.859-1.621 c0.542-0.469,5.493-4.888,8.066-11.888l0.075-0.204L46.584,37.517z M37.182,49.115l-0.077,0.073 c-2.193,2.303-5.518,0.1-5.641,0.018c-1.308-0.93-2.823-1.233-4.244-1.233c-2.579,0-4.847,0.999-4.992,1.064l-0.163,0.092 c-3.019,2.107-5.086,0.253-5.305,0.042l-0.118-0.101c-3.993-2.912-7.663-11.507-7.668-11.51 C3.966,21.992,13.56,16.9,13.968,16.693l0.11-0.065c4.647-3.12,11.327,1.396,11.393,1.441l0.533,0.366l0.552-0.333 c4.16-2.515,7.914-3.37,11.157-2.539c2.642,0.676,4.326,2.327,5.15,3.342c-3.347,2.051-5.381,5.63-5.381,9.591 c0,4.556,2.735,8.604,6.902,10.365C41.819,45.122,37.231,49.074,37.182,49.115z"/>
</symbol></svg>