<svg xmlns="http://www.w3.org/2000/svg" viewBox="0 0 70.17 130.64"><defs><style>.cls-1{fill:none;}.cls-1,.cls-2{stroke:#231f20;stroke-miterlimit:10;}.cls-2{fill:#fff;}</style></defs><title>tolix</title><g id="Layer_2" data-name="Layer 2"><g id="Слой_2" data-name="Слой 2"><path class="cls-1" d="M56.87,85.29s.32,11.25,1.07,17.42,1.38,9.67,1.38,9.67-.88,1.66-3.21.58l-1.29-7.21a16.27,16.27,0,0,1-1.75-3.5c-.46-1.54-7.93-30.09-7.93-30.09S53.92,73.76,56.87,85.29Z"/><path class="cls-1" d="M12.84,85.29s-.32,11.25-1.07,17.42-1.37,9.67-1.37,9.67.87,1.66,3.2.58l1.3-7.21a16.78,16.78,0,0,0,1.75-3.5c.45-1.54,7.92-30.09,7.92-30.09S15.79,73.76,12.84,85.29Z"/><polygon class="cls-2" points="57.62 84.69 16.61 76 19.46 73.88 58.1 82.11 57.62 84.69"/><polygon class="cls-2" points="10.4 84.76 9.95 82.18 53.85 73.21 54.3 75.79 10.4 84.76"/><path class="cls-2" d="M35.08,1.5c-3.26-.12-12.48.75-12.48.75l5.12,54.83,7.36-.14,7.37.14L47.57,2.25S38.35,1.38,35.08,1.5Z"/><path class="cls-1" d="M35.08,8.62C28.79,8.62,29.6,12,29.6,12l3.13,34.88h4.71L40.57,12S41.38,8.62,35.08,8.62Z"/><path class="cls-2" d="M64.61,8.15C61.9,4.66,54.58.5,35.08.5S8.26,4.66,5.55,8.15A6.82,6.82,0,0,0,4,13.52c.21,2.33,3.63,40.28,4,42.4.44,2.5,3.19,4.27,3.5,4.46L13,59c-.59-.37-2.77-2-3-3.38-.29-1.65-2.73-28.39-4-42.29l0-.15A4.79,4.79,0,0,1,7.19,9.3c2.48-3.1,9.32-6.8,27.89-6.8S60.5,6.2,63,9.3a4.81,4.81,0,0,1,1.25,3.83l0,.16c-1.25,13.9-3.69,40.64-4,42.29-.25,1.37-2.39,3-3,3.38l1.49,1.42c.31-.19,3.06-2,3.49-4.46.38-2.12,3.8-40.07,4-42.4A6.8,6.8,0,0,0,64.61,8.15Z"/><path class="cls-2" d="M66.14,96.92,62.73,66.67v-2A5,5,0,0,0,61.48,62a23.85,23.85,0,0,0-4.29-3s-2.6-1.84-20.75-2H33.73C15.57,57.12,13,59,13,59a23.85,23.85,0,0,0-4.29,3,5,5,0,0,0-1.25,2.67v2L4,96.92.52,129.25a3.92,3.92,0,0,0,4,.58l.59-7.91a16.31,16.31,0,0,1,2.16-6.09s2.42-22.16,7.5-34.66c3.6-8.85,14-10.35,19-10.56h0s.5,0,1.35,0,1.36,0,1.36,0h0c5,.21,15.36,1.71,19,10.56,5.09,12.5,7.5,34.66,7.5,34.66a16.25,16.25,0,0,1,2.17,6.09l.58,7.91a3.93,3.93,0,0,0,4-.58Z"/><path class="cls-1" d="M62.73,66.19s-1.23.93-7.66.93H14.25s-5.5.07-6.81-.93"/><path class="cls-1" d="M61.76,62.34s1.49,2-8.44,2H15.94s-6.12.36-7.19-2"/></g></g></svg>