<svg xmlns="http://www.w3.org/2000/svg" viewBox="0 0 77.18 131"><defs><style>.cls-1{fill:#fff;}.cls-1,.cls-2,.cls-3{stroke:#231f20;}.cls-1,.cls-2{stroke-miterlimit:10;}.cls-2,.cls-3{fill:none;}.cls-3{stroke-linecap:round;stroke-linejoin:round;}</style></defs><title>tulip</title><g id="Layer_2" data-name="Layer 2"><g id="Слой_2" data-name="Слой 2"><path class="cls-1" d="M76.59,58a22,22,0,0,1-2.17-4.83C73.84,51,63.75,13.92,63.25,12.42S60.34.5,54.92.5,49.09,2.08,38.59,2.08,27.67.5,22.25.5s-7.83,10.42-8.33,11.92S3.34,51,2.75,53.17A22.5,22.5,0,0,1,.59,58c-.67,1.33,2.66,3.83,2.66,3.83,2.17,3.92,5.5,5.42,12.5,6.09A30.24,30.24,0,0,1,29,72.67c.67.5,7,3,7,22.16s-5.33,18.29-5.33,18.29-21.25,1.5-21.25,8.5c0,8.63,29.17,8.88,29.17,8.88s29.16-.25,29.16-8.88c0-7-21.25-8.5-21.25-8.5s-5.33.88-5.33-18.29,6.33-21.66,7-22.16a30.3,30.3,0,0,1,13.25-4.75c7-.67,10.33-2.17,12.5-6.09C73.92,61.83,77.25,59.33,76.59,58Z"/><path class="cls-2" d="M2.25,57.38s5.8,9.5,36.34,9.5S75.5,58,75.5,58"/><path class="cls-2" d="M73.92,59.47s1.58-6.22-3.42-7.59-21.2-1.63-31.91-1.63-28.46.13-31,1-4.38,3.4-4.38,7.26"/><path class="cls-3" d="M43.05,110s2.88,6,8.54,8.71"/><path class="cls-3" d="M34.18,110s-2.88,6-8.54,8.71"/></g></g></svg>