<svg xmlns="http://www.w3.org/2000/svg" viewBox="0 0 62.27 40"><defs><style>.cls-1{fill:#fff;}.cls-2{fill:#dad9d9;}.cls-3{fill:#0b67b2;}</style></defs><title>visa</title><g id="Layer_2" data-name="Layer 2"><g id="Layer_1-2" data-name="Layer 1"><rect class="cls-1" x="0.25" y="0.25" width="61.77" height="39.5" rx="5.42" ry="5.42"/><path class="cls-2" d="M56.6.5a5.18,5.18,0,0,1,5.17,5.17V34.33A5.18,5.18,0,0,1,56.6,39.5H5.67A5.18,5.18,0,0,1,.5,34.33V5.67A5.18,5.18,0,0,1,5.67.5H56.6m0-.5H5.67A5.67,5.67,0,0,0,0,5.67V34.33A5.67,5.67,0,0,0,5.67,40H56.6a5.67,5.67,0,0,0,5.67-5.67V5.67A5.67,5.67,0,0,0,56.6,0Z"/><polygon class="cls-3" points="28.37 26.53 24.97 26.53 27.09 13.48 30.49 13.48 28.37 26.53"/><path class="cls-3" d="M22.11,13.48l-3.24,9-.39-1.94h0l-1.14-5.87a1.45,1.45,0,0,0-1.61-1.17H10.37l-.06.22a12.63,12.63,0,0,1,3.55,1.49l3,11.34h3.54l5.41-13Z"/><path class="cls-3" d="M48.84,26.53H52l-2.73-13H46.51a1.57,1.57,0,0,0-1.57,1L39.87,26.53h3.55l.7-1.94h4.33ZM45.1,21.91,46.89,17l1,4.88Z"/><path class="cls-3" d="M40.14,16.62l.48-2.81a9.73,9.73,0,0,0-3-.57c-1.69,0-5.7.74-5.7,4.32,0,3.38,4.71,3.42,4.71,5.19s-4.22,1.46-5.61.34L30.46,26a9.52,9.52,0,0,0,3.84.74c2.32,0,5.82-1.2,5.82-4.47s-4.75-3.71-4.75-5.19S38.68,15.81,40.14,16.62Z"/></g></g></svg>