<svg xmlns="http://www.w3.org/2000/svg" viewBox="0 0 50.26 130.25"><defs><style>.cls-1{fill:#fff;}.cls-1,.cls-2{stroke:#231f20;stroke-miterlimit:10;}.cls-2{fill:none;}</style></defs><title>vitoria</title><g id="Layer_2" data-name="Layer 2"><g id="Слой_1" data-name="Слой 1"><path class="cls-1" d="M49.7,61.38a42.09,42.09,0,0,0,0-4.26c-.12-1.74-2.37-12-2.62-13.87s-1.29-12.5-1.29-12.5L43.65,38.6c.66,1,.3,5,.18,6.78a58.77,58.77,0,0,0,1.07,9.5c.46,2.24-2.2,1.74-2.2,1.74-2.92-.35-15.91-.26-17.57-.25s-14.65-.1-17.57.25c0,0-2.66.5-2.21-1.74a57.75,57.75,0,0,0,1.08-9.5c-.12-1.76-.49-5.73.18-6.78L4.47,30.75s-1,10.63-1.29,12.5S.68,55.38.56,57.12a42.09,42.09,0,0,0,0,4.26L.5,129.75h4l.88-.75L7.81,73s9.33.48,17.14.5h.36c7.8,0,17.14-.5,17.14-.5l2.45,56,.89.75h4Z"/><path class="cls-2" d="M49.7,62.25a462.86,462.86,0,0,1-49.14,0"/><line class="cls-2" x1="42.45" y1="73" x2="41.82" y2="62.92"/><line class="cls-2" x1="7.8" y1="73" x2="8.44" y2="62.92"/><ellipse class="cls-1" cx="25.25" cy="26.92" rx="20.78" ry="26.42"/></g></g></svg>