<svg 
 xmlns="http://www.w3.org/2000/svg"
 xmlns:xlink="http://www.w3.org/1999/xlink"
 width="57px" height="40px">
<path fill-rule="evenodd"  fill="rgb(23, 105, 255)"
 d="M52.747,39.978 L4.269,39.978 C2.458,39.978 0.983,38.484 0.983,36.648 L0.983,4.309 C0.983,2.474 2.458,0.979 4.269,0.979 L32.647,0.979 L41.308,0.979 L52.747,0.979 C54.559,0.979 56.034,2.474 56.034,4.309 L56.034,34.244 C56.034,34.253 56.034,34.260 56.034,34.267 L56.034,35.817 L56.034,36.648 C56.034,38.484 54.559,39.978 52.747,39.978 ZM32.266,2.847 L25.417,2.847 L34.092,11.635 L34.092,9.100 C34.092,8.584 34.504,8.166 35.014,8.166 L37.517,8.166 L32.266,2.847 ZM46.185,16.826 L47.898,15.088 L46.185,13.354 C46.013,13.179 45.916,12.940 45.916,12.693 L45.916,10.034 L43.291,10.034 C43.046,10.034 42.811,9.936 42.638,9.761 L40.924,8.026 L39.211,9.761 C39.038,9.936 38.803,10.034 38.559,10.034 L35.933,10.034 L35.933,12.693 C35.933,12.940 35.837,13.179 35.664,13.354 L33.951,15.088 L35.664,16.826 C35.837,17.001 35.933,17.239 35.933,17.486 L35.933,20.146 L38.559,20.146 C38.803,20.146 39.038,20.244 39.211,20.419 L40.924,22.154 L42.638,20.419 C42.811,20.244 43.046,20.146 43.291,20.146 L45.916,20.146 L45.916,17.486 C45.916,17.239 46.013,17.001 46.185,16.826 ZM54.192,4.309 C54.192,3.503 53.545,2.847 52.750,2.847 L41.308,2.847 L34.873,2.847 L39.151,7.180 L40.274,6.043 C40.633,5.679 41.216,5.679 41.576,6.043 L43.671,8.166 L46.838,8.166 C47.347,8.166 47.760,8.584 47.760,9.100 L47.760,12.308 L49.855,14.428 C50.214,14.792 50.214,15.383 49.855,15.747 L48.732,16.884 L54.192,22.415 L54.192,4.309 ZM54.192,25.058 L47.760,18.542 L47.760,21.077 C47.760,21.594 47.347,22.012 46.838,22.012 L46.838,22.014 L44.335,22.014 L54.192,32.000 L54.192,25.058 ZM54.195,35.820 L54.195,34.643 L42.703,22.999 L41.580,24.136 C41.401,24.318 41.165,24.409 40.928,24.409 C40.691,24.409 40.456,24.318 40.276,24.136 L38.181,22.014 L35.014,22.014 C34.504,22.014 34.092,21.596 34.092,21.080 L34.092,17.872 L31.997,15.749 C31.637,15.385 31.637,14.795 31.997,14.430 L33.119,13.293 L22.807,2.847 L4.269,2.847 C3.474,2.847 2.827,3.503 2.827,4.309 L2.827,36.651 C2.827,37.456 3.474,38.110 4.269,38.110 L52.750,38.110 C53.545,38.110 54.192,37.456 54.192,36.651 L54.195,36.651 L54.195,35.820 ZM28.659,33.305 L7.125,33.305 C6.616,33.305 6.203,32.885 6.203,32.371 C6.203,31.857 6.616,31.437 7.125,31.437 L28.659,31.437 C29.169,31.437 29.581,31.857 29.581,32.371 C29.581,32.885 29.169,33.305 28.659,33.305 ZM22.123,28.638 L7.125,28.638 C6.616,28.638 6.203,28.217 6.203,27.704 C6.203,27.190 6.616,26.770 7.125,26.770 L22.123,26.770 C22.632,26.770 23.045,27.190 23.045,27.704 C23.045,28.217 22.632,28.638 22.123,28.638 ZM14.625,23.966 L7.125,23.966 C6.616,23.966 6.203,23.548 6.203,23.031 C6.203,22.516 6.616,22.098 7.125,22.098 L14.625,22.098 C15.135,22.098 15.547,22.516 15.547,23.031 C15.547,23.548 15.135,23.966 14.625,23.966 ZM40.924,18.892 C38.856,18.892 37.171,17.185 37.171,15.091 C37.171,12.994 38.856,11.290 40.924,11.290 C42.993,11.290 44.676,12.997 44.676,15.091 C44.676,17.188 42.993,18.892 40.924,18.892 ZM40.924,13.155 C39.872,13.155 39.015,14.024 39.015,15.088 C39.015,16.156 39.870,17.024 40.924,17.024 C41.977,17.024 42.834,16.156 42.834,15.088 C42.834,14.024 41.977,13.155 40.924,13.155 Z"/>
</svg>