<?xml version="1.0" encoding="UTF-8"?>
<svg width="14px" height="12px" viewBox="0 0 14 12" version="1.1" xmlns="http://www.w3.org/2000/svg" xmlns:xlink="http://www.w3.org/1999/xlink">
    <!-- Generator: Sketch 55 (78076) - https://sketchapp.com -->
    <title>chevron-left</title>
    <desc>Created with Sketch.</desc>
    <defs>
        <path d="M7.62740741,3.17888889 L2.44296296,8.36333333 C2.44148148,8.36407407 2.44,8.36481481 2.43777778,8.3662963 C2.29407407,8.51 2.22222222,8.70037037 2.22222222,8.89074074 C2.22222222,9.08111111 2.29407407,9.27148148 2.43777778,9.41592593 C2.44,9.41666667 2.44222222,9.41740741 2.4437037,9.41888889 L7.62518519,14.6003704 C7.91333333,14.8892593 8.38444444,14.8892593 8.67259259,14.6003704 C8.96074074,14.312963 8.96074074,13.8411111 8.67259259,13.552963 L4.75111111,9.63148148 L14.8148148,9.63148148 C15.2222222,9.63148148 15.5555556,9.29814815 15.5555556,8.89074074 C15.5555556,8.48407407 15.2222222,8.15074074 14.8148148,8.15074074 L4.75111111,8.15074074 L8.67481481,4.2262963 C8.96296296,3.93814815 8.96296296,3.46703704 8.67481481,3.17888889 C8.53037037,3.03518519 8.34074074,2.96333333 8.15037037,2.96333333 C7.96074074,2.96333333 7.77037037,3.03518519 7.62740741,3.17888889 Z" id="path-1"></path>
    </defs>
    <g id="Mobile" stroke="none" stroke-width="1" fill="none" fill-rule="evenodd">
        <g id="Group-17-Copy" transform="translate(-9.000000, -10.000000)">
            <g id="standard-/-arrow-left" transform="translate(7.111111, 7.111111)">
                <mask id="mask-2" fill="white">
                    <use xlink:href="#path-1"></use>
                </mask>
                <use id="Clip-2" fill="#42526E" fill-rule="evenodd" xlink:href="#path-1"></use>
                <g id="Neutral-/-N800" mask="url(#mask-2)" fill="#333333" fill-rule="evenodd">
                    <rect id="N800" x="0" y="0" width="17.7777778" height="17.7777778"></rect>
                </g>
            </g>
        </g>
    </g>
</svg>