<?xml version="1.0" encoding="UTF-8"?>
<svg width="16px" height="14px" viewBox="0 0 16 14" version="1.1" xmlns="http://www.w3.org/2000/svg" xmlns:xlink="http://www.w3.org/1999/xlink">
    <!-- Generator: Sketch 55 (78076) - https://sketchapp.com -->
    <title>chevron-right</title>
    <desc>Created with Sketch.</desc>
    <defs>
        <path d="M10.1168724,3.53209877 C9.79670782,3.85144033 9.79670782,4.37572016 10.1168724,4.69588477 L14.4740741,9.05308642 L3.29218107,9.05308642 C2.83950617,9.05308642 2.4691358,9.42345679 2.4691358,9.87613169 C2.4691358,10.3296296 2.83950617,10.7 3.29218107,10.7 L14.4740741,10.7 L10.1144033,15.0588477 C9.79423868,15.3790123 9.79423868,15.9024691 10.1144033,16.2226337 C10.4345679,16.5436214 10.9588477,16.5436214 11.2781893,16.2226337 L17.0386831,10.462963 C17.0403292,10.4621399 17.0419753,10.4604938 17.0444444,10.4588477 C17.2041152,10.3 17.2839506,10.0876543 17.2839506,9.87613169 C17.2839506,9.66460905 17.2041152,9.45308642 17.0444444,9.29341564 C17.0419753,9.29259259 17.0395062,9.2909465 17.0378601,9.28930041 L11.2806584,3.53209877 C11.1209877,3.37242798 10.909465,3.29259259 10.6987654,3.29259259 C10.4880658,3.29259259 10.2765432,3.37242798 10.1168724,3.53209877 Z" id="path-1"></path>
    </defs>
    <g id="Mobile" stroke="none" stroke-width="1" fill="none" fill-rule="evenodd">
        <g id="Group-17" transform="translate(-8.000000, -9.000000)">
            <g id="standard-/-arrow-right" transform="translate(6.222222, 6.222222)">
                <mask id="mask-2" fill="white">
                    <use xlink:href="#path-1"></use>
                </mask>
                <use id="Clip-2" fill="#42526E" fill-rule="evenodd" xlink:href="#path-1"></use>
                <g id="Neutral-/-N800" mask="url(#mask-2)" fill="#333333" fill-rule="evenodd">
                    <rect id="N800" x="0" y="0" width="19.7530864" height="19.7530864"></rect>
                </g>
            </g>
        </g>
    </g>
</svg>