<svg width="18" height="16" fill="none" xmlns="http://www.w3.org/2000/svg"><mask id="a" maskUnits="userSpaceOnUse" x="0" y="0" width="18" height="16"><path d="M12.97 0c-1.707 0-3.25.835-3.966 2.138C8.29.836 6.728 0 5.022 0 2.356 0-1.218 2.01.41 7.492 2.27 12.85 9.005 16.002 9.005 16c0 .001 6.727-3.15 8.586-8.508C19.22 2.01 15.635 0 12.97 0z" fill="#fff"/></mask><g mask="url(#a)"><path d="M12.97 0c-1.707 0-3.25.835-3.966 2.138C8.29.836 6.728 0 5.022 0 2.356 0-1.218 2.01.41 7.492 2.27 12.85 9.005 16.002 9.005 16c0 .001 6.727-3.15 8.586-8.508C19.22 2.01 15.635 0 12.97 0z" fill="#515151"/><path d="M21-4H-3v24h24V-4z" fill="#fff"/></g></svg>