<svg width="14" height="14" fill="none" xmlns="http://www.w3.org/2000/svg"><g clip-path="url(#clip0)"><mask id="a" maskUnits="userSpaceOnUse" x="0" y="0" width="15" height="15"><path d="M7 5.586L12.293.293a1 1 0 1 1 1.414 1.414L8.414 7l5.293 5.293a1 1 0 0 1-1.414 1.414L7 8.414l-5.293 5.293a1 1 0 0 1-1.414-1.414L5.586 7 .293 1.707A1 1 0 0 1 1.707.293L7 5.586z" fill="#fff"/></mask><g mask="url(#a)"><path d="M7 5.586L12.293.293a1 1 0 1 1 1.414 1.414L8.414 7l5.293 5.293a1 1 0 0 1-1.414 1.414L7 8.414l-5.293 5.293a1 1 0 0 1-1.414-1.414L5.586 7 .293 1.707A1 1 0 0 1 1.707.293L7 5.586z" fill="#42526E"/><path d="M19-5H-5v24h24V-5z" fill="#CCC"/></g></g><defs><clipPath id="clip0"><path fill="#fff" d="M0 0h14v14H0z"/></clipPath></defs></svg>