<svg xmlns="http://www.w3.org/2000/svg" xmlns:xlink="http://www.w3.org/1999/xlink" width="18" height="16"><defs><path d="M15.969 4c-1.646 0-3.14.778-3.885 2.002a.091.091 0 0 1-.08.047.093.093 0 0 1-.077-.046C11.18 4.778 9.667 4 8.023 4 5.357 4 1.78 6.01 3.409 11.492 5.269 16.85 12.002 20 12.006 20c.002 0 6.727-3.15 8.586-8.508C22.22 6.01 18.635 4 15.969 4m2.51 3.126c.772 1.034.544 2.602.209 3.752-1.217 3.436-4.987 5.897-6.684 6.86-1.698-.961-5.473-3.42-6.69-6.86-.336-1.152-.566-2.723.206-3.756C6.137 6.294 7.217 6 8.023 6c.932 0 1.778.492 2.197 1.045 1.78 1.983 1.784 1.983 3.572-.002A2.762 2.762 0 0 1 15.969 6c.808 0 1.892.296 2.51 1.126z" id="a"/></defs><g transform="translate(-3 -4)" fill="none" fill-rule="evenodd"><mask id="b" fill="#fff"><use xlink:href="#a"/></mask><g mask="url(#b)" fill="#333"><path d="M0 0h24v24H0z"/></g></g></svg>