<svg width="25" height="24" viewBox="0 0 25 24" fill="none" xmlns="http://www.w3.org/2000/svg">
<g clip-path="url(#clip0)">
<path d="M6.0065 17.0071V21.0054C6.0065 22.1099 6.90193 23.0054 8.0065 23.0054H21.0065C22.1111 23.0054 23.0065 22.1099 23.0065 21.0054V3.00537C23.0065 1.9008 22.1111 1.00537 21.0065 1.00537H8.0065C6.90193 1.00537 6.0065 1.9008 6.0065 3.00537V6.99656" stroke="black" stroke-width="2"/>
<path d="M3 11.4985H12.4907V12.4985H3C2.72386 12.4985 2.5 12.2747 2.5 11.9985C2.5 11.7224 2.72386 11.4985 3 11.4985Z" stroke="black"/>
<path d="M10.7379 14.4872L13.902 11.2905L14.6049 12.0006L11.4408 15.1973C11.2467 15.3934 10.932 15.3934 10.7379 15.1973C10.5438 15.0013 10.5438 14.6833 10.7379 14.4872Z" stroke="black"/>
<path d="M11.441 8.8026L14.6052 11.9994L13.9023 12.7095L10.7381 9.51273C10.544 9.31663 10.544 8.9987 10.7381 8.8026C10.9322 8.6065 11.2469 8.6065 11.441 8.8026Z" stroke="black"/>
</g>
<defs>
<clipPath id="clip0">
<rect width="24" height="24" fill="white" transform="translate(0.990753)"/>
</clipPath>
</defs>
</svg>
