<svg xmlns="http://www.w3.org/2000/svg" xmlns:xlink="http://www.w3.org/1999/xlink" width="11" height="19"><defs><path d="M13.013 15.238l2.72 2.782c.305.311.424.766.313 1.191a1.218 1.218 0 0 1-.853.872 1.186 1.186 0 0 1-1.164-.32l-2.588-2.65-2.589 2.65a1.186 1.186 0 0 1-1.164.32 1.218 1.218 0 0 1-.853-.872c-.11-.425.009-.88.314-1.19l2.718-2.782a7.93 7.93 0 0 1-2.58-.998 1.249 1.249 0 0 1-.407-1.687 1.19 1.19 0 0 1 1.646-.426 5.664 5.664 0 0 0 5.92-.056 1.18 1.18 0 0 1 1.205-.047c.381.207.625.606.64 1.047a1.24 1.24 0 0 1-.569 1.089c-.831.524-1.75.89-2.709 1.077zm-1.572-3.563c-2.375 0-4.3-1.97-4.3-4.4 0-2.43 1.925-4.4 4.3-4.4s4.3 1.97 4.3 4.4c0 2.43-1.925 4.4-4.3 4.4zm0-6.16c-.95.001-1.72.788-1.72 1.76s.77 1.76 1.72 1.76 1.72-.788 1.72-1.76-.77-1.76-1.72-1.76z" id="a"/></defs><g transform="translate(-6 -2)" fill="none" fill-rule="evenodd"><mask id="b" fill="#fff"><use xlink:href="#a"/></mask><use fill="#333" fill-rule="nonzero" xlink:href="#a"/><g mask="url(#b)" fill="#333"><path d="M0 0h23.232v23.232H0z"/></g></g></svg>