<svg xmlns="http://www.w3.org/2000/svg" xmlns:xlink="http://www.w3.org/1999/xlink" width="14" height="15"><defs><path d="M15.985 5.126a1 1 0 0 1 .39 1.36l-7 12.599a1 1 0 1 1-1.749-.971l7-12.6a1 1 0 0 1 1.36-.388zM7 8.45c0 .634.516 1.15 1.15 1.15.634 0 1.15-.516 1.15-1.15 0-.634-.516-1.15-1.15-1.15C7.516 7.3 7 7.816 7 8.45zm4.3 0a3.15 3.15 0 1 1-6.3 0 3.15 3.15 0 0 1 6.3 0zm4.55 8.85a1.15 1.15 0 0 0 0-2.3 1.15 1.15 0 0 0 0 2.3zm0-4.3a3.15 3.15 0 1 1 0 6.299 3.15 3.15 0 0 1 0-6.3z" id="a"/></defs><g transform="translate(-5 -5)" fill="none" fill-rule="evenodd"><mask id="b" fill="#fff"><use xlink:href="#a"/></mask><g mask="url(#b)" fill="#3DA762"><path d="M0 0h24v24H0z"/></g></g></svg>