<svg xmlns="http://www.w3.org/2000/svg" xmlns:xlink="http://www.w3.org/1999/xlink" width="18" height="15"><defs><path d="M7.938 18.333c6.228 0 9.635-5.29 9.635-9.876 0-.149 0-.297-.01-.451a6.986 6.986 0 0 0 1.687-1.8 6.542 6.542 0 0 1-1.947.548 3.465 3.465 0 0 0 1.491-1.922 6.721 6.721 0 0 1-2.148.844 3.33 3.33 0 0 0-4.79-.148 3.527 3.527 0 0 0-.978 3.316C8.155 8.706 5.618 7.385 3.9 5.22 3 6.807 3.46 8.834 4.945 9.853a3.28 3.28 0 0 1-1.537-.435v.042c0 1.65 1.139 3.073 2.718 3.402a3.29 3.29 0 0 1-1.528.058c.446 1.412 1.714 2.383 3.164 2.41a6.708 6.708 0 0 1-5.012 1.443 9.408 9.408 0 0 0 5.188 1.56" id="a"/></defs><g transform="translate(-2 -4)" fill="none" fill-rule="evenodd"><mask id="b" fill="#fff"><use xlink:href="#a"/></mask><use fill="#333" fill-rule="nonzero" xlink:href="#a"/><g mask="url(#b)" fill="#333"><path d="M0 0h22.222v22.222H0z"/></g></g></svg>