<svg xmlns="http://www.w3.org/2000/svg" xmlns:xlink="http://www.w3.org/1999/xlink" width="16" height="10"><defs><path d="M17.158 6.455c.103-.358 0-.622-.496-.622h-1.64c-.417 0-.61.227-.713.479 0 0-.835 2.094-2.016 3.452-.381.392-.556.518-.765.518-.103 0-.262-.126-.262-.484V6.455c0-.43-.117-.622-.462-.622H8.225a.4.4 0 0 0-.418.387c0 .407.59.501.652 1.647v2.487c0 .544-.095.644-.303.644-.557 0-1.91-2.102-2.713-4.509-.161-.467-.32-.656-.74-.656h-1.64c-.468 0-.563.227-.563.479 0 .447.557 2.667 2.592 5.6C6.45 13.914 8.36 15 10.096 15c1.045 0 1.173-.24 1.173-.656 0-1.914-.095-2.094.429-2.094.242 0 .66.126 1.634 1.091C14.446 14.487 14.63 15 15.253 15h1.64c.468 0 .705-.24.569-.716-.312-1-2.42-3.057-2.515-3.194-.242-.321-.173-.464 0-.75.003-.004 2.005-2.903 2.211-3.885z" id="a"/></defs><g transform="translate(-2 -5)" fill="none" fill-rule="evenodd"><mask id="b" fill="#fff"><use xlink:href="#a"/></mask><use fill="#333" fill-rule="nonzero" xlink:href="#a"/><g mask="url(#b)" fill="#333"><path d="M0 0h20.202v20.202H0z"/></g></g></svg>