<svg xmlns="http://www.w3.org/2000/svg" viewBox="0 0 131.58 132.29"><defs><style>.cls-1et{fill:#fff}.cls-1et,.cls-2et{stroke:#231f20}.cls-1et{stroke-miterlimit:10}.cls-2et{fill:none;stroke-linecap:round;stroke-linejoin:round}.cls-4{fill:#231f20}</style></defs><g id="Layer_2" data-name="Layer 2"><g id="Слой_2" data-name="Слой 2"><path class="cls-1et" d="M74.41 29.28l5.5 55.63S79.79 86 81.41 86s1.75-.37 1.63-1.37-4.29-55.38-4.29-55.38zM33.41 28.16L16 97.66a2.51 2.51 0 0 0 3.37 0l19-69.5z"/><path class="cls-2et" d="M95.79 29.28l-43.88 41M104.41 61.66l-56-31.63M81.91 29.28l21.75 30.88M30.91 52.53l23.96-18.85M65.79 29.95L30.91 52.53M39.29 28.16l11.5 36.62"/><path class="cls-1et" d="M52.66 29.28L43.16 130a1.42 1.42 0 0 0 1.5 1.75c1.88.13 2.5-1.12 2.63-2.75s9.12-80.37 9.62-99.75zM94.29 28.16l22.37 84.25s.38 2.37 3.88 1.5c0 0-18.88-80.38-21.63-85.75z"/><ellipse class="cls-1et" cx="65.79" cy="15.86" rx="65.29" ry="15.36"/><path d="M131.08 15.86s-6.54 12.3-65.29 12.3S.5 15.86.5 15.86" fill="none" stroke-miterlimit="10" stroke="#231f20"/><path class="cls-4" d="M51.86 69.46c-.07.79-.53 1.4-1 1.36S50 70.1 50 69.3s.53-1.4 1-1.36.93.72.86 1.52zM54.89 34.45c-.07.8-.53 1.41-1 1.37s-.86-.72-.8-1.52.53-1.4 1-1.36.91.72.8 1.51zM107.4 61.77c.15.78.07 1.45-.18 1.5s-.57-.54-.72-1.33-.08-1.45.17-1.5.57.56.73 1.33z"/></g></g></svg>