<svg xmlns="http://www.w3.org/2000/svg" viewBox="0 0 281.91 366.38"><defs><style>.\31 3888f3c-245d-414a-9a0b-6d5b7e43e1e0{fill:#fff;}.\31 3888f3c-245d-414a-9a0b-6d5b7e43e1e0,.\37 44798cc-6b39-4cdd-ada3-1f33577218da,.b4bd4ba8-7b24-4818-93b8-013e3cf48f9f{stroke:#221f1f;stroke-miterlimit:10;}.\31 3888f3c-245d-414a-9a0b-6d5b7e43e1e0,.\37 44798cc-6b39-4cdd-ada3-1f33577218da{stroke-width:2px;}.\37 44798cc-6b39-4cdd-ada3-1f33577218da,.b4bd4ba8-7b24-4818-93b8-013e3cf48f9f{fill:none;}</style></defs><title>panton</title><g id="7b93d295-776f-494e-afc6-d86b31219f37" data-name="Layer 2"><g id="ba41e967-5084-44ae-92f7-eec4c236d677" data-name="Layer 27"><path class="13888f3c-245d-414a-9a0b-6d5b7e43e1e0" d="M84.54,362.74s20.16-52.3,21.1-103.49-11.27-67-22.07-72.26-47.43-8.51-55.88-8.51-22.54-6.57-25.83-26.3c0,0-1.92-41.16,0-71.38C3.71,51.69,4.08,29.39,5.14,21.29S12.54,1.57,34.73,1.21s55.4,2,79.95,16.91c30.14,18.31,37.68,61.63,40.5,77.83s3.73,45.63,18.67,52.48c8.62,3.95,23.95,3.52,49.31,3.87s51.42,11.27,56.35,46.84-4.23,72.9-8.8,86.64S252.38,338.26,251,344.6c0,0-.35,2.82-14.09.7S147.78,333,107.63,333.68c0,0-9.86,31.7-10.92,31.7S97.1,365.21,84.54,362.74Z"/><path class="13888f3c-245d-414a-9a0b-6d5b7e43e1e0" d="M84.54,362.74S38,356.93,27.68,342.37c0,0-2.82-8,11.27-13.15S80.39,314,103.34,287.31C103.34,287.31,104.29,341.32,84.54,362.74Z"/><path class="744798cc-6b39-4cdd-ada3-1f33577218da" d="M107.63,333.68s20.07-72.55,15.85-112S116,165.15,77.93,163.13s-62.46,3.42-64.8-26.77S13,65,13.12,49.82c.18-16.47,2.56-35,10.33-41.56C30.62,2.2,34.72.71,48.34,1"/><path class="b4bd4ba8-7b24-4818-93b8-013e3cf48f9f" d="M240,345.72s19.68-50.31,23.67-70,16.91-77.25-2.82-82.88-41.09,6.57-57.05,5.64-58.61,1.41-63.59,23.95S115.61,324.5,107.63,333.68"/><path class="b4bd4ba8-7b24-4818-93b8-013e3cf48f9f" d="M36.48,161.14s29.24-8.84,69,1.37,52.48,9.19,66.21,4.83c4.93-1.56,45.38-16,73.41-11.63"/></g></g></svg>