<svg xmlns="http://www.w3.org/2000/svg" viewBox="0 0 288.86 290.55"><defs><style>.e858bbc2-7300-4733-a452-f59d34bfb7f6{fill:#fff;}.\35 7fc0072-0be2-4221-98e6-075b9d9c396f,.\37 e24cef8-ef3f-4104-ac54-3c0d3f359ec7,.e858bbc2-7300-4733-a452-f59d34bfb7f6{stroke:#221f1f;}.\35 7fc0072-0be2-4221-98e6-075b9d9c396f,.e858bbc2-7300-4733-a452-f59d34bfb7f6{stroke-miterlimit:10;}.\35 7fc0072-0be2-4221-98e6-075b9d9c396f,.\37 e24cef8-ef3f-4104-ac54-3c0d3f359ec7{fill:none;}.\37 e24cef8-ef3f-4104-ac54-3c0d3f359ec7{stroke-linecap:round;stroke-linejoin:round;}.\35 7fc0072-0be2-4221-98e6-075b9d9c396f{stroke-width:0.5px;}.\37 69dc57f-f7ae-46de-a37d-32b08acde0a9{fill:#221f1f;}</style></defs><title>table_eames_dsw</title><g id="95396c9c-6aba-45c9-a46f-e566609f3594" data-name="Layer 2"><g id="cc81b16f-b4e3-485f-9343-f1be6809d04f" data-name="Layer 18"><path class="e858bbc2-7300-4733-a452-f59d34bfb7f6" d="M163.44,64.44l12.12,122.38s-.28,2.36,3.31,2.36,3.86-.64,3.58-2.85S173,64.44,173,64.44Z"/><path class="e858bbc2-7300-4733-a452-f59d34bfb7f6" d="M73.06,61.44,34.76,214.67a5.55,5.55,0,0,0,7.44,0L84.08,61.44Z"/><line class="7e24cef8-ef3f-4104-ac54-3c0d3f359ec7" x1="210.56" y1="63.95" x2="113.84" y2="154.33"/><line class="7e24cef8-ef3f-4104-ac54-3c0d3f359ec7" x1="229.58" y1="135.32" x2="106.13" y2="65.6"/><line class="7e24cef8-ef3f-4104-ac54-3c0d3f359ec7" x1="179.98" y1="63.95" x2="227.92" y2="132.01"/><line class="7e24cef8-ef3f-4104-ac54-3c0d3f359ec7" x1="67.55" y1="115.2" x2="120.35" y2="73.64"/><line class="7e24cef8-ef3f-4104-ac54-3c0d3f359ec7" x1="144.43" y1="65.42" x2="67.55" y2="115.2"/><line class="7e24cef8-ef3f-4104-ac54-3c0d3f359ec7" x1="86.01" y1="61.47" x2="111.36" y2="142.21"/><path class="e858bbc2-7300-4733-a452-f59d34bfb7f6" d="M115.5,64.44,94.55,286.3s-.83,3.46,3.31,3.74,5.51-2.3,5.79-5.88,20.12-177.71,21.22-219.71Z"/><path class="e858bbc2-7300-4733-a452-f59d34bfb7f6" d="M207.26,61.44l49.33,185.74s.83,5.23,8.54,3.3c0,0-41.61-177-47.67-189Z"/><ellipse class="e858bbc2-7300-4733-a452-f59d34bfb7f6" cx="144.43" cy="34.36" rx="143.93" ry="33.86"/><path class="57fc0072-0be2-4221-98e6-075b9d9c396f" d="M288.36,34.36S273.94,61.47,144.43,61.47.5,34.36.5,34.36"/><ellipse class="769dc57f-f7ae-46de-a37d-32b08acde0a9" cx="111.71" cy="152.34" rx="3.18" ry="2.02" transform="translate(-49.35 251.08) rotate(-85.26)"/><ellipse class="769dc57f-f7ae-46de-a37d-32b08acde0a9" cx="118.39" cy="75.18" rx="3.18" ry="2.02" transform="translate(33.68 186.95) rotate(-85.26)"/><ellipse class="769dc57f-f7ae-46de-a37d-32b08acde0a9" cx="235.16" cy="135.76" rx="1.01" ry="3.18" transform="translate(-21.61 47.45) rotate(-11.02)"/></g></g></svg>