<svg width="20" height="18" fill="none" xmlns="http://www.w3.org/2000/svg"><path fill-rule="evenodd" clip-rule="evenodd" d="M12.893 3.004c3.96 0 7.107 3.105 7.107 7.011s-3.147 7.01-7.107 7.01h-1.015v-2.002h1.015c2.843 0 5.076-2.204 5.076-5.008s-2.233-5.008-5.076-5.008H4.772L6.396 6.21c.406.3.508 1.002.203 1.402-.203.3-.508.401-.812.401-.203 0-.406-.1-.61-.2L0 4.006 5.178.2c.406-.3 1.015-.2 1.421.2.305.401.203 1.102-.203 1.403L4.772 3.004h8.121zM7.817 17.026v-2.003h3.046v2.003H7.817zm-3.045 0v-2.003h2.03v2.003h-2.03zm-2.03 0v-2.003h1.014v2.003H2.741z" fill="#333"/></svg>