<?xml version="1.0" encoding="utf-8"?><svg width="166" height="78" viewBox="0 0 166 78" xmlns="http://www.w3.org/2000/svg" xmlns:xlink="http://www.w3.org/1999/xlink"><svg width="9" height="5" fill="none" viewBox="0 0 9 5" id="arrow-down" x="83" y="53.989999999999995" xmlns="http://www.w3.org/2000/svg"><g clip-path="url(#clip0)"><path d="M1 1l3.5 3L8 1"/></g></svg><svg width="10" height="18" fill="none" viewBox="0 0 10 18" id="arrow-left" x="90" y="17.99" xmlns="http://www.w3.org/2000/svg"><path fill-rule="evenodd" clip-rule="evenodd" d="M.455 10.133l6.97 7.45a1.557 1.557 0 0 0 2.12 0c.607-.667.607-1.668 0-2.224l-5.96-6.338 5.96-6.338c.607-.667.607-1.667 0-2.223-.606-.556-1.515-.668-2.12 0L.454 7.91c-.607.555-.607 1.556 0 2.223z" fill="#7F7F7F"/></svg><svg width="10" height="18" fill="none" viewBox="0 0 10 18" id="arrow-right" x="80" y="17.99" xmlns="http://www.w3.org/2000/svg"><path fill-rule="evenodd" clip-rule="evenodd" d="M9.545 7.867L2.575.417a1.557 1.557 0 0 0-2.12 0c-.607.667-.607 1.668 0 2.224l5.96 6.338-5.96 6.338c-.607.667-.607 1.667 0 2.223.606.556 1.515.668 2.12 0l6.97-7.45c.607-.555.607-1.556 0-2.223z" fill="#7F7F7F"/></svg><svg width="18" height="16" fill="none" viewBox="0 0 18 16" id="basket-favorite" x="123.01" y="60" xmlns="http://www.w3.org/2000/svg"><mask id="da" x="0" y="0" width="18" height="16"><path d="M12.97 0c-1.707 0-3.25.835-3.966 2.138C8.29.836 6.728 0 5.022 0 2.356 0-1.218 2.01.41 7.492 2.27 12.85 9.005 16.002 9.005 16c0 .001 6.727-3.15 8.586-8.508C19.22 2.01 15.635 0 12.97 0z" fill="#fff"/></mask><g mask="url(#da)"><path d="M12.97 0c-1.707 0-3.25.835-3.966 2.138C8.29.836 6.728 0 5.022 0 2.356 0-1.218 2.01.41 7.492 2.27 12.85 9.005 16.002 9.005 16c0 .001 6.727-3.15 8.586-8.508C19.22 2.01 15.635 0 12.97 0z" fill="#515151"/><path d="M21-4H-3v24h24V-4z" fill="#333"/></g></svg><svg width="18" height="16" fill="none" viewBox="0 0 18 16" id="basket-favorite-active" x="105.01" y="60" xmlns="http://www.w3.org/2000/svg"><mask id="ea" x="0" y="0" width="18" height="16"><path d="M12.97 0c-1.707 0-3.25.835-3.966 2.138C8.29.836 6.728 0 5.022 0 2.356 0-1.218 2.01.41 7.492 2.27 12.85 9.005 16.002 9.005 16c0 .001 6.727-3.15 8.586-8.508C19.22 2.01 15.635 0 12.97 0z" fill="#fff"/></mask><g mask="url(#ea)"><path d="M12.97 0c-1.707 0-3.25.835-3.966 2.138C8.29.836 6.728 0 5.022 0 2.356 0-1.218 2.01.41 7.492 2.27 12.85 9.005 16.002 9.005 16c0 .001 6.727-3.15 8.586-8.508C19.22 2.01 15.635 0 12.97 0z" fill="#515151"/><path d="M21-4H-3v24h24V-4z" fill="#ea1e31"/></g></svg><svg width="16" height="16" fill="none" viewBox="0 0 16 16" id="basket-remove" x="141.01" y="60" xmlns="http://www.w3.org/2000/svg"><mask id="fa" x="0" y="0" width="16" height="16"><path d="M5 1V.5a.5.5 0 0 1 .491-.5h5.018A.5.5 0 0 1 11 .5V1h4a1 1 0 0 1 1 1v1H0V2a1 1 0 0 1 1-1h4zm7.15 15H3.845a1 1 0 0 1-.986-.835L1 4h14l-1.864 11.166a.999.999 0 0 1-.986.834z" fill="#fff"/></mask><g mask="url(#fa)"><path d="M5 1V.5a.5.5 0 0 1 .491-.5h5.018A.5.5 0 0 1 11 .5V1h4a1 1 0 0 1 1 1v1H0V2a1 1 0 0 1 1-1h4zm7.15 15H3.845a1 1 0 0 1-.986-.835L1 4h14l-1.864 11.166a.999.999 0 0 1-.986.834z" fill="#42526E"/><path d="M20-4H-4v24h24V-4z" fill="#333"/></g></svg><svg width="20" height="18" fill="none" viewBox="0 0 20 18" id="basket-return" x="60" y="17.99" xmlns="http://www.w3.org/2000/svg"><path fill-rule="evenodd" clip-rule="evenodd" d="M12.893 3.004c3.96 0 7.107 3.105 7.107 7.011s-3.147 7.01-7.107 7.01h-1.015v-2.002h1.015c2.843 0 5.076-2.204 5.076-5.008s-2.233-5.008-5.076-5.008H4.772L6.396 6.21c.406.3.508 1.002.203 1.402-.203.3-.508.401-.812.401-.203 0-.406-.1-.61-.2L0 4.006 5.178.2c.406-.3 1.015-.2 1.421.2.305.401.203 1.102-.203 1.403L4.772 3.004h8.121zM7.817 17.026v-2.003h3.046v2.003H7.817zm-3.045 0v-2.003h2.03v2.003h-2.03zm-2.03 0v-2.003h1.014v2.003H2.741z" fill="#333"/></svg><svg width="14" height="14" fill="none" viewBox="0 0 14 14" id="close" x="78" y="35.989999999999995" xmlns="http://www.w3.org/2000/svg"><g clip-path="url(#clip0)"><mask id="ha" x="0" y="0" width="15" height="15"><path d="M7 5.586L12.293.293a1 1 0 1 1 1.414 1.414L8.414 7l5.293 5.293a1 1 0 0 1-1.414 1.414L7 8.414l-5.293 5.293a1 1 0 0 1-1.414-1.414L5.586 7 .293 1.707A1 1 0 0 1 1.707.293L7 5.586z" fill="#fff"/></mask><g mask="url(#ha)"><path d="M7 5.586L12.293.293a1 1 0 1 1 1.414 1.414L8.414 7l5.293 5.293a1 1 0 0 1-1.414 1.414L7 8.414l-5.293 5.293a1 1 0 0 1-1.414-1.414L5.586 7 .293 1.707A1 1 0 0 1 1.707.293L7 5.586z" fill="#42526E"/><path d="M19-5H-5v24h24V-5z" fill="#CCC"/></g></g></svg><svg width="10" height="2" viewBox="0 0 10 2" id="count-minus" x="78" y="49.989999999999995" xmlns="http://www.w3.org/2000/svg"><g transform="translate(-17 -17)" fill="none"><path d="M0 0h45v36H0z"/><rect fill="#333" x="17" y="17" width="10" height="2" rx="1"/></g></svg><svg width="10" height="10" viewBox="0 0 10 10" id="count-plus" x="73" y="53.989999999999995" xmlns="http://www.w3.org/2000/svg"><g fill="none" fill-rule="evenodd"><path d="M-17-13h45v36h-45z"/><path d="M4 4V1a1 1 0 0 1 2 0v3h3a1 1 0 0 1 0 2H6v3a1 1 0 0 1-2 0V6H1a1 1 0 0 1 0-2h3z" fill="#333"/></g></svg><svg viewBox="0 0 105.01 17.99" width="105.01" height="17.99" id="logo"><path class="kcls-1" d="M61.4 4.807c0 .792.03 1.549 0 2.3a20.765 20.765 0 0 1-.94 6.063 5.039 5.039 0 0 1-1.28 2.135 3.2 3.2 0 0 1-2.79.838.637.637 0 0 1-.66-.772 10.067 10.067 0 0 1 0-1.1.422.422 0 0 1 .49-.5.639.639 0 0 1 .14 0 1.469 1.469 0 0 0 1.65-1.092 11.431 11.431 0 0 0 .71-2.767 55.666 55.666 0 0 0 .36-6.707V3c.03-.545.11-.645.64-.647q3.66-.012 7.33 0c.5 0 .62.154.65.656.01.114 0 .229 0 .343V14.9c0 .16.01.322 0 .481a.562.562 0 0 1-.65.606c-.38.01-.76.014-1.14 0a.54.54 0 0 1-.6-.639c-.01-.16 0-.32 0-.481V4.846a20.37 20.37 0 0 0-3.91-.039zm-14.68 4.31c.95 1.425 1.87 2.8 2.79 4.178.42.641.86 1.278 1.28 1.925a.674.674 0 0 1 .19.721 4.17 4.17 0 0 1-.42.043 9.867 9.867 0 0 0-1.2.012 1.671 1.671 0 0 1-1.76-.957c-1.01-1.564-2.07-3.089-3.11-4.631H42.7a5.392 5.392 0 0 0-.04.544v4.19c-.01.728-.12.837-.82.843-.33 0-.67.014-1.01 0a.528.528 0 0 1-.57-.6c-.01-.137-.01-.275-.01-.412V3.088c.02-.626.1-.72.7-.735.38-.009.76-.014 1.14.006a.491.491 0 0 1 .56.537 3.842 3.842 0 0 1 .01.48v4.6c.54 0 1.05.038 1.56-.006a.772.772 0 0 0 .42-.376c.74-1.193 1.47-2.4 2.2-3.6.21-.349.44-.689.64-1.042a1.091 1.091 0 0 1 1.05-.606c.71.028 1.42-.036 2.22.051a13.941 13.941 0 0 1-1.28 2.274c-.44.746-.91 1.469-1.36 2.2s-.91 1.467-1.39 2.246zm35.61 4.509H76.4c-.25.53-.52 1.054-.74 1.594a1.08 1.08 0 0 1-1.19.774c-.38-.037-.76 0-1.14-.009-.5-.017-.59-.171-.38-.64.74-1.585 1.49-3.165 2.23-4.747 1.14-2.425 2.27-4.851 3.41-7.274a4.229 4.229 0 0 1 .44-.764.4.4 0 0 1 .72.034 4.22 4.22 0 0 1 .33.6l5.58 11.9a.622.622 0 0 1 .05.123c.28.64.21.766-.46.774-.38 0-.76-.014-1.14 0a.915.915 0 0 1-.95-.6l-.83-1.765zm-4.86-2.358c1.31.005 2.52 0 3.79 0-.64-1.383-1.25-2.715-1.9-4.124-.64 1.4-1.24 2.709-1.89 4.124zm-48.85-9.35a6.506 6.506 0 0 1 4.58 1.794 2.171 2.171 0 0 1 .28.3.41.41 0 0 1-.05.608c-.37.293-.75.573-1.14.835a.73.73 0 0 1-.77 0 4.623 4.623 0 0 1-.46-.28 4.9 4.9 0 0 0-5.53.308 3.925 3.925 0 0 0-1.32 1.943 5.27 5.27 0 0 0 .16 3.808 4.124 4.124 0 0 0 3.67 2.564c.13.013.27.006.4.016a3.978 3.978 0 0 0 2.78-.773.993.993 0 0 1 1.39.019c.24.206.51.374.75.581a.445.445 0 0 1 .05.754 6.537 6.537 0 0 1-.98.83 6.713 6.713 0 0 1-4.59 1.091 7.42 7.42 0 0 1-2.87-.836 6.466 6.466 0 0 1-3.24-4.32 7.666 7.666 0 0 1 .71-5.82 6.46 6.46 0 0 1 4.52-3.221c.54-.114 1.1-.137 1.66-.201zm-21.36.715l4.97 4.1V14H2.29V6.732l4.97-4.1m0-2.625a1.342 1.342 0 0 0-.84.3L.5 5.2A1.365 1.365 0 0 0 0 6.265v8.718a1.354 1.354 0 0 0 1.34 1.368h11.85a1.354 1.354 0 0 0 1.34-1.368V6.265a1.4 1.4 0 0 0-.5-1.065L8.1.308a1.3 1.3 0 0 0-.84-.3zM92.49 18c-.01-.636-.01-1.273-.01-1.9.5-.132 9.07-.169 10.11-.042V18H105v-4.209a1.708 1.708 0 0 0-1.01-.249 4.653 4.653 0 0 1-1.27-.05V3.355c0-.183 0-.366-.01-.549a.416.416 0 0 0-.42-.439c-.11-.01-.22-.014-.33-.014h-7.45c-.7 0-.78.094-.79.785-.05 1.6-.08 3.2-.14 4.8a16.076 16.076 0 0 1-.57 3.778 9.831 9.831 0 0 1-.6 1.439.6.6 0 0 1-.65.381 9.53 9.53 0 0 0-1 0 .574.574 0 0 0-.67.715c-.01 1.25 0 2.5-.01 3.749h2.41zm3.66-13.222h4.14V13.5h-5.26a29.639 29.639 0 0 0 1.12-8.723zM18.22 16.352a1.157 1.157 0 0 1-1.14-1.173A1.157 1.157 0 0 1 18.22 14a1.159 1.159 0 0 1 1.15 1.173 1.159 1.159 0 0 1-1.15 1.178z"/></svg><svg width="13" height="13" fill="none" viewBox="0 0 13 13" id="pencil-blue" x="92" y="35.989999999999995" xmlns="http://www.w3.org/2000/svg"><path d="M8.084 2.19l2.644 2.645-6.694 6.694-2.643-2.644L8.084 2.19zm4.65-.637L11.557.373a1.17 1.17 0 0 0-1.654 0l-1.13 1.13 2.645 2.645 1.318-1.318a.902.902 0 0 0 0-1.277zM.008 12.602a.3.3 0 0 0 .364.358l2.947-.715L.675 9.601l-.668 3z" fill="#1769FF"/></svg><svg width="13" height="13" fill="none" viewBox="0 0 13 13" id="pencil-white" x="60" y="53.989999999999995" xmlns="http://www.w3.org/2000/svg"><path d="M8.084 2.19l2.644 2.645-6.694 6.694-2.643-2.644L8.084 2.19zm4.65-.637L11.557.373a1.17 1.17 0 0 0-1.654 0l-1.13 1.13 2.645 2.645 1.318-1.318a.902.902 0 0 0 0-1.277zM.008 12.602a.3.3 0 0 0 .364.358l2.947-.715L.675 9.601l-.668 3z" fill="#FFF"/></svg><svg width="18" height="18" viewBox="0 0 18 18" id="plus-white" x="60" y="35.989999999999995" xmlns="http://www.w3.org/2000/svg"><defs><path d="M12 21a9 9 0 1 0 0-18 9 9 0 0 0 0 18zm-.954-13.042v3.088H7.958a.954.954 0 1 0 0 1.908h3.088v3.088a.954.954 0 1 0 1.908 0v-3.088h3.088a.954.954 0 1 0 0-1.908h-3.088V7.958a.954.954 0 1 0-1.908 0z" id="na"/></defs><use fill="#42526E" xlink:href="#na" transform="translate(-3 -3)" fill-rule="evenodd"/></svg><svg width="60" height="60" viewBox="0 0 60 60" id="warranty-color" x="105.01" xmlns="http://www.w3.org/2000/svg"><defs><lineargradient x1="50%" y1="0%" x2="50%" y2="100%" id="ob"><stop stop-color="#F1C24F" offset="0%"/><stop stop-color="#E69B37" offset="100%"/></lineargradient></defs><g fill="none" fill-rule="evenodd"><path d="M17.479 8.264c0 .878-1.105 1.574-1.366 2.367-.271.821.201 2.025-.303 2.71-.509.69-1.816.615-2.516 1.118-.692.498-1.022 1.752-1.853 2.018-.803.258-1.812-.556-2.702-.556-.889 0-1.899.814-2.701.556-.832-.266-1.162-1.52-1.854-2.018-.7-.503-2.007-.429-2.516-1.119-.503-.684-.032-1.888-.302-2.709C1.105 9.838 0 9.142 0 8.264c0-.879 1.105-1.574 1.366-2.367.27-.822-.201-2.025.302-2.709.509-.69 1.817-.617 2.516-1.119C4.876 1.571 5.206.317 6.038.05 6.84-.207 7.85.607 8.739.607c.89 0 1.899-.814 2.702-.557.831.267 1.161 1.521 1.853 2.02.7.501 2.007.427 2.516 1.118.504.684.032 1.887.303 2.71.261.792 1.366 1.487 1.366 2.366" fill="url(#a)" transform="translate(3)"/><path d="M14.106 8.417a5.361 5.361 0 0 1-5.367 5.356 5.36 5.36 0 0 1-5.366-5.356 5.36 5.36 0 0 1 5.366-5.356 5.361 5.361 0 0 1 5.367 5.356" fill="url(#ob)" transform="translate(3)"/><path d="M12.732 16.794c-.351-.132-.714-.27-.992-.27s-.641.138-.992.27c-.427.162-.895.338-1.372.338a1.66 1.66 0 0 1-.522-.08c-.68-.217-1.072-.816-1.418-1.345a8.571 8.571 0 0 0-.281-.41l-3.317 5.64 3.466.082 1.76 2.98 4.14-7.035a10.82 10.82 0 0 1-.472-.17" fill="#BED5FF"/><path d="M16.335 15.282a8.272 8.272 0 0 0-.291.425c-.346.53-.738 1.128-1.418 1.346a1.677 1.677 0 0 1-.495.08l-1.869 3.174L14.435 24l1.76-2.982 3.466-.082-3.326-5.654z" fill="#85B0FF"/></g></svg><svg width="60" height="60" viewBox="0 0 60 60" id="warranty-gray" y="17.99" xmlns="http://www.w3.org/2000/svg"><defs><lineargradient x1="50%" y1="0%" x2="50%" y2="100%" id="pb"><stop stop-color="#CCC" offset="0%"/><stop stop-color="#B2B2B2" offset="100%"/></lineargradient></defs><g fill="none" fill-rule="evenodd"><path d="M17.479 8.264c0 .878-1.105 1.574-1.366 2.367-.271.821.201 2.025-.303 2.71-.509.69-1.816.615-2.516 1.118-.692.498-1.022 1.752-1.853 2.018-.803.258-1.812-.556-2.702-.556-.889 0-1.899.814-2.701.556-.832-.266-1.162-1.52-1.854-2.018-.7-.503-2.007-.429-2.516-1.119-.503-.684-.032-1.888-.302-2.709C1.105 9.838 0 9.142 0 8.264c0-.879 1.105-1.574 1.366-2.367.27-.822-.201-2.025.302-2.709.509-.69 1.817-.617 2.516-1.119C4.876 1.571 5.206.317 6.038.05 6.84-.207 7.85.607 8.739.607c.89 0 1.899-.814 2.702-.557.831.267 1.161 1.521 1.853 2.02.7.501 2.007.427 2.516 1.118.504.684.032 1.887.303 2.71.261.792 1.366 1.487 1.366 2.366" fill="url(#a)" transform="translate(3)"/><path d="M14.106 8.417a5.361 5.361 0 0 1-5.367 5.356 5.36 5.36 0 0 1-5.366-5.356 5.36 5.36 0 0 1 5.366-5.356 5.361 5.361 0 0 1 5.367 5.356" fill="url(#pb)" transform="translate(3)"/><path d="M12.732 16.794c-.351-.132-.714-.27-.992-.27s-.641.138-.992.27c-.427.162-.895.338-1.372.338a1.66 1.66 0 0 1-.522-.08c-.68-.217-1.072-.816-1.418-1.345a8.571 8.571 0 0 0-.281-.41l-3.317 5.64 3.466.082 1.76 2.98 4.14-7.035a10.82 10.82 0 0 1-.472-.17" fill="#CCC"/><path d="M16.335 15.282a8.272 8.272 0 0 0-.291.425c-.346.53-.738 1.128-1.418 1.346a1.677 1.677 0 0 1-.495.08l-1.869 3.174L14.435 24l1.76-2.982 3.466-.082-3.326-5.654z" fill="#B2B2B2"/></g></svg></svg>