<svg width="18" height="17" viewBox="0 0 18 17" fill="none" xmlns="http://www.w3.org/2000/svg">
<path d="M3.89174 7.31963C3.24381 7.31963 2.71731 6.79673 2.71731 6.15104C2.71731 5.50534 3.24381 4.98245 3.89174 4.98245C4.54066 4.98245 5.06616 5.50534 5.06616 6.15104C5.06616 6.79673 4.54066 7.31963 3.89174 7.31963ZM3.00624 1.48549C3.00624 2.29558 2.34836 2.95217 1.53522 2.95811V9.35366C2.34438 9.3606 2.99927 10.0103 3.00524 10.8164H14.9774C14.9834 10.0063 15.6433 9.35267 16.4574 9.35267C16.4604 9.35267 16.4624 9.35366 16.4654 9.35366V2.95911C16.4624 2.95911 16.4604 2.9601 16.4574 2.9601C15.6393 2.9601 14.9764 2.29955 14.9764 1.48549H3.00624ZM1.26052 12.3019C0.587712 12.3019 0.0422993 11.7592 0.0422993 11.0897V1.21216C0.0422993 0.542701 0.587712 0 1.26052 0H16.7391C17.4119 0 17.9583 0.542701 17.9583 1.21216V11.0897C17.9583 11.7592 17.4119 12.3019 16.7391 12.3019H1.26052ZM0.746459 14.5435C0.334413 14.5435 0 14.2107 0 13.8007C0 13.3907 0.334413 13.058 0.746459 13.058H17.2531C17.6662 13.058 17.9996 13.3907 17.9996 13.8007C17.9996 14.2107 17.6662 14.5435 17.2531 14.5435H0.746459ZM17.2535 15.5145C17.6656 15.5145 18 15.8473 18 16.2573C18 16.6672 17.6656 17 17.2535 17H0.746857C0.333816 17 0.000398177 16.6672 0.000398177 16.2573C0.000398177 15.8473 0.333816 15.5145 0.746857 15.5145H17.2535ZM9.0003 8.73887C7.56411 8.73887 6.39964 7.58018 6.39964 6.15114C6.39964 4.7211 7.56411 3.56241 9.0003 3.56241C10.4365 3.56241 11.602 4.7211 11.602 6.15114C11.602 7.58018 10.4365 8.73887 9.0003 8.73887ZM14.1084 7.31963C13.4604 7.31963 12.9339 6.79673 12.9339 6.15104C12.9339 5.50534 13.4604 4.98245 14.1084 4.98245C14.7573 4.98245 15.2838 5.50534 15.2838 6.15104C15.2838 6.79673 14.7573 7.31963 14.1084 7.31963Z" fill="black"/>
</svg>
