<svg width="24" height="24" viewBox="0 0 24 24" fill="none" xmlns="http://www.w3.org/2000/svg">
<g clip-path="url(#clip0)">
<path d="M16.965 24.0002H6.05522C5.81702 24.0045 5.58494 23.9256 5.39981 23.7775C5.21469 23.6293 5.0884 23.4213 5.04318 23.1902L3.01909 13.1902C2.99012 13.045 2.99416 12.8952 3.03092 12.7516C3.06767 12.6081 3.13622 12.4744 3.23162 12.3602C3.32894 12.2447 3.45136 12.1524 3.58978 12.09C3.7282 12.0277 3.87906 11.997 4.03113 12.0002H18.9891C19.1386 12.0012 19.286 12.0349 19.4207 12.0989C19.5555 12.1628 19.6742 12.2555 19.7684 12.3702C19.8638 12.4844 19.9323 12.6181 19.9691 12.7616C20.0058 12.9052 20.0099 13.055 19.9809 13.2002L17.9568 23.2002C17.9102 23.4261 17.786 23.6291 17.6052 23.7749C17.4245 23.9207 17.1983 24.0003 16.965 24.0002ZM6.84461 22.0002H16.1554L17.7747 14.0002H5.26583L6.84461 22.0002Z" fill="black"/>
<path d="M17.077 14C16.8171 14.0003 16.567 13.9012 16.3786 13.7233C16.1901 13.5453 16.0778 13.3021 16.0648 13.0441C15.9553 9.87469 16.8784 6.75488 18.6966 4.14907C12.522 7.16774 12.9977 12.6215 13.018 12.8831C13.0464 13.1471 12.9688 13.4116 12.8019 13.6189C12.6351 13.8262 12.3926 13.9596 12.1272 13.9899C11.8616 14.0182 11.5956 13.941 11.387 13.7752C11.1785 13.6093 11.0443 13.3682 11.0138 13.1045C10.9243 11.3698 11.2722 9.64036 12.026 8.07334C13.1496 5.6584 15.7409 2.46867 21.7434 1.02977C21.9659 0.974731 22.2006 0.996434 22.4091 1.09133C22.6176 1.18622 22.7876 1.34868 22.891 1.5521C22.9945 1.75553 23.0255 1.98785 22.9788 2.21104C22.9321 2.43423 22.8106 2.63504 22.6341 2.7806C22.6341 2.7806 17.8058 6.82562 18.0892 12.9938C18.0896 13.2521 17.9899 13.5007 17.8109 13.6881C17.6318 13.8754 17.3872 13.9871 17.1276 14H17.077Z" fill="black"/>
<path d="M11.9702 13.9815C11.7452 13.9892 11.5243 13.9205 11.3433 13.7865C11.1624 13.6524 11.0321 13.4611 10.9737 13.2435C10.6154 11.8754 9.9635 10.6019 9.06343 9.51156C8.16336 8.42125 7.03671 7.54034 5.7619 6.93012C6.806 8.82703 7.23438 11.0021 6.98762 13.1537C6.94401 13.4182 6.7972 13.6546 6.57948 13.8108C6.36176 13.9669 6.09096 14.0302 5.82667 13.9865C5.56238 13.9429 5.32623 13.7959 5.17018 13.578C5.01414 13.3601 4.95097 13.0891 4.99458 12.8246V12.8246C5.13831 11.5156 4.97135 10.1912 4.50729 8.95899C4.04323 7.72679 3.29515 6.6216 2.3239 5.73328C2.16782 5.59038 2.06123 5.40148 2.01954 5.19392C1.97786 4.98636 2.00324 4.77091 2.09203 4.57875C2.18081 4.38659 2.32839 4.22769 2.5134 4.12505C2.69841 4.02241 2.91125 3.98136 3.12112 4.00783C5.43356 4.33949 7.59829 5.34178 9.348 6.89091C11.0977 8.44005 12.3557 10.4682 12.9667 12.7248C13.034 12.9787 12.9984 13.2489 12.8678 13.4767C12.7372 13.7045 12.5221 13.8716 12.2692 13.9416C12.1733 13.9751 12.0715 13.9887 11.9702 13.9815V13.9815Z" fill="black"/>
<path d="M17 20H6C5.73478 20 5.48043 19.8946 5.29289 19.7071C5.10536 19.5196 5 19.2652 5 19C5 18.7348 5.10536 18.4804 5.29289 18.2929C5.48043 18.1054 5.73478 18 6 18H17C17.2652 18 17.5196 18.1054 17.7071 18.2929C17.8946 18.4804 18 18.7348 18 19C18 19.2652 17.8946 19.5196 17.7071 19.7071C17.5196 19.8946 17.2652 20 17 20Z" fill="black"/>
</g>
<defs>
<clipPath id="clip0">
<rect width="24" height="24" fill="white"/>
</clipPath>
</defs>
</svg>
