<svg width="20" height="20" viewBox="0 0 20 20" fill="none" xmlns="http://www.w3.org/2000/svg">
<path d="M15.1984 10.6268C15.1721 8.09394 17.3547 6.87922 17.4522 6.81887C16.2258 5.09973 14.3154 4.86422 13.6347 4.83699C12.0089 4.6793 10.4623 5.75395 9.63726 5.75395C8.8142 5.75395 7.54095 4.86031 6.19259 4.88379C4.42051 4.90902 2.78656 5.87086 1.8741 7.39121C0.0329515 10.4518 1.4026 14.9857 3.19709 17.4679C4.07396 18.6829 5.11955 20.0475 6.49238 19.9987C7.81439 19.9482 8.31432 19.1793 9.91263 19.1793C11.5109 19.1793 11.9602 19.9988 13.3592 19.9736C14.7818 19.9483 15.6831 18.7354 16.5539 17.5166C17.5609 16.1071 17.9755 14.7425 18 14.6724C17.9684 14.6586 15.2259 13.6521 15.1984 10.6268ZM12.5696 3.19379C13.2983 2.34695 13.7901 1.17207 13.6559 0C12.6064 0.0409375 11.3342 0.669727 10.5811 1.51465C9.90554 2.26418 9.31403 3.46047 9.47253 4.6091C10.6442 4.69668 11.8403 4.03871 12.5696 3.19379Z" fill="black"/>
</svg>
