<svg width="13" height="11" viewBox="0 0 13 11" fill="none" xmlns="http://www.w3.org/2000/svg">
<path d="M5.27006 0.200031L0.215222 5.01109C0.213778 5.01178 0.212333 5.01247 0.210167 5.01384C0.0700554 5.1472 0 5.32386 0 5.50052C0 5.67718 0.0700554 5.85384 0.210167 5.98788C0.212333 5.98856 0.2145 5.98925 0.215944 5.99063L5.26789 10.7989C5.54883 11.067 6.00817 11.067 6.28911 10.7989C6.57006 10.5322 6.57006 10.0944 6.28911 9.82697L2.46567 6.18791H12.2778C12.675 6.18791 13 5.87858 13 5.50052C13 5.12314 12.675 4.81381 12.2778 4.81381H2.46567L6.29128 1.172C6.57222 0.904609 6.57222 0.467427 6.29128 0.200031C6.15044 0.066677 5.96556 0 5.77994 0C5.59506 0 5.40944 0.066677 5.27006 0.200031Z" fill="#fff"/>
</svg>
