<svg width="14" height="13" viewBox="0 0 14 13" fill="none" xmlns="http://www.w3.org/2000/svg">
<path d="M7.22711 0.236401C6.92456 0.551601 6.92456 1.06908 7.22711 1.3851L11.3447 5.6858H0.777778C0.35 5.6858 0 6.05137 0 6.49817C0 6.94579 0.35 7.31136 0.777778 7.31136H11.3447L7.22478 11.6137C6.92222 11.9297 6.92222 12.4464 7.22478 12.7624C7.52733 13.0792 8.02278 13.0792 8.32455 12.7624L13.7682 7.07739C13.7698 7.07658 13.7713 7.07496 13.7737 7.07333C13.9246 6.91654 14 6.70695 14 6.49817C14 6.28939 13.9246 6.08061 13.7737 5.92301C13.7713 5.9222 13.769 5.92057 13.7674 5.91895L8.32689 0.236401C8.176 0.0788003 7.97611 0 7.777 0C7.57789 0 7.378 0.0788003 7.22711 0.236401Z" fill="black"/>
</svg>
