<?xml version="1.0" encoding="UTF-8"?>
<svg width="20px" height="20px" viewBox="0 0 20 20" version="1.1" xmlns="http://www.w3.org/2000/svg" xmlns:xlink="http://www.w3.org/1999/xlink">
    <defs>
        <path d="M21.5,20.5 C21.776,20.5 22,20.724 22,21 L22,21.5 C22,21.776 21.776,22 21.5,22 L2.5,22 C2.224,22 2,21.776 2,21.5 L2,21 C2,20.724 2.224,20.5 2.5,20.5 L21.5,20.5 Z M10.1665,19 L9.1665,19 C8.8905,19 8.6665,18.776 8.6665,18.5 L8.6665,13.814 C8.6665,13.538 8.8905,13.314 9.1665,13.314 L10.1665,13.314 C10.4425,13.314 10.6665,13.538 10.6665,13.814 L10.6665,18.5 C10.6665,18.776 10.4425,19 10.1665,19 Z M14.833,19 L13.833,19 C13.558,19 13.333,18.776 13.333,18.5 L13.333,13.814 C13.333,13.538 13.558,13.314 13.833,13.314 L14.833,13.314 C15.109,13.314 15.333,13.538 15.333,13.814 L15.333,18.5 C15.333,18.776 15.109,19 14.833,19 Z M19.5,19 L18.5,19 C18.224,19 18,18.776 18,18.5 L18,13.814 C18,13.538 18.224,13.314 18.5,13.314 L19.5,13.314 C19.776,13.314 20,13.538 20,13.814 L20,18.5 C20,18.776 19.776,19 19.5,19 Z M5.5,19 L4.5,19 C4.224,19 4,18.776 4,18.5 L4,13.814 C4,13.538 4.224,13.314 4.5,13.314 L5.5,13.314 C5.776,13.314 6,13.538 6,13.814 L6,18.5 C6,18.776 5.776,19 5.5,19 Z M12,9.9043 C12.965,9.9043 13.748,9.1213 13.748,8.1563 C13.748,7.1913 12.965,6.4083 12,6.4083 C11.035,6.4083 10.252,7.1913 10.252,8.1563 C10.252,9.1213 11.035,9.9043 12,9.9043 Z M21.869,10.8513 C22.145,11.1123 21.956,11.5693 21.574,11.5693 L2.425,11.5693 C2.043,11.5693 1.856,11.1123 2.131,10.8513 L11.072,2.3683 C11.59,1.8773 12.41,1.8773 12.928,2.3683 L21.869,10.8513 Z" id="path-1"></path>
    </defs>
    <g id="Illustrations" stroke="none" stroke-width="1" fill="none" fill-rule="evenodd">
        <g id="illustrations-/-bank" transform="translate(-2.000000, -2.000000)">
            <mask id="mask-2" fill="white">
                <use xlink:href="#path-1"></use>
            </mask>
            <use id="Fill-2" fill="#000000" xlink:href="#path-1"></use>
        </g>
    </g>
</svg>