<?xml version="1.0" encoding="UTF-8"?>
<svg width="20px" height="20px" viewBox="0 0 20 20" version="1.1" xmlns="http://www.w3.org/2000/svg" xmlns:xlink="http://www.w3.org/1999/xlink">
    <defs>
        <path d="M20.549,5.0007 C20.97,5.0007 21.244,5.3417 21.162,5.7617 L20.401,9.6807 C20.244,10.4837 19.47,11.1737 18.55,11.3297 L8.826,13.4097 C8.37,13.5077 8.232,13.8227 8.283,14.2497 C8.358,14.8717 8.423,15.2827 9.375,15.2867 L17.311,15.2867 C17.323,15.2867 17.332,15.2937 17.345,15.2937 C17.358,15.2937 17.367,15.2867 17.38,15.2867 C17.933,15.2867 18.38,15.7337 18.38,16.2867 C18.38,16.8387 17.933,17.2867 17.38,17.2867 L8.986,17.2867 C7.22,17.2867 5.928,16.0597 5.881,14.3347 L5.651,6.0767 C5.634,5.4697 5.286,4.9787 4.735,4.7817 L2.683,4.0507 C2.682,4.0487 2.679,4.0447 2.678,4.0427 C2.282,3.8887 2,3.5097 2,3.0597 C2,3.0067 2.023,2.9607 2.03,2.9107 C2.031,2.8917 2.039,2.8727 2.042,2.8537 C2.137,2.3867 2.522,2.0327 3.011,2.0097 C3.018,2.0087 3.024,2.0067 3.03,2.0057 C3.041,2.0057 3.049,1.9997 3.06,1.9997 C3.104,1.9997 3.142,2.0197 3.185,2.0247 C3.257,2.0317 3.329,2.0267 3.4,2.0517 L5.736,2.8847 C6.701,3.2287 7.372,4.0137 7.599,5.0007 L20.549,5.0007 Z M16.38,18.4294 C17.366,18.4294 18.166,19.2294 18.166,20.2144 C18.166,21.2004 17.366,22.0004 16.38,22.0004 C15.394,22.0004 14.594,21.2004 14.594,20.2144 C14.594,19.2294 15.394,18.4294 16.38,18.4294 Z M7.38,18.4294 C8.366,18.4294 9.166,19.2294 9.166,20.2144 C9.166,21.2004 8.366,22.0004 7.38,22.0004 C6.394,22.0004 5.594,21.2004 5.594,20.2144 C5.594,19.2294 6.394,18.4294 7.38,18.4294 Z" id="path-1"></path>
    </defs>
    <g id="Standard-icons" stroke="none" stroke-width="1" fill="none" fill-rule="evenodd">
        <g id="standard-/-Basket" transform="translate(-2.000000, -2.000000)">
            <mask id="mask-2" fill="white">
                <use xlink:href="#path-1"></use>
            </mask>
            <use id="basket" fill="#ffffff" xlink:href="#path-1"></use>
        </g>
    </g>
</svg>