<?xml version="1.0" encoding="UTF-8"?>
<svg width="20px" height="16px" viewBox="0 0 20 16" version="1.1" xmlns="http://www.w3.org/2000/svg" xmlns:xlink="http://www.w3.org/1999/xlink">
    <defs>
        <path d="M20.5,8.28571429 L20.5,7 C20.5,6.17157288 19.8284271,5.5 19,5.5 L5,5.5 C4.17157288,5.5 3.5,6.17157288 3.5,7 L3.5,8.28571429 L20.5,8.28571429 Z M20.5,14 L3.5,14 L3.5,17 C3.5,17.8284271 4.17157288,18.5 5,18.5 L19,18.5 C19.8284271,18.5 20.5,17.8284271 20.5,17 L20.5,14 Z M5,4 L19,4 C20.6568542,4 22,5.34314575 22,7 L22,17 C22,18.6568542 20.6568542,20 19,20 L5,20 C3.34314575,20 2,18.6568542 2,17 L2,7 C2,5.34314575 3.34314575,4 5,4 Z" id="path-1"></path>
    </defs>
    <g id="Illustrations" stroke="none" stroke-width="1" fill="none" fill-rule="evenodd">
        <g id="illustrations-/-credit-card" transform="translate(-2.000000, -4.000000)">
            <mask id="mask-2" fill="white">
                <use xlink:href="#path-1"></use>
            </mask>
            <use id="credit-card" fill="#000000" xlink:href="#path-1"></use>
        </g>
    </g>
</svg>