<svg width="24" height="24" viewBox="0 0 24 24" fill="none" xmlns="http://www.w3.org/2000/svg">
<g clip-path="url(#clip0)">
<path d="M7.01023 16.027C6.79186 16.0384 6.57576 15.9779 6.39494 15.8549C6.21411 15.732 6.07851 15.5531 6.00883 15.3458L4.00603 9.33548C3.92104 9.06981 3.94504 8.78125 4.07274 8.53328C4.20045 8.2853 4.4214 8.09823 4.68698 8.01322C4.95257 7.9282 5.24104 7.95221 5.48894 8.07995C5.73683 8.20769 5.92384 8.42871 6.00883 8.69439L7.72122 13.8432L19.3575 11.1586L21.5105 6.00978H9.01303C6.30791 5.89846 3.72923 4.83402 1.73286 3.00463L0.340911 1.75248C0.154818 1.57368 0.0449037 1.32993 0.0340846 1.07204C0.0232655 0.814156 0.112377 0.562046 0.282839 0.368278C0.453301 0.174509 0.691956 0.0540388 0.949043 0.0319856C1.20613 0.00993236 1.4618 0.0879984 1.66276 0.249906L3.0547 1.46198C4.68064 2.98348 6.78991 3.88419 9.01303 4.00635H23.0326C23.1979 4.00648 23.3606 4.04754 23.5061 4.12586C23.6517 4.20417 23.7756 4.31732 23.8669 4.45519C23.9581 4.59306 24.0138 4.75138 24.029 4.91602C24.0442 5.08065 24.0184 5.24649 23.9539 5.39873L20.9497 12.4108C20.8871 12.5561 20.7909 12.6845 20.669 12.7855C20.5472 12.8865 20.4031 12.9572 20.2487 12.9918L7.23054 15.9969C7.15878 16.0167 7.08468 16.0269 7.01023 16.027V16.027Z" fill="black"/>
<path d="M4 23C3.40666 23 2.82664 22.8241 2.33329 22.4944C1.83994 22.1648 1.45543 21.6962 1.22836 21.1481C1.0013 20.5999 0.94189 19.9967 1.05765 19.4147C1.1734 18.8328 1.45912 18.2982 1.87868 17.8787C2.29824 17.4591 2.83279 17.1734 3.41473 17.0576C3.99667 16.9419 4.59987 17.0013 5.14805 17.2284C5.69623 17.4554 6.16477 17.8399 6.49441 18.3333C6.82405 18.8266 7 19.4067 7 20C7 20.7957 6.68393 21.5587 6.12132 22.1213C5.55871 22.6839 4.79565 23 4 23ZM4 19C3.80222 19 3.60888 19.0586 3.44443 19.1685C3.27998 19.2784 3.15181 19.4346 3.07612 19.6173C3.00043 19.8 2.98063 20.0011 3.01922 20.1951C3.0578 20.3891 3.15304 20.5673 3.29289 20.7071C3.43275 20.847 3.61093 20.9422 3.80491 20.9808C3.99889 21.0194 4.19996 20.9996 4.38268 20.9239C4.56541 20.8482 4.72159 20.72 4.83147 20.5556C4.94135 20.3911 5 20.1978 5 20C5 19.7348 4.89464 19.4804 4.70711 19.2929C4.51957 19.1054 4.26522 19 4 19Z" fill="black"/>
<path d="M16 23C15.4067 23 14.8266 22.8241 14.3333 22.4944C13.8399 22.1648 13.4554 21.6962 13.2284 21.1481C13.0013 20.5999 12.9419 19.9967 13.0576 19.4147C13.1734 18.8328 13.4591 18.2982 13.8787 17.8787C14.2982 17.4591 14.8328 17.1734 15.4147 17.0576C15.9967 16.9419 16.5999 17.0013 17.1481 17.2284C17.6962 17.4554 18.1648 17.8399 18.4944 18.3333C18.8241 18.8266 19 19.4067 19 20C19 20.7957 18.6839 21.5587 18.1213 22.1213C17.5587 22.6839 16.7957 23 16 23ZM16 19C15.8022 19 15.6089 19.0586 15.4444 19.1685C15.28 19.2784 15.1518 19.4346 15.0761 19.6173C15.0004 19.8 14.9806 20.0011 15.0192 20.1951C15.0578 20.3891 15.153 20.5673 15.2929 20.7071C15.4327 20.847 15.6109 20.9422 15.8049 20.9808C15.9989 21.0194 16.2 20.9996 16.3827 20.9239C16.5654 20.8482 16.7216 20.72 16.8315 20.5556C16.9414 20.3911 17 20.1978 17 20C17 19.7348 16.8946 19.4804 16.7071 19.2929C16.5196 19.1054 16.2652 19 16 19Z" fill="black"/>
</g>
<defs>
<clipPath id="clip0">
<rect width="24" height="24" fill="white"/>
</clipPath>
</defs>
</svg>
