<?xml version="1.0" encoding="UTF-8"?>
<svg width="21px" height="17px" viewBox="0 0 21 17" version="1.1" xmlns="http://www.w3.org/2000/svg" xmlns:xlink="http://www.w3.org/1999/xlink">
    <defs>
        <path d="M12.9588456,16.0257709 C13.5528032,16.1457748 14,16.6706632 14,17.3 L14,19.7 C14,20.4179702 13.4179702,21 12.7,21 L3.3,21 C2.58202983,21 2,20.4179702 2,19.7 L2,17.3 C2,17.1875 2.01429018,17.0783376 2.04115436,16.9742291 C1.44719684,16.8542252 1,16.3293368 1,15.7 L1,13.3 C1,12.5820298 1.58202983,12 2.3,12 L11.7,12 C12.4179702,12 13,12.5820298 13,13.3 L13,15.7 C13,15.8125 12.9857098,15.9216624 12.9588456,16.0257709 Z M15,20 L15,18.5 L19,18.5 C19.8284271,18.5 20.5,17.8284271 20.5,17 L20.5,7 C20.5,6.17157288 19.8284271,5.5 19,5.5 L6,5.5 C5.17157288,5.5 4.5,6.17157288 4.5,7 L4.5,11 L3,11 L3,7 C3,5.34314575 4.34314575,4 6,4 L19,4 C20.6568542,4 22,5.34314575 22,7 L22,17 C22,18.6568542 20.6568542,20 19,20 L15,20 Z M2.72333333,13.25 C2.50794228,13.25 2.33333333,13.4246089 2.33333333,13.64 L2.33333333,15.36 C2.33333333,15.5753911 2.50794228,15.75 2.72333333,15.75 L11.2766667,15.75 C11.4920577,15.75 11.6666667,15.5753911 11.6666667,15.36 L11.6666667,13.64 C11.6666667,13.4246089 11.4920577,13.25 11.2766667,13.25 L2.72333333,13.25 Z M3.72333333,17.25 C3.50794228,17.25 3.33333333,17.4246089 3.33333333,17.64 L3.33333333,19.36 C3.33333333,19.5753911 3.50794228,19.75 3.72333333,19.75 L12.2766667,19.75 C12.4920577,19.75 12.6666667,19.5753911 12.6666667,19.36 L12.6666667,17.64 C12.6666667,17.4246089 12.4920577,17.25 12.2766667,17.25 L3.72333333,17.25 Z" id="path-1"></path>
    </defs>
    <g id="Illustrations" stroke="none" stroke-width="1" fill="none" fill-rule="evenodd">
        <g id="illustrations-/-cash" transform="translate(-1.000000, -4.000000)">
            <mask id="mask-2" fill="white">
                <use xlink:href="#path-1"></use>
            </mask>
            <use id="credit-card" fill="#000000" xlink:href="#path-1"></use>
        </g>
    </g>
</svg>