<?xml version="1.0" encoding="UTF-8"?>
<svg width="24px" height="24px" viewBox="0 0 24 24" version="1.1" xmlns="http://www.w3.org/2000/svg" xmlns:xlink="http://www.w3.org/1999/xlink">
    <!-- Generator: Sketch 55.2 (78181) - https://sketchapp.com -->
    <title>Outlined / catalog</title>
    <desc>Created with Sketch.</desc>
    <defs>
        <path d="M7.83484793,23.9793395 L2.93806798,23.9793395 C1.31821316,23.9793395 0,22.622798 0,20.9558444 L0,15.9166859 C0,14.2497323 1.31821316,12.8931908 2.93806798,12.8931908 L7.83484793,12.8931908 C9.45470275,12.8931908 10.7729159,14.2497323 10.7729159,15.9166859 L10.7729159,20.9558444 C10.7729159,22.622798 9.45470275,23.9793395 7.83484793,23.9793395 Z M2.93806798,14.9088542 C2.39844282,14.9088542 1.95871198,15.3603628 1.95871198,15.9166859 L1.95871198,20.9558444 C1.95871198,21.5121675 2.39844282,21.9636761 2.93806798,21.9636761 L7.83484793,21.9636761 C8.37447309,21.9636761 8.81420393,21.5121675 8.81420393,20.9558444 L8.81420393,15.9166859 C8.81420393,15.3603628 8.37447309,14.9088542 7.83484793,14.9088542 L2.93806798,14.9088542 Z M16.1651521,2.03632393 C15.6245476,2.03632393 15.1857961,2.48783253 15.1857961,3.04415563 L15.1857961,8.08331409 C15.1857961,8.63963718 15.6245476,9.09114578 16.1651521,9.09114578 L21.061932,9.09114578 C21.6025365,9.09114578 22.041288,8.63963718 22.041288,8.08331409 L22.041288,3.04415563 C22.041288,2.48783253 21.6025365,2.03632393 21.061932,2.03632393 L16.1651521,2.03632393 Z M21.061932,11.1068092 L16.1651521,11.1068092 C14.5452973,11.1068092 13.2270841,9.75026771 13.2270841,8.08331409 L13.2270841,3.04415563 C13.2270841,1.37720201 14.5452973,0.0206605497 16.1651521,0.0206605497 L21.061932,0.0206605497 C22.6817868,0.0206605497 24,1.37720201 24,3.04415563 L24,8.08331409 C24,9.75026771 22.6817868,11.1068092 21.061932,11.1068092 Z M2.93806798,2.01566338 C2.39844282,2.01566338 1.95871198,2.46717198 1.95871198,3.02349508 L1.95871198,8.06265354 C1.95871198,8.61897663 2.39844282,9.07048523 2.93806798,9.07048523 L7.83484793,9.07048523 C8.37447309,9.07048523 8.81420393,8.61897663 8.81420393,8.06265354 L8.81420393,3.02349508 C8.81420393,2.46717198 8.37447309,2.01566338 7.83484793,2.01566338 L2.93806798,2.01566338 Z M7.83484793,11.0861486 L2.93806798,11.0861486 C1.31821316,11.0861486 0,9.72960716 0,8.06265354 L0,3.02349508 C0,1.35654146 1.31821316,-7.10542736e-15 2.93806798,-7.10542736e-15 L7.83484793,-7.10542736e-15 C9.45470275,-7.10542736e-15 10.7729159,1.35654146 10.7729159,3.02349508 L10.7729159,8.06265354 C10.7729159,9.72960716 9.45470275,11.0861486 7.83484793,11.0861486 Z M16.1651521,14.9295148 C15.6245476,14.9295148 15.1857961,15.3810234 15.1857961,15.9373465 L15.1857961,20.9765049 C15.1857961,21.532828 15.6245476,21.9843366 16.1651521,21.9843366 L21.061932,21.9843366 C21.6025365,21.9843366 22.041288,21.532828 22.041288,20.9765049 L22.041288,15.9373465 C22.041288,15.3810234 21.6025365,14.9295148 21.061932,14.9295148 L16.1651521,14.9295148 Z M21.061932,24 L16.1651521,24 C14.5452973,24 13.2270841,22.6434585 13.2270841,20.9765049 L13.2270841,15.9373465 C13.2270841,14.2703928 14.5452973,12.9138514 16.1651521,12.9138514 L21.061932,12.9138514 C22.6817868,12.9138514 24,14.2703928 24,15.9373465 L24,20.9765049 C24,22.6434585 22.6817868,24 21.061932,24 Z" id="path-1"></path>
    </defs>
    <g id="Outlined-/-catalog" stroke="none" stroke-width="1" fill="none" fill-rule="evenodd">
        <mask id="mask-2" fill="white">
            <use xlink:href="#path-1"></use>
        </mask>
        <use id="shape" fill="#000000" xlink:href="#path-1"></use>
    </g>
</svg>