<svg width="24" height="24" viewBox="0 0 24 24" fill="none" xmlns="http://www.w3.org/2000/svg">
<path d="M22 23H2C1.73478 23 1.48043 22.8946 1.29289 22.7071C1.10536 22.5196 1 22.2652 1 22V8C1 7.73478 1.10536 7.48043 1.29289 7.29289C1.48043 7.10536 1.73478 7 2 7H22C22.2652 7 22.5196 7.10536 22.7071 7.29289C22.8946 7.48043 23 7.73478 23 8V22C23 22.2652 22.8946 22.5196 22.7071 22.7071C22.5196 22.8946 22.2652 23 22 23ZM3 21H21V9H3V21Z" fill="black"/>
<path d="M17.999 5.99993C17.8414 6.00181 17.6859 5.96397 17.5469 5.88993L11.7301 2.99997H11.2077L5.39084 5.88993C5.15667 5.987 4.89427 5.99229 4.65634 5.90476C4.4184 5.81722 4.22255 5.64333 4.10809 5.418C3.99363 5.19268 3.96904 4.93259 4.03926 4.68997C4.10948 4.44734 4.26932 4.24014 4.48667 4.10996L10.5145 1.11C10.6544 1.03862 10.8093 1.00094 10.9666 1H11.9712C12.1285 1.00094 12.2833 1.03862 12.4233 1.11L18.4511 4.10996C18.6877 4.22984 18.867 4.43808 18.9499 4.68917C19.0327 4.94026 19.0123 5.21377 18.8931 5.44994C18.8096 5.61485 18.6819 5.75353 18.5241 5.85061C18.3663 5.94769 18.1845 5.99937 17.999 5.99993Z" fill="black"/>
<path d="M2.00014 23C1.79173 22.9986 1.58895 22.9322 1.42014 22.81C1.20614 22.6555 1.06187 22.4227 1.01879 22.1624C0.975706 21.902 1.0373 21.6351 1.19014 21.42L6.19014 14.42C6.33548 14.2169 6.55153 14.0756 6.7958 14.0238C7.04007 13.972 7.29489 14.0134 7.51014 14.14L11.7201 16.67L16.1901 10.42C16.2729 10.3023 16.38 10.2039 16.5043 10.1314C16.6286 10.0589 16.767 10.0141 16.9101 9.99998C17.055 9.98801 17.2007 10.0077 17.3371 10.0578C17.4736 10.1079 17.5974 10.1871 17.7001 10.29L22.7001 15.17C22.7939 15.2629 22.8683 15.3735 22.919 15.4954C22.9698 15.6173 22.9959 15.748 22.9959 15.88C22.9959 16.012 22.9698 16.1427 22.919 16.2646C22.8683 16.3864 22.7939 16.497 22.7001 16.59C22.5128 16.7762 22.2593 16.8808 21.9951 16.8808C21.731 16.8808 21.4775 16.7762 21.2901 16.59L17.1301 12.52L12.8001 18.52C12.6548 18.723 12.4388 18.8644 12.1945 18.9162C11.9502 18.968 11.6954 18.9265 11.4801 18.8L7.28014 16.33L2.81014 22.58C2.71813 22.7092 2.59668 22.8147 2.45584 22.8877C2.31499 22.9608 2.15879 22.9992 2.00014 23Z" fill="black"/>
</svg>
