<svg width="18" height="16" viewBox="0 0 18 16" fill="none" xmlns="http://www.w3.org/2000/svg">
<path d="M12.9689 0C11.3229 0 9.82987 0.778 9.08387 2.002C9.06487 2.034 9.03487 2.049 9.00487 2.049C8.97587 2.049 8.94687 2.034 8.92687 2.003C8.17987 0.778 6.66787 0 5.02287 0C2.35687 0 -1.21913 2.01 0.408868 7.492C2.26887 12.85 9.00187 16 9.00587 16C9.00787 16 15.7329 12.85 17.5919 7.492C19.2199 2.01 15.6349 0 12.9689 0ZM15.4799 3.126C16.2509 4.16 16.0229 5.728 15.6879 6.878C14.4709 10.314 10.7009 12.775 9.00387 13.738C7.30587 12.777 3.53087 10.318 2.31387 6.878C1.97787 5.726 1.74787 4.155 2.51987 3.122C3.13687 2.294 4.21687 2 5.02287 2C5.95487 2 6.80113 2.49188 7.21987 3.045C8.99999 5.02844 9.00387 5.02844 10.7919 3.043C11.2821 2.43738 12.0319 2 12.9689 2C13.7769 2 14.8609 2.296 15.4799 3.126Z" fill="#fff"/>
</svg>
