<svg width="24" height="25" viewBox="0 0 24 25" fill="none" xmlns="http://www.w3.org/2000/svg">
<g clip-path="url(#clip0)">
<path d="M10.1006 13.7219H0.899403C0.402647 13.7219 0 14.1244 0 14.6209V23.8229C0 24.3194 0.402647 24.7219 0.899403 24.7219H10.1006C10.5974 24.7219 11 24.3194 11 23.8229V14.6209C11 14.1244 10.5973 13.7219 10.1006 13.7219ZM8.98019 22.7034H2.01836V15.7375H8.98019V22.7034Z" fill="black"/>
<path d="M12.8753 1.05862L4.34285 4.50248C3.88221 4.68841 3.65946 5.21232 3.8453 5.67276L7.28946 14.2059C7.4753 14.6663 7.99932 14.8888 8.45997 14.7029L16.9924 11.2591C17.453 11.0731 17.6758 10.5492 17.4899 10.0888L14.0458 1.55563C13.8599 1.0952 13.3358 0.872718 12.8753 1.05862ZM15.1979 9.80666L8.74211 12.4124L6.13488 5.95275L12.5907 3.34705L15.1979 9.80666Z" fill="black"/>
<path d="M23.1299 13.853L14.2288 11.5223C13.7483 11.3964 13.2568 11.6838 13.131 12.1641L10.8001 21.066C10.6743 21.5463 10.9619 22.0377 11.4425 22.1635L20.3436 24.4942C20.8241 24.62 21.3156 24.3327 21.4414 23.8524L23.7723 14.9505C23.8981 14.4701 23.6104 13.9788 23.1299 13.853ZM19.771 22.2578L13.0362 20.4943L14.8007 13.7555L21.5355 15.519L19.771 22.2578Z" fill="black"/>
</g>
<defs>
<clipPath id="clip0">
<rect width="24" height="24" fill="white" transform="translate(0 0.721924)"/>
</clipPath>
</defs>
</svg>
