<svg width="24" height="24" viewBox="0 0 24 24" fill="none" xmlns="http://www.w3.org/2000/svg">
<path d="M18.0829 20H5.91715L1.5614 15.225C1.38351 15.0311 1.24232 14.8005 1.14596 14.5464C1.04961 14.2923 1 14.0198 1 13.7445C1 13.4693 1.04961 13.1967 1.14596 12.9426C1.24232 12.6885 1.38351 12.4579 1.5614 12.2641L3.06077 10.6168C3.2372 10.4213 3.44712 10.2662 3.6784 10.1604C3.90968 10.0545 4.15774 10 4.40829 10C4.65884 10 4.90691 10.0545 5.13819 10.1604C5.36947 10.2662 5.57938 10.4213 5.75582 10.6168L7.65375 12.7019H16.3652L18.2632 10.6168C18.4396 10.4213 18.6495 10.2662 18.8808 10.1604C19.1121 10.0545 19.3601 10 19.6107 10C19.8612 10 20.1093 10.0545 20.3406 10.1604C20.5719 10.2662 20.7818 10.4213 20.9582 10.6168L22.4386 12.2641C22.6165 12.4579 22.7577 12.6885 22.854 12.9426C22.9504 13.1967 23 13.4693 23 13.7445C23 14.0198 22.9504 14.2923 22.854 14.5464C22.7577 14.8005 22.6165 15.0311 22.4386 15.225L18.0829 20ZM6.6953 17.9148H17.3047L21.1006 13.7445L19.5917 12.0972L17.1339 14.7871H6.86611L4.40829 12.0972L2.90893 13.7445L6.6953 17.9148Z" fill="black"/>
<path d="M18 13H16V4C16 3.73478 15.8946 3.48043 15.7071 3.29289C15.5196 3.10536 15.2652 3 15 3H9C8.73478 3 8.48043 3.10536 8.29289 3.29289C8.10536 3.48043 8 3.73478 8 4V13H6V4C6 3.20435 6.31607 2.44129 6.87868 1.87868C7.44129 1.31607 8.20435 1 9 1H15C15.7956 1 16.5587 1.31607 17.1213 1.87868C17.6839 2.44129 18 3.20435 18 4V13Z" fill="black"/>
<path d="M5.00896 23.9998H4.81181C4.68112 23.9795 4.55651 23.9365 4.44546 23.8734C4.33441 23.8103 4.23921 23.7284 4.16556 23.6326C4.09191 23.5369 4.04134 23.4292 4.01688 23.316C3.99241 23.2029 3.99457 23.0866 4.0232 22.9742L5.00896 18.7007C5.06125 18.474 5.21525 18.2746 5.43709 18.1464C5.54693 18.0829 5.67013 18.0388 5.79963 18.0166C5.92914 17.9944 6.06242 17.9945 6.19187 18.0169C6.32132 18.0394 6.44441 18.0837 6.5541 18.1474C6.66379 18.2111 6.75793 18.2929 6.83116 18.3881C6.90439 18.4834 6.95527 18.5902 6.98089 18.7025C7.00651 18.8148 7.00637 18.9303 6.98048 19.0426L5.99472 23.3161C5.94863 23.512 5.82475 23.6878 5.64464 23.8127C5.46452 23.9376 5.23958 24.0039 5.00896 23.9998Z" fill="black"/>
<path d="M18.991 23.9998C18.7604 24.0039 18.5355 23.9376 18.3554 23.8127C18.1752 23.6878 18.0514 23.512 18.0053 23.3161L17.0195 19.0426C16.9936 18.9303 16.9935 18.8148 17.0191 18.7025C17.0447 18.5902 17.0956 18.4834 17.1688 18.3881C17.2421 18.2929 17.3362 18.2111 17.4459 18.1474C17.5556 18.0837 17.6787 18.0394 17.8081 18.0169C17.9376 17.9945 18.0709 17.9944 18.2004 18.0166C18.3299 18.0388 18.4531 18.0829 18.5629 18.1464C18.6728 18.2099 18.7671 18.2915 18.8406 18.3866C18.914 18.4817 18.9651 18.5884 18.991 18.7007L19.9768 22.9742C20.0054 23.0866 20.0076 23.2029 19.9831 23.316C19.9587 23.4292 19.9081 23.5369 19.8344 23.6326C19.7608 23.7284 19.6656 23.8103 19.5545 23.8734C19.4435 23.9365 19.3189 23.9795 19.1882 23.9998H18.991Z" fill="black"/>
</svg>
