<svg width="24" height="24" viewBox="0 0 24 24" fill="none" xmlns="http://www.w3.org/2000/svg">
<g clip-path="url(#clip0)">
<path d="M16.0017 23.9936C15.7366 24.0122 15.475 23.9247 15.2745 23.7503C15.0739 23.576 14.9508 23.329 14.9323 23.0639C14.9137 22.7987 15.0012 22.5371 15.1755 22.3365C15.3499 22.1359 15.5967 22.0127 15.8618 21.9942C16.0217 21.9942 20.0797 21.2344 19.9997 14.9961C19.9398 9.80744 13.6029 4.7288 10.7943 2.72934C10.4518 4.41877 9.84816 6.0445 9.0052 7.54805C8.37709 8.65534 7.65832 9.70866 6.85627 10.6972C5.32703 12.6667 4.00768 14.3662 4.00768 16.9955C3.967 17.6447 4.05951 18.2953 4.27953 18.9073C4.49954 19.5194 4.84241 20.08 5.28705 20.5546C6.31909 21.4561 7.6353 21.9657 9.0052 21.9942C9.27028 21.9942 9.52451 22.0995 9.71195 22.287C9.8994 22.4745 10.0047 22.7288 10.0047 22.9939C10.0047 23.2591 9.8994 23.5133 9.71195 23.7008C9.52451 23.8883 9.27028 23.9936 9.0052 23.9936C7.10606 23.977 5.27866 23.2658 3.86775 21.9942C3.2341 21.3314 2.74239 20.5462 2.42272 19.6867C2.10306 18.8271 1.96216 17.9114 2.00867 16.9955C2.00867 13.6764 3.66785 11.537 5.27705 9.47753C6.01874 8.56886 6.68718 7.60275 7.27606 6.5883C8.25853 4.8763 8.8491 2.96762 9.0052 0.9998C9.0065 0.821654 9.05536 0.647091 9.14674 0.494174C9.23812 0.341257 9.36869 0.21554 9.52494 0.130032C9.67688 0.0422877 9.84924 -0.00390625 10.0247 -0.00390625C10.2001 -0.00390625 10.3725 0.0422877 10.5244 0.130032C11.0042 0.43995 21.9088 7.26812 21.9987 14.9961C22.0987 22.9939 16.2016 23.9936 16.1417 23.9936H16.0017Z" fill="#f06989"/>
<path d="M14.8347 20.0001C14.6492 20.0007 14.4673 19.9488 14.3097 19.8501C14.1989 19.7807 14.1028 19.6898 14.0269 19.5828C13.951 19.4758 13.8968 19.3548 13.8673 19.2266C13.8379 19.0983 13.8338 18.9655 13.8553 18.8357C13.8768 18.7059 13.9235 18.5817 13.9926 18.4701C14.4194 17.8413 14.7142 17.131 14.859 16.383C15.0039 15.6349 14.9956 14.8648 14.8347 14.1201C14.5612 13.1195 14.0474 12.2024 13.3388 11.4501C13.3706 12.2871 13.208 13.1201 12.864 13.8823C12.5199 14.6446 12.004 15.3151 11.3574 15.8401C11.1714 15.9607 10.9613 16.0384 10.7422 16.0678C10.523 16.0972 10.3002 16.0775 10.0894 16.0101C9.70137 15.8589 9.35968 15.6071 9.09871 15.2801C8.94502 15.7841 8.90887 16.3171 8.99308 16.8376C9.07729 17.358 9.27958 17.8517 9.58414 18.2801C9.76806 18.4698 9.86982 18.7254 9.86703 18.9907C9.86425 19.2561 9.75714 19.5095 9.56928 19.6951C9.38142 19.8808 9.12819 19.9835 8.8653 19.9807C8.60241 19.9779 8.35139 19.8698 8.16747 19.6801C8.06841 19.5701 5.7106 17.1101 7.98915 12.5201C8.07705 12.3577 8.20785 12.2232 8.36701 12.1314C8.52617 12.0395 8.70745 11.9941 8.89067 12.0001C9.07893 12.0052 9.26187 12.0643 9.41803 12.1706C9.57419 12.2769 9.6971 12.4259 9.77237 12.6001C9.97224 13.0782 10.2319 13.5286 10.5451 13.9401C11.0051 13.2737 11.2908 12.5007 11.3756 11.6931C11.4605 10.8854 11.3418 10.0691 11.0305 9.32012C10.9665 9.1284 10.9615 8.92158 11.0164 8.72697C11.0712 8.53236 11.1832 8.35912 11.3376 8.23012C11.4922 8.10096 11.6821 8.02224 11.882 8.00438C12.0819 7.98652 12.2824 8.03037 12.4571 8.13012C14.5252 9.36179 16.0756 11.3145 16.8161 13.6201C17.0426 14.6299 17.0601 15.6761 16.8674 16.6931C16.6748 17.71 16.2762 18.6759 15.6966 19.5301C15.6056 19.6772 15.4783 19.7978 15.3272 19.8802C15.1761 19.9626 15.0064 20.0039 14.8347 20.0001Z" fill="#f06989"/>
</g>
<defs>
<clipPath id="clip0">
<rect width="24" height="24" fill="white"/>
</clipPath>
</defs>
</svg>
