<svg width="24" height="24" viewBox="0 0 24 24" fill="none" xmlns="http://www.w3.org/2000/svg">
<path d="M19.5796 6.75734C19.7774 7.2643 19.9134 7.84544 19.9505 8.69861C19.9938 9.55178 20 9.8238 20 12C20 14.1762 19.9876 14.4482 19.9505 15.3014C19.9134 16.1484 19.7774 16.7357 19.5796 17.2427C19.3756 17.7682 19.1036 18.2133 18.6584 18.6584C18.2133 19.1036 17.7682 19.3756 17.2427 19.5796C16.7357 19.7774 16.1546 19.9134 15.3014 19.9505C14.4482 19.9938 14.1762 20 12 20C9.8238 20 9.55178 19.9876 8.69861 19.9505C7.85162 19.9134 7.2643 19.7774 6.75734 19.5796C6.23184 19.3756 5.78671 19.1036 5.34158 18.6584C4.89645 18.2133 4.62442 17.7682 4.4204 17.2427C4.22257 16.7357 4.08655 16.1546 4.04946 15.3014C4.00618 14.4482 4 14.1762 4 12C4 9.8238 4.01236 9.55178 4.04946 8.69861C4.08655 7.85162 4.22257 7.2643 4.4204 6.75734C4.62442 6.23184 4.89645 5.78671 5.34158 5.34158C5.78671 4.89645 6.23184 4.62442 6.75734 4.4204C7.2643 4.22257 7.84544 4.08655 8.69861 4.04946C9.55178 4.00618 9.8238 4 12 4C14.1762 4 14.4482 4.01236 15.3014 4.04946C16.1484 4.08655 16.7357 4.22257 17.2427 4.4204C17.7682 4.62442 18.2133 4.89645 18.6584 5.34158C19.1036 5.78671 19.3756 6.23184 19.5796 6.75734ZM11.9938 8C9.7863 8 7.99382 9.79248 7.99382 12C7.99382 14.2075 9.7863 16 11.9938 16C14.2013 16 15.9938 14.2075 15.9938 12C15.9938 9.79248 14.2013 8 11.9938 8ZM11.9938 9.33333C13.4655 9.33333 14.6605 10.5283 14.6605 12C14.6605 13.4717 13.4655 14.6667 11.9938 14.6667C10.5221 14.6667 9.32715 13.4717 9.32715 12C9.32715 10.5283 10.5221 9.33333 11.9938 9.33333ZM16.2658 8.68624C16.7951 8.68624 17.2241 8.25721 17.2241 7.72798C17.2241 7.19874 16.7951 6.76971 16.2658 6.76971C15.7366 6.76971 15.3076 7.19874 15.3076 7.72798C15.3076 8.25721 15.7366 8.68624 16.2658 8.68624Z" fill="#5E6C84"/>
</svg>
