<svg width="16" height="16" viewBox="0 0 16 16" fill="none" xmlns="http://www.w3.org/2000/svg">
<mask id="mask0" mask-type="alpha" maskUnits="userSpaceOnUse" x="0" y="0" width="17" height="17">
<path d="M11.7715 10.8289C12.0322 11.0895 12.0322 11.5108 11.7715 11.7715C11.6415 11.9015 11.4709 11.9668 11.3002 11.9668C11.1295 11.9668 10.9589 11.9015 10.8289 11.7715L8.00021 8.94285L5.17155 11.7715C5.04155 11.9015 4.87088 11.9668 4.70021 11.9668C4.52955 11.9668 4.35888 11.9015 4.22888 11.7715C3.96821 11.5108 3.96821 11.0895 4.22888 10.8289L7.05755 8.00018L4.22888 5.17152C3.96821 4.91152 3.96821 4.48952 4.22888 4.22885C4.48955 3.96818 4.91088 3.96818 5.17155 4.22885L8.00021 7.05752L10.8289 4.22885C11.0895 3.96818 11.5109 3.96818 11.7715 4.22885C12.0322 4.48952 12.0322 4.91152 11.7715 5.17152L8.94288 8.00018L11.7715 10.8289ZM8.00021 0.000183105C3.58155 0.000183105 0.000213623 3.58152 0.000213623 8.00018C0.000213623 12.4182 3.58155 16.0002 8.00021 16.0002C12.4182 16.0002 16.0002 12.4182 16.0002 8.00018C16.0002 3.58152 12.4182 0.000183105 8.00021 0.000183105Z" fill="white"/>
</mask>
<g mask="url(#mask0)">
<path d="M11.7715 10.8289C12.0322 11.0895 12.0322 11.5108 11.7715 11.7715C11.6415 11.9015 11.4709 11.9668 11.3002 11.9668C11.1295 11.9668 10.9589 11.9015 10.8289 11.7715L8.00021 8.94285L5.17155 11.7715C5.04155 11.9015 4.87088 11.9668 4.70021 11.9668C4.52955 11.9668 4.35888 11.9015 4.22888 11.7715C3.96821 11.5108 3.96821 11.0895 4.22888 10.8289L7.05755 8.00018L4.22888 5.17152C3.96821 4.91152 3.96821 4.48952 4.22888 4.22885C4.48955 3.96818 4.91088 3.96818 5.17155 4.22885L8.00021 7.05752L10.8289 4.22885C11.0895 3.96818 11.5109 3.96818 11.7715 4.22885C12.0322 4.48952 12.0322 4.91152 11.7715 5.17152L8.94288 8.00018L11.7715 10.8289ZM8.00021 0.000183105C3.58155 0.000183105 0.000213623 3.58152 0.000213623 8.00018C0.000213623 12.4182 3.58155 16.0002 8.00021 16.0002C12.4182 16.0002 16.0002 12.4182 16.0002 8.00018C16.0002 3.58152 12.4182 0.000183105 8.00021 0.000183105Z" fill="black"/>
</g>
</svg>
