<svg width="24" height="24" viewBox="0 0 24 24" fill="none" xmlns="http://www.w3.org/2000/svg">
<g clip-path="url(#clip0)">
<path d="M21.9785 23.9802C21.745 23.9849 21.5172 23.9076 21.3349 23.7617C21.1525 23.6157 21.0271 23.4105 20.9804 23.1816L19.164 13.9969H4.83226L3.01584 23.1816C2.9629 23.4463 2.80698 23.6792 2.58238 23.829C2.35777 23.9788 2.08289 24.0332 1.8182 23.9802C1.5535 23.9273 1.32068 23.7713 1.17094 23.5466C1.02121 23.322 0.96683 23.047 1.01977 22.7822L3.01584 12.7989C3.0625 12.57 3.18792 12.3647 3.37028 12.2188C3.55264 12.0728 3.78038 11.9955 4.01387 12.0002H19.9824C20.2159 11.9955 20.4436 12.0728 20.626 12.2188C20.8084 12.3647 20.9338 12.57 20.9804 12.7989L22.9765 22.7822C23.0055 22.9135 23.0077 23.0493 22.9829 23.1815C22.9581 23.3137 22.9069 23.4395 22.8324 23.5513C22.7578 23.6632 22.6614 23.7589 22.549 23.8326C22.4366 23.9063 22.3104 23.9565 22.1781 23.9802H21.9785Z" fill="black"/>
<path d="M12 21H3C2.73478 21 2.48043 20.8946 2.29289 20.7071C2.10536 20.5196 2 20.2652 2 20C2 19.7348 2.10536 19.4804 2.29289 19.2929C2.48043 19.1054 2.73478 19 3 19H11V13C11 12.7348 11.1054 12.4804 11.2929 12.2929C11.4804 12.1054 11.7348 12 12 12C12.2652 12 12.5196 12.1054 12.7071 12.2929C12.8946 12.4804 13 12.7348 13 13V20C13 20.2652 12.8946 20.5196 12.7071 20.7071C12.5196 20.8946 12.2652 21 12 21Z" fill="black"/>
<path d="M9 17H7C6.73478 17 6.48043 16.8946 6.29289 16.7071C6.10536 16.5196 6 16.2652 6 16C6 15.7348 6.10536 15.4804 6.29289 15.2929C6.48043 15.1054 6.73478 15 7 15H9C9.26522 15 9.51957 15.1054 9.70711 15.2929C9.89464 15.4804 10 15.7348 10 16C10 16.2652 9.89464 16.5196 9.70711 16.7071C9.51957 16.8946 9.26522 17 9 17Z" fill="black"/>
<path d="M20 17H12C11.7348 17 11.4804 16.8946 11.2929 16.7071C11.1054 16.5196 11 16.2652 11 16C11 15.7348 11.1054 15.4804 11.2929 15.2929C11.4804 15.1054 11.7348 15 12 15H20C20.2652 15 20.5196 15.1054 20.7071 15.2929C20.8946 15.4804 21 15.7348 21 16C21 16.2652 20.8946 16.5196 20.7071 16.7071C20.5196 16.8946 20.2652 17 20 17Z" fill="black"/>
<path d="M22 11H2C1.73478 11 1.48043 10.8946 1.29289 10.7071C1.10536 10.5196 1 10.2652 1 10C1 9.73478 1.10536 9.48043 1.29289 9.29289C1.48043 9.10536 1.73478 9 2 9H22C22.2652 9 22.5196 9.10536 22.7071 9.29289C22.8946 9.48043 23 9.73478 23 10C23 10.2652 22.8946 10.5196 22.7071 10.7071C22.5196 10.8946 22.2652 11 22 11Z" fill="black"/>
<path d="M15.5197 8.99996C14.6272 9.00387 13.7536 8.74228 13.0102 8.24843C12.2667 7.75459 11.6869 7.0508 11.3444 6.22656C11.002 5.40232 10.9123 4.49486 11.087 3.61956C11.2616 2.74426 11.6926 1.94066 12.3251 1.31094C12.9576 0.681221 13.7632 0.253825 14.6392 0.083095C15.5153 -0.0876347 16.4223 0.00601512 17.2451 0.352137C18.0678 0.698259 18.769 1.28122 19.2595 2.02689C19.75 2.77256 20.0077 3.64727 19.9998 4.53978C19.9894 5.7229 19.5134 6.8543 18.6749 7.68906C17.8364 8.52382 16.7029 8.99477 15.5197 8.99996V8.99996ZM15.5197 2.03093C15.0227 2.02699 14.5357 2.17077 14.1205 2.44404C13.7053 2.7173 13.3807 3.10774 13.1877 3.56581C12.9948 4.02388 12.9422 4.52894 13.0368 5.01691C13.1313 5.50489 13.3687 5.95378 13.7187 6.30664C14.0688 6.65951 14.5158 6.90044 15.003 6.99887C15.4902 7.0973 15.9957 7.04879 16.4553 6.8595C16.9149 6.67021 17.3079 6.34867 17.5844 5.93567C17.861 5.52267 18.0087 5.03683 18.0087 4.53978C18.01 4.21162 17.9466 3.88642 17.8223 3.58274C17.6979 3.27905 17.5149 3.00284 17.2838 2.76987C17.0527 2.53691 16.7779 2.35174 16.4753 2.22495C16.1726 2.09817 15.8479 2.03224 15.5197 2.03093V2.03093Z" fill="black"/>
<path d="M9 11H4C3.73478 11 3.48043 10.8946 3.29289 10.7071C3.10536 10.5196 3 10.2652 3 10V8C3 7.73478 3.10536 7.48043 3.29289 7.29289C3.48043 7.10536 3.73478 7 4 7H9C9.26522 7 9.51957 7.10536 9.70711 7.29289C9.89464 7.48043 10 7.73478 10 8V10C10 10.2652 9.89464 10.5196 9.70711 10.7071C9.51957 10.8946 9.26522 11 9 11Z" fill="black"/>
</g>
<defs>
<clipPath id="clip0">
<rect width="24" height="24" fill="white"/>
</clipPath>
</defs>
</svg>
