<svg width="24" height="24" viewBox="0 0 24 24" fill="none" xmlns="http://www.w3.org/2000/svg">
<path d="M9.67818 8.57078H17.21C17.4183 8.57078 17.6181 8.48803 17.7654 8.34074C17.9127 8.19345 17.9954 7.99368 17.9954 7.78539C17.9954 7.57709 17.9127 7.37732 17.7654 7.23003C17.6181 7.08274 17.4183 7 17.21 7H7.78539C7.68275 7.00124 7.58137 7.02259 7.48694 7.06283C7.29504 7.14253 7.14253 7.29504 7.06283 7.48694C7.02259 7.58137 7.00124 7.68275 7 7.78539V17.21C7 17.4183 7.08274 17.6181 7.23003 17.7654C7.37732 17.9127 7.57709 17.9954 7.78539 17.9954C7.99368 17.9954 8.19345 17.9127 8.34074 17.7654C8.48803 17.6181 8.57078 17.4183 8.57078 17.21V9.67818L16.6524 17.7677C16.7254 17.8413 16.8123 17.8997 16.908 17.9396C17.0037 17.9795 17.1064 18 17.21 18C17.3138 18 17.4164 17.9795 17.5121 17.9396C17.6078 17.8997 17.6947 17.8413 17.7677 17.7677C17.8413 17.6947 17.8997 17.6078 17.9396 17.5121C17.9795 17.4164 18 17.3138 18 17.21C18 17.1064 17.9795 17.0037 17.9396 16.908C17.8997 16.8123 17.8413 16.7254 17.7677 16.6524L9.67818 8.57078Z" fill="#484ED8"/>
</svg>
