<?xml version="1.0" encoding="UTF-8"?>
<svg width="32px" height="20px" viewBox="0 0 32 20" version="1.1" xmlns="http://www.w3.org/2000/svg" xmlns:xlink="http://www.w3.org/1999/xlink">
    <!-- Generator: Sketch 55.2 (78181) - https://sketchapp.com -->
    <title>Mastercard</title>
    <desc>Created with Sketch.</desc>
    <g id="Desktop-1020" stroke="none" stroke-width="1" fill="none" fill-rule="evenodd">
        <g id="Homapage-/-Desktop-1024px-" transform="translate(-825.000000, -2246.000000)" fill-rule="nonzero">
            <g id="Footer" transform="translate(0.000000, 2099.000000)">
                <g id="Main-footer" transform="translate(0.000000, 95.000000)">
                    <g id="Payment-options" transform="translate(760.000000, 20.000000)">
                        <g id="payment-labels" transform="translate(65.000000, 32.000000)">
                            <g id="Mastercard">
                                <rect id="Rectangle" fill="#FF5F00" x="11.6649573" y="2.15068493" width="8.61538462" height="15.509589"></rect>
                                <path d="M12.2119658,9.90684932 C12.2087447,6.87986089 13.5955812,4.01960117 15.9726496,2.15068493 C11.9356692,-1.02738307 6.13840337,-0.564469986 2.65501481,3.21410132 C-0.828373751,6.99267262 -0.828373751,12.8182863 2.65501481,16.5968576 C6.13840337,20.3754289 11.9356692,20.838342 15.9726496,17.660274 C13.5963374,15.791951 12.2095856,12.9328763 12.2119658,9.90684932 L12.2119658,9.90684932 Z" id="_Path_" fill="#EB001B"></path>
                                <path d="M31.9042735,9.90684932 C31.9042735,13.6831179 29.7516365,17.1278494 26.360822,18.7780531 C22.9700074,20.4282568 18.9362297,19.9942178 15.9726496,17.660274 C18.3479249,15.7903649 19.7347811,12.9316703 19.7347811,9.90547945 C19.7347811,6.87928863 18.3479249,4.02059402 15.9726496,2.15068493 C18.9362297,-0.183258856 22.9700074,-0.617297924 26.360822,1.03290579 C29.7516365,2.6831095 31.9042735,6.12784099 31.9042735,9.90410959 L31.9042735,9.90684932 Z" id="Path" fill="#F79E1B"></path>
                            </g>
                        </g>
                    </g>
                </g>
            </g>
        </g>
    </g>
</svg>