<svg width="57" height="16" viewBox="0 0 57 16" fill="none" xmlns="http://www.w3.org/2000/svg">
<path d="M40 8V16H45.0732V11.5H50.1789C52.8455 11.5 55.122 10.0469 56 8H40Z" fill="#006848"/>
<path d="M40 0C40.0158 0.450495 40.0788 0.90099 40.1734 1.31683C40.1892 1.40347 40.2207 1.50743 40.2365 1.59406C40.2522 1.62871 40.2522 1.66337 40.268 1.71535C41.1507 4.78218 43.7517 7 46.8256 7H55.9054C55.9685 6.65347 56 6.30693 56 5.94307C56 4.2104 55.3222 2.65099 54.2345 1.55941C53.2729 0.589109 51.9961 0 50.5773 0H40Z" fill="#02AFFF"/>
<path d="M31.0349 1.69026L27.4538 9.45231H27.0924V0H22V16H26.3203C27.4538 16 28.4887 15.3436 28.9651 14.3097L32.5462 6.54769H32.9076V16H38V0H33.6797C32.5462 0 31.5113 0.65641 31.0349 1.69026Z" fill="#006848"/>
<path d="M7.7357 2.10051L9.83078 9.45231H10.1853L12.2643 2.10051C12.6189 0.853333 13.7309 0 15.004 0H20V16H15.004V6.54769H14.6495L11.7808 16H8.21918L5.35052 6.54769H4.99597V16H0V0H4.99597C6.26914 0 7.38114 0.853333 7.7357 2.10051Z" fill="#006848"/>
</svg>
