<svg width="11" height="19" viewBox="0 0 11 19" fill="none" xmlns="http://www.w3.org/2000/svg">
<path d="M6.92131 12.4673L9.47481 15.0478C9.76134 15.3363 9.87352 15.7576 9.76897 16.1525C9.66443 16.5474 9.3591 16.8558 8.96825 16.9613C8.57741 17.0668 8.1606 16.9532 7.87518 16.6635L5.44418 14.2068L3.01319 16.6635C2.72777 16.9532 2.31095 17.0667 1.92011 16.9613C1.52927 16.8558 1.22393 16.5474 1.11939 16.1525C1.01485 15.7576 1.12702 15.3363 1.41356 15.0477L3.96666 12.4677C3.11203 12.3027 2.29205 11.9897 1.54291 11.5425C1.01181 11.2156 0.841423 10.5168 1.16147 9.97796C1.48151 9.43916 2.17194 9.26249 2.70715 9.58245C4.42887 10.599 6.56369 10.5789 8.26641 9.53021C8.60899 9.31205 9.04085 9.29566 9.39865 9.48724C9.75646 9.67882 9.98557 10.0491 9.99934 10.4581C10.0131 10.867 9.80943 11.2522 9.46534 11.468C8.68452 11.9546 7.82239 12.2933 6.92131 12.4673ZM5.44418 9.16234C3.21377 9.16234 1.40566 7.33513 1.40566 5.08117C1.40566 2.8272 3.21377 1 5.44418 1C7.67459 1 9.48269 2.8272 9.48269 5.08117C9.48269 7.33513 7.67459 9.16234 5.44418 9.16234ZM5.44418 3.4487C4.55243 3.44971 3.82977 4.18 3.82877 5.08117C3.82877 5.98275 4.55201 6.71364 5.44418 6.71364C6.33634 6.71364 7.05958 5.98275 7.05958 5.08117C7.05958 4.17958 6.33634 3.4487 5.44418 3.4487Z" fill="#333333"/>
</svg>
