<?xml version="1.0" encoding="UTF-8"?>
<svg width="24px" height="24px" viewBox="0 0 24 24" version="1.1" xmlns="http://www.w3.org/2000/svg" xmlns:xlink="http://www.w3.org/1999/xlink">
    <!-- Generator: Sketch 55.2 (78181) - https://sketchapp.com -->
    <title>Outlined / Rub</title>
    <desc>Created with Sketch.</desc>
    <defs>
        <path d="M8.23971377,4.09823557 C8.23971377,3.89794945 8.4078712,3.73407899 8.61538462,3.73407899 L13.7549195,3.73407899 C16.2119857,3.73407899 18.2110912,5.67191226 18.2110912,8.05366974 C18.2110912,10.4371613 16.2119857,12.3749946 13.7549195,12.3749946 L8.23971377,12.3749946 L8.23971377,4.09823557 Z M13.7549195,14.1090736 C17.1994633,14.1090736 20,11.3926388 20,8.05366974 C20,4.71556769 17.1994633,2 13.7549195,2 L8.61538462,2 C7.42128801,2 6.45080501,2.94160489 6.45080501,4.09823557 L6.45080501,16.6563019 L4.89445438,16.6563019 C4.40071556,16.6563019 4,17.0438685 4,17.5233414 C4,18.0019472 4.40071556,18.3903809 4.89445438,18.3903809 L6.45080501,18.3903809 L6.45080501,21.1329605 C6.45080501,21.6124333 6.85152057,22 7.34525939,22 C7.83899821,22 8.23971377,21.6124333 8.23971377,21.1329605 L8.23971377,18.3903809 L13.6171735,18.3903809 C14.1109123,18.3903809 14.5116279,18.0019472 14.5116279,17.5233414 C14.5116279,17.0438685 14.1109123,16.6563019 13.6171735,16.6563019 L8.23971377,16.6563019 L8.23971377,14.1090736 L13.7549195,14.1090736 Z" id="path-1"></path>
    </defs>
    <g id="Outlined-/-Rub" stroke="none" stroke-width="1" fill="none" fill-rule="evenodd">
        <mask id="mask-2" fill="white">
            <use xlink:href="#path-1"></use>
        </mask>
        <use id="shape" fill="#fff" xlink:href="#path-1"></use>
        <g id="Colors-/-Primary---Violet-Crayola" mask="url(#mask-2)" fill="#fff">
            <rect id="Violet-Crayola---V500" x="0" y="0" width="24" height="24"></rect>
        </g>
    </g>
</svg>