<?xml version="1.0" encoding="UTF-8"?>
<svg width="24px" height="13px" viewBox="0 0 24 13" version="1.1" xmlns="http://www.w3.org/2000/svg" xmlns:xlink="http://www.w3.org/1999/xlink">
    <defs>
        <path d="M19.9005851,15.9893 L17.3013582,12.8443 C17.1962164,12.7173 17.2164359,12.5283 17.3468522,12.4253 L21.152177,9.4193 C21.3705485,9.2473 21.6869849,9.4373 21.633403,9.7083 L20.4273051,15.8573 C20.3787781,16.1043 20.0613307,16.1833 19.9005851,15.9893 M8.58874153,8.9113 L11.0858596,11.7113 C11.1950453,11.8343 11.1829135,12.0213 11.0585631,12.1303 L7.38264364,15.3383 C7.1683161,15.5253 6.83570402,15.3373 6.88928591,15.0583 L8.06808737,9.0513 C8.11560338,8.8093 8.42294098,8.7263 8.58874153,8.9113 M14.0399401,12.7563 L9.79079551,7.9933 C9.62095105,7.8013 9.75844418,7.5003 10.0162438,7.5003 L20.2948669,7.5003 C20.578952,7.5003 20.7033024,7.8533 20.481898,8.0293 L14.4524195,12.7923 C14.3270581,12.8903 14.1460929,12.8753 14.0399401,12.7563 M14.2724652,14.8533 L15.6928907,13.7313 C15.821285,13.6303 16.0083161,13.6493 16.1124469,13.7753 L18.7895192,17.0153 C18.9502649,17.2093 18.8107498,17.5003 18.558005,17.5003 L7.99125297,17.5003 C7.71525571,17.5003 7.58483943,17.1613 7.79310109,16.9803 L12.0563994,13.2603 C12.1837827,13.1483 12.3789016,13.1613 12.4911203,13.2873 L13.8569529,14.8173 C13.9631057,14.9373 14.1471038,14.9533 14.2724652,14.8533 M21.9498394,6.0003 C22.978005,6.0003 23.6917562,7.0933 23.4541761,8.3043 L21.6879959,17.3033 C21.4969208,18.2793 20.7437415,19.0003 19.9157498,19.0003 L6.52836642,19.0003 C5.72767109,19.0003 5.12411665,18.3353 5.00583211,17.4693 L4.97651372,17.4373 L5.00178819,17.4163 C4.97550274,17.1853 4.97550274,16.9453 5.02402973,16.6963 L6.78919899,7.6963 C6.98128499,6.7203 7.73345333,6.0003 8.56245608,6.0003 L21.9498394,6.0003 Z M4.29117109,7.167 C4.70971637,7.167 5.0494053,7.503 5.0494053,7.917 C5.0494053,8.331 4.70971637,8.667 4.29117109,8.667 L1.25823422,8.667 C0.839688929,8.667 0.5,8.331 0.5,7.917 C0.5,7.503 0.839688929,7.167 1.25823422,7.167 L4.29117109,7.167 Z M3.28019213,11.7085 C3.69873742,11.7085 4.03842635,12.0445 4.03842635,12.4585 C4.03842635,12.8725 3.69873742,13.2085 3.28019213,13.2085 L1.25823422,13.2085 C0.839688929,13.2085 0.5,12.8725 0.5,12.4585 C0.5,12.0445 0.839688929,11.7085 1.25823422,11.7085 L3.28019213,11.7085 Z M2.26921317,16.25 C2.68775846,16.25 3.02744739,16.586 3.02744739,17 C3.02744739,17.414 2.68775846,17.75 2.26921317,17.75 L1.25823422,17.75 C0.839688929,17.75 0.5,17.414 0.5,17 C0.5,16.586 0.839688929,16.25 1.25823422,16.25 L2.26921317,16.25 Z" id="path-1"></path>
    </defs>
    <g id="Illustrations" stroke="none" stroke-width="1" fill="none" fill-rule="evenodd">
        <g id="illustrations-/-sent-an-invoice" transform="translate(0.000000, -6.000000)">
            <mask id="mask-2" fill="white">
                <use xlink:href="#path-1"></use>
            </mask>
            <use id="Fill-1" fill="#000000" xlink:href="#path-1"></use>
        </g>
    </g>
</svg>