<svg width="24" height="24" viewBox="0 0 24 24" fill="none" xmlns="http://www.w3.org/2000/svg">
<path d="M15.9854 5.12072C16.4684 5.37771 16.6424 5.96168 16.3744 6.42484L9.3744 18.5062C9.1914 18.8216 8.8504 19 8.4994 19C8.3354 19 8.1684 18.9616 8.0144 18.8792C7.5314 18.6212 7.3574 18.0382 7.6264 17.5751L14.6264 5.49278C14.8944 5.03058 15.5034 4.86373 15.9854 5.12072ZM7 8.30785C7 8.9158 7.516 9.4106 8.15 9.4106C8.784 9.4106 9.3 8.9158 9.3 8.30785C9.3 7.6999 8.784 7.2051 8.15 7.2051C7.516 7.2051 7 7.6999 7 8.30785ZM11.3 8.30785C11.3 9.97636 9.89 11.3284 8.15 11.3284C6.41 11.3284 5 9.97636 5 8.30785C5 6.63935 6.41 5.28728 8.15 5.28728C9.89 5.28728 11.3 6.63935 11.3 8.30785ZM15.8496 16.7943C16.4846 16.7943 16.9996 16.2995 16.9996 15.6916C16.9996 15.0836 16.4846 14.5888 15.8496 14.5888C15.2156 14.5888 14.7006 15.0836 14.7006 15.6916C14.7006 16.2995 15.2156 16.7943 15.8496 16.7943ZM15.8496 12.671C17.5896 12.671 18.9996 14.0231 18.9996 15.6916C18.9996 17.3601 17.5896 18.7121 15.8496 18.7121C14.1106 18.7121 12.7006 17.3601 12.7006 15.6916C12.7006 14.0231 14.1106 12.671 15.8496 12.671Z" fill="white"/>
</svg>
