<svg width="24" height="24" viewBox="0 0 24 24" fill="none" xmlns="http://www.w3.org/2000/svg">
<g clip-path="url(#clip0)">
<path d="M18.4002 23.9998C17.9003 23.9973 17.4028 23.93 16.9202 23.7998C13.9202 22.9598 10.5002 20.7098 6.92015 17.0998C2.51015 12.7298 0.860151 9.35976 0.250151 7.30976C-0.0996037 6.13387 -0.0747559 4.87828 0.321247 3.71715C0.717251 2.55602 1.46478 1.5469 2.46015 0.82976L2.79015 0.58976C3.1232 0.342089 3.50401 0.166218 3.90851 0.0732689C4.31301 -0.0196801 4.7324 -0.0276851 5.14015 0.0497602C5.54551 0.119356 5.93223 0.27156 6.27629 0.496917C6.62034 0.722274 6.91439 1.01597 7.14015 1.35976L9.33015 4.52976C9.56354 4.87272 9.7178 5.26326 9.78179 5.67313C9.84578 6.08301 9.8179 6.50198 9.70015 6.89976L9.00015 9.19976C8.95997 9.32797 8.95358 9.46438 8.98161 9.59578C9.00965 9.72718 9.07114 9.84911 9.16015 9.94976L10.1602 11.0198C11.0502 12.0198 11.9902 12.9298 12.9602 13.8298L14.0502 14.8298C14.1525 14.9121 14.2736 14.9679 14.4026 14.9923C14.5317 15.0167 14.6648 15.009 14.7902 14.9698L17.0902 14.2898C17.4879 14.172 17.9069 14.1441 18.3168 14.2081C18.7267 14.2721 19.1172 14.4264 19.4601 14.6598L22.6402 16.8198C22.9821 17.0465 23.2739 17.341 23.4975 17.685C23.7211 18.029 23.8717 18.4152 23.9402 18.8198C24.0137 19.2407 24.0011 19.6722 23.9031 20.0882C23.8052 20.5041 23.6239 20.8959 23.3702 21.2398L23.1702 21.5198C22.6261 22.2791 21.9106 22.8994 21.0818 23.3303C20.253 23.7612 19.3342 23.9906 18.4002 23.9998V23.9998ZM4.60015 1.99976C4.38349 2.00736 4.17426 2.08059 4.00015 2.20976L3.67015 2.44976C3.00479 2.92007 2.50207 3.58557 2.23155 4.35414C1.96102 5.12272 1.93607 5.95638 2.16015 6.73976C2.94015 9.32976 5.16015 12.5098 8.30015 15.6798C12.4902 19.8698 15.5902 21.3598 17.4502 21.8698C18.2085 22.0629 19.0077 22.021 19.7418 21.7495C20.4758 21.4781 21.1099 20.9899 21.5602 20.3498L21.7602 20.0798C21.8575 19.9514 21.9273 19.8043 21.9651 19.6477C22.003 19.4911 22.0081 19.3284 21.9802 19.1698C21.9557 19.0289 21.9033 18.8944 21.826 18.7742C21.7487 18.654 21.6481 18.5505 21.5302 18.4698L18.3502 16.3098C18.2508 16.2449 18.1385 16.2023 18.0211 16.1851C17.9037 16.1678 17.784 16.1762 17.6702 16.2098L15.3602 16.8898C14.9092 17.0233 14.4318 17.041 13.9722 16.9414C13.5125 16.8418 13.0854 16.628 12.7302 16.3198L11.6202 15.3198C10.6202 14.3898 9.62015 13.3998 8.69015 12.3998L7.69015 11.3098C7.37176 10.9523 7.15035 10.5191 7.04706 10.0517C6.94377 9.58424 6.96205 9.09812 7.10015 8.63976L7.78015 6.32976C7.81421 6.21766 7.82291 6.09938 7.80561 5.9835C7.78831 5.86762 7.74546 5.75703 7.68015 5.65976L5.52015 2.47976C5.43926 2.35484 5.33365 2.2478 5.20982 2.16525C5.086 2.0827 4.94657 2.02638 4.80015 1.99976H4.60015Z" fill="#fff"/>
</g>
<defs>
<clipPath id="clip0">
<rect width="24" height="24" fill="white"/>
</clipPath>
</defs>
</svg>
