<svg width="24" height="24" viewBox="0 0 24 24" fill="none" xmlns="http://www.w3.org/2000/svg">
<path d="M12 24C8.8174 24 5.76516 22.7357 3.51472 20.4853C1.26428 18.2348 0 15.1826 0 12C0 8.8174 1.26428 5.76516 3.51472 3.51472C5.76516 1.26428 8.8174 0 12 0C13.0776 0.00193097 14.1503 0.14652 15.19 0.43C15.3167 0.4648 15.4354 0.52422 15.5391 0.604867C15.6429 0.685514 15.7297 0.785809 15.7947 0.900025C15.8597 1.01424 15.9016 1.14014 15.918 1.27054C15.9343 1.40094 15.9248 1.53327 15.89 1.66C15.8552 1.78673 15.7958 1.90536 15.7151 2.00912C15.6345 2.11288 15.5342 2.19974 15.42 2.26474C15.3058 2.32974 15.1799 2.37161 15.0495 2.38795C14.9191 2.4043 14.7867 2.3948 14.66 2.36C13.1105 1.91275 11.4757 1.84692 9.89527 2.16812C8.31479 2.48932 6.83544 3.18802 5.58341 4.20464C4.33138 5.22125 3.34381 6.52561 2.70493 8.00646C2.06605 9.48731 1.79482 11.1007 1.91437 12.7091C2.03392 14.3174 2.54071 15.873 3.3915 17.2431C4.2423 18.6132 5.41186 19.7572 6.80044 20.5776C8.18901 21.3979 9.7554 21.8702 11.366 21.9542C12.9766 22.0382 14.5836 21.7314 16.05 21.06C16.2927 20.9526 16.5681 20.946 16.8156 21.0416C17.0632 21.1373 17.2626 21.3273 17.37 21.57C17.4774 21.8127 17.484 22.0881 17.3884 22.3356C17.2927 22.5832 17.1027 22.7826 16.86 22.89C15.3364 23.5987 13.6802 23.977 12 24V24Z" fill="black"/>
<path d="M11.5788 20.9998C10.3346 20.9921 9.10671 20.7039 7.97932 20.155C6.85193 19.6061 5.85167 18.8095 5.04712 17.8198C4.24257 16.83 3.65274 15.6706 3.31807 14.4209C2.9834 13.1712 2.9118 11.8608 3.10817 10.5795C3.30455 9.29825 3.76426 8.07642 4.45579 6.99777C5.14732 5.91912 6.05433 5.00916 7.11463 4.33026C8.17493 3.65136 9.36346 3.21958 10.5987 3.06451C11.834 2.90944 13.0869 3.03474 14.2714 3.43184C14.5212 3.51504 14.7291 3.69833 14.8493 3.94138C14.9695 4.18442 14.9923 4.46732 14.9125 4.72784C14.8327 4.98836 14.6569 5.20516 14.4239 5.33054C14.1908 5.45592 13.9195 5.47961 13.6697 5.39641C13.0075 5.17052 12.315 5.05594 11.6182 5.05698C9.85252 5.05698 8.15914 5.78846 6.91061 7.0905C5.66207 8.39254 4.96065 10.1585 4.96065 11.9998C4.96065 13.8412 5.66207 15.6071 6.91061 16.9092C8.15914 18.2112 9.85252 18.9427 11.6182 18.9427C12.9893 18.9485 14.3276 18.506 15.4451 17.6776C15.5513 17.5999 15.6711 17.5448 15.7978 17.5154C15.9244 17.4861 16.0553 17.483 16.1831 17.5064C16.3108 17.5298 16.4329 17.5792 16.5424 17.6518C16.6518 17.7244 16.7465 17.8188 16.821 17.9296C16.8955 18.0403 16.9483 18.1653 16.9764 18.2973C17.0046 18.4294 17.0075 18.5659 16.9851 18.6992C16.9627 18.8324 16.9153 18.9597 16.8457 19.0739C16.776 19.188 16.6855 19.2867 16.5793 19.3644C15.1165 20.4394 13.3683 21.0112 11.5788 20.9998V20.9998Z" fill="black"/>
<path d="M20 24C19.7348 24 19.4804 23.8946 19.2929 23.7071C19.1054 23.5196 19 23.2652 19 23V11C19 10.7348 19.1054 10.4804 19.2929 10.2929C19.4804 10.1054 19.7348 10 20 10C20.2652 10 20.5196 10.1054 20.7071 10.2929C20.8946 10.4804 21 10.7348 21 11V23C21 23.2652 20.8946 23.5196 20.7071 23.7071C20.5196 23.8946 20.2652 24 20 24Z" fill="black"/>
<path d="M20 12C18.91 12 16 12 16 8C16 5.28 17.41 0 20 0C22.59 0 24 5.28 24 8C24 12 21.09 12 20 12ZM20 2C19.39 2.14 18 5.24 18 8C18 9.82 18.58 10 20 10C21.42 10 22 9.82 22 8C22 5.24 20.62 2.14 20 2Z" fill="black"/>
</svg>
