<svg width="24" height="24" viewBox="0 0 24 24" fill="none" xmlns="http://www.w3.org/2000/svg">
<path fill-rule="evenodd" clip-rule="evenodd" d="M7.3 3.30015C7.6 3.00015 8 2.90015 8.4 3.10015C8.8 3.20015 9 3.60015 9 4.00015V20.0001C9 20.6001 8.6 21.0001 8 21.0001C7.4 21.0001 7 20.6001 7 20.0001V6.40015L4.7 8.70015C4.3 9.10015 3.7 9.10015 3.3 8.70015C2.9 8.30015 2.9 7.70015 3.3 7.30015L7.3 3.30015ZM15.4 3.00015C17.2 3.00015 18.8 4.50015 19.2 6.60015C19.4 8.00015 19 9.80015 17.5 11.0001C19.4 12.4001 20.1 14.8001 19.8 16.8001C19.4 19.3001 17.6 21.0001 15.3 21.0001C13.1 21.0001 11.4 19.5001 11 17.1001C10.7 15.1001 11.3 12.6001 13.1 11.1001C11.5 10.0001 11.1 8.30015 11.3 6.90015C11.7 4.70015 13.5 3.00015 15.4 3.00015ZM15.4 12.1001C13.6 12.9001 12.8 15.1001 13.1 16.8001C13.2 17.5001 13.7 19.0001 15.4 19.0001C17 19.0001 17.7 17.7001 17.9 16.5001C18.1 14.9001 17.4 12.8001 15.4 12.1001ZM15.4 5.00015C14.5 5.00015 13.6 6.00015 13.4 7.10015C13.2 8.40015 13.9 9.40015 15.4 9.90015C17.4 9.10015 17.3 7.40015 17.2 6.90015C17 6.00015 16.4 5.00015 15.4 5.00015Z" fill="white"/>
</svg>
