<svg width="24" height="24" viewBox="0 0 24 24" fill="none" xmlns="http://www.w3.org/2000/svg">
<g clip-path="url(#clip0)">
<path d="M22 24C21.7348 24 21.4804 23.8946 21.2929 23.7071C21.1054 23.5196 21 23.2652 21 23V21C21 19.9391 20.5786 18.9217 19.8284 18.1716C19.0783 17.4214 18.0609 17 17 17H7C5.93913 17 4.92172 17.4214 4.17157 18.1716C3.42143 18.9217 3 19.9391 3 21V23C3 23.2652 2.89464 23.5196 2.70711 23.7071C2.51957 23.8946 2.26522 24 2 24C1.73478 24 1.48043 23.8946 1.29289 23.7071C1.10536 23.5196 1 23.2652 1 23V21C1 19.4087 1.63214 17.8826 2.75736 16.7574C3.88258 15.6321 5.4087 15 7 15H17C18.5913 15 20.1174 15.6321 21.2426 16.7574C22.3679 17.8826 23 19.4087 23 21V23C23 23.2652 22.8946 23.5196 22.7071 23.7071C22.5196 23.8946 22.2652 24 22 24Z" fill="black"/>
<path d="M12 14C10.6155 14 9.26216 13.5895 8.11101 12.8203C6.95987 12.0511 6.06266 10.9579 5.53285 9.67879C5.00303 8.3997 4.86441 6.99224 5.13451 5.63437C5.4046 4.2765 6.07129 3.02922 7.05026 2.05026C8.02922 1.07129 9.2765 0.404603 10.6344 0.134506C11.9922 -0.13559 13.3997 0.00303304 14.6788 0.532846C15.9579 1.06266 17.0511 1.95987 17.8203 3.11101C18.5895 4.26216 19 5.61553 19 7C19 8.85652 18.2625 10.637 16.9497 11.9497C15.637 13.2625 13.8565 14 12 14V14ZM12 2C11.0111 2 10.0444 2.29325 9.22215 2.84265C8.39991 3.39206 7.75904 4.17296 7.38061 5.08659C7.00217 6.00022 6.90315 7.00555 7.09608 7.97545C7.289 8.94536 7.76521 9.83627 8.46447 10.5355C9.16373 11.2348 10.0546 11.711 11.0246 11.9039C11.9945 12.0969 12.9998 11.9978 13.9134 11.6194C14.8271 11.241 15.6079 10.6001 16.1574 9.77785C16.7068 8.95561 17 7.98891 17 7C17 5.67392 16.4732 4.40215 15.5355 3.46447C14.5979 2.52679 13.3261 2 12 2V2Z" fill="black"/>
</g>
<defs>
<clipPath id="clip0">
<rect width="24" height="24" fill="white"/>
</clipPath>
</defs>
</svg>
