<?xml version="1.0" encoding="UTF-8"?>
<svg xmlns="http://www.w3.org/2000/svg" xmlns:xlink="http://www.w3.org/1999/xlink" width="266px" height="110px" viewBox="0 0 266 110" version="1.1">
    
    <title>купон</title>
    <desc>Created with Sketch.</desc>
    <defs>
        <radialGradient cx="50%" cy="100%" fx="50%" fy="100%" r="58.0234945%" gradientTransform="translate(0.500000,1.000000),scale(0.489286,1.000000),rotate(90.000000),scale(1.000000,1.671836),translate(-0.500000,-1.000000)" id="radialGradient-1">
            <stop stop-color="#BAC9E0" stop-opacity="0.726753715" offset="0%"/>
            <stop stop-color="#BAC3DE" stop-opacity="0.207604895" offset="76.1111698%"/>
            <stop stop-color="#BABFDD" stop-opacity="0" offset="100%"/>
        </radialGradient>
        <rect id="path-2" x="0" y="0" width="280" height="137"/>
        <linearGradient x1="100%" y1="32.8067429%" x2="0%" y2="68.0922438%" id="linearGradient-4">
            <stop stop-color="#79E2F9" offset="0%"/>
            <stop stop-color="#3593F1" offset="25.1161318%"/>
            <stop stop-color="#277FF7" offset="46.8459671%"/>
            <stop stop-color="#257BEE" offset="63.9014992%"/>
            <stop stop-color="#6CAEFD" offset="100%"/>
        </linearGradient>
        <linearGradient x1="100%" y1="32.8130387%" x2="0%" y2="68.0856188%" id="linearGradient-5">
            <stop stop-color="#79E2F9" offset="0%"/>
            <stop stop-color="#3593F1" offset="25.1161318%"/>
            <stop stop-color="#277FF7" offset="46.8459671%"/>
            <stop stop-color="#257BEE" offset="63.9014992%"/>
            <stop stop-color="#6CAEFD" offset="100%"/>
        </linearGradient>
        <rect id="path-6" x="0" y="0" width="184.450018" height="110.932905" rx="9.22250092"/>
        <filter x="-4.6%" y="-5.9%" width="109.2%" height="115.3%" filterUnits="objectBoundingBox" id="filter-8">
            <feOffset dx="0" dy="2" in="SourceAlpha" result="shadowOffsetOuter1"/>
            <feGaussianBlur stdDeviation="2.5" in="shadowOffsetOuter1" result="shadowBlurOuter1"/>
            <feComposite in="shadowBlurOuter1" in2="SourceAlpha" operator="out" result="shadowBlurOuter1"/>
            <feColorMatrix values="0 0 0 0 0.00464559739   0 0 0 0 0.13058794   0 0 0 0 0.361186594  0 0 0 0.539718094 0" type="matrix" in="shadowBlurOuter1"/>
        </filter>
    </defs>
    <g id="Desktop" stroke="none" stroke-width="1" fill="none" fill-rule="evenodd">
        <g id="DSKLAD-/-Desktop-/-Landing-discount" transform="translate(-625.000000, -658.000000)">
            <g id="купон" transform="translate(618.000000, 631.000000)">
                <mask id="mask-3" fill="white">
                    <use xlink:href="#path-2"/>
                </mask>
                <use id="Rectangle" fill="url(#radialGradient-1)" xlink:href="#path-2"/>
                <g id="купоны" mask="url(#mask-3)">
                    <g transform="translate(140.500000, 96.000000) rotate(2.000000) translate(-140.500000, -96.000000) translate(42.000000, 28.000000)">
                        <path d="M15.9688064,13.2498827 C11.1349274,13.3452559 7.247262,17.294152 7.25188269,22.1496401 L7.27076283,113.905212 C7.27544158,118.819089 11.2586983,122.802347 16.1723887,122.807028 L181.05032,122.841034 L181.050975,122.843001 C185.884854,122.747628 189.77252,118.798732 189.767899,113.943244 L189.749019,22.1876752 C189.74434,17.2737982 185.761084,13.2905396 180.847393,13.2858583 L15.9694619,13.2518501 L15.9688064,13.2498827 Z" id="Mask" stroke-opacity="0.14805507" stroke="#091E42" stroke-width="0.5" fill="url(#linearGradient-4)" transform="translate(98.509891, 68.046442) rotate(8.000000) translate(-98.509891, -68.046442) "/>
                        <g id="Ваш-купон-+-500-+-Symbol-Mask" stroke="none" stroke-width="1" fill="none" transform="translate(0.000000, 13.057471)">
                            <mask id="mask-7" fill="white">
                                <use xlink:href="#path-6"/>
                            </mask>
                            <g id="Mask">
                                <use fill="black" fill-opacity="1" filter="url(#filter-8)" xlink:href="#path-6"/>
                                <rect stroke-opacity="0.14805507" stroke="#091E42" stroke-width="0.5" stroke-linejoin="square" fill="url(#linearGradient-5)" fill-rule="evenodd" x="0.25" y="0.25" width="183.950018" height="110.432905" rx="9.22250092"/>
                            </g>
                            <path d="M66.8030808,46.4501119 C69.040582,48.2054951 69.4454596,51.4360771 67.7103474,53.6893342 L22.4354577,112.48436 C20.7183379,114.714251 17.518653,115.129935 15.2887613,113.412815 C15.2775245,113.404163 15.2663239,113.395463 15.2551598,113.386716 C13.0157091,111.632258 12.6096613,108.400334 14.3455153,106.146432 L59.6286421,47.3490107 C61.3439132,45.1218342 64.5398985,44.7068529 66.767075,46.422124 C66.7791187,46.4313995 66.7911207,46.4407289 66.8030808,46.4501119 Z M5.3111421,63.3932177 C6.43478628,70.5818433 11.4323275,74.5254805 17.9737851,73.4853573 C24.5064869,72.4471965 28.0603157,67.1445303 26.9366715,59.9559047 C25.8159459,52.7761103 20.8174318,48.8324731 14.2847299,49.8706339 C7.74327236,50.9107572 4.18944363,56.2144046 5.3111421,63.3932177 Z M37.1671842,58.3299761 C39.0885671,70.6299245 32.0927876,81.2185757 19.4953258,83.2213036 C6.88910821,85.2250128 -2.98825918,77.3181134 -4.90964208,65.018165 C-6.83005213,52.7270479 0.155998813,42.1305467 12.7622164,40.1268376 C25.3587054,38.1241096 35.2467741,46.0378778 37.1671842,58.3299761 Z M56.1086772,101.831469 C57.2323213,109.020095 62.2298626,112.963732 68.7713201,111.923609 C75.304022,110.885448 78.8578507,105.582782 77.7342065,98.3941564 C76.6134809,91.214362 71.6149668,87.2707248 65.082265,88.3088856 C58.5408074,89.3490089 54.9869787,94.6526563 56.1086772,101.831469 Z M87.9647193,96.7682278 C89.8861022,109.068176 82.8903227,119.656827 70.2928608,121.659555 C57.6866433,123.663264 47.8092759,115.756365 45.887893,103.456417 C43.9674829,91.1652996 50.9535339,80.5687984 63.5597514,78.5650892 C76.1562404,76.5623613 86.0443092,84.4761294 87.9647193,96.7682278 Z" id="Fill-13" fill="#FFFFFF" mask="url(#mask-7)"/>
                            <path d="M162.136462,14.4941696 L168.608414,19.6576292 L168.608414,28.8101607 L155.66343,28.8101607 L155.66343,19.6597664 L162.135382,14.4963068 L162.136462,14.4941696 Z M161.013807,11.5784867 L153.09247,17.8418014 C152.671857,18.1741091 152.427184,18.6751445 152.427184,19.2046674 L152.427184,30.3640836 C152.427797,31.3312321 153.227864,32.1149425 154.214586,32.1149425 L170.057259,32.1149425 C171.043981,32.1149425 171.844048,31.3312321 171.84466,30.3640836 L171.84466,19.2046674 C171.84466,18.6751088 171.600116,18.174009 171.179374,17.8418014 L163.258038,11.5795736 C162.940273,11.3282706 162.544223,11.1913284 162.135922,11.1915709 C161.727622,11.1902416 161.331571,11.3271837 161.013807,11.5784867 Z" id="Symbol" fill="#FFFFFF" mask="url(#mask-7)"/>
                        </g>
                    </g>
                </g>
            </g>
        </g>
    </g>
</svg>
