<svg width="24" height="24" viewBox="0 0 24 24" fill="none" xmlns="http://www.w3.org/2000/svg">
<g clip-path="url(#clip0)">
<mask id="mask0" mask-type="alpha" maskUnits="userSpaceOnUse" x="0" y="0" width="24" height="23">
<path d="M11.9999 16.4291C12.1537 16.4291 12.3074 16.477 12.4373 16.5726L17.5419 20.2973L15.5921 14.2684C15.492 13.9606 15.6011 13.6239 15.8629 13.4336L20.9665 9.70885H14.6579C14.3346 9.70885 14.0489 9.50065 13.9507 9.19183L11.9999 3.16489L10.0501 9.19183C9.95095 9.50065 9.66532 9.70885 9.34299 9.70885H3.03336L8.13799 13.4336C8.39883 13.6239 8.50792 13.9606 8.40776 14.2684L6.45794 20.2973L11.5626 16.5726C11.6925 16.477 11.8462 16.4291 11.9999 16.4291ZM18.9572 23C18.8035 23 18.6497 22.9522 18.5198 22.8565L11.9999 18.0997L5.48105 22.8565C5.22021 23.0478 4.86714 23.0478 4.60631 22.8565C4.34547 22.6673 4.23638 22.3296 4.33555 22.0217L6.82588 14.3232L0.305999 9.5654C0.0461554 9.37613 -0.0629391 9.03842 0.0362377 8.7306C0.136406 8.42277 0.422036 8.21457 0.743369 8.21457H8.80248L11.2928 0.516026C11.392 0.208203 11.6776 0 11.9999 0C12.3223 0 12.6079 0.208203 12.7071 0.516026L15.1984 8.21457H23.2565C23.5788 8.21457 23.8645 8.42277 23.9636 8.7306C24.0628 9.03842 23.9547 9.37613 23.6929 9.5654L17.174 14.3232L19.6643 22.0217C19.7635 22.3296 19.6554 22.6673 19.3936 22.8565C19.2637 22.9522 19.1099 23 18.9572 23Z" fill="white"/>
</mask>
<g mask="url(#mask0)">
<path d="M11.9999 16.4291C12.1537 16.4291 12.3074 16.477 12.4373 16.5726L17.5419 20.2973L15.5921 14.2684C15.492 13.9606 15.6011 13.6239 15.8629 13.4336L20.9665 9.70885H14.6579C14.3346 9.70885 14.0489 9.50065 13.9507 9.19183L11.9999 3.16489L10.0501 9.19183C9.95095 9.50065 9.66532 9.70885 9.34299 9.70885H3.03336L8.13799 13.4336C8.39883 13.6239 8.50792 13.9606 8.40776 14.2684L6.45794 20.2973L11.5626 16.5726C11.6925 16.477 11.8462 16.4291 11.9999 16.4291ZM18.9572 23C18.8035 23 18.6497 22.9522 18.5198 22.8565L11.9999 18.0997L5.48105 22.8565C5.22021 23.0478 4.86714 23.0478 4.60631 22.8565C4.34547 22.6673 4.23638 22.3296 4.33555 22.0217L6.82588 14.3232L0.305999 9.5654C0.0461554 9.37613 -0.0629391 9.03842 0.0362377 8.7306C0.136406 8.42277 0.422036 8.21457 0.743369 8.21457H8.80248L11.2928 0.516026C11.392 0.208203 11.6776 0 11.9999 0C12.3223 0 12.6079 0.208203 12.7071 0.516026L15.1984 8.21457H23.2565C23.5788 8.21457 23.8645 8.42277 23.9636 8.7306C24.0628 9.03842 23.9547 9.37613 23.6929 9.5654L17.174 14.3232L19.6643 22.0217C19.7635 22.3296 19.6554 22.6673 19.3936 22.8565C19.2637 22.9522 19.1099 23 18.9572 23Z" fill="white"/>
<path d="M23.8024 0H0V23.9085H23.8024V0Z" fill="white"/>
</g>
</g>
<defs>
<clipPath id="clip0">
<rect width="24" height="24" fill="white"/>
</clipPath>
</defs>
</svg>
