<?xml version="1.0" encoding="UTF-8"?>
<svg xmlns="http://www.w3.org/2000/svg" xmlns:xlink="http://www.w3.org/1999/xlink" width="10px" height="7px" viewBox="0 0 10 7" version="1.1">
    
    <title>Rectangle 2</title>
    <desc>Created with Sketch.</desc>
    <g id="Mobile" stroke="none" stroke-width="1" fill="none" fill-rule="evenodd">
        <g id="DSKLAD-/-Mobile-/-product-page_max" transform="translate(-160.000000, -4578.000000)" fill="#1769FF">
            <path d="M160.5,4578 L169.5,4578 C169.776142,4578 170,4578.22386 170,4578.5 C170,4578.77614 169.776142,4579 169.5,4579 L160.5,4579 C160.223858,4579 160,4578.77614 160,4578.5 C160,4578.22386 160.223858,4578 160.5,4578 Z M160.5,4581 L166.5,4581 C166.776142,4581 167,4581.22386 167,4581.5 C167,4581.77614 166.776142,4582 166.5,4582 L160.5,4582 C160.223858,4582 160,4581.77614 160,4581.5 C160,4581.22386 160.223858,4581 160.5,4581 Z M160.5,4584 L163.5,4584 C163.776142,4584 164,4584.22386 164,4584.5 C164,4584.77614 163.776142,4585 163.5,4585 L160.5,4585 C160.223858,4585 160,4584.77614 160,4584.5 C160,4584.22386 160.223858,4584 160.5,4584 Z" id="Rectangle-2"/>
        </g>
    </g>
</svg>
