<svg width="24" height="24" viewBox="0 0 24 24" fill="none" xmlns="http://www.w3.org/2000/svg">
<g clip-path="url(#clip0)">
<path d="M12 24C9.62663 24 7.30655 23.2962 5.33316 21.9776C3.35977 20.6591 1.8217 18.7849 0.913451 16.5922C0.00519943 14.3995 -0.232441 11.9867 0.230582 9.65892C0.693605 7.33115 1.83649 5.19295 3.51472 3.51472C5.19295 1.83649 7.33115 0.693605 9.65892 0.230582C11.9867 -0.232441 14.3995 0.00519943 16.5922 0.913451C18.7849 1.8217 20.6591 3.35977 21.9776 5.33316C23.2962 7.30655 24 9.62663 24 12C24 15.1826 22.7357 18.2349 20.4853 20.4853C18.2349 22.7357 15.1826 24 12 24ZM12 2.00001C10.0222 2.00001 8.08879 2.5865 6.4443 3.68531C4.79981 4.78412 3.51809 6.34591 2.76121 8.17317C2.00433 10.0004 1.8063 12.0111 2.19215 13.9509C2.578 15.8907 3.53041 17.6725 4.92894 19.0711C6.32746 20.4696 8.10929 21.422 10.0491 21.8079C11.9889 22.1937 13.9996 21.9957 15.8268 21.2388C17.6541 20.4819 19.2159 19.2002 20.3147 17.5557C21.4135 15.9112 22 13.9778 22 12C22 10.6868 21.7413 9.38643 21.2388 8.17317C20.7363 6.95992 19.9997 5.85752 19.0711 4.92894C18.1425 4.00035 17.0401 3.26376 15.8268 2.76121C14.6136 2.25866 13.3132 2.00001 12 2.00001V2.00001Z" fill="#f06989"/>
<path d="M7.99933 20C7.82359 20.0007 7.65077 19.955 7.49831 19.8675C7.34585 19.7801 7.21914 19.6539 7.13096 19.5018C7.04279 19.3496 6.99627 19.1769 6.99609 19.001C6.99592 18.8251 7.0421 18.6523 7.12997 18.5L15.124 4.50003C15.2565 4.26929 15.4752 4.10068 15.732 4.03129C15.9887 3.9619 16.2625 3.99742 16.493 4.13003C16.7236 4.26264 16.8921 4.48147 16.9614 4.7384C17.0307 4.99532 16.9953 5.26929 16.8627 5.50003L8.86868 19.5C8.78064 19.6526 8.65387 19.7792 8.50121 19.8671C8.34854 19.9549 8.17541 20.0007 7.99933 20Z" fill="#f06989"/>
<path d="M9.5 10C9.00555 10 8.5222 9.85338 8.11108 9.57868C7.69995 9.30397 7.37952 8.91353 7.1903 8.45671C7.00108 7.9999 6.95157 7.49723 7.04804 7.01228C7.1445 6.52732 7.3826 6.08187 7.73223 5.73223C8.08187 5.3826 8.52732 5.1445 9.01228 5.04804C9.49723 4.95157 9.9999 5.00108 10.4567 5.1903C10.9135 5.37952 11.304 5.69995 11.5787 6.11108C11.8534 6.5222 12 7.00555 12 7.5C12 7.82831 11.9353 8.1534 11.8097 8.45671C11.6841 8.76002 11.4999 9.03562 11.2678 9.26777C11.0356 9.49991 10.76 9.68406 10.4567 9.8097C10.1534 9.93534 9.82831 10 9.5 10ZM9.5 7C9.40111 7 9.30444 7.02933 9.22222 7.08427C9.13999 7.13921 9.07591 7.2173 9.03806 7.30866C9.00022 7.40002 8.99032 7.50056 9.00961 7.59755C9.0289 7.69454 9.07652 7.78363 9.14645 7.85355C9.21637 7.92348 9.30547 7.9711 9.40246 7.99039C9.49945 8.00969 9.59998 7.99979 9.69134 7.96194C9.78271 7.9241 9.8608 7.86001 9.91574 7.77779C9.97068 7.69556 10 7.59889 10 7.5C10 7.36739 9.94732 7.24022 9.85356 7.14645C9.75979 7.05268 9.63261 7 9.5 7Z" fill="#f06989"/>
<path d="M14.4898 19C13.9971 18.998 13.5159 18.8504 13.1068 18.5758C12.6977 18.3012 12.3788 17.9118 12.1903 17.4566C12.0017 17.0014 11.9519 16.5006 12.0471 16.0171C12.1423 15.5336 12.3782 15.0891 12.7252 14.7393C13.0723 14.3895 13.5149 14.15 13.9976 14.051C14.4803 13.952 14.9815 13.9978 15.4382 14.1827C15.895 14.3676 16.2869 14.6834 16.5647 15.0903C16.8426 15.4972 16.994 15.9772 16.9999 16.4699C17.0026 16.8012 16.9396 17.1297 16.8146 17.4366C16.6897 17.7434 16.5052 18.0225 16.2719 18.2577C16.0385 18.4929 15.7609 18.6796 15.4551 18.807C15.1492 18.9344 14.8212 19 14.4898 19ZM14.4898 15.9879C14.3926 15.9899 14.2981 16.0207 14.2183 16.0765C14.1385 16.1322 14.0771 16.2103 14.0417 16.3009C14.0063 16.3915 13.9986 16.4906 14.0195 16.5856C14.0404 16.6806 14.0891 16.7673 14.1593 16.8347C14.2294 16.9021 14.318 16.9471 14.4138 16.9642C14.5096 16.9812 14.6083 16.9695 14.6974 16.9304C14.7865 16.8914 14.8621 16.8268 14.9145 16.7448C14.9669 16.6628 14.9938 16.5671 14.9918 16.4699C14.9905 16.4053 14.9765 16.3415 14.9506 16.2823C14.9246 16.2232 14.8873 16.1697 14.8407 16.1249C14.7941 16.0801 14.7391 16.045 14.6789 16.0215C14.6187 15.998 14.5544 15.9866 14.4898 15.9879V15.9879Z" fill="#f06989"/>
</g>
<defs>
<clipPath id="clip0">
<rect width="24" height="24" fill="white"/>
</clipPath>
</defs>
</svg>
