<svg width="24" height="24" viewBox="0 0 24 24" fill="none" xmlns="http://www.w3.org/2000/svg">
<path fill-rule="evenodd" clip-rule="evenodd" d="M15.8 14.8C16.0667 15.0667 16.0667 15.4667 15.8 15.7333C15.6667 15.9333 15.4667 16 15.3333 16C15.1333 16 15 15.9333 14.8667 15.8L12 12.9333L9.2 15.7333C9.06667 15.9333 8.86667 16 8.73333 16C8.6 16 8.4 15.9333 8.26667 15.8C8 15.5333 8 15.1333 8.26667 14.8667L11.0667 12.0667L8.2 9.2C8 8.93333 8 8.46667 8.2 8.2C8.46667 7.93333 8.86667 7.93333 9.13333 8.2L11.9333 11L14.7333 8.2C15 7.93333 15.4 7.93333 15.6667 8.2C15.9333 8.46667 15.9333 8.86667 15.6667 9.13333L12.9333 12L15.8 14.8ZM12 4C7.6 4 4 7.6 4 12C4 16.4 7.6 20 12 20C16.4 20 20 16.4 20 12C20 7.6 16.4 4 12 4Z" fill="#9FA7B6"/>
</svg>
