<svg width="24" height="24" viewBox="0 0 24 24" fill="none" xmlns="http://www.w3.org/2000/svg">
<path d="M5.30611 10.7634C5.30611 7.75514 7.77335 5.30682 10.8061 5.30682C13.8383 5.30682 16.3062 7.75514 16.3062 10.7634C16.3062 13.7717 13.8383 16.22 10.8061 16.22C7.77335 16.22 5.30611 13.7717 5.30611 10.7634ZM19.8065 18.8827L16.0103 15.1125C17.0082 13.9357 17.6123 12.4192 17.6123 10.7634C17.6123 7.03443 14.5592 4 10.8061 4C7.05303 4 4 7.03443 4 10.7634C4 14.4924 7.05303 17.5269 10.8061 17.5269C12.4218 17.5269 13.9055 16.9617 15.0738 16.024L18.887 19.8105C19.0137 19.9366 19.1802 20 19.3468 20C19.5146 20 19.6831 19.9353 19.8104 19.8066C20.0645 19.5505 20.0632 19.1368 19.8065 18.8827Z" fill="#484ed8"/>
</svg>
