<svg width="24" height="24" viewBox="0 0 24 24" fill="none" xmlns="http://www.w3.org/2000/svg">
<g clip-path="url(#clip0)">
<path d="M15 19H9C8.73478 19 8.48043 18.8946 8.29289 18.7071C8.10536 18.5196 8 18.2652 8 18C8 17.7348 8.10536 17.4804 8.29289 17.2929C8.48043 17.1054 8.73478 17 9 17H15C15.2652 17 15.5196 17.1054 15.7071 17.2929C15.8946 17.4804 16 17.7348 16 18C16 18.2652 15.8946 18.5196 15.7071 18.7071C15.5196 18.8946 15.2652 19 15 19Z" fill="black"/>
<path d="M16.9962 14.9999H16.8866C16.6255 14.9698 16.3869 14.8372 16.2227 14.6312C16.0585 14.4251 15.9821 14.1623 16.0101 13.8999L17.0062 4.89994C17.0352 4.63472 17.168 4.39196 17.3754 4.22505C17.5828 4.05815 17.8477 3.98077 18.1119 4.00994C18.376 4.03912 18.6179 4.17245 18.7841 4.38062C18.9504 4.58878 19.0274 4.85472 18.9984 5.11994L18.0023 14.1199C17.9727 14.3656 17.8535 14.5915 17.6677 14.7541C17.4819 14.9166 17.2426 15.0042 16.9962 14.9999Z" fill="black"/>
<path d="M12 15C11.7348 15 11.4804 14.8946 11.2929 14.7071C11.1054 14.5196 11 14.2652 11 14V4C11 3.73478 11.1054 3.48043 11.2929 3.29289C11.4804 3.10536 11.7348 3 12 3C12.2652 3 12.5196 3.10536 12.7071 3.29289C12.8946 3.48043 13 3.73478 13 4V14C13 14.2652 12.8946 14.5196 12.7071 14.7071C12.5196 14.8946 12.2652 15 12 15Z" fill="black"/>
<path d="M6.99171 14.9941C6.74554 14.9956 6.50754 14.9055 6.32365 14.7413C6.13976 14.577 6.02301 14.3502 5.99593 14.1046L5.00015 5.10956C4.9711 4.84449 5.04815 4.57869 5.21435 4.37064C5.38056 4.16259 5.6223 4.02933 5.8864 4.00017C6.15049 3.97101 6.41531 4.04835 6.6226 4.21517C6.82989 4.38198 6.96266 4.62461 6.99171 4.88968L7.98749 13.8847C8.00269 14.0161 7.99176 14.1492 7.95533 14.2763C7.9189 14.4034 7.85769 14.522 7.77525 14.6252C7.69281 14.7284 7.59079 14.8142 7.47509 14.8775C7.3594 14.9408 7.23232 14.9805 7.10125 14.9941H6.99171Z" fill="black"/>
<path d="M19.8621 2.96106C19.7703 2.97548 19.6768 2.97548 19.585 2.96106C17.0903 2.31167 14.5232 1.98004 11.9449 1.9741C9.36665 1.98004 6.79952 2.31167 4.30482 2.96106C4.04235 3.03435 3.76143 3.00066 3.52387 2.8674C3.28631 2.73413 3.11156 2.51221 3.03806 2.25045C2.96457 1.98869 2.99836 1.70853 3.13199 1.47162C3.26561 1.2347 3.48814 1.06042 3.75061 0.987131C6.42823 0.308644 9.18233 -0.0230733 11.9449 0.000164728C14.7075 -0.0230733 17.4616 0.308644 20.1392 0.987131C20.4017 1.02378 20.6388 1.16291 20.7985 1.37391C20.9581 1.58492 21.0271 1.85051 20.9903 2.11227C20.9536 2.37403 20.8141 2.61051 20.6025 2.76969C20.3909 2.92887 20.1246 2.99771 19.8621 2.96106V2.96106Z" fill="black"/>
<path d="M6 24C5.73478 24 5.48043 23.8946 5.29289 23.7071C5.10536 23.5196 5 23.2652 5 23V14C5 13.7348 5.10536 13.4804 5.29289 13.2929C5.48043 13.1054 5.73478 13 6 13C6.26522 13 6.51957 13.1054 6.70711 13.2929C6.89464 13.4804 7 13.7348 7 14V23C7 23.2652 6.89464 23.5196 6.70711 23.7071C6.51957 23.8946 6.26522 24 6 24Z" fill="black"/>
<path d="M18 24C17.7348 24 17.4804 23.8946 17.2929 23.7071C17.1054 23.5196 17 23.2652 17 23V14C17 13.7348 17.1054 13.4804 17.2929 13.2929C17.4804 13.1054 17.7348 13 18 13C18.2652 13 18.5196 13.1054 18.7071 13.2929C18.8946 13.4804 19 13.7348 19 14V23C19 23.2652 18.8946 23.5196 18.7071 23.7071C18.5196 23.8946 18.2652 24 18 24Z" fill="black"/>
<path d="M20 15H4C3.73478 15 3.48043 14.8946 3.29289 14.7071C3.10536 14.5196 3 14.2652 3 14C3 13.7348 3.10536 13.4804 3.29289 13.2929C3.48043 13.1054 3.73478 13 4 13H20C20.2652 13 20.5196 13.1054 20.7071 13.2929C20.8946 13.4804 21 13.7348 21 14C21 14.2652 20.8946 14.5196 20.7071 14.7071C20.5196 14.8946 20.2652 15 20 15Z" fill="black"/>
</g>
<defs>
<clipPath id="clip0">
<rect width="24" height="24" fill="white"/>
</clipPath>
</defs>
</svg>
