<svg width="24" height="24" viewBox="0 0 24 24" fill="none" xmlns="http://www.w3.org/2000/svg">
<path d="M17 24H7C6.73478 24 6.48043 23.8946 6.29289 23.7071C6.10536 23.5196 6 23.2652 6 23C6 22.7348 6.10536 22.4804 6.29289 22.2929C6.48043 22.1054 6.73478 22 7 22H17C17.2652 22 17.5196 22.1054 17.7071 22.2929C17.8946 22.4804 18 22.7348 18 23C18 23.2652 17.8946 23.5196 17.7071 23.7071C17.5196 23.8946 17.2652 24 17 24Z" fill="black"/>
<path d="M12 24C11.7348 24 11.4804 23.8946 11.2929 23.7071C11.1054 23.5196 11 23.2652 11 23V17C11 16.7348 11.1054 16.4804 11.2929 16.2929C11.4804 16.1054 11.7348 16 12 16C12.2652 16 12.5196 16.1054 12.7071 16.2929C12.8946 16.4804 13 16.7348 13 17V23C13 23.2652 12.8946 23.5196 12.7071 23.7071C12.5196 23.8946 12.2652 24 12 24Z" fill="black"/>
<path d="M19.9165 15.0001H4.05816C3.90387 15.002 3.75101 14.9719 3.61033 14.9119C3.46964 14.852 3.34453 14.7637 3.24378 14.6531C3.14303 14.5426 3.06908 14.4125 3.02713 14.272C2.98518 14.1316 2.97624 13.9842 3.00094 13.8401L5.11538 1.84008C5.15591 1.60346 5.28495 1.38847 5.479 1.2343C5.67305 1.08012 5.91919 0.996998 6.1726 1.00008H17.802C18.0554 0.996998 18.3016 1.08012 18.4956 1.2343C18.6897 1.38847 18.8187 1.60346 18.8592 1.84008L20.9737 13.8401C20.9984 13.9842 20.9894 14.1316 20.9475 14.272C20.9055 14.4125 20.8316 14.5426 20.7308 14.6531C20.6301 14.7637 20.505 14.852 20.3643 14.9119C20.2236 14.9719 20.0707 15.002 19.9165 15.0001ZM5.30568 13.0001H18.6689L16.9034 3.00008H7.07123L5.30568 13.0001Z" fill="black"/>
</svg>
