<svg width="24" height="24" viewBox="0 0 24 24" fill="none" xmlns="http://www.w3.org/2000/svg">
<g clip-path="url(#clip0)">
<path d="M23.0022 8H0.984756C0.814677 8.00034 0.647317 7.95736 0.498476 7.87513C0.349634 7.79289 0.224223 7.67411 0.134081 7.53C0.046243 7.37798 0 7.20554 0 7.03C0 6.85446 0.046243 6.68202 0.134081 6.53L2.13567 2.53C2.2183 2.37472 2.34045 2.24395 2.48981 2.1509C2.63916 2.05785 2.81043 2.0058 2.98635 2H21.0006C21.1855 2.00056 21.3665 2.05224 21.5237 2.14932C21.6809 2.2464 21.8082 2.38509 21.8914 2.55L23.8929 6.55C23.9697 6.70223 24.0063 6.87154 23.9991 7.04186C23.992 7.21217 23.9414 7.37784 23.8521 7.52312C23.7629 7.6684 23.638 7.78847 23.4892 7.87194C23.3405 7.9554 23.1728 7.99948 23.0022 8ZM2.60604 6H21.3809L20.3802 4H3.60684L2.60604 6Z" fill="black"/>
<path d="M16.9755 18C16.7242 18.0008 16.4818 17.9065 16.2968 17.7359C16.1118 17.5654 15.9979 17.3311 15.9778 17.08L15.2294 8.00001H8.7439L7.99557 17.08C7.98549 17.2115 7.94958 17.3397 7.88988 17.4572C7.83019 17.5747 7.7479 17.6792 7.64774 17.7647C7.54759 17.8502 7.43155 17.915 7.30631 17.9554C7.18106 17.9958 7.04908 18.0109 6.91797 18C6.78679 17.9899 6.6589 17.9539 6.54165 17.8941C6.42441 17.8343 6.32012 17.7518 6.23481 17.6514C6.14949 17.551 6.08482 17.4347 6.04453 17.3092C6.00424 17.1837 5.98911 17.0514 6.00002 16.92L6.83815 6.92001C6.85826 6.66889 6.97219 6.43463 7.15718 6.26407C7.34216 6.0935 7.58456 5.9992 7.83592 6.00001H16.1574C16.4087 5.9992 16.6511 6.0935 16.8361 6.26407C17.0211 6.43463 17.135 6.66889 17.1551 6.92001L17.9933 16.92C18.0041 17.053 17.9883 17.1868 17.9468 17.3136C17.9053 17.4403 17.8388 17.5575 17.7514 17.6581C17.664 17.7588 17.5574 17.8409 17.4379 17.8996C17.3183 17.9583 17.1883 17.9924 17.0553 18H16.9755Z" fill="black"/>
<path d="M21.9914 22.9916C21.7474 22.9937 21.5111 22.9064 21.327 22.7462C21.143 22.586 21.0239 22.364 20.9922 22.122L19.1137 7.99904H4.88526L3.00679 22.122C2.97234 22.3871 2.83403 22.6276 2.62228 22.7907C2.41054 22.9538 2.14271 23.026 1.8777 22.9916C1.6127 22.9571 1.37224 22.8188 1.20922 22.607C1.04619 22.3951 0.973962 22.1272 1.00841 21.8621L3.00679 6.8696C3.03849 6.62763 3.15761 6.40562 3.34167 6.24544C3.52573 6.08525 3.76202 5.99797 4.00597 6.00004H19.993C20.2369 5.99797 20.4732 6.08525 20.6573 6.24544C20.8413 6.40562 20.9605 6.62763 20.9922 6.8696L22.9905 21.8621C23.0087 21.9936 23.0006 22.1273 22.9666 22.2555C22.9326 22.3838 22.8734 22.504 22.7925 22.6091C22.7116 22.7142 22.6106 22.8022 22.4953 22.8679C22.3801 22.9335 22.2529 22.9756 22.1212 22.9916H21.9914Z" fill="black"/>
</g>
<defs>
<clipPath id="clip0">
<rect width="24" height="24" fill="white"/>
</clipPath>
</defs>
</svg>
