<svg width="24" height="24" viewBox="0 0 24 24" fill="none" xmlns="http://www.w3.org/2000/svg">
<path d="M1.99746 23.0002C1.86618 23.0009 1.73604 22.9757 1.6145 22.926C1.49296 22.8762 1.38242 22.8029 1.28921 22.7102C1.19571 22.6172 1.1215 22.5066 1.07086 22.3848C1.02021 22.2629 0.994141 22.1322 0.994141 22.0002C0.994141 21.8682 1.02021 21.7375 1.07086 21.6156C1.1215 21.4937 1.19571 21.3831 1.28921 21.2902L3.28428 19.2902C3.47212 19.1019 3.72688 18.9961 3.99253 18.9961C4.25817 18.9961 4.51293 19.1019 4.70077 19.2902C4.88861 19.4785 4.99414 19.7339 4.99414 20.0002C4.99414 20.2665 4.88861 20.5219 4.70077 20.7102L2.70571 22.7102C2.6125 22.8029 2.50195 22.8762 2.38042 22.926C2.25888 22.9757 2.12874 23.0009 1.99746 23.0002Z" fill="black"/>
<path d="M20.0033 5.00019C19.872 5.00095 19.7419 4.97572 19.6204 4.92596C19.4988 4.87619 19.3883 4.80287 19.2951 4.71019C19.2016 4.61722 19.1274 4.50662 19.0767 4.38476C19.0261 4.2629 19 4.1322 19 4.00019C19 3.86817 19.0261 3.73747 19.0767 3.61561C19.1274 3.49375 19.2016 3.38315 19.2951 3.29019L21.2901 1.29019C21.478 1.10188 21.7327 0.996094 21.9984 0.996094C22.264 0.996094 22.5188 1.10188 22.7066 1.29019C22.8945 1.47849 23 1.73388 23 2.00019C23 2.26649 22.8945 2.52188 22.7066 2.71019L20.7116 4.71019C20.6184 4.80287 20.5078 4.87619 20.3863 4.92596C20.2647 4.97572 20.1346 5.00095 20.0033 5.00019Z" fill="black"/>
<path d="M3.99278 5.00019C3.86149 5.00095 3.73135 4.97572 3.60982 4.92596C3.48828 4.87619 3.37774 4.80287 3.28453 4.71019L1.28946 2.71019C1.10162 2.52188 0.996094 2.26649 0.996094 2.00019C0.996094 1.73388 1.10162 1.47849 1.28946 1.29019C1.4773 1.10188 1.73206 0.996094 1.99771 0.996094C2.26335 0.996094 2.51812 1.10188 2.70596 1.29019L4.70102 3.29019C4.79452 3.38315 4.86873 3.49375 4.91938 3.61561C4.97002 3.73747 4.99609 3.86817 4.99609 4.00019C4.99609 4.1322 4.97002 4.2629 4.91938 4.38476C4.86873 4.50662 4.79452 4.61722 4.70102 4.71019C4.60782 4.80287 4.49727 4.87619 4.37574 4.92596C4.2542 4.97572 4.12406 5.00095 3.99278 5.00019Z" fill="black"/>
<path d="M21.9928 23.0002C21.8615 23.0009 21.7314 22.9757 21.6098 22.926C21.4883 22.8762 21.3777 22.8029 21.2845 22.7102L19.2895 20.7102C19.1965 20.6169 19.1227 20.5063 19.0723 20.3844C19.022 20.2626 18.9961 20.132 18.9961 20.0002C18.9961 19.8683 19.022 19.7378 19.0723 19.6159C19.1227 19.4941 19.1965 19.3834 19.2895 19.2902C19.3825 19.1969 19.4929 19.123 19.6144 19.0725C19.7359 19.0221 19.8662 18.9961 19.9977 18.9961C20.1292 18.9961 20.2595 19.0221 20.381 19.0725C20.5025 19.123 20.6129 19.1969 20.706 19.2902L22.701 21.2902C22.7945 21.3831 22.8687 21.4937 22.9194 21.6156C22.97 21.7375 22.9961 21.8682 22.9961 22.0002C22.9961 22.1322 22.97 22.2629 22.9194 22.3848C22.8687 22.5066 22.7945 22.6172 22.701 22.7102C22.6078 22.8029 22.4973 22.8762 22.3757 22.926C22.2542 22.9757 22.1241 23.0009 21.9928 23.0002Z" fill="black"/>
<path d="M18 21H6C5.20435 21 4.44129 20.6839 3.87868 20.1213C3.31607 19.5587 3 18.7956 3 18V6C3 5.20435 3.31607 4.44129 3.87868 3.87868C4.44129 3.31607 5.20435 3 6 3H18C18.7956 3 19.5587 3.31607 20.1213 3.87868C20.6839 4.44129 21 5.20435 21 6V18C21 18.7956 20.6839 19.5587 20.1213 20.1213C19.5587 20.6839 18.7956 21 18 21ZM6 5C5.73478 5 5.48043 5.10536 5.29289 5.29289C5.10536 5.48043 5 5.73478 5 6V18C5 18.2652 5.10536 18.5196 5.29289 18.7071C5.48043 18.8946 5.73478 19 6 19H18C18.2652 19 18.5196 18.8946 18.7071 18.7071C18.8946 18.5196 19 18.2652 19 18V6C19 5.73478 18.8946 5.48043 18.7071 5.29289C18.5196 5.10536 18.2652 5 18 5H6Z" fill="black"/>
<path d="M15 17H9C8.46957 17 7.96086 16.7893 7.58579 16.4142C7.21071 16.0391 7 15.5304 7 15V9C7 8.46957 7.21071 7.96086 7.58579 7.58579C7.96086 7.21071 8.46957 7 9 7H15C15.5304 7 16.0391 7.21071 16.4142 7.58579C16.7893 7.96086 17 8.46957 17 9V15C17 15.5304 16.7893 16.0391 16.4142 16.4142C16.0391 16.7893 15.5304 17 15 17ZM9 9V15H15V9H9Z" fill="black"/>
</svg>
