<?xml version="1.0" encoding="UTF-8"?>
<svg width="60px" height="60px" viewBox="0 0 60 60" version="1.1" xmlns="http://www.w3.org/2000/svg" xmlns:xlink="http://www.w3.org/1999/xlink">
    <!-- Generator: Sketch 55.2 (78181) - https://sketchapp.com -->
    <title>telegram</title>
    <desc>Created with Sketch.</desc>
    <g id="Desktop-1020" stroke="none" stroke-width="1" fill="none" fill-rule="evenodd">
        <g id="Homapage-/-Desktop-1024px-/-Contacts" transform="translate(-712.000000, -197.000000)">
            <g id="Profile" transform="translate(628.000000, 60.000000)">
                <g id="Group-6" transform="translate(84.000000, 137.000000)">
                    <g id="Group-3">
                        <g id="telegram">
                            <circle id="Oval" fill="#1E96C8" cx="30" cy="30" r="30"></circle>
                            <g id="Group" transform="translate(14.000000, 19.000000)" fill-rule="nonzero">
                                <path d="M26.1125926,0.211453744 C26.1437037,0.19030837 26.8074074,-0.116299559 27.3985185,0.285462555 C27.8548148,0.602643172 28.0725926,1.20528634 27.917037,1.78678414 C26.4755556,8.72246696 25.0237037,15.6581498 23.5822222,22.5938326 C23.5718519,22.6784141 23.4888889,23.3444934 22.8977778,23.7039648 C22.5037037,23.9471366 22.0059259,23.9788546 21.5703704,23.7885463 C21.4562963,23.7356828 21.3422222,23.661674 21.2385185,23.5876652 C17.8162963,20.9656388 14.3940741,18.3436123 10.9718519,15.7110132 L22.9081481,4.76828194 C22.9392593,4.7154185 23.0740741,4.54625551 23.0222222,4.44052863 C22.9807407,4.35594714 22.8355556,4.32422907 22.6385185,4.35594714 C22.4518519,4.37709251 22.2755556,4.45110132 22.12,4.55682819 C17.2148148,7.70748899 12.32,10.8581498 7.41481481,14.0088106 L0.746666667,11.9471366 C0.466666667,11.7356828 0.0725925926,11.3973568 0.103703704,10.9955947 C0.134814815,10.6255507 0.518518519,10.3718062 0.663703704,10.276652 C1.86666667,9.5154185 21.3318519,2.04052863 26.1125926,0.211453744 Z" id="Path" fill="#FFFFFF"></path>
                                <path d="M10.9718519,15.7215859 L10.5466667,22.445815 C10.7022222,22.4352423 10.9303704,22.4140969 11.1896296,22.2977974 C11.5007407,22.1603524 11.7081481,21.9594714 11.8222222,21.8325991 C12.8488889,20.7964758 13.8755556,19.7603524 14.9022222,18.7242291 L10.9718519,15.7215859 Z" id="Path" fill="#A9C9DD"></path>
                                <path d="M10.5362963,22.445815 C10.36,22.445815 10.1525926,22.4140969 9.98666667,22.276652 C9.78962963,22.107489 9.72740741,21.8643172 9.71703704,21.8008811 C9.60296296,21.3251101 8.69037037,18.2484581 7.41481481,14.0193833 L22.12,4.56740088 C22.1822222,4.52511013 22.2651852,4.4722467 22.3792593,4.42995595 C22.5659259,4.35594714 22.9185185,4.27136564 23.0118519,4.40881057 C23.0533333,4.46167401 23.0325926,4.54625551 23.0222222,4.57797357 C23.0222222,4.57797357 23.0014815,4.68370044 22.9081481,4.77885463 C22.7837037,4.90572687 17.7851852,9.48370044 10.9718519,15.7215859 L10.5362963,22.445815 Z" id="Path" fill="#C8DAEA"></path>
                            </g>
                        </g>
                    </g>
                </g>
            </g>
        </g>
    </g>
</svg>