<svg width="24" height="24" viewBox="0 0 24 24" fill="none" xmlns="http://www.w3.org/2000/svg">
<path d="M13.0781 11.3742L16.6168 14.137C16.952 14.3987 17.0113 14.8822 16.7496 15.2174C16.5125 15.521 16.0934 15.5977 15.7674 15.4137L11.32 12.9197C10.9714 12.7234 10.7834 12.3524 10.8048 11.9783L10.8058 11.9588L11.1922 5.31487C11.2168 4.8917 11.5806 4.5687 12.0038 4.59323C12.3963 4.61572 12.704 4.93054 12.7254 5.31487L13.0781 11.3742ZM12 22.5051C17.7922 22.5051 22.5051 17.7922 22.5051 12C22.5051 6.20679 17.7922 1.49489 12 1.49489C6.20779 1.49489 1.49489 6.20679 1.49489 12C1.49489 17.7922 6.20779 22.5051 12 22.5051ZM12 0C18.6174 0 24 5.38261 24 12C24 18.6174 18.6174 24 12 24C5.38261 24 0 18.6174 0 12C0 5.38261 5.38261 0 12 0Z" fill="white"/>
</svg>
