<?xml version="1.0" encoding="UTF-8"?>
<svg xmlns="http://www.w3.org/2000/svg" xmlns:xlink="http://www.w3.org/1999/xlink" width="18px" height="15px" viewBox="0 0 18 15" version="1.1">
    
    <title>twitter</title>
    <desc>Created with Sketch.</desc>
    <defs>
        <path d="M7.93763728,18.3333333 C14.1659084,18.3333333 17.5725604,13.0422863 17.5725604,8.45706602 C17.5725604,8.30847092 17.5725604,8.15987582 17.5622058,8.00597375 C18.224898,7.51242573 18.7943991,6.90743138 19.25,6.20691162 C18.6339034,6.48818092 17.9763885,6.6739248 17.3033417,6.75352931 C18.0126294,6.31835794 18.5407123,5.63906605 18.7943991,4.83240693 C18.1317069,5.23573649 17.4017101,5.52231276 16.6458268,5.67621483 C15.3618607,4.28048226 13.2184656,4.21149168 11.8568403,5.52761972 C10.9767022,6.37673459 10.6039379,7.63979296 10.8783339,8.84447468 C8.15508315,8.70649351 5.61821462,7.3850585 3.89935676,5.21981558 C2.99850957,6.80659899 3.45928773,8.83386074 4.94516787,9.85279858 C4.40673047,9.83687768 3.87864763,9.68828258 3.4075149,9.41762721 C3.4075149,9.43354812 3.4075149,9.44416205 3.4075149,9.46008296 C3.4075149,11.11055 4.5465171,12.5328174 6.12558833,12.8618494 C5.62856919,12.9998306 5.10566363,13.0210584 4.59828993,12.920226 C5.04353624,14.3318795 6.31197051,15.3030546 7.76160966,15.3295895 C6.56048008,16.2954576 5.07977722,16.8208475 3.5576561,16.8208475 C3.2884374,16.8208475 3.0192187,16.8049266 2.75,16.7730848 C4.29283025,17.7920226 6.09452463,18.3333333 7.93763728,18.3333333" id="path-1"/>
    </defs>
    <g id="Desktop" stroke="none" stroke-width="1" fill="none" fill-rule="evenodd">
        <g id="DSKLAD-/-Desktop-/-Product-page_min" transform="translate(-777.000000, -684.000000)">
            <g id="Right-picker" transform="translate(679.000000, 192.000000)">
                <g id="share" transform="translate(1.000000, 453.000000)">
                    <g id="btns" transform="translate(0.000000, 28.000000)">
                        <g id="twitter" transform="translate(88.000000, 0.000000)">
                            <g id="standard-/-twitter" transform="translate(7.000000, 7.000000)">
                                <mask id="mask-2" fill="white">
                                    <use xlink:href="#path-1"/>
                                </mask>
                                <use id="XMLID_22_" fill="#333333" fill-rule="nonzero" xlink:href="#path-1"/>
                                <g id="Neutral-/-N800" mask="url(#mask-2)" fill="#333333" fill-rule="evenodd">
                                    <rect id="N800" x="0" y="0" width="22.2222222" height="22.2222222"/>
                                </g>
                            </g>
                        </g>
                    </g>
                </g>
            </g>
        </g>
    </g>
</svg>
