<?xml version="1.0" encoding="UTF-8"?>
<svg width="60px" height="60px" viewBox="0 0 60 60" version="1.1" xmlns="http://www.w3.org/2000/svg" xmlns:xlink="http://www.w3.org/1999/xlink">
    <!-- Generator: Sketch 55.2 (78181) - https://sketchapp.com -->
    <title>viber</title>
    <desc>Created with Sketch.</desc>
    <g id="Desktop-1020" stroke="none" stroke-width="1" fill="none" fill-rule="evenodd">
        <g id="Homapage-/-Desktop-1024px-/-Contacts" transform="translate(-876.000000, -197.000000)">
            <g id="Profile" transform="translate(628.000000, 60.000000)">
                <g id="Group-6" transform="translate(84.000000, 137.000000)">
                    <g id="Group-5" transform="translate(164.000000, 0.000000)">
                        <g id="viber">
                            <circle id="Oval" fill="#7C519B" cx="30" cy="30" r="30"></circle>
                            <path d="M40.9551686,19.7264342 C40.2490918,19.0867558 37.3909261,17.0470768 31.0185938,17.0198072 C31.0185938,17.0198072 23.5063996,16.5769201 19.8475761,19.879643 C17.8124136,21.8808524 17.0951331,24.8172622 17.0172648,28.4534896 C16.9393964,32.0898387 16.8448773,38.9029108 23.5230504,40.7512158 L23.5285593,40.7512158 L23.5230504,43.5727038 C23.5230504,43.5727038 23.4786072,44.7155303 24.2459017,44.9451912 C25.1689948,45.2295739 25.7138878,44.3601736 26.5979848,43.425095 C27.0817839,42.9111122 27.7489884,42.1565119 28.2550091,41.5822683 C32.8257221,41.9596597 36.3345035,41.0956768 36.7348014,40.9699811 C37.6578946,40.6747027 42.8791614,40.0184677 43.7243242,33.2052739 C44.6028504,26.1733148 43.3017428,21.7332437 40.9551686,19.7264342 Z M41.7281578,32.6912911 C41.0108154,38.3779106 36.7792446,38.7388672 36.0008084,38.984963 C35.6671752,39.0888065 32.581099,39.8434676 28.7054449,39.5974328 C28.7054449,39.5974328 25.8139777,43.0258514 24.9131681,43.9172256 C24.6184691,44.2069649 24.2959776,44.1796344 24.3015485,43.6054516 C24.3015485,43.2283036 24.32377,38.9194064 24.32377,38.9194064 C24.3181992,38.9194064 24.3181992,38.9194064 24.32377,38.9194064 C18.6631473,37.3773363 18.9967805,31.5757342 19.0579363,28.5409592 C19.1190921,25.506245 19.7029811,23.0182615 21.426732,21.3450783 C24.52395,18.5836686 30.9018531,18.9938079 30.9018531,18.9938079 C36.2899365,19.0156601 38.870054,20.6122694 39.4705937,21.1481652 C41.4556184,22.8214093 42.4677217,26.8240716 41.7281578,32.6912911 L41.7281578,32.6912911 Z M33.9990092,28.2730721 C34.0212308,28.7432897 33.3039503,28.7761593 33.2817287,28.30582 C33.2205111,27.1028543 32.6477637,26.5178367 31.4689677,26.4522193 C30.9907395,26.424828 31.0352445,25.7194712 31.50784,25.7468625 C33.0593272,25.8288539 33.9212027,26.7037324 33.9990092,28.2730721 Z M35.1278531,28.8908984 C35.1833761,26.5724367 33.7099429,24.7570622 30.912933,24.5547925 C30.4402756,24.5219838 30.4903516,23.8165662 30.9630708,23.8493749 C34.1881712,24.0790967 35.9062893,26.2608453 35.8451335,28.9073332 C35.8395627,29.3775508 35.1166495,29.3557595 35.1278531,28.8908984 Z M37.7413033,29.6236465 C37.7467809,30.093925 37.0239296,30.0993424 37.0239296,29.6291248 C36.9905663,25.1726797 33.9712786,22.7448353 30.3068223,22.7175049 C29.834165,22.7120266 29.834165,22.0121481 30.3068223,22.0121481 C34.4049399,22.0394786 37.7023377,24.8226796 37.7413033,29.6236465 Z M37.1128778,34.9877789 L37.1128778,34.9987963 C36.512338,36.0377184 35.3891269,37.1860841 34.2325524,36.81971 L34.2214107,36.8032144 C33.0481236,36.4806664 30.2846627,35.0808485 28.5386283,33.7137784 C27.6378186,33.0138391 26.8148154,32.188204 26.1809123,31.3953167 C25.6082269,30.6898991 25.0299706,29.8532466 24.4683651,28.8471941 C23.2839981,26.7419585 23.0226624,25.8014625 23.0226624,25.8014625 C22.650095,24.6641143 23.8122404,23.5595139 24.8742339,22.969018 L24.8854375,22.969018 C25.3969672,22.7064875 25.8862752,22.794018 26.2143376,23.1821833 C26.2143376,23.1821833 26.9038875,23.9913836 27.1985246,24.3906881 C27.4765729,24.7624796 27.8491403,25.3584537 28.0437493,25.692019 C28.3829534,26.2879931 28.1715698,26.8949847 27.8379985,27.1464369 L27.1707321,27.6714371 C26.8315899,27.9393242 26.8760331,28.4369331 26.8760331,28.4369331 C26.8760331,28.4369331 27.865791,32.1169866 31.5635487,33.0465869 C31.5635487,33.0465869 32.0696313,33.0903521 32.3419849,32.7567868 L32.8758599,32.1006126 C33.1315628,31.7725256 33.7488771,31.5647777 34.3549259,31.898343 C35.1723582,32.3521258 36.2121301,33.0575434 36.9016799,33.6973437 C37.2908362,34.0089959 37.3797844,34.4848135 37.1128778,34.9877789 L37.1128778,34.9877789 Z" id="Shape" fill="#FFFFFF" fill-rule="nonzero"></path>
                        </g>
                    </g>
                </g>
            </g>
        </g>
    </g>
</svg>