<svg width="24" height="24" viewBox="0 0 24 24" fill="none" xmlns="http://www.w3.org/2000/svg">
<path d="M19.6353 7.6781C19.7453 7.28749 19.6353 7 19.1066 7H17.3572C16.9116 7 16.7067 7.24687 16.5968 7.52188C16.5968 7.52188 15.7058 9.80621 14.4464 11.2875C14.0395 11.7156 13.8523 11.8531 13.6296 11.8531C13.5197 11.8531 13.3504 11.7156 13.3504 11.325V7.6781C13.3504 7.20936 13.2256 7 12.8573 7H10.1069C9.82766 7 9.66134 7.21876 9.66134 7.42187C9.66134 7.86558 10.291 7.9687 10.3564 9.21871V11.9312C10.3564 12.525 10.2554 12.6343 10.0326 12.6343C9.43859 12.6343 7.99503 10.3406 7.13962 7.71561C6.96738 7.20625 6.79802 7 6.34954 7H4.6C4.10101 7 4 7.24687 4 7.52188C4 8.00932 4.59405 10.4312 6.76529 13.6312C8.2118 15.8155 10.2494 17 12.1028 17C13.2166 17 13.3533 16.7375 13.3533 16.2844C13.3533 14.1968 13.2523 13.9999 13.8107 13.9999C14.0691 13.9999 14.5146 14.1374 15.5543 15.1905C16.7423 16.4405 16.9384 17 17.6037 17H19.3531C19.8522 17 20.1047 16.7375 19.9591 16.2186C19.6264 15.1281 17.3779 12.8843 17.277 12.7343C17.0186 12.3843 17.0928 12.228 17.277 11.9155C17.28 11.9125 19.4155 8.74997 19.6353 7.6781Z" fill="#5E6C84"/>
</svg>
