<?xml version="1.0" encoding="UTF-8"?>
<svg width="60px" height="60px" viewBox="0 0 24 24" version="1.1" xmlns="http://www.w3.org/2000/svg" xmlns:xlink="http://www.w3.org/1999/xlink">
    <defs>
        <linearGradient x1="50%" y1="0%" x2="50%" y2="100%" id="linearGradient-1">
            <stop stop-color="#E5E5E5" offset="0%"></stop>
            <stop stop-color="#CDCDCD" offset="100%"></stop>
        </linearGradient>
        <linearGradient x1="50%" y1="0%" x2="50%" y2="100%" id="linearGradient-2">
            <stop stop-color="#CCCCCC" offset="0%"></stop>
            <stop stop-color="#B2B2B2" offset="100%"></stop>
        </linearGradient>
    </defs>
    <g id="illustrations-/-Warranty-black" stroke="none" stroke-width="1" fill="none" fill-rule="evenodd">
        <g id="Warranty" transform="translate(3.000500, 0.000030)">
            <path d="M17.479,8.26417027 C17.479,9.14217027 16.374,9.83817027 16.113,10.6311703 C15.842,11.4521703 16.314,12.6561703 15.81,13.3401703 C15.301,14.0301703 13.994,13.9561703 13.294,14.4591703 C12.602,14.9571703 12.272,16.2111703 11.441,16.4771703 C10.638,16.7351703 9.629,15.9211703 8.739,15.9211703 C7.85,15.9211703 6.84,16.7351703 6.038,16.4771703 C5.206,16.2111703 4.876,14.9571703 4.184,14.4591703 C3.484,13.9561703 2.177,14.0301703 1.668,13.3401703 C1.165,12.6561703 1.636,11.4521703 1.366,10.6311703 C1.105,9.83817027 2.13162821e-14,9.14217027 2.13162821e-14,8.26417027 C2.13162821e-14,7.38517027 1.105,6.69017027 1.366,5.89717027 C1.636,5.07517027 1.165,3.87217027 1.668,3.18817027 C2.177,2.49717027 3.485,2.57117027 4.184,2.06917027 C4.876,1.57117027 5.206,0.317170268 6.038,0.0501702681 C6.84,-0.206829732 7.85,0.607170268 8.739,0.607170268 C9.629,0.607170268 10.638,-0.206829732 11.441,0.0501702681 C12.272,0.317170268 12.602,1.57117027 13.294,2.06917027 C13.994,2.57117027 15.301,2.49717027 15.81,3.18817027 C16.314,3.87217027 15.842,5.07517027 16.113,5.89717027 C16.374,6.69017027 17.479,7.38517027 17.479,8.26417027" id="Fill-1" fill="url(#linearGradient-1)"></path>
            <path d="M14.1059,8.41697027 C14.1059,11.3749703 11.7039,13.7729703 8.7389,13.7729703 C5.7749,13.7729703 3.3729,11.3749703 3.3729,8.41697027 C3.3729,5.45897027 5.7749,3.06097027 8.7389,3.06097027 C11.7039,3.06097027 14.1059,5.45897027 14.1059,8.41697027" id="Fill-4" fill="url(#linearGradient-2)"></path>
            <path d="M9.7314,16.7938703 C9.3804,16.6618703 9.0174,16.5248703 8.7394,16.5248703 C8.4614,16.5248703 8.0984,16.6618703 7.7474,16.7938703 C7.3204,16.9558703 6.8524,17.1318703 6.3754,17.1318703 C6.2014,17.1318703 6.0274,17.1088703 5.8534,17.0528703 C5.1734,16.8348703 4.7814,16.2358703 4.4354,15.7068703 C4.3424,15.5658703 4.2494,15.4248703 4.1544,15.2978703 L0.8374,20.9368703 L4.3034,21.0188703 L6.0644,23.9998703 L10.2044,16.9638703 C10.0424,16.9098703 9.8844,16.8528703 9.7314,16.7938703" id="Fill-6" fill="#CCCCCC"></path>
            <path d="M13.3345,15.2821703 C13.2365,15.4131703 13.1395,15.5601703 13.0435,15.7071703 C12.6975,16.2361703 12.3055,16.8351703 11.6255,17.0531703 C11.4605,17.1061703 11.2945,17.1301703 11.1305,17.1321703 L9.2615,20.3071703 L11.4345,24.0001703 L13.1945,21.0181703 L16.6605,20.9361703 L13.3345,15.2821703 Z" id="Fill-8" fill="#B2B2B2"></path>
        </g>
    </g>
</svg>