<?xml version="1.0" encoding="UTF-8"?>
<svg width="60px" height="60px" viewBox="0 0 60 60" version="1.1" xmlns="http://www.w3.org/2000/svg" xmlns:xlink="http://www.w3.org/1999/xlink">
    <!-- Generator: Sketch 55.2 (78181) - https://sketchapp.com -->
    <title>whatsapp</title>
    <desc>Created with Sketch.</desc>
    <g id="Desktop-1020" stroke="none" stroke-width="1" fill="none" fill-rule="evenodd">
        <g id="Homapage-/-Desktop-1024px-/-Contacts" transform="translate(-794.000000, -197.000000)">
            <g id="Profile" transform="translate(628.000000, 60.000000)">
                <g id="Group-6" transform="translate(84.000000, 137.000000)">
                    <g id="Group-4" transform="translate(80.000000, 0.000000)">
                        <g id="whatsapp" transform="translate(2.000000, 0.000000)">
                            <circle id="Oval" fill="#67C15E" cx="30" cy="30" r="30"></circle>
                            <path d="M26.0874375,23.1113437 C25.8159687,22.4612188 25.610125,22.4365 25.198875,22.419875 C25.058875,22.4117813 24.9029062,22.4036875 24.729875,22.4036875 C24.1948125,22.4036875 23.6354687,22.5600938 23.2979375,22.9057187 C22.8866875,23.3255 21.8662187,24.3048437 21.8662187,26.3129687 C21.8662187,28.3213125 23.33075,30.2635938 23.5282812,30.5355 C23.734125,30.80675 26.383625,34.9879375 30.4976562,36.692 C33.7148125,38.0252813 34.6694375,37.9016875 35.4015938,37.7455 C36.4712813,37.5151563 37.8124375,36.7245938 38.1499687,35.7701875 C38.4872812,34.8153438 38.4872812,34.0005 38.3884063,33.8276875 C38.28975,33.654875 38.0180625,33.5564375 37.6068125,33.350375 C37.1955625,33.1445312 35.1959688,32.156875 34.8175313,32.0251875 C34.4471875,31.8854062 34.0934687,31.9348437 33.8139063,32.3299063 C33.4188438,32.881375 33.0323125,33.4411562 32.7195,33.7784688 C32.47275,34.0418437 32.069375,34.074875 31.7320625,33.934875 C31.2794688,33.745875 30.0124688,33.3009375 28.4490625,31.910125 C27.239375,30.832125 26.4166563,29.49075 26.1782188,29.087375 C25.9395625,28.6759063 26.1535,28.4370313 26.3427188,28.215 C26.5485625,27.9597188 26.745875,27.7788125 26.9515,27.5399375 C27.1573438,27.3012812 27.2724063,27.1779062 27.4040938,26.8979062 C27.5440938,26.6264375 27.4452188,26.3464375 27.3465625,26.1405937 C27.2476875,25.9343125 26.4249687,23.9259687 26.0874375,23.1113437 Z M29.9958437,16 C22.2779063,16 16,22.2796563 16,29.9997812 C16,33.0614063 16.9874375,35.901 18.6659062,38.2055312 L16.921375,43.4071875 L22.302625,41.687375 C24.5159375,43.1523438 27.157125,44 30.0041563,44 C37.7220937,44 44,37.7199063 44,30.0002188 C44,22.2800937 37.7220937,16.0004375 30.0041563,16.0004375 L29.9960625,16.0004375 L29.9960625,16 L29.9958437,16 Z" id="WhatsApp_1_" fill="#FFFFFF"></path>
                        </g>
                    </g>
                </g>
            </g>
        </g>
    </g>
</svg>